%TF.GenerationSoftware,KiCad,Pcbnew,(5.1.9)-1*%
%TF.CreationDate,2022-04-18T12:46:42-05:00*%
%TF.ProjectId,Controllers,436f6e74-726f-46c6-9c65-72732e6b6963,rev?*%
%TF.SameCoordinates,Original*%
%TF.FileFunction,Legend,Top*%
%TF.FilePolarity,Positive*%
%FSLAX46Y46*%
G04 Gerber Fmt 4.6, Leading zero omitted, Abs format (unit mm)*
G04 Created by KiCad (PCBNEW (5.1.9)-1) date 2022-04-18 12:46:42*
%MOMM*%
%LPD*%
G01*
G04 APERTURE LIST*
%ADD10C,0.177800*%
%ADD11C,0.010000*%
%ADD12C,0.200000*%
%ADD13C,0.127000*%
%ADD14C,0.120000*%
%ADD15C,0.150000*%
%ADD16C,1.778000*%
%ADD17C,2.286000*%
%ADD18R,1.700000X1.700000*%
%ADD19O,1.700000X1.700000*%
%ADD20C,2.200000*%
%ADD21C,1.524000*%
%ADD22O,3.048000X1.850000*%
G04 APERTURE END LIST*
D10*
X122161239Y-72939728D02*
X122499906Y-72939728D01*
X122645049Y-73471919D02*
X122161239Y-73471919D01*
X122161239Y-72455919D01*
X122645049Y-72455919D01*
X123080477Y-72939728D02*
X123419144Y-72939728D01*
X123564287Y-73471919D02*
X123080477Y-73471919D01*
X123080477Y-72455919D01*
X123564287Y-72455919D01*
X123902953Y-72455919D02*
X124531906Y-72455919D01*
X124193239Y-72842966D01*
X124338382Y-72842966D01*
X124435144Y-72891347D01*
X124483525Y-72939728D01*
X124531906Y-73036490D01*
X124531906Y-73278395D01*
X124483525Y-73375157D01*
X124435144Y-73423538D01*
X124338382Y-73471919D01*
X124048096Y-73471919D01*
X123951334Y-73423538D01*
X123902953Y-73375157D01*
X125499525Y-73471919D02*
X124918953Y-73471919D01*
X125209239Y-73471919D02*
X125209239Y-72455919D01*
X125112477Y-72601061D01*
X125015715Y-72697823D01*
X124918953Y-72746204D01*
X125983334Y-73471919D02*
X126176858Y-73471919D01*
X126273620Y-73423538D01*
X126322001Y-73375157D01*
X126418763Y-73230014D01*
X126467144Y-73036490D01*
X126467144Y-72649442D01*
X126418763Y-72552680D01*
X126370382Y-72504300D01*
X126273620Y-72455919D01*
X126080096Y-72455919D01*
X125983334Y-72504300D01*
X125934953Y-72552680D01*
X125886572Y-72649442D01*
X125886572Y-72891347D01*
X125934953Y-72988109D01*
X125983334Y-73036490D01*
X126080096Y-73084871D01*
X126273620Y-73084871D01*
X126370382Y-73036490D01*
X126418763Y-72988109D01*
X126467144Y-72891347D01*
X126902572Y-73471919D02*
X126902572Y-72455919D01*
X126902572Y-72939728D02*
X127483144Y-72939728D01*
X127483144Y-73471919D02*
X127483144Y-72455919D01*
X129224858Y-73471919D02*
X128741049Y-73471919D01*
X128741049Y-72455919D01*
X129998953Y-73471919D02*
X129998953Y-72939728D01*
X129950572Y-72842966D01*
X129853810Y-72794585D01*
X129660287Y-72794585D01*
X129563525Y-72842966D01*
X129998953Y-73423538D02*
X129902191Y-73471919D01*
X129660287Y-73471919D01*
X129563525Y-73423538D01*
X129515144Y-73326776D01*
X129515144Y-73230014D01*
X129563525Y-73133252D01*
X129660287Y-73084871D01*
X129902191Y-73084871D01*
X129998953Y-73036490D01*
X130482763Y-73471919D02*
X130482763Y-72455919D01*
X130482763Y-72842966D02*
X130579525Y-72794585D01*
X130773049Y-72794585D01*
X130869810Y-72842966D01*
X130918191Y-72891347D01*
X130966572Y-72988109D01*
X130966572Y-73278395D01*
X130918191Y-73375157D01*
X130869810Y-73423538D01*
X130773049Y-73471919D01*
X130579525Y-73471919D01*
X130482763Y-73423538D01*
X132708287Y-73471919D02*
X132127715Y-73471919D01*
X132418001Y-73471919D02*
X132418001Y-72455919D01*
X132321239Y-72601061D01*
X132224477Y-72697823D01*
X132127715Y-72746204D01*
X133337239Y-72455919D02*
X133434001Y-72455919D01*
X133530763Y-72504300D01*
X133579144Y-72552680D01*
X133627525Y-72649442D01*
X133675906Y-72842966D01*
X133675906Y-73084871D01*
X133627525Y-73278395D01*
X133579144Y-73375157D01*
X133530763Y-73423538D01*
X133434001Y-73471919D01*
X133337239Y-73471919D01*
X133240477Y-73423538D01*
X133192096Y-73375157D01*
X133143715Y-73278395D01*
X133095334Y-73084871D01*
X133095334Y-72842966D01*
X133143715Y-72649442D01*
X133192096Y-72552680D01*
X133240477Y-72504300D01*
X133337239Y-72455919D01*
X125644668Y-75173719D02*
X125160858Y-75173719D01*
X125160858Y-74157719D01*
X126418763Y-74496385D02*
X126418763Y-75173719D01*
X125983334Y-74496385D02*
X125983334Y-75028576D01*
X126031715Y-75125338D01*
X126128477Y-75173719D01*
X126273620Y-75173719D01*
X126370382Y-75125338D01*
X126418763Y-75076957D01*
X126902572Y-75173719D02*
X126902572Y-74157719D01*
X126999334Y-74786671D02*
X127289620Y-75173719D01*
X127289620Y-74496385D02*
X126902572Y-74883433D01*
X128112096Y-75125338D02*
X128015334Y-75173719D01*
X127821810Y-75173719D01*
X127725049Y-75125338D01*
X127676668Y-75028576D01*
X127676668Y-74641528D01*
X127725049Y-74544766D01*
X127821810Y-74496385D01*
X128015334Y-74496385D01*
X128112096Y-74544766D01*
X128160477Y-74641528D01*
X128160477Y-74738290D01*
X127676668Y-74835052D01*
X129370001Y-75173719D02*
X129370001Y-74157719D01*
X129708668Y-74883433D01*
X130047334Y-74157719D01*
X130047334Y-75173719D01*
X130966572Y-75173719D02*
X130966572Y-74641528D01*
X130918191Y-74544766D01*
X130821430Y-74496385D01*
X130627906Y-74496385D01*
X130531144Y-74544766D01*
X130966572Y-75125338D02*
X130869810Y-75173719D01*
X130627906Y-75173719D01*
X130531144Y-75125338D01*
X130482763Y-75028576D01*
X130482763Y-74931814D01*
X130531144Y-74835052D01*
X130627906Y-74786671D01*
X130869810Y-74786671D01*
X130966572Y-74738290D01*
X131402001Y-75125338D02*
X131498763Y-75173719D01*
X131692287Y-75173719D01*
X131789049Y-75125338D01*
X131837430Y-75028576D01*
X131837430Y-74980195D01*
X131789049Y-74883433D01*
X131692287Y-74835052D01*
X131547144Y-74835052D01*
X131450382Y-74786671D01*
X131402001Y-74689909D01*
X131402001Y-74641528D01*
X131450382Y-74544766D01*
X131547144Y-74496385D01*
X131692287Y-74496385D01*
X131789049Y-74544766D01*
X132418001Y-75173719D02*
X132321239Y-75125338D01*
X132272858Y-75076957D01*
X132224477Y-74980195D01*
X132224477Y-74689909D01*
X132272858Y-74593147D01*
X132321239Y-74544766D01*
X132418001Y-74496385D01*
X132563144Y-74496385D01*
X132659906Y-74544766D01*
X132708287Y-74593147D01*
X132756668Y-74689909D01*
X132756668Y-74980195D01*
X132708287Y-75076957D01*
X132659906Y-75125338D01*
X132563144Y-75173719D01*
X132418001Y-75173719D01*
X133192096Y-74496385D02*
X133192096Y-75173719D01*
X133192096Y-74593147D02*
X133240477Y-74544766D01*
X133337239Y-74496385D01*
X133482382Y-74496385D01*
X133579144Y-74544766D01*
X133627525Y-74641528D01*
X133627525Y-75173719D01*
X121096858Y-76875519D02*
X121096858Y-75859519D01*
X121532287Y-76827138D02*
X121629049Y-76875519D01*
X121822572Y-76875519D01*
X121919334Y-76827138D01*
X121967715Y-76730376D01*
X121967715Y-76681995D01*
X121919334Y-76585233D01*
X121822572Y-76536852D01*
X121677430Y-76536852D01*
X121580668Y-76488471D01*
X121532287Y-76391709D01*
X121532287Y-76343328D01*
X121580668Y-76246566D01*
X121677430Y-76198185D01*
X121822572Y-76198185D01*
X121919334Y-76246566D01*
X122403144Y-76875519D02*
X122403144Y-75859519D01*
X122838572Y-76875519D02*
X122838572Y-76343328D01*
X122790191Y-76246566D01*
X122693430Y-76198185D01*
X122548287Y-76198185D01*
X122451525Y-76246566D01*
X122403144Y-76294947D01*
X123757810Y-76875519D02*
X123757810Y-76343328D01*
X123709430Y-76246566D01*
X123612668Y-76198185D01*
X123419144Y-76198185D01*
X123322382Y-76246566D01*
X123757810Y-76827138D02*
X123661049Y-76875519D01*
X123419144Y-76875519D01*
X123322382Y-76827138D01*
X123274001Y-76730376D01*
X123274001Y-76633614D01*
X123322382Y-76536852D01*
X123419144Y-76488471D01*
X123661049Y-76488471D01*
X123757810Y-76440090D01*
X124241620Y-76198185D02*
X124241620Y-76875519D01*
X124241620Y-76294947D02*
X124290001Y-76246566D01*
X124386763Y-76198185D01*
X124531906Y-76198185D01*
X124628668Y-76246566D01*
X124677049Y-76343328D01*
X124677049Y-76875519D01*
X125934953Y-76875519D02*
X125934953Y-75859519D01*
X126176858Y-75859519D01*
X126322001Y-75907900D01*
X126418763Y-76004661D01*
X126467144Y-76101423D01*
X126515525Y-76294947D01*
X126515525Y-76440090D01*
X126467144Y-76633614D01*
X126418763Y-76730376D01*
X126322001Y-76827138D01*
X126176858Y-76875519D01*
X125934953Y-76875519D01*
X127338001Y-76827138D02*
X127241239Y-76875519D01*
X127047715Y-76875519D01*
X126950953Y-76827138D01*
X126902572Y-76730376D01*
X126902572Y-76343328D01*
X126950953Y-76246566D01*
X127047715Y-76198185D01*
X127241239Y-76198185D01*
X127338001Y-76246566D01*
X127386382Y-76343328D01*
X127386382Y-76440090D01*
X126902572Y-76536852D01*
X127773430Y-76827138D02*
X127870191Y-76875519D01*
X128063715Y-76875519D01*
X128160477Y-76827138D01*
X128208858Y-76730376D01*
X128208858Y-76681995D01*
X128160477Y-76585233D01*
X128063715Y-76536852D01*
X127918572Y-76536852D01*
X127821810Y-76488471D01*
X127773430Y-76391709D01*
X127773430Y-76343328D01*
X127821810Y-76246566D01*
X127918572Y-76198185D01*
X128063715Y-76198185D01*
X128160477Y-76246566D01*
X128644287Y-76875519D02*
X128644287Y-75859519D01*
X129079715Y-76875519D02*
X129079715Y-76343328D01*
X129031334Y-76246566D01*
X128934572Y-76198185D01*
X128789430Y-76198185D01*
X128692668Y-76246566D01*
X128644287Y-76294947D01*
X129563525Y-76198185D02*
X129563525Y-77214185D01*
X129563525Y-76246566D02*
X129660287Y-76198185D01*
X129853810Y-76198185D01*
X129950572Y-76246566D01*
X129998953Y-76294947D01*
X130047334Y-76391709D01*
X130047334Y-76681995D01*
X129998953Y-76778757D01*
X129950572Y-76827138D01*
X129853810Y-76875519D01*
X129660287Y-76875519D01*
X129563525Y-76827138D01*
X130918191Y-76875519D02*
X130918191Y-76343328D01*
X130869810Y-76246566D01*
X130773049Y-76198185D01*
X130579525Y-76198185D01*
X130482763Y-76246566D01*
X130918191Y-76827138D02*
X130821430Y-76875519D01*
X130579525Y-76875519D01*
X130482763Y-76827138D01*
X130434382Y-76730376D01*
X130434382Y-76633614D01*
X130482763Y-76536852D01*
X130579525Y-76488471D01*
X130821430Y-76488471D01*
X130918191Y-76440090D01*
X131402001Y-76198185D02*
X131402001Y-76875519D01*
X131402001Y-76294947D02*
X131450382Y-76246566D01*
X131547144Y-76198185D01*
X131692287Y-76198185D01*
X131789049Y-76246566D01*
X131837430Y-76343328D01*
X131837430Y-76875519D01*
X132756668Y-76875519D02*
X132756668Y-75859519D01*
X132756668Y-76827138D02*
X132659906Y-76875519D01*
X132466382Y-76875519D01*
X132369620Y-76827138D01*
X132321239Y-76778757D01*
X132272858Y-76681995D01*
X132272858Y-76391709D01*
X132321239Y-76294947D01*
X132369620Y-76246566D01*
X132466382Y-76198185D01*
X132659906Y-76198185D01*
X132756668Y-76246566D01*
X133627525Y-76827138D02*
X133530763Y-76875519D01*
X133337239Y-76875519D01*
X133240477Y-76827138D01*
X133192096Y-76730376D01*
X133192096Y-76343328D01*
X133240477Y-76246566D01*
X133337239Y-76198185D01*
X133530763Y-76198185D01*
X133627525Y-76246566D01*
X133675906Y-76343328D01*
X133675906Y-76440090D01*
X133192096Y-76536852D01*
X124580287Y-78528938D02*
X124725430Y-78577319D01*
X124967334Y-78577319D01*
X125064096Y-78528938D01*
X125112477Y-78480557D01*
X125160858Y-78383795D01*
X125160858Y-78287033D01*
X125112477Y-78190271D01*
X125064096Y-78141890D01*
X124967334Y-78093509D01*
X124773810Y-78045128D01*
X124677049Y-77996747D01*
X124628668Y-77948366D01*
X124580287Y-77851604D01*
X124580287Y-77754842D01*
X124628668Y-77658080D01*
X124677049Y-77609700D01*
X124773810Y-77561319D01*
X125015715Y-77561319D01*
X125160858Y-77609700D01*
X125596287Y-77899985D02*
X125596287Y-78915985D01*
X125596287Y-77948366D02*
X125693049Y-77899985D01*
X125886572Y-77899985D01*
X125983334Y-77948366D01*
X126031715Y-77996747D01*
X126080096Y-78093509D01*
X126080096Y-78383795D01*
X126031715Y-78480557D01*
X125983334Y-78528938D01*
X125886572Y-78577319D01*
X125693049Y-78577319D01*
X125596287Y-78528938D01*
X126515525Y-78577319D02*
X126515525Y-77899985D01*
X126515525Y-78093509D02*
X126563906Y-77996747D01*
X126612287Y-77948366D01*
X126709049Y-77899985D01*
X126805810Y-77899985D01*
X127144477Y-78577319D02*
X127144477Y-77899985D01*
X127144477Y-77561319D02*
X127096096Y-77609700D01*
X127144477Y-77658080D01*
X127192858Y-77609700D01*
X127144477Y-77561319D01*
X127144477Y-77658080D01*
X127628287Y-77899985D02*
X127628287Y-78577319D01*
X127628287Y-77996747D02*
X127676668Y-77948366D01*
X127773430Y-77899985D01*
X127918572Y-77899985D01*
X128015334Y-77948366D01*
X128063715Y-78045128D01*
X128063715Y-78577319D01*
X128982953Y-77899985D02*
X128982953Y-78722461D01*
X128934572Y-78819223D01*
X128886191Y-78867604D01*
X128789430Y-78915985D01*
X128644287Y-78915985D01*
X128547525Y-78867604D01*
X128982953Y-78528938D02*
X128886191Y-78577319D01*
X128692668Y-78577319D01*
X128595906Y-78528938D01*
X128547525Y-78480557D01*
X128499144Y-78383795D01*
X128499144Y-78093509D01*
X128547525Y-77996747D01*
X128595906Y-77948366D01*
X128692668Y-77899985D01*
X128886191Y-77899985D01*
X128982953Y-77948366D01*
X130192477Y-77658080D02*
X130240858Y-77609700D01*
X130337620Y-77561319D01*
X130579525Y-77561319D01*
X130676287Y-77609700D01*
X130724668Y-77658080D01*
X130773049Y-77754842D01*
X130773049Y-77851604D01*
X130724668Y-77996747D01*
X130144096Y-78577319D01*
X130773049Y-78577319D01*
X131402001Y-77561319D02*
X131498763Y-77561319D01*
X131595525Y-77609700D01*
X131643906Y-77658080D01*
X131692287Y-77754842D01*
X131740668Y-77948366D01*
X131740668Y-78190271D01*
X131692287Y-78383795D01*
X131643906Y-78480557D01*
X131595525Y-78528938D01*
X131498763Y-78577319D01*
X131402001Y-78577319D01*
X131305239Y-78528938D01*
X131256858Y-78480557D01*
X131208477Y-78383795D01*
X131160096Y-78190271D01*
X131160096Y-77948366D01*
X131208477Y-77754842D01*
X131256858Y-77658080D01*
X131305239Y-77609700D01*
X131402001Y-77561319D01*
X132127715Y-77658080D02*
X132176096Y-77609700D01*
X132272858Y-77561319D01*
X132514763Y-77561319D01*
X132611525Y-77609700D01*
X132659906Y-77658080D01*
X132708287Y-77754842D01*
X132708287Y-77851604D01*
X132659906Y-77996747D01*
X132079334Y-78577319D01*
X132708287Y-78577319D01*
X133095334Y-77658080D02*
X133143715Y-77609700D01*
X133240477Y-77561319D01*
X133482382Y-77561319D01*
X133579144Y-77609700D01*
X133627525Y-77658080D01*
X133675906Y-77754842D01*
X133675906Y-77851604D01*
X133627525Y-77996747D01*
X133046953Y-78577319D01*
X133675906Y-78577319D01*
D11*
%TO.C,G\u002A\u002A\u002A*%
G36*
X47112256Y-25764109D02*
G01*
X47164564Y-25773752D01*
X47189972Y-25782069D01*
X47243519Y-25814734D01*
X47303750Y-25866129D01*
X47364754Y-25929902D01*
X47420622Y-25999700D01*
X47465442Y-26069172D01*
X47476151Y-26089613D01*
X47521120Y-26201606D01*
X47547182Y-26312294D01*
X47555564Y-26419092D01*
X47547493Y-26519415D01*
X47524195Y-26610679D01*
X47486899Y-26690299D01*
X47436831Y-26755689D01*
X47375218Y-26804266D01*
X47303287Y-26833444D01*
X47222265Y-26840638D01*
X47133379Y-26823265D01*
X47128632Y-26821664D01*
X47050948Y-26781924D01*
X46974561Y-26718837D01*
X46903193Y-26637016D01*
X46840566Y-26541074D01*
X46790403Y-26435626D01*
X46770105Y-26377334D01*
X46755592Y-26326903D01*
X46745140Y-26285609D01*
X46740920Y-26262064D01*
X46740912Y-26261560D01*
X46748671Y-26243575D01*
X46767267Y-26244755D01*
X46789675Y-26262616D01*
X46803938Y-26283851D01*
X46832353Y-26320701D01*
X46866751Y-26347000D01*
X46920883Y-26366494D01*
X46968382Y-26362483D01*
X47015731Y-26333707D01*
X47037259Y-26313806D01*
X47070081Y-26277608D01*
X47086349Y-26246949D01*
X47091530Y-26209968D01*
X47091740Y-26195603D01*
X47087605Y-26148740D01*
X47071136Y-26114146D01*
X47048561Y-26088704D01*
X47015234Y-26060710D01*
X46980964Y-26048166D01*
X46938189Y-26045525D01*
X46870801Y-26055745D01*
X46821938Y-26085602D01*
X46793304Y-26133893D01*
X46789081Y-26150881D01*
X46776750Y-26188813D01*
X46758614Y-26216286D01*
X46739894Y-26226784D01*
X46731295Y-26223016D01*
X46727778Y-26203179D01*
X46731600Y-26163766D01*
X46741219Y-26111825D01*
X46755096Y-26054404D01*
X46771690Y-25998553D01*
X46789460Y-25951319D01*
X46791820Y-25946084D01*
X46836839Y-25865268D01*
X46887426Y-25809520D01*
X46947807Y-25775873D01*
X47022212Y-25761362D01*
X47056657Y-25760250D01*
X47112256Y-25764109D01*
G37*
X47112256Y-25764109D02*
X47164564Y-25773752D01*
X47189972Y-25782069D01*
X47243519Y-25814734D01*
X47303750Y-25866129D01*
X47364754Y-25929902D01*
X47420622Y-25999700D01*
X47465442Y-26069172D01*
X47476151Y-26089613D01*
X47521120Y-26201606D01*
X47547182Y-26312294D01*
X47555564Y-26419092D01*
X47547493Y-26519415D01*
X47524195Y-26610679D01*
X47486899Y-26690299D01*
X47436831Y-26755689D01*
X47375218Y-26804266D01*
X47303287Y-26833444D01*
X47222265Y-26840638D01*
X47133379Y-26823265D01*
X47128632Y-26821664D01*
X47050948Y-26781924D01*
X46974561Y-26718837D01*
X46903193Y-26637016D01*
X46840566Y-26541074D01*
X46790403Y-26435626D01*
X46770105Y-26377334D01*
X46755592Y-26326903D01*
X46745140Y-26285609D01*
X46740920Y-26262064D01*
X46740912Y-26261560D01*
X46748671Y-26243575D01*
X46767267Y-26244755D01*
X46789675Y-26262616D01*
X46803938Y-26283851D01*
X46832353Y-26320701D01*
X46866751Y-26347000D01*
X46920883Y-26366494D01*
X46968382Y-26362483D01*
X47015731Y-26333707D01*
X47037259Y-26313806D01*
X47070081Y-26277608D01*
X47086349Y-26246949D01*
X47091530Y-26209968D01*
X47091740Y-26195603D01*
X47087605Y-26148740D01*
X47071136Y-26114146D01*
X47048561Y-26088704D01*
X47015234Y-26060710D01*
X46980964Y-26048166D01*
X46938189Y-26045525D01*
X46870801Y-26055745D01*
X46821938Y-26085602D01*
X46793304Y-26133893D01*
X46789081Y-26150881D01*
X46776750Y-26188813D01*
X46758614Y-26216286D01*
X46739894Y-26226784D01*
X46731295Y-26223016D01*
X46727778Y-26203179D01*
X46731600Y-26163766D01*
X46741219Y-26111825D01*
X46755096Y-26054404D01*
X46771690Y-25998553D01*
X46789460Y-25951319D01*
X46791820Y-25946084D01*
X46836839Y-25865268D01*
X46887426Y-25809520D01*
X46947807Y-25775873D01*
X47022212Y-25761362D01*
X47056657Y-25760250D01*
X47112256Y-25764109D01*
G36*
X46017133Y-26309490D02*
G01*
X46086214Y-26322088D01*
X46150316Y-26346975D01*
X46218509Y-26387318D01*
X46268770Y-26422919D01*
X46317371Y-26461452D01*
X46357193Y-26500533D01*
X46393341Y-26546599D01*
X46430922Y-26606085D01*
X46470817Y-26677574D01*
X46517063Y-26779410D01*
X46545210Y-26883505D01*
X46557500Y-26999388D01*
X46558481Y-27049557D01*
X46549315Y-27187498D01*
X46521187Y-27305722D01*
X46473148Y-27406031D01*
X46404249Y-27490231D01*
X46313542Y-27560126D01*
X46279761Y-27579762D01*
X46205188Y-27608827D01*
X46118270Y-27624996D01*
X46030436Y-27627139D01*
X45953114Y-27614130D01*
X45948039Y-27612506D01*
X45825756Y-27557290D01*
X45716492Y-27478737D01*
X45622785Y-27379548D01*
X45547176Y-27262424D01*
X45492207Y-27130065D01*
X45491212Y-27126886D01*
X45472760Y-27045603D01*
X45462024Y-26951292D01*
X45459160Y-26853194D01*
X45462433Y-26794447D01*
X45552093Y-26794447D01*
X45570856Y-26868549D01*
X45607474Y-26932845D01*
X45660054Y-26980821D01*
X45676486Y-26990005D01*
X45736673Y-27008034D01*
X45807385Y-27012420D01*
X45874889Y-27003031D01*
X45905082Y-26992228D01*
X45959464Y-26952173D01*
X46002817Y-26892670D01*
X46030709Y-26821555D01*
X46038946Y-26755613D01*
X46025326Y-26683392D01*
X45988920Y-26615035D01*
X45934879Y-26557103D01*
X45868352Y-26516154D01*
X45843957Y-26507310D01*
X45774281Y-26500231D01*
X45705086Y-26517764D01*
X45642192Y-26556970D01*
X45591418Y-26614906D01*
X45575698Y-26642888D01*
X45553076Y-26717055D01*
X45552093Y-26794447D01*
X45462433Y-26794447D01*
X45464322Y-26760551D01*
X45477665Y-26682604D01*
X45483449Y-26662983D01*
X45516702Y-26579579D01*
X45556687Y-26503734D01*
X45599313Y-26442333D01*
X45636903Y-26404846D01*
X45707848Y-26356699D01*
X45772151Y-26326609D01*
X45840748Y-26310938D01*
X45924573Y-26306049D01*
X45934005Y-26306013D01*
X46017133Y-26309490D01*
G37*
X46017133Y-26309490D02*
X46086214Y-26322088D01*
X46150316Y-26346975D01*
X46218509Y-26387318D01*
X46268770Y-26422919D01*
X46317371Y-26461452D01*
X46357193Y-26500533D01*
X46393341Y-26546599D01*
X46430922Y-26606085D01*
X46470817Y-26677574D01*
X46517063Y-26779410D01*
X46545210Y-26883505D01*
X46557500Y-26999388D01*
X46558481Y-27049557D01*
X46549315Y-27187498D01*
X46521187Y-27305722D01*
X46473148Y-27406031D01*
X46404249Y-27490231D01*
X46313542Y-27560126D01*
X46279761Y-27579762D01*
X46205188Y-27608827D01*
X46118270Y-27624996D01*
X46030436Y-27627139D01*
X45953114Y-27614130D01*
X45948039Y-27612506D01*
X45825756Y-27557290D01*
X45716492Y-27478737D01*
X45622785Y-27379548D01*
X45547176Y-27262424D01*
X45492207Y-27130065D01*
X45491212Y-27126886D01*
X45472760Y-27045603D01*
X45462024Y-26951292D01*
X45459160Y-26853194D01*
X45462433Y-26794447D01*
X45552093Y-26794447D01*
X45570856Y-26868549D01*
X45607474Y-26932845D01*
X45660054Y-26980821D01*
X45676486Y-26990005D01*
X45736673Y-27008034D01*
X45807385Y-27012420D01*
X45874889Y-27003031D01*
X45905082Y-26992228D01*
X45959464Y-26952173D01*
X46002817Y-26892670D01*
X46030709Y-26821555D01*
X46038946Y-26755613D01*
X46025326Y-26683392D01*
X45988920Y-26615035D01*
X45934879Y-26557103D01*
X45868352Y-26516154D01*
X45843957Y-26507310D01*
X45774281Y-26500231D01*
X45705086Y-26517764D01*
X45642192Y-26556970D01*
X45591418Y-26614906D01*
X45575698Y-26642888D01*
X45553076Y-26717055D01*
X45552093Y-26794447D01*
X45462433Y-26794447D01*
X45464322Y-26760551D01*
X45477665Y-26682604D01*
X45483449Y-26662983D01*
X45516702Y-26579579D01*
X45556687Y-26503734D01*
X45599313Y-26442333D01*
X45636903Y-26404846D01*
X45707848Y-26356699D01*
X45772151Y-26326609D01*
X45840748Y-26310938D01*
X45924573Y-26306049D01*
X45934005Y-26306013D01*
X46017133Y-26309490D01*
G36*
X50041535Y-25264842D02*
G01*
X50113904Y-25296434D01*
X50187752Y-25354576D01*
X50242478Y-25412856D01*
X50303798Y-25497994D01*
X50362944Y-25605065D01*
X50417402Y-25727939D01*
X50464655Y-25860484D01*
X50502189Y-25996569D01*
X50521841Y-26093657D01*
X50532552Y-26153817D01*
X50542480Y-26203746D01*
X50550254Y-26236835D01*
X50553486Y-26246154D01*
X50561755Y-26272889D01*
X50569916Y-26323661D01*
X50577793Y-26394439D01*
X50585210Y-26481192D01*
X50591993Y-26579891D01*
X50597966Y-26686506D01*
X50602953Y-26797006D01*
X50606781Y-26907361D01*
X50609272Y-27013541D01*
X50610253Y-27111516D01*
X50609548Y-27197256D01*
X50606981Y-27266731D01*
X50602378Y-27315910D01*
X50600469Y-27326596D01*
X50593188Y-27369861D01*
X50585189Y-27432469D01*
X50577482Y-27505749D01*
X50571526Y-27575034D01*
X50563475Y-27665763D01*
X50553185Y-27746933D01*
X50539195Y-27825584D01*
X50520047Y-27908756D01*
X50494280Y-28003487D01*
X50460434Y-28116817D01*
X50456548Y-28129447D01*
X50427539Y-28221024D01*
X50402357Y-28292941D01*
X50377668Y-28352676D01*
X50350137Y-28407707D01*
X50316430Y-28465512D01*
X50283364Y-28517869D01*
X50214223Y-28607362D01*
X50139780Y-28669345D01*
X50059931Y-28703884D01*
X49995387Y-28711823D01*
X49941168Y-28708569D01*
X49900324Y-28695978D01*
X49861454Y-28671865D01*
X49786637Y-28608330D01*
X49719932Y-28530942D01*
X49660111Y-28437234D01*
X49605944Y-28324739D01*
X49556202Y-28190988D01*
X49509656Y-28033515D01*
X49475999Y-27897900D01*
X49453016Y-27797812D01*
X49435884Y-27719903D01*
X49423746Y-27659099D01*
X49415743Y-27610326D01*
X49411017Y-27568510D01*
X49408712Y-27528578D01*
X49408046Y-27495948D01*
X49404477Y-27436271D01*
X49395987Y-27365543D01*
X49385505Y-27304790D01*
X49375816Y-27234784D01*
X49370186Y-27142468D01*
X49368382Y-27033269D01*
X49370171Y-26912613D01*
X49375319Y-26785927D01*
X49383594Y-26658638D01*
X49394762Y-26536171D01*
X49408589Y-26423953D01*
X49424844Y-26327410D01*
X49428205Y-26311208D01*
X49441852Y-26244907D01*
X49455238Y-26175229D01*
X49464532Y-26122707D01*
X49492388Y-25987809D01*
X49530343Y-25854712D01*
X49576604Y-25726933D01*
X49629381Y-25607994D01*
X49686882Y-25501414D01*
X49747313Y-25410714D01*
X49808885Y-25339412D01*
X49869805Y-25291029D01*
X49894240Y-25278608D01*
X49968897Y-25259124D01*
X50041535Y-25264842D01*
G37*
X50041535Y-25264842D02*
X50113904Y-25296434D01*
X50187752Y-25354576D01*
X50242478Y-25412856D01*
X50303798Y-25497994D01*
X50362944Y-25605065D01*
X50417402Y-25727939D01*
X50464655Y-25860484D01*
X50502189Y-25996569D01*
X50521841Y-26093657D01*
X50532552Y-26153817D01*
X50542480Y-26203746D01*
X50550254Y-26236835D01*
X50553486Y-26246154D01*
X50561755Y-26272889D01*
X50569916Y-26323661D01*
X50577793Y-26394439D01*
X50585210Y-26481192D01*
X50591993Y-26579891D01*
X50597966Y-26686506D01*
X50602953Y-26797006D01*
X50606781Y-26907361D01*
X50609272Y-27013541D01*
X50610253Y-27111516D01*
X50609548Y-27197256D01*
X50606981Y-27266731D01*
X50602378Y-27315910D01*
X50600469Y-27326596D01*
X50593188Y-27369861D01*
X50585189Y-27432469D01*
X50577482Y-27505749D01*
X50571526Y-27575034D01*
X50563475Y-27665763D01*
X50553185Y-27746933D01*
X50539195Y-27825584D01*
X50520047Y-27908756D01*
X50494280Y-28003487D01*
X50460434Y-28116817D01*
X50456548Y-28129447D01*
X50427539Y-28221024D01*
X50402357Y-28292941D01*
X50377668Y-28352676D01*
X50350137Y-28407707D01*
X50316430Y-28465512D01*
X50283364Y-28517869D01*
X50214223Y-28607362D01*
X50139780Y-28669345D01*
X50059931Y-28703884D01*
X49995387Y-28711823D01*
X49941168Y-28708569D01*
X49900324Y-28695978D01*
X49861454Y-28671865D01*
X49786637Y-28608330D01*
X49719932Y-28530942D01*
X49660111Y-28437234D01*
X49605944Y-28324739D01*
X49556202Y-28190988D01*
X49509656Y-28033515D01*
X49475999Y-27897900D01*
X49453016Y-27797812D01*
X49435884Y-27719903D01*
X49423746Y-27659099D01*
X49415743Y-27610326D01*
X49411017Y-27568510D01*
X49408712Y-27528578D01*
X49408046Y-27495948D01*
X49404477Y-27436271D01*
X49395987Y-27365543D01*
X49385505Y-27304790D01*
X49375816Y-27234784D01*
X49370186Y-27142468D01*
X49368382Y-27033269D01*
X49370171Y-26912613D01*
X49375319Y-26785927D01*
X49383594Y-26658638D01*
X49394762Y-26536171D01*
X49408589Y-26423953D01*
X49424844Y-26327410D01*
X49428205Y-26311208D01*
X49441852Y-26244907D01*
X49455238Y-26175229D01*
X49464532Y-26122707D01*
X49492388Y-25987809D01*
X49530343Y-25854712D01*
X49576604Y-25726933D01*
X49629381Y-25607994D01*
X49686882Y-25501414D01*
X49747313Y-25410714D01*
X49808885Y-25339412D01*
X49869805Y-25291029D01*
X49894240Y-25278608D01*
X49968897Y-25259124D01*
X50041535Y-25264842D01*
G36*
X49729066Y-24293686D02*
G01*
X49774752Y-24299133D01*
X49834371Y-24310009D01*
X49836096Y-24310344D01*
X49998442Y-24355427D01*
X50151410Y-24425874D01*
X50295312Y-24521967D01*
X50430461Y-24643986D01*
X50557168Y-24792211D01*
X50675745Y-24966925D01*
X50783714Y-25162809D01*
X50859151Y-25330808D01*
X50929443Y-25521145D01*
X50993116Y-25728334D01*
X51048698Y-25946886D01*
X51094716Y-26171317D01*
X51129695Y-26396137D01*
X51141296Y-26494586D01*
X51150957Y-26614210D01*
X51157326Y-26753604D01*
X51160416Y-26904920D01*
X51160243Y-27060310D01*
X51156821Y-27211928D01*
X51150166Y-27351927D01*
X51140291Y-27472459D01*
X51139450Y-27480234D01*
X51131285Y-27551875D01*
X51123803Y-27613150D01*
X51117681Y-27658843D01*
X51113592Y-27683739D01*
X51112741Y-27686617D01*
X51108745Y-27702631D01*
X51101207Y-27740937D01*
X51091138Y-27796132D01*
X51079548Y-27862813D01*
X51077171Y-27876851D01*
X51038151Y-28067764D01*
X50985113Y-28266465D01*
X50921044Y-28463615D01*
X50848931Y-28649878D01*
X50785363Y-28789005D01*
X50691108Y-28960265D01*
X50586089Y-29117308D01*
X50472845Y-29257216D01*
X50353915Y-29377073D01*
X50231841Y-29473958D01*
X50141418Y-29528916D01*
X50032083Y-29581090D01*
X49931930Y-29615700D01*
X49830654Y-29635378D01*
X49717951Y-29642756D01*
X49694889Y-29642983D01*
X49565612Y-29636868D01*
X49449418Y-29616197D01*
X49339790Y-29578640D01*
X49230210Y-29521868D01*
X49114160Y-29443550D01*
X49093347Y-29427947D01*
X49022078Y-29374034D01*
X48967966Y-29334095D01*
X48925863Y-29305069D01*
X48890622Y-29283895D01*
X48857096Y-29267511D01*
X48820138Y-29252854D01*
X48774600Y-29236864D01*
X48768702Y-29234843D01*
X48629846Y-29201696D01*
X48489524Y-29196353D01*
X48349841Y-29218782D01*
X48274512Y-29242768D01*
X48192942Y-29274343D01*
X48132276Y-29301057D01*
X48086772Y-29326863D01*
X48050688Y-29355716D01*
X48018282Y-29391568D01*
X47983812Y-29438375D01*
X47977740Y-29447119D01*
X47885307Y-29568705D01*
X47772405Y-29697320D01*
X47644041Y-29828219D01*
X47505223Y-29956657D01*
X47360958Y-30077888D01*
X47216255Y-30187167D01*
X47145713Y-30235570D01*
X46965849Y-30346675D01*
X46774155Y-30450795D01*
X46577448Y-30544772D01*
X46382544Y-30625447D01*
X46196262Y-30689663D01*
X46115893Y-30712660D01*
X46034508Y-30735280D01*
X45975638Y-30754664D01*
X45934302Y-30773196D01*
X45905518Y-30793265D01*
X45884304Y-30817255D01*
X45878011Y-30826603D01*
X45854411Y-30857045D01*
X45818269Y-30896661D01*
X45783857Y-30930699D01*
X45714781Y-30995486D01*
X45687235Y-31337660D01*
X45678797Y-31440913D01*
X45670288Y-31542234D01*
X45662209Y-31635860D01*
X45655060Y-31716026D01*
X45649344Y-31776968D01*
X45647107Y-31799116D01*
X45643172Y-31850522D01*
X45639625Y-31923443D01*
X45636681Y-32011325D01*
X45634554Y-32107619D01*
X45633459Y-32205771D01*
X45633409Y-32217043D01*
X45633283Y-32324208D01*
X45634373Y-32405838D01*
X45637521Y-32464457D01*
X45643573Y-32502593D01*
X45653373Y-32522774D01*
X45667764Y-32527526D01*
X45687592Y-32519377D01*
X45713700Y-32500852D01*
X45725209Y-32491805D01*
X45876623Y-32376381D01*
X46016690Y-32280664D01*
X46150763Y-32201808D01*
X46284198Y-32136963D01*
X46422349Y-32083281D01*
X46570570Y-32037914D01*
X46586547Y-32033620D01*
X46650573Y-32017212D01*
X46704114Y-32005556D01*
X46754627Y-31997815D01*
X46809574Y-31993156D01*
X46876414Y-31990745D01*
X46962607Y-31989745D01*
X46979475Y-31989657D01*
X47104917Y-31991125D01*
X47210426Y-31997686D01*
X47303875Y-32010620D01*
X47393137Y-32031207D01*
X47486086Y-32060727D01*
X47540826Y-32080926D01*
X47634475Y-32121383D01*
X47732175Y-32171539D01*
X47826192Y-32226848D01*
X47908790Y-32282764D01*
X47971480Y-32334030D01*
X48044314Y-32402541D01*
X48227384Y-32402541D01*
X48296108Y-32402882D01*
X48352696Y-32404548D01*
X48403125Y-32408502D01*
X48453372Y-32415711D01*
X48509413Y-32427138D01*
X48577226Y-32443748D01*
X48662786Y-32466507D01*
X48719466Y-32481964D01*
X48873303Y-32533305D01*
X49032145Y-32602951D01*
X49185899Y-32685840D01*
X49324469Y-32776907D01*
X49358094Y-32802336D01*
X49528113Y-32951269D01*
X49680999Y-33117725D01*
X49814841Y-33298560D01*
X49927728Y-33490631D01*
X50017747Y-33690796D01*
X50082987Y-33895910D01*
X50113469Y-34044420D01*
X50131540Y-34161386D01*
X50145048Y-34254854D01*
X50154328Y-34328963D01*
X50159715Y-34387851D01*
X50161543Y-34435656D01*
X50160145Y-34476516D01*
X50155858Y-34514569D01*
X50152929Y-34532722D01*
X50142671Y-34596104D01*
X50131633Y-34670902D01*
X50122447Y-34739061D01*
X50100150Y-34875721D01*
X50067532Y-35005846D01*
X50022114Y-35137071D01*
X49961417Y-35277035D01*
X49920884Y-35359987D01*
X49874651Y-35443691D01*
X49829393Y-35505872D01*
X49779325Y-35552243D01*
X49718662Y-35588521D01*
X49666823Y-35610960D01*
X49605096Y-35632310D01*
X49549008Y-35644112D01*
X49484937Y-35648758D01*
X49449309Y-35649151D01*
X49339702Y-35641181D01*
X49240418Y-35615800D01*
X49145690Y-35570549D01*
X49049752Y-35502968D01*
X48993799Y-35454860D01*
X48921698Y-35383591D01*
X48874206Y-35321593D01*
X48850607Y-35266039D01*
X48850186Y-35214104D01*
X48872224Y-35162961D01*
X48908349Y-35117717D01*
X48940678Y-35087404D01*
X48970882Y-35073037D01*
X49012468Y-35068931D01*
X49024505Y-35068840D01*
X49070009Y-35072774D01*
X49113529Y-35086584D01*
X49160888Y-35113280D01*
X49217908Y-35155873D01*
X49258879Y-35190057D01*
X49306604Y-35224688D01*
X49342137Y-35235357D01*
X49367646Y-35222219D01*
X49380815Y-35198646D01*
X49389056Y-35155844D01*
X49390312Y-35094281D01*
X49385173Y-35022224D01*
X49374224Y-34947939D01*
X49358194Y-34880167D01*
X49333444Y-34816737D01*
X49296287Y-34760134D01*
X49263052Y-34722295D01*
X49225627Y-34683837D01*
X49198308Y-34661600D01*
X49172208Y-34651146D01*
X49138437Y-34648036D01*
X49113986Y-34647846D01*
X49072426Y-34649763D01*
X49035244Y-34657381D01*
X48994129Y-34673502D01*
X48940771Y-34700928D01*
X48916257Y-34714503D01*
X48843767Y-34761610D01*
X48759377Y-34827325D01*
X48667578Y-34907472D01*
X48572860Y-34997876D01*
X48479712Y-35094361D01*
X48392626Y-35192752D01*
X48361693Y-35230221D01*
X48295538Y-35307985D01*
X48218032Y-35392345D01*
X48133449Y-35479217D01*
X48046066Y-35564517D01*
X47960161Y-35644163D01*
X47880009Y-35714070D01*
X47809888Y-35770156D01*
X47760024Y-35804742D01*
X47595195Y-35893637D01*
X47433765Y-35954972D01*
X47276120Y-35988771D01*
X47122650Y-35995062D01*
X46973744Y-35973870D01*
X46829789Y-35925221D01*
X46691175Y-35849139D01*
X46558290Y-35745652D01*
X46534217Y-35723364D01*
X46501764Y-35694239D01*
X46478206Y-35676263D01*
X46469839Y-35673140D01*
X46460115Y-35687193D01*
X46439601Y-35717942D01*
X46414227Y-35756464D01*
X46336479Y-35861778D01*
X46245121Y-35959323D01*
X46134742Y-36054528D01*
X46064123Y-36107746D01*
X45999289Y-36153919D01*
X45951605Y-36185526D01*
X45916042Y-36205206D01*
X45887576Y-36215595D01*
X45861178Y-36219333D01*
X45851057Y-36219558D01*
X45815267Y-36222289D01*
X45786258Y-36233786D01*
X45754620Y-36259002D01*
X45729938Y-36283309D01*
X45696175Y-36315099D01*
X45662905Y-36338507D01*
X45622018Y-36357822D01*
X45565403Y-36377335D01*
X45534061Y-36386896D01*
X45428176Y-36417615D01*
X45341405Y-36440121D01*
X45266424Y-36455615D01*
X45195906Y-36465298D01*
X45122527Y-36470373D01*
X45038961Y-36472041D01*
X45014834Y-36472065D01*
X44917318Y-36470400D01*
X44834141Y-36464799D01*
X44756744Y-36453797D01*
X44676564Y-36435930D01*
X44585040Y-36409733D01*
X44509641Y-36385656D01*
X44433500Y-36359540D01*
X44367364Y-36333664D01*
X44304262Y-36304629D01*
X44237228Y-36269036D01*
X44159292Y-36223485D01*
X44089190Y-36180554D01*
X43930926Y-36089069D01*
X43774349Y-36013116D01*
X43623369Y-35952318D01*
X43521775Y-35918291D01*
X43424381Y-35894220D01*
X43322970Y-35878806D01*
X43209324Y-35870755D01*
X43093609Y-35868729D01*
X43007248Y-35869259D01*
X42941933Y-35871357D01*
X42890652Y-35875784D01*
X42846397Y-35883299D01*
X42802156Y-35894665D01*
X42773128Y-35903515D01*
X42670535Y-35945559D01*
X42593055Y-35999162D01*
X42539982Y-36064881D01*
X42522990Y-36100838D01*
X42510355Y-36139056D01*
X42507965Y-36169628D01*
X42517840Y-36200631D01*
X42542001Y-36240145D01*
X42566350Y-36274258D01*
X42595224Y-36334511D01*
X42600519Y-36397561D01*
X42585035Y-36457918D01*
X42551572Y-36510095D01*
X42502932Y-36548601D01*
X42441914Y-36567949D01*
X42415890Y-36569132D01*
X42372690Y-36564304D01*
X42321384Y-36553785D01*
X42306436Y-36549797D01*
X42144473Y-36495276D01*
X42008714Y-36431986D01*
X41899363Y-36360035D01*
X41837871Y-36303757D01*
X41789269Y-36238787D01*
X41741111Y-36147821D01*
X41693083Y-36030174D01*
X41644870Y-35885160D01*
X41644140Y-35882762D01*
X41628295Y-35828439D01*
X41617225Y-35782483D01*
X41610104Y-35737671D01*
X41606105Y-35686778D01*
X41604401Y-35622580D01*
X41604165Y-35537853D01*
X41604175Y-35533693D01*
X41604517Y-35525149D01*
X41801243Y-35525149D01*
X41801243Y-35526318D01*
X41801737Y-35613224D01*
X41803712Y-35678944D01*
X41807909Y-35730348D01*
X41815067Y-35774309D01*
X41825926Y-35817696D01*
X41836317Y-35852011D01*
X41877370Y-35969151D01*
X41919926Y-36066435D01*
X41962616Y-36141069D01*
X42000012Y-36186554D01*
X42044280Y-36221196D01*
X42103029Y-36257564D01*
X42168570Y-36291893D01*
X42233213Y-36320419D01*
X42289269Y-36339378D01*
X42324005Y-36345155D01*
X42376657Y-36345856D01*
X42348563Y-36293440D01*
X42330756Y-36248128D01*
X42322062Y-36191496D01*
X42320470Y-36140348D01*
X42321560Y-36086800D01*
X42327162Y-36048323D01*
X42340769Y-36013805D01*
X42365878Y-35972132D01*
X42380110Y-35950693D01*
X42455771Y-35861680D01*
X42552610Y-35789200D01*
X42671221Y-35732961D01*
X42812200Y-35692669D01*
X42947432Y-35671036D01*
X43080980Y-35662226D01*
X43214900Y-35667040D01*
X43357242Y-35686122D01*
X43493160Y-35714584D01*
X43674958Y-35765016D01*
X43846615Y-35828530D01*
X44016056Y-35908524D01*
X44191209Y-36008395D01*
X44219495Y-36025946D01*
X44318854Y-36084847D01*
X44418264Y-36137634D01*
X44512092Y-36181667D01*
X44594711Y-36214308D01*
X44660489Y-36232915D01*
X44661274Y-36233066D01*
X44717706Y-36244665D01*
X44772965Y-36257412D01*
X44797320Y-36263695D01*
X44863897Y-36274787D01*
X44950550Y-36278661D01*
X45050432Y-36276022D01*
X45156694Y-36267577D01*
X45262491Y-36254031D01*
X45360973Y-36236090D01*
X45445293Y-36214461D01*
X45507323Y-36190498D01*
X45558606Y-36154076D01*
X45612489Y-36098358D01*
X45663423Y-36030905D01*
X45705857Y-35959278D01*
X45734239Y-35891036D01*
X45738404Y-35875746D01*
X45753883Y-35831437D01*
X45773476Y-35804087D01*
X45786370Y-35798563D01*
X45792021Y-35811480D01*
X45797974Y-35845832D01*
X45803176Y-35895019D01*
X45804449Y-35911915D01*
X45808965Y-35965562D01*
X45814076Y-36007625D01*
X45818855Y-36030892D01*
X45820005Y-36033053D01*
X45834815Y-36029329D01*
X45865891Y-36009991D01*
X45908912Y-35978503D01*
X45959557Y-35938326D01*
X46013505Y-35892923D01*
X46066435Y-35845758D01*
X46114026Y-35800292D01*
X46127220Y-35786876D01*
X46200796Y-35705328D01*
X46256600Y-35629143D01*
X46300547Y-35548634D01*
X46338555Y-35454112D01*
X46348933Y-35423834D01*
X46367533Y-35366730D01*
X46379328Y-35322209D01*
X46383896Y-35283581D01*
X46380819Y-35244158D01*
X46369675Y-35197249D01*
X46350044Y-35136167D01*
X46326628Y-35068840D01*
X46303648Y-34999483D01*
X46283153Y-34930795D01*
X46267914Y-34872415D01*
X46262097Y-34844309D01*
X46254529Y-34794549D01*
X46245997Y-34731689D01*
X46237515Y-34664085D01*
X46230096Y-34600090D01*
X46224756Y-34548058D01*
X46222568Y-34518506D01*
X46209688Y-34487605D01*
X46268114Y-34487605D01*
X46272050Y-34678798D01*
X46302952Y-34872279D01*
X46360125Y-35065573D01*
X46442873Y-35256207D01*
X46524683Y-35401396D01*
X46617675Y-35528469D01*
X46722776Y-35632084D01*
X46838210Y-35711502D01*
X46962198Y-35765983D01*
X47092963Y-35794788D01*
X47228726Y-35797178D01*
X47367711Y-35772412D01*
X47396364Y-35763938D01*
X47466300Y-35737899D01*
X47542124Y-35703628D01*
X47604078Y-35670445D01*
X47644981Y-35645014D01*
X47684734Y-35618041D01*
X47725185Y-35587728D01*
X47768184Y-35552279D01*
X47815579Y-35509899D01*
X47869218Y-35458790D01*
X47930949Y-35397156D01*
X48002623Y-35323200D01*
X48086086Y-35235126D01*
X48183188Y-35131138D01*
X48295777Y-35009439D01*
X48393612Y-34903157D01*
X48532929Y-34762666D01*
X48670313Y-34646118D01*
X48804079Y-34554871D01*
X48872557Y-34517419D01*
X48936272Y-34487391D01*
X48986789Y-34468824D01*
X49034901Y-34458609D01*
X49091396Y-34453635D01*
X49094441Y-34453478D01*
X49186299Y-34455342D01*
X49261584Y-34473321D01*
X49328532Y-34510407D01*
X49384832Y-34558988D01*
X49443155Y-34623453D01*
X49487818Y-34690933D01*
X49523303Y-34769667D01*
X49554094Y-34867896D01*
X49555300Y-34872379D01*
X49582532Y-35008773D01*
X49586762Y-35131616D01*
X49567564Y-35244025D01*
X49524518Y-35349119D01*
X49481230Y-35418243D01*
X49457153Y-35451900D01*
X49529822Y-35444918D01*
X49585739Y-35434954D01*
X49632238Y-35414497D01*
X49673198Y-35379850D01*
X49712500Y-35327317D01*
X49754024Y-35253198D01*
X49774486Y-35211780D01*
X49843085Y-35054650D01*
X49892604Y-34905721D01*
X49925737Y-34755486D01*
X49943350Y-34616116D01*
X49950805Y-34477534D01*
X49949620Y-34334335D01*
X49940357Y-34193867D01*
X49923576Y-34063480D01*
X49899839Y-33950524D01*
X49889909Y-33916206D01*
X49805552Y-33690988D01*
X49700904Y-33484887D01*
X49576188Y-33298169D01*
X49431624Y-33131098D01*
X49267436Y-32983943D01*
X49083844Y-32856967D01*
X48940703Y-32778650D01*
X48775004Y-32704383D01*
X48617560Y-32650690D01*
X48459893Y-32615613D01*
X48293522Y-32597194D01*
X48137210Y-32593183D01*
X47919021Y-32607436D01*
X47706679Y-32647906D01*
X47497738Y-32715212D01*
X47301475Y-32803896D01*
X47215855Y-32854249D01*
X47120195Y-32920959D01*
X47021641Y-32998200D01*
X46927342Y-33080142D01*
X46844444Y-33160956D01*
X46793136Y-33218435D01*
X46735337Y-33292336D01*
X46678771Y-33371054D01*
X46625215Y-33451384D01*
X46576445Y-33530127D01*
X46534241Y-33604079D01*
X46500377Y-33670038D01*
X46476633Y-33724803D01*
X46464785Y-33765171D01*
X46466611Y-33787940D01*
X46474882Y-33791823D01*
X46490152Y-33782637D01*
X46521329Y-33757477D01*
X46564200Y-33719940D01*
X46614555Y-33673624D01*
X46626849Y-33662017D01*
X46753941Y-33552873D01*
X46893483Y-33455808D01*
X47049175Y-33368788D01*
X47224719Y-33289778D01*
X47423816Y-33216746D01*
X47457223Y-33205765D01*
X47534440Y-33182534D01*
X47602435Y-33165476D01*
X47657003Y-33155354D01*
X47693942Y-33152928D01*
X47709050Y-33158959D01*
X47709199Y-33160129D01*
X47696596Y-33168461D01*
X47662970Y-33181081D01*
X47614596Y-33195748D01*
X47593425Y-33201452D01*
X47535364Y-33217256D01*
X47483990Y-33232441D01*
X47448349Y-33244299D01*
X47442569Y-33246592D01*
X47414764Y-33257417D01*
X47367851Y-33274627D01*
X47309276Y-33295519D01*
X47267155Y-33310252D01*
X47122258Y-33367032D01*
X46987112Y-33434571D01*
X46854320Y-33517105D01*
X46716488Y-33618871D01*
X46686650Y-33642726D01*
X46593835Y-33725418D01*
X46517001Y-33812388D01*
X46449871Y-33911692D01*
X46390064Y-34023370D01*
X46343053Y-34125959D01*
X46309897Y-34215992D01*
X46287936Y-34303603D01*
X46274506Y-34398926D01*
X46268114Y-34487605D01*
X46209688Y-34487605D01*
X46209599Y-34487393D01*
X46176062Y-34449474D01*
X46127124Y-34409144D01*
X46067954Y-34370795D01*
X46019146Y-34345597D01*
X45949315Y-34315347D01*
X45882757Y-34290980D01*
X45814872Y-34271694D01*
X45741060Y-34256690D01*
X45656721Y-34245166D01*
X45557255Y-34236322D01*
X45438063Y-34229357D01*
X45323563Y-34224531D01*
X45207114Y-34220169D01*
X45082568Y-34215492D01*
X44958168Y-34210810D01*
X44842159Y-34206434D01*
X44742783Y-34202674D01*
X44710735Y-34201457D01*
X44628651Y-34197739D01*
X44556248Y-34193323D01*
X44498204Y-34188587D01*
X44459195Y-34183908D01*
X44444105Y-34179945D01*
X44453864Y-34176605D01*
X44490114Y-34174685D01*
X44551316Y-34174159D01*
X44635932Y-34175001D01*
X44742425Y-34177183D01*
X44869256Y-34180680D01*
X45014887Y-34185464D01*
X45177779Y-34191509D01*
X45228840Y-34193526D01*
X45318041Y-34196511D01*
X45381987Y-34197178D01*
X45423402Y-34195434D01*
X45445008Y-34191188D01*
X45449862Y-34186023D01*
X45438546Y-34163068D01*
X45406891Y-34128186D01*
X45358332Y-34084362D01*
X45296305Y-34034583D01*
X45224246Y-33981833D01*
X45180362Y-33951823D01*
X45017448Y-33850707D01*
X44856843Y-33767411D01*
X44691632Y-33699185D01*
X44514895Y-33643277D01*
X44319717Y-33596936D01*
X44257044Y-33584584D01*
X44197383Y-33575844D01*
X44121180Y-33568446D01*
X44034161Y-33562552D01*
X43942054Y-33558325D01*
X43850588Y-33555929D01*
X43765490Y-33555527D01*
X43692487Y-33557282D01*
X43637308Y-33561358D01*
X43610640Y-33566159D01*
X43572106Y-33575271D01*
X43516896Y-33585637D01*
X43456201Y-33595179D01*
X43449259Y-33596145D01*
X43233216Y-33639241D01*
X43018441Y-33708112D01*
X42809282Y-33800635D01*
X42610087Y-33914686D01*
X42425203Y-34048144D01*
X42302261Y-34156135D01*
X42249080Y-34209885D01*
X42193597Y-34270934D01*
X42139180Y-34334992D01*
X42089194Y-34397767D01*
X42047006Y-34454965D01*
X42015984Y-34502297D01*
X41999492Y-34535469D01*
X41997707Y-34544392D01*
X42005618Y-34555414D01*
X42032231Y-34561523D01*
X42081872Y-34563621D01*
X42090138Y-34563646D01*
X42182570Y-34563646D01*
X42074140Y-34679420D01*
X41986711Y-34786496D01*
X41917375Y-34903043D01*
X41865147Y-35032122D01*
X41829039Y-35176792D01*
X41808067Y-35340114D01*
X41801243Y-35525149D01*
X41604517Y-35525149D01*
X41612055Y-35336872D01*
X41635529Y-35157845D01*
X41675915Y-34990241D01*
X41734533Y-34827689D01*
X41764106Y-34761102D01*
X41785027Y-34710323D01*
X41793818Y-34666933D01*
X41793107Y-34615526D01*
X41791713Y-34599200D01*
X41790454Y-34547254D01*
X41798359Y-34497837D01*
X41817579Y-34446016D01*
X41850268Y-34386857D01*
X41898579Y-34315429D01*
X41940230Y-34258953D01*
X42068070Y-34108622D01*
X42219310Y-33964283D01*
X42389381Y-33829591D01*
X42573713Y-33708202D01*
X42745719Y-33614485D01*
X42807457Y-33584025D01*
X42860960Y-33557594D01*
X42900675Y-33537938D01*
X42921048Y-33527803D01*
X42921464Y-33527593D01*
X42933436Y-33511768D01*
X42950568Y-33478567D01*
X42968896Y-33437159D01*
X42984458Y-33396709D01*
X42993291Y-33366385D01*
X42994061Y-33359663D01*
X42984264Y-33364432D01*
X42959232Y-33382367D01*
X42939948Y-33397295D01*
X42881326Y-33438333D01*
X42832365Y-33458742D01*
X42786258Y-33460619D01*
X42756984Y-33453675D01*
X42724010Y-33441335D01*
X42695460Y-33425035D01*
X42666446Y-33400429D01*
X42632082Y-33363174D01*
X42587481Y-33308927D01*
X42571379Y-33288697D01*
X42520877Y-33219037D01*
X42490226Y-33162942D01*
X42481496Y-33134332D01*
X42472402Y-33085763D01*
X42460515Y-33032512D01*
X42458460Y-33024235D01*
X42452060Y-32995370D01*
X42449090Y-32967712D01*
X42449342Y-32958808D01*
X42672130Y-32958808D01*
X42672769Y-33016032D01*
X42675613Y-33058159D01*
X42676787Y-33065908D01*
X42687991Y-33098175D01*
X42708659Y-33138420D01*
X42733833Y-33178877D01*
X42758553Y-33211782D01*
X42777861Y-33229369D01*
X42781887Y-33230497D01*
X42789887Y-33217976D01*
X42798695Y-33196598D01*
X43082418Y-33196598D01*
X43171554Y-33264476D01*
X43213269Y-33297710D01*
X43244538Y-33325414D01*
X43259949Y-33342709D01*
X43260691Y-33344889D01*
X43251848Y-33361214D01*
X43228945Y-33390610D01*
X43204558Y-33418319D01*
X43171598Y-33457273D01*
X43154707Y-33489096D01*
X43148827Y-33525137D01*
X43148425Y-33544304D01*
X43148425Y-33609392D01*
X43203080Y-33609392D01*
X43246159Y-33605106D01*
X43301987Y-33593994D01*
X43346920Y-33581861D01*
X43460086Y-33555237D01*
X43599705Y-33537082D01*
X43765894Y-33527384D01*
X43892182Y-33525613D01*
X44057496Y-33529650D01*
X44205851Y-33542399D01*
X44347399Y-33565307D01*
X44492290Y-33599823D01*
X44571196Y-33622500D01*
X44797003Y-33703696D01*
X45012436Y-33808459D01*
X45220076Y-33938227D01*
X45422503Y-34094440D01*
X45432343Y-34102808D01*
X45471702Y-34135560D01*
X45504000Y-34158464D01*
X45536772Y-34174817D01*
X45577549Y-34187914D01*
X45633865Y-34201051D01*
X45677923Y-34210257D01*
X45794247Y-34235771D01*
X45888009Y-34260235D01*
X45964564Y-34285509D01*
X46029264Y-34313451D01*
X46087463Y-34345921D01*
X46109420Y-34360123D01*
X46153781Y-34389145D01*
X46189135Y-34410997D01*
X46209104Y-34421770D01*
X46210800Y-34422265D01*
X46223458Y-34411867D01*
X46240681Y-34385124D01*
X46242374Y-34381912D01*
X46257163Y-34349640D01*
X46263762Y-34327978D01*
X46263784Y-34327324D01*
X46255848Y-34312197D01*
X46233855Y-34278527D01*
X46200526Y-34230273D01*
X46158583Y-34171390D01*
X46120912Y-34119638D01*
X46067182Y-34045233D01*
X46013499Y-33968681D01*
X45964650Y-33896957D01*
X45925422Y-33837039D01*
X45910422Y-33812873D01*
X45856427Y-33715318D01*
X45798094Y-33595729D01*
X45737690Y-33459351D01*
X45677484Y-33311428D01*
X45619744Y-33157203D01*
X45590185Y-33072548D01*
X45544686Y-32931252D01*
X45578928Y-32931252D01*
X45624650Y-33063333D01*
X45723542Y-33326168D01*
X45830564Y-33565629D01*
X45947720Y-33785731D01*
X46077014Y-33990489D01*
X46112873Y-34041718D01*
X46166407Y-34115723D01*
X46206311Y-34168504D01*
X46234473Y-34202223D01*
X46252780Y-34219044D01*
X46263120Y-34221128D01*
X46265965Y-34217133D01*
X46275592Y-34192465D01*
X46292403Y-34150018D01*
X46313123Y-34098058D01*
X46317741Y-34086519D01*
X46341317Y-34024544D01*
X46368446Y-33948500D01*
X46394609Y-33871195D01*
X46404379Y-33840939D01*
X46439138Y-33745884D01*
X46485768Y-33639000D01*
X46539561Y-33529795D01*
X46595812Y-33427775D01*
X46649812Y-33342446D01*
X46654518Y-33335746D01*
X46689232Y-33291507D01*
X46738267Y-33235174D01*
X46796683Y-33171821D01*
X46859539Y-33106519D01*
X46921894Y-33044341D01*
X46978808Y-32990359D01*
X47025340Y-32949645D01*
X47045922Y-32933903D01*
X47081043Y-32907938D01*
X47105477Y-32883358D01*
X47122418Y-32853638D01*
X47135063Y-32812251D01*
X47146608Y-32752670D01*
X47152656Y-32715942D01*
X47165507Y-32650849D01*
X47181821Y-32588716D01*
X47198650Y-32540331D01*
X47203496Y-32529838D01*
X47233868Y-32484207D01*
X47288204Y-32484207D01*
X47299545Y-32500451D01*
X47327469Y-32520033D01*
X47333812Y-32523439D01*
X47369940Y-32544326D01*
X47417074Y-32574618D01*
X47455378Y-32600982D01*
X47495449Y-32628535D01*
X47526531Y-32648036D01*
X47541516Y-32655138D01*
X47558793Y-32651506D01*
X47596174Y-32641810D01*
X47646822Y-32627852D01*
X47669038Y-32621544D01*
X47728930Y-32604795D01*
X47784017Y-32590080D01*
X47824588Y-32579975D01*
X47831989Y-32578329D01*
X47864665Y-32566487D01*
X47874961Y-32547683D01*
X47862516Y-32519324D01*
X47826965Y-32478816D01*
X47816688Y-32468675D01*
X47731469Y-32400156D01*
X47644052Y-32356379D01*
X47557074Y-32337633D01*
X47473171Y-32344206D01*
X47394980Y-32376387D01*
X47342457Y-32416752D01*
X47311925Y-32448562D01*
X47292246Y-32474376D01*
X47288204Y-32484207D01*
X47233868Y-32484207D01*
X47257074Y-32449344D01*
X47326257Y-32382456D01*
X47404218Y-32335271D01*
X47433966Y-32324013D01*
X47476018Y-32309131D01*
X47504597Y-32295904D01*
X47512735Y-32288722D01*
X47500050Y-32277257D01*
X47465870Y-32261318D01*
X47416004Y-32242920D01*
X47356261Y-32224080D01*
X47292451Y-32206814D01*
X47246581Y-32196350D01*
X47150036Y-32183106D01*
X47035968Y-32178169D01*
X46913523Y-32181106D01*
X46791851Y-32191487D01*
X46680098Y-32208880D01*
X46607597Y-32226474D01*
X46421387Y-32292669D01*
X46238132Y-32379089D01*
X46063072Y-32482403D01*
X45901446Y-32599278D01*
X45758496Y-32726383D01*
X45669690Y-32822824D01*
X45578928Y-32931252D01*
X45544686Y-32931252D01*
X45538693Y-32912644D01*
X45498571Y-32766636D01*
X45469027Y-32628210D01*
X45449271Y-32491052D01*
X45438512Y-32348845D01*
X45435958Y-32195276D01*
X45440819Y-32024029D01*
X45446193Y-31922914D01*
X45452327Y-31826206D01*
X45458935Y-31731761D01*
X45465537Y-31645779D01*
X45471654Y-31574460D01*
X45476806Y-31524005D01*
X45477487Y-31518453D01*
X45482138Y-31472967D01*
X45486823Y-31411665D01*
X45491338Y-31339475D01*
X45495478Y-31261325D01*
X45499040Y-31182144D01*
X45501819Y-31106860D01*
X45503610Y-31040400D01*
X45504209Y-30987694D01*
X45503411Y-30953670D01*
X45501353Y-30943094D01*
X45486274Y-30947833D01*
X45451048Y-30960585D01*
X45401667Y-30979146D01*
X45367254Y-30992344D01*
X45260848Y-31025849D01*
X45138148Y-31052073D01*
X45010416Y-31069075D01*
X44888910Y-31074912D01*
X44888536Y-31074911D01*
X44820181Y-31071029D01*
X44735357Y-31060892D01*
X44643236Y-31046115D01*
X44552988Y-31028310D01*
X44473784Y-31009091D01*
X44421934Y-30992826D01*
X44372166Y-30976268D01*
X44339104Y-30969353D01*
X44327210Y-30972951D01*
X44334050Y-30991024D01*
X44352410Y-31026834D01*
X44379045Y-31074248D01*
X44395732Y-31102526D01*
X44444619Y-31185636D01*
X44482040Y-31253949D01*
X44512142Y-31315990D01*
X44539075Y-31380282D01*
X44565666Y-31451662D01*
X44581298Y-31497706D01*
X44603318Y-31565971D01*
X44630295Y-31651723D01*
X44660795Y-31750228D01*
X44693386Y-31856753D01*
X44726634Y-31966563D01*
X44759108Y-32074925D01*
X44789374Y-32177106D01*
X44816000Y-32268372D01*
X44837553Y-32343988D01*
X44852601Y-32399221D01*
X44853461Y-32402541D01*
X44868048Y-32449874D01*
X44893121Y-32520330D01*
X44927663Y-32611428D01*
X44970660Y-32720690D01*
X45021097Y-32845636D01*
X45077958Y-32983786D01*
X45140229Y-33132661D01*
X45206894Y-33289781D01*
X45276938Y-33452666D01*
X45349347Y-33618838D01*
X45379143Y-33686575D01*
X45406851Y-33750339D01*
X45431011Y-33807691D01*
X45448913Y-33852085D01*
X45457575Y-33876022D01*
X45468561Y-33904534D01*
X45488731Y-33949649D01*
X45514325Y-34003064D01*
X45523004Y-34020470D01*
X45547274Y-34071504D01*
X45564769Y-34113846D01*
X45572818Y-34140780D01*
X45572805Y-34145702D01*
X45562695Y-34149253D01*
X45543854Y-34127491D01*
X45516931Y-34081556D01*
X45482572Y-34012590D01*
X45441424Y-33921732D01*
X45427599Y-33889786D01*
X45397230Y-33819942D01*
X45369174Y-33757242D01*
X45345982Y-33707255D01*
X45330204Y-33675551D01*
X45326814Y-33669662D01*
X45306020Y-33648611D01*
X45267628Y-33619280D01*
X45218657Y-33586873D01*
X45199572Y-33575327D01*
X45141911Y-33538426D01*
X45073537Y-33490273D01*
X45004713Y-33438264D01*
X44965718Y-33406826D01*
X44897540Y-33350224D01*
X44820036Y-33286092D01*
X44745514Y-33224609D01*
X44712765Y-33197668D01*
X44645639Y-33141871D01*
X44598793Y-33101153D01*
X44570259Y-33073487D01*
X44558071Y-33056841D01*
X44560261Y-33049187D01*
X44567720Y-33048066D01*
X44586186Y-33056960D01*
X44622069Y-33081774D01*
X44671877Y-33119706D01*
X44732118Y-33167955D01*
X44799299Y-33223721D01*
X44869927Y-33284201D01*
X44940510Y-33346594D01*
X44945411Y-33351008D01*
X44994993Y-33393302D01*
X45051170Y-33437355D01*
X45109812Y-33480406D01*
X45166789Y-33519698D01*
X45217971Y-33552472D01*
X45259229Y-33575970D01*
X45286432Y-33587434D01*
X45295497Y-33584829D01*
X45290200Y-33567853D01*
X45275689Y-33530318D01*
X45254030Y-33477365D01*
X45227292Y-33414135D01*
X45220238Y-33397745D01*
X45186088Y-33318358D01*
X45150048Y-33234063D01*
X45116602Y-33155371D01*
X45092067Y-33097182D01*
X45066126Y-33038214D01*
X45040765Y-32985593D01*
X45019885Y-32947213D01*
X45012322Y-32935801D01*
X44982775Y-32902334D01*
X44936085Y-32855477D01*
X44876973Y-32799439D01*
X44810158Y-32738429D01*
X44740362Y-32676658D01*
X44672303Y-32618335D01*
X44610702Y-32567670D01*
X44560279Y-32528872D01*
X44540866Y-32515325D01*
X44479310Y-32478972D01*
X44411452Y-32445470D01*
X44350810Y-32421419D01*
X44344402Y-32419404D01*
X44288331Y-32402423D01*
X44217080Y-32380805D01*
X44142316Y-32358091D01*
X44107792Y-32347590D01*
X44042186Y-32328585D01*
X43988046Y-32316071D01*
X43935707Y-32308731D01*
X43875504Y-32305250D01*
X43797772Y-32304314D01*
X43789773Y-32304309D01*
X43647623Y-32308900D01*
X43519897Y-32323938D01*
X43394288Y-32351323D01*
X43295773Y-32380554D01*
X43228734Y-32403528D01*
X43183072Y-32423094D01*
X43152943Y-32442687D01*
X43132506Y-32465740D01*
X43122651Y-32482309D01*
X43114258Y-32514035D01*
X43108992Y-32568181D01*
X43106854Y-32639280D01*
X43107847Y-32721859D01*
X43111976Y-32810449D01*
X43119241Y-32899579D01*
X43122417Y-32928945D01*
X43129482Y-32994608D01*
X43132269Y-33040162D01*
X43130331Y-33073305D01*
X43123220Y-33101732D01*
X43110542Y-33133018D01*
X43082418Y-33196598D01*
X42798695Y-33196598D01*
X42803855Y-33184077D01*
X42821673Y-33134301D01*
X42837303Y-33086657D01*
X42859042Y-33020427D01*
X42877889Y-32972879D01*
X42898619Y-32935697D01*
X42926004Y-32900565D01*
X42964817Y-32859166D01*
X42972213Y-32851602D01*
X43061635Y-32760387D01*
X43066935Y-32616547D01*
X43068235Y-32556879D01*
X43067563Y-32509295D01*
X43065105Y-32479653D01*
X43062325Y-32472707D01*
X43043039Y-32478219D01*
X43005399Y-32492720D01*
X42956403Y-32513155D01*
X42903051Y-32536471D01*
X42852340Y-32559614D01*
X42811269Y-32579531D01*
X42787914Y-32592445D01*
X42748505Y-32632846D01*
X42715360Y-32695580D01*
X42690508Y-32775234D01*
X42675980Y-32866395D01*
X42673870Y-32896552D01*
X42672130Y-32958808D01*
X42449342Y-32958808D01*
X42450007Y-32935420D01*
X42455267Y-32892656D01*
X42465329Y-32833580D01*
X42479106Y-32760387D01*
X42496731Y-32679106D01*
X42517465Y-32611688D01*
X42544388Y-32555187D01*
X42580582Y-32506657D01*
X42629127Y-32463151D01*
X42693104Y-32421724D01*
X42775593Y-32379429D01*
X42879677Y-32333321D01*
X42960861Y-32299710D01*
X43089446Y-32249068D01*
X43201371Y-32209236D01*
X43304717Y-32177772D01*
X43407565Y-32152233D01*
X43517995Y-32130178D01*
X43527320Y-32128505D01*
X43622469Y-32111525D01*
X43695007Y-32098961D01*
X43750004Y-32090582D01*
X43792530Y-32086156D01*
X43827653Y-32085451D01*
X43860441Y-32088238D01*
X43895965Y-32094283D01*
X43939293Y-32103357D01*
X43963739Y-32108590D01*
X44032354Y-32124250D01*
X44097936Y-32141089D01*
X44151037Y-32156597D01*
X44172845Y-32164166D01*
X44224071Y-32181357D01*
X44285223Y-32198164D01*
X44318381Y-32205765D01*
X44375726Y-32220741D01*
X44442632Y-32242690D01*
X44496535Y-32263557D01*
X44544782Y-32283368D01*
X44583302Y-32297861D01*
X44604571Y-32304225D01*
X44605626Y-32304309D01*
X44611736Y-32298943D01*
X44611727Y-32280692D01*
X44604922Y-32246330D01*
X44590641Y-32192630D01*
X44568207Y-32116365D01*
X44561372Y-32093812D01*
X44544553Y-32038300D01*
X44522084Y-31963781D01*
X44496336Y-31878146D01*
X44469683Y-31789282D01*
X44455825Y-31742983D01*
X44430158Y-31659533D01*
X44404096Y-31578947D01*
X44379883Y-31507886D01*
X44359765Y-31453006D01*
X44350310Y-31429976D01*
X44317984Y-31363665D01*
X44276896Y-31288652D01*
X44230681Y-31210689D01*
X44182975Y-31135527D01*
X44137412Y-31068920D01*
X44097628Y-31016620D01*
X44070450Y-30987145D01*
X44004708Y-30925900D01*
X43950457Y-30870107D01*
X43896731Y-30808385D01*
X43887821Y-30797648D01*
X43854463Y-30761074D01*
X43821154Y-30736188D01*
X43777815Y-30716764D01*
X43733456Y-30702275D01*
X43638215Y-30670538D01*
X43533361Y-30631304D01*
X44043031Y-30631304D01*
X44076363Y-30691010D01*
X44120934Y-30748942D01*
X44188168Y-30807705D01*
X44272937Y-30864187D01*
X44370117Y-30915280D01*
X44474581Y-30957872D01*
X44557930Y-30983219D01*
X44609896Y-30997300D01*
X44650748Y-31009806D01*
X44673295Y-31018494D01*
X44675220Y-31019797D01*
X44691586Y-31022507D01*
X44730981Y-31024228D01*
X44788385Y-31024878D01*
X44858776Y-31024374D01*
X44902042Y-31023554D01*
X44998684Y-31020423D01*
X45074332Y-31015550D01*
X45136043Y-31008148D01*
X45190872Y-30997432D01*
X45231218Y-30986891D01*
X45380902Y-30935314D01*
X45511594Y-30870300D01*
X45601264Y-30810827D01*
X45648110Y-30772518D01*
X45689242Y-30732372D01*
X45720484Y-30695291D01*
X45737665Y-30666182D01*
X45737516Y-30650712D01*
X45722229Y-30651272D01*
X45685807Y-30657580D01*
X45634321Y-30668486D01*
X45594196Y-30677846D01*
X45557080Y-30686528D01*
X45522759Y-30693550D01*
X45487777Y-30699088D01*
X45448678Y-30703322D01*
X45402006Y-30706427D01*
X45344303Y-30708584D01*
X45272114Y-30709968D01*
X45181982Y-30710759D01*
X45070451Y-30711134D01*
X44944668Y-30711265D01*
X44807466Y-30711194D01*
X44695311Y-30710737D01*
X44605184Y-30709774D01*
X44534066Y-30708183D01*
X44478940Y-30705846D01*
X44436787Y-30702642D01*
X44404588Y-30698452D01*
X44379325Y-30693155D01*
X44362293Y-30688110D01*
X44304172Y-30671877D01*
X44241922Y-30659065D01*
X44221961Y-30656160D01*
X44167102Y-30649167D01*
X44113230Y-30641787D01*
X44097413Y-30639475D01*
X44043031Y-30631304D01*
X43533361Y-30631304D01*
X43526968Y-30628912D01*
X43408330Y-30580976D01*
X43290917Y-30530313D01*
X43183345Y-30480502D01*
X43106326Y-30441638D01*
X42987735Y-30375134D01*
X42860737Y-30298068D01*
X42734030Y-30216055D01*
X42616312Y-30134711D01*
X42523950Y-30065702D01*
X42453258Y-30006270D01*
X42370649Y-29930431D01*
X42281255Y-29843474D01*
X42190206Y-29750688D01*
X42102634Y-29657361D01*
X42023671Y-29568783D01*
X41958447Y-29490243D01*
X41931998Y-29455580D01*
X41776065Y-29223391D01*
X41644400Y-28986287D01*
X41538014Y-28746440D01*
X41457917Y-28506025D01*
X41422603Y-28360994D01*
X41400229Y-28254681D01*
X41382594Y-28172766D01*
X41368944Y-28112121D01*
X41358524Y-28069623D01*
X41350578Y-28042144D01*
X41344352Y-28026559D01*
X41340462Y-28020898D01*
X41322498Y-28019399D01*
X41285698Y-28026006D01*
X41237629Y-28039308D01*
X41231885Y-28041150D01*
X41109388Y-28067799D01*
X40971732Y-28073887D01*
X40822811Y-28059461D01*
X40704108Y-28034710D01*
X40617272Y-28011650D01*
X40542605Y-27989262D01*
X40473527Y-27964919D01*
X40403455Y-27935992D01*
X40325808Y-27899851D01*
X40234005Y-27853867D01*
X40174875Y-27823314D01*
X40094091Y-27780968D01*
X40034400Y-27750910D01*
X39991374Y-27733750D01*
X39960585Y-27730100D01*
X39937603Y-27740569D01*
X39918002Y-27765770D01*
X39897352Y-27806311D01*
X39871225Y-27862805D01*
X39870026Y-27865357D01*
X39818604Y-27997266D01*
X39789983Y-28124378D01*
X39784413Y-28243820D01*
X39802146Y-28352721D01*
X39822654Y-28408707D01*
X39846493Y-28486000D01*
X39845875Y-28556074D01*
X39821158Y-28615804D01*
X39795661Y-28644710D01*
X39762335Y-28669355D01*
X39726725Y-28680942D01*
X39677948Y-28683757D01*
X39553392Y-28670480D01*
X39432225Y-28632442D01*
X39320988Y-28572332D01*
X39234743Y-28501556D01*
X39174721Y-28428638D01*
X39119247Y-28337822D01*
X39073470Y-28239270D01*
X39042538Y-28143143D01*
X39035592Y-28108398D01*
X39025106Y-28045457D01*
X39012122Y-27972065D01*
X39000870Y-27911613D01*
X38999960Y-27905777D01*
X39219892Y-27905777D01*
X39220130Y-27954673D01*
X39221822Y-27993229D01*
X39227233Y-28063453D01*
X39237267Y-28118019D01*
X39254840Y-28169279D01*
X39272705Y-28208803D01*
X39326074Y-28297136D01*
X39392798Y-28371593D01*
X39468123Y-28428252D01*
X39547295Y-28463191D01*
X39591551Y-28471809D01*
X39597550Y-28458682D01*
X39601039Y-28417810D01*
X39602020Y-28349123D01*
X39600496Y-28252552D01*
X39600437Y-28250191D01*
X39598523Y-28164964D01*
X39598195Y-28101378D01*
X39600073Y-28053023D01*
X39604779Y-28013490D01*
X39612933Y-27976371D01*
X39625157Y-27935255D01*
X39633420Y-27909888D01*
X39662381Y-27826505D01*
X39689246Y-27761928D01*
X39718576Y-27707697D01*
X39754932Y-27655350D01*
X39801505Y-27598038D01*
X39879287Y-27506354D01*
X39828117Y-27496754D01*
X39757009Y-27490365D01*
X39677260Y-27494062D01*
X39599233Y-27506494D01*
X39533289Y-27526314D01*
X39508438Y-27538367D01*
X39458233Y-27574873D01*
X39400316Y-27627879D01*
X39341699Y-27689993D01*
X39289398Y-27753822D01*
X39252873Y-27807728D01*
X39234787Y-27841130D01*
X39224286Y-27870871D01*
X39219892Y-27905777D01*
X38999960Y-27905777D01*
X38987936Y-27828700D01*
X38982256Y-27747148D01*
X38982371Y-27741496D01*
X39179434Y-27741496D01*
X39180014Y-27787315D01*
X39184391Y-27811193D01*
X39187496Y-27813702D01*
X39202732Y-27802938D01*
X39225844Y-27775571D01*
X39238917Y-27756980D01*
X39291065Y-27689446D01*
X39356617Y-27621032D01*
X39427574Y-27559092D01*
X39495934Y-27510979D01*
X39522344Y-27496468D01*
X39563971Y-27477394D01*
X39600453Y-27465407D01*
X39640652Y-27458899D01*
X39693433Y-27456262D01*
X39746168Y-27455856D01*
X39887282Y-27455856D01*
X40216279Y-27620014D01*
X40310222Y-27666180D01*
X40401053Y-27709508D01*
X40484192Y-27747915D01*
X40555062Y-27779315D01*
X40609084Y-27801624D01*
X40636492Y-27811347D01*
X40757085Y-27844990D01*
X40858018Y-27867363D01*
X40945120Y-27878938D01*
X41024223Y-27880187D01*
X41101158Y-27871583D01*
X41176294Y-27855040D01*
X41249425Y-27834501D01*
X41304077Y-27814414D01*
X41349338Y-27789970D01*
X41354887Y-27785821D01*
X41682985Y-27785821D01*
X41685534Y-27904032D01*
X41691567Y-28009004D01*
X41699715Y-28083569D01*
X41750905Y-28337015D01*
X41828634Y-28583953D01*
X41931844Y-28822983D01*
X42059475Y-29052707D01*
X42210470Y-29271725D01*
X42383769Y-29478640D01*
X42578314Y-29672051D01*
X42793047Y-29850561D01*
X43026909Y-30012769D01*
X43262273Y-30148626D01*
X43531016Y-30275856D01*
X43806440Y-30378157D01*
X44090658Y-30456031D01*
X44385782Y-30509983D01*
X44693926Y-30540518D01*
X44937652Y-30548370D01*
X45070956Y-30547971D01*
X45183899Y-30544945D01*
X45284098Y-30538900D01*
X45379168Y-30529444D01*
X45428812Y-30523089D01*
X45511361Y-30511186D01*
X45594603Y-30498122D01*
X45669322Y-30485409D01*
X45726301Y-30474554D01*
X45730525Y-30473660D01*
X46012242Y-30401304D01*
X46286621Y-30307228D01*
X46549831Y-30193172D01*
X46798040Y-30060875D01*
X47027419Y-29912074D01*
X47119807Y-29843060D01*
X47230989Y-29754435D01*
X47326511Y-29673432D01*
X47411356Y-29594907D01*
X47490506Y-29513718D01*
X47568942Y-29424724D01*
X47651647Y-29322782D01*
X47743603Y-29202750D01*
X47755233Y-29187237D01*
X47802323Y-29129992D01*
X47852536Y-29082308D01*
X47910788Y-29041183D01*
X47981994Y-29003618D01*
X48071070Y-28966610D01*
X48179128Y-28928429D01*
X48330231Y-28877867D01*
X48556483Y-28884002D01*
X48635843Y-28886780D01*
X48707417Y-28890448D01*
X48765555Y-28894628D01*
X48804604Y-28898943D01*
X48816377Y-28901390D01*
X48839330Y-28906904D01*
X48844941Y-28897034D01*
X48839844Y-28872101D01*
X48829141Y-28840168D01*
X48809987Y-28792227D01*
X48786128Y-28737550D01*
X48780872Y-28726084D01*
X48751768Y-28659426D01*
X48722427Y-28586176D01*
X48699265Y-28522376D01*
X48680185Y-28462233D01*
X48659253Y-28391329D01*
X48637998Y-28315449D01*
X48617944Y-28240377D01*
X48600618Y-28171901D01*
X48587547Y-28115804D01*
X48580255Y-28077873D01*
X48579254Y-28067444D01*
X48584529Y-28045891D01*
X48597592Y-28046366D01*
X48614305Y-28065491D01*
X48630525Y-28099891D01*
X48634664Y-28112639D01*
X48659120Y-28184385D01*
X48694470Y-28272956D01*
X48737368Y-28370995D01*
X48784465Y-28471142D01*
X48832415Y-28566039D01*
X48877869Y-28648327D01*
X48879969Y-28651898D01*
X48993279Y-28829537D01*
X49107284Y-28979351D01*
X49222281Y-29101581D01*
X49338564Y-29196466D01*
X49456428Y-29264246D01*
X49576168Y-29305161D01*
X49698078Y-29319449D01*
X49701906Y-29319469D01*
X49820887Y-29305901D01*
X49937452Y-29265603D01*
X50050741Y-29199866D01*
X50159891Y-29109983D01*
X50264042Y-28997247D01*
X50362333Y-28862949D01*
X50453901Y-28708382D01*
X50537887Y-28534838D01*
X50613428Y-28343610D01*
X50679663Y-28135991D01*
X50735731Y-27913272D01*
X50775532Y-27708453D01*
X50783763Y-27652262D01*
X50793218Y-27575554D01*
X50803069Y-27485805D01*
X50812486Y-27390491D01*
X50819127Y-27315525D01*
X50826913Y-27215179D01*
X50831938Y-27129060D01*
X50834279Y-27049043D01*
X50834015Y-26967005D01*
X50831226Y-26874822D01*
X50825990Y-26764370D01*
X50824699Y-26740166D01*
X50818860Y-26643948D01*
X50812090Y-26551815D01*
X50804892Y-26469357D01*
X50797765Y-26402165D01*
X50791209Y-26355831D01*
X50789518Y-26347237D01*
X50777000Y-26282668D01*
X50765779Y-26212240D01*
X50761461Y-26178840D01*
X50749410Y-26102545D01*
X50728809Y-26005981D01*
X50701138Y-25895090D01*
X50667876Y-25775816D01*
X50632270Y-25659613D01*
X50563935Y-25472298D01*
X50483576Y-25297201D01*
X50393081Y-25137171D01*
X50294337Y-24995055D01*
X50189234Y-24873701D01*
X50079658Y-24775956D01*
X50018156Y-24733284D01*
X49936133Y-24685448D01*
X49866703Y-24653870D01*
X49801530Y-24636111D01*
X49732278Y-24629730D01*
X49669211Y-24631129D01*
X49602001Y-24636911D01*
X49549034Y-24647959D01*
X49496530Y-24667945D01*
X49454266Y-24688409D01*
X49348320Y-24752669D01*
X49242461Y-24838485D01*
X49133531Y-24948471D01*
X49114240Y-24970033D01*
X49069544Y-25027555D01*
X49017977Y-25105187D01*
X48962923Y-25196911D01*
X48907767Y-25296713D01*
X48855891Y-25398575D01*
X48810680Y-25496481D01*
X48789531Y-25547348D01*
X48765834Y-25612930D01*
X48740706Y-25692113D01*
X48715756Y-25778678D01*
X48692591Y-25866406D01*
X48672818Y-25949080D01*
X48658046Y-26020481D01*
X48649882Y-26074390D01*
X48648787Y-26091736D01*
X48643758Y-26141029D01*
X48632189Y-26186402D01*
X48629584Y-26192873D01*
X48611014Y-26234972D01*
X48600583Y-26182320D01*
X48598182Y-26141486D01*
X48601783Y-26076399D01*
X48611153Y-25990170D01*
X48619786Y-25927251D01*
X48632656Y-25831461D01*
X48642047Y-25745142D01*
X48647739Y-25671989D01*
X48649515Y-25615695D01*
X48647156Y-25579954D01*
X48641032Y-25568398D01*
X48626625Y-25575971D01*
X48594913Y-25596291D01*
X48551404Y-25625761D01*
X48525258Y-25643991D01*
X48426565Y-25706937D01*
X48323797Y-25758166D01*
X48207323Y-25802169D01*
X48142298Y-25822460D01*
X48100042Y-25833691D01*
X48056131Y-25842214D01*
X48005248Y-25848549D01*
X47942072Y-25853212D01*
X47861284Y-25856721D01*
X47761610Y-25859498D01*
X47674137Y-25861110D01*
X47594549Y-25861735D01*
X47527767Y-25861403D01*
X47478713Y-25860141D01*
X47452310Y-25857977D01*
X47451128Y-25857718D01*
X47427604Y-25845493D01*
X47388824Y-25818601D01*
X47340394Y-25781153D01*
X47293468Y-25742063D01*
X47057419Y-25554237D01*
X46814286Y-25392289D01*
X46560487Y-25254249D01*
X46292443Y-25138150D01*
X46036916Y-25051050D01*
X45892212Y-25008707D01*
X45772026Y-24976486D01*
X45674837Y-24954032D01*
X45599124Y-24940993D01*
X45546087Y-24937004D01*
X45498334Y-24934138D01*
X45436857Y-24926737D01*
X45377689Y-24916895D01*
X45264973Y-24900792D01*
X45130508Y-24891205D01*
X44979827Y-24888067D01*
X44818465Y-24891310D01*
X44651956Y-24900867D01*
X44485834Y-24916671D01*
X44390359Y-24928882D01*
X44146400Y-24974241D01*
X43895088Y-25041412D01*
X43643036Y-25127864D01*
X43396857Y-25231064D01*
X43163164Y-25348482D01*
X42948571Y-25477584D01*
X42936918Y-25485331D01*
X42811816Y-25576219D01*
X42678975Y-25685602D01*
X42544580Y-25807606D01*
X42414815Y-25936356D01*
X42295862Y-26065976D01*
X42193907Y-26190593D01*
X42192175Y-26192873D01*
X42064203Y-26380906D01*
X41950443Y-26586858D01*
X41853607Y-26804352D01*
X41776403Y-27027008D01*
X41721542Y-27248448D01*
X41706261Y-27336575D01*
X41695558Y-27429747D01*
X41688065Y-27540879D01*
X41683851Y-27662170D01*
X41682985Y-27785821D01*
X41354887Y-27785821D01*
X41394296Y-27756358D01*
X41441701Y-27714578D01*
X41520580Y-27642488D01*
X41520580Y-27546146D01*
X41522661Y-27490043D01*
X41528260Y-27417507D01*
X41536407Y-27339809D01*
X41542138Y-27295243D01*
X41551569Y-27225684D01*
X41555866Y-27175079D01*
X41553222Y-27135405D01*
X41541833Y-27098641D01*
X41519892Y-27056764D01*
X41485594Y-27001753D01*
X41470912Y-26978812D01*
X41405120Y-26893505D01*
X41325610Y-26824211D01*
X41228492Y-26768415D01*
X41109877Y-26723601D01*
X41050470Y-26706867D01*
X40956064Y-26683629D01*
X40860309Y-26662089D01*
X40770841Y-26643828D01*
X40695297Y-26630429D01*
X40654033Y-26624706D01*
X40619658Y-26617638D01*
X40597611Y-26607569D01*
X40592358Y-26598145D01*
X40608367Y-26593010D01*
X40614959Y-26592818D01*
X40685629Y-26597324D01*
X40774734Y-26609751D01*
X40875257Y-26628465D01*
X40980180Y-26651827D01*
X41082485Y-26678204D01*
X41175155Y-26705958D01*
X41251171Y-26733454D01*
X41286126Y-26749279D01*
X41353360Y-26793095D01*
X41418858Y-26852423D01*
X41476507Y-26920192D01*
X41520194Y-26989332D01*
X41542158Y-27045387D01*
X41552381Y-27073250D01*
X41562473Y-27083978D01*
X41574145Y-27071835D01*
X41590836Y-27040485D01*
X41609311Y-26997546D01*
X41626336Y-26950635D01*
X41638674Y-26907371D01*
X41639945Y-26901547D01*
X41651032Y-26861505D01*
X41669117Y-26809151D01*
X41684590Y-26769741D01*
X41704676Y-26714001D01*
X41710621Y-26669048D01*
X41701152Y-26626029D01*
X41674993Y-26576091D01*
X41651570Y-26540319D01*
X41592082Y-26470457D01*
X41509508Y-26399245D01*
X41408493Y-26329648D01*
X41293684Y-26264631D01*
X41169727Y-26207159D01*
X41071519Y-26170100D01*
X41021170Y-26153521D01*
X40978491Y-26141406D01*
X40937222Y-26132912D01*
X40891101Y-26127192D01*
X40833865Y-26123402D01*
X40759253Y-26120698D01*
X40692624Y-26118981D01*
X40594617Y-26117216D01*
X40519034Y-26117439D01*
X40460282Y-26119944D01*
X40412770Y-26125026D01*
X40370908Y-26132978D01*
X40355829Y-26136681D01*
X40164270Y-26199149D01*
X39987772Y-26284167D01*
X39823594Y-26393293D01*
X39670101Y-26527005D01*
X39532779Y-26680360D01*
X39416496Y-26849160D01*
X39322981Y-27030046D01*
X39253962Y-27219662D01*
X39211167Y-27414651D01*
X39210356Y-27420204D01*
X39198112Y-27513089D01*
X39188720Y-27600312D01*
X39182415Y-27677805D01*
X39179434Y-27741496D01*
X38982371Y-27741496D01*
X38984033Y-27660303D01*
X38993471Y-27561516D01*
X39010775Y-27444135D01*
X39016207Y-27411963D01*
X39039606Y-27287131D01*
X39064471Y-27181338D01*
X39093721Y-27085598D01*
X39130273Y-26990922D01*
X39177048Y-26888322D01*
X39204074Y-26833448D01*
X39311597Y-26649058D01*
X39440274Y-26480873D01*
X39587836Y-26330719D01*
X39752012Y-26200422D01*
X39930532Y-26091808D01*
X40121125Y-26006706D01*
X40299640Y-25952079D01*
X40426795Y-25928629D01*
X40566324Y-25915533D01*
X40709172Y-25912881D01*
X40846279Y-25920766D01*
X40968588Y-25939281D01*
X40993562Y-25945024D01*
X41167974Y-25996893D01*
X41333805Y-26063067D01*
X41484906Y-26140727D01*
X41615128Y-26227058D01*
X41624009Y-26233902D01*
X41664898Y-26264912D01*
X41697063Y-26287700D01*
X41714351Y-26297936D01*
X41715264Y-26298121D01*
X41726447Y-26287091D01*
X41747779Y-26257975D01*
X41774936Y-26216731D01*
X41778903Y-26210414D01*
X41808571Y-26165235D01*
X41850014Y-26105243D01*
X41897962Y-26037928D01*
X41947151Y-25970779D01*
X41952044Y-25964217D01*
X42129911Y-25748573D01*
X42331260Y-25545551D01*
X42553631Y-25357052D01*
X42794568Y-25184980D01*
X43051613Y-25031236D01*
X43322307Y-24897723D01*
X43340225Y-24889830D01*
X43476818Y-24834338D01*
X43627759Y-24780359D01*
X43785528Y-24730122D01*
X43942605Y-24685854D01*
X44091472Y-24649785D01*
X44224610Y-24624141D01*
X44249624Y-24620325D01*
X44324916Y-24609306D01*
X44404308Y-24597453D01*
X44474384Y-24586777D01*
X44495608Y-24583473D01*
X44548629Y-24577822D01*
X44624259Y-24573403D01*
X44717066Y-24570215D01*
X44821618Y-24568257D01*
X44932485Y-24567530D01*
X45044236Y-24568032D01*
X45151438Y-24569763D01*
X45248662Y-24572722D01*
X45330475Y-24576909D01*
X45391447Y-24582323D01*
X45400746Y-24583565D01*
X45532261Y-24602883D01*
X45641534Y-24619798D01*
X45734151Y-24635540D01*
X45815701Y-24651335D01*
X45891771Y-24668415D01*
X45967949Y-24688006D01*
X46049821Y-24711339D01*
X46142977Y-24739641D01*
X46219931Y-24763709D01*
X46487109Y-24860806D01*
X46752199Y-24982231D01*
X47008959Y-25124598D01*
X47251145Y-25284518D01*
X47421581Y-25415684D01*
X47477869Y-25461159D01*
X47519471Y-25491566D01*
X47552730Y-25510426D01*
X47583986Y-25521260D01*
X47619582Y-25527588D01*
X47624197Y-25528181D01*
X47758047Y-25537974D01*
X47888351Y-25534431D01*
X47996878Y-25519347D01*
X48104959Y-25486974D01*
X48219093Y-25435646D01*
X48332839Y-25369636D01*
X48439753Y-25293218D01*
X48533393Y-25210663D01*
X48607314Y-25126245D01*
X48622576Y-25104417D01*
X48652612Y-25058631D01*
X48691584Y-24998863D01*
X48733231Y-24934725D01*
X48754522Y-24901823D01*
X48801224Y-24835380D01*
X48859238Y-24761258D01*
X48919366Y-24690931D01*
X48949764Y-24658275D01*
X49063685Y-24549389D01*
X49173403Y-24463856D01*
X49284308Y-24398655D01*
X49401792Y-24350764D01*
X49531247Y-24317162D01*
X49571881Y-24309644D01*
X49638004Y-24298969D01*
X49686941Y-24293640D01*
X49729066Y-24293686D01*
G37*
X49729066Y-24293686D02*
X49774752Y-24299133D01*
X49834371Y-24310009D01*
X49836096Y-24310344D01*
X49998442Y-24355427D01*
X50151410Y-24425874D01*
X50295312Y-24521967D01*
X50430461Y-24643986D01*
X50557168Y-24792211D01*
X50675745Y-24966925D01*
X50783714Y-25162809D01*
X50859151Y-25330808D01*
X50929443Y-25521145D01*
X50993116Y-25728334D01*
X51048698Y-25946886D01*
X51094716Y-26171317D01*
X51129695Y-26396137D01*
X51141296Y-26494586D01*
X51150957Y-26614210D01*
X51157326Y-26753604D01*
X51160416Y-26904920D01*
X51160243Y-27060310D01*
X51156821Y-27211928D01*
X51150166Y-27351927D01*
X51140291Y-27472459D01*
X51139450Y-27480234D01*
X51131285Y-27551875D01*
X51123803Y-27613150D01*
X51117681Y-27658843D01*
X51113592Y-27683739D01*
X51112741Y-27686617D01*
X51108745Y-27702631D01*
X51101207Y-27740937D01*
X51091138Y-27796132D01*
X51079548Y-27862813D01*
X51077171Y-27876851D01*
X51038151Y-28067764D01*
X50985113Y-28266465D01*
X50921044Y-28463615D01*
X50848931Y-28649878D01*
X50785363Y-28789005D01*
X50691108Y-28960265D01*
X50586089Y-29117308D01*
X50472845Y-29257216D01*
X50353915Y-29377073D01*
X50231841Y-29473958D01*
X50141418Y-29528916D01*
X50032083Y-29581090D01*
X49931930Y-29615700D01*
X49830654Y-29635378D01*
X49717951Y-29642756D01*
X49694889Y-29642983D01*
X49565612Y-29636868D01*
X49449418Y-29616197D01*
X49339790Y-29578640D01*
X49230210Y-29521868D01*
X49114160Y-29443550D01*
X49093347Y-29427947D01*
X49022078Y-29374034D01*
X48967966Y-29334095D01*
X48925863Y-29305069D01*
X48890622Y-29283895D01*
X48857096Y-29267511D01*
X48820138Y-29252854D01*
X48774600Y-29236864D01*
X48768702Y-29234843D01*
X48629846Y-29201696D01*
X48489524Y-29196353D01*
X48349841Y-29218782D01*
X48274512Y-29242768D01*
X48192942Y-29274343D01*
X48132276Y-29301057D01*
X48086772Y-29326863D01*
X48050688Y-29355716D01*
X48018282Y-29391568D01*
X47983812Y-29438375D01*
X47977740Y-29447119D01*
X47885307Y-29568705D01*
X47772405Y-29697320D01*
X47644041Y-29828219D01*
X47505223Y-29956657D01*
X47360958Y-30077888D01*
X47216255Y-30187167D01*
X47145713Y-30235570D01*
X46965849Y-30346675D01*
X46774155Y-30450795D01*
X46577448Y-30544772D01*
X46382544Y-30625447D01*
X46196262Y-30689663D01*
X46115893Y-30712660D01*
X46034508Y-30735280D01*
X45975638Y-30754664D01*
X45934302Y-30773196D01*
X45905518Y-30793265D01*
X45884304Y-30817255D01*
X45878011Y-30826603D01*
X45854411Y-30857045D01*
X45818269Y-30896661D01*
X45783857Y-30930699D01*
X45714781Y-30995486D01*
X45687235Y-31337660D01*
X45678797Y-31440913D01*
X45670288Y-31542234D01*
X45662209Y-31635860D01*
X45655060Y-31716026D01*
X45649344Y-31776968D01*
X45647107Y-31799116D01*
X45643172Y-31850522D01*
X45639625Y-31923443D01*
X45636681Y-32011325D01*
X45634554Y-32107619D01*
X45633459Y-32205771D01*
X45633409Y-32217043D01*
X45633283Y-32324208D01*
X45634373Y-32405838D01*
X45637521Y-32464457D01*
X45643573Y-32502593D01*
X45653373Y-32522774D01*
X45667764Y-32527526D01*
X45687592Y-32519377D01*
X45713700Y-32500852D01*
X45725209Y-32491805D01*
X45876623Y-32376381D01*
X46016690Y-32280664D01*
X46150763Y-32201808D01*
X46284198Y-32136963D01*
X46422349Y-32083281D01*
X46570570Y-32037914D01*
X46586547Y-32033620D01*
X46650573Y-32017212D01*
X46704114Y-32005556D01*
X46754627Y-31997815D01*
X46809574Y-31993156D01*
X46876414Y-31990745D01*
X46962607Y-31989745D01*
X46979475Y-31989657D01*
X47104917Y-31991125D01*
X47210426Y-31997686D01*
X47303875Y-32010620D01*
X47393137Y-32031207D01*
X47486086Y-32060727D01*
X47540826Y-32080926D01*
X47634475Y-32121383D01*
X47732175Y-32171539D01*
X47826192Y-32226848D01*
X47908790Y-32282764D01*
X47971480Y-32334030D01*
X48044314Y-32402541D01*
X48227384Y-32402541D01*
X48296108Y-32402882D01*
X48352696Y-32404548D01*
X48403125Y-32408502D01*
X48453372Y-32415711D01*
X48509413Y-32427138D01*
X48577226Y-32443748D01*
X48662786Y-32466507D01*
X48719466Y-32481964D01*
X48873303Y-32533305D01*
X49032145Y-32602951D01*
X49185899Y-32685840D01*
X49324469Y-32776907D01*
X49358094Y-32802336D01*
X49528113Y-32951269D01*
X49680999Y-33117725D01*
X49814841Y-33298560D01*
X49927728Y-33490631D01*
X50017747Y-33690796D01*
X50082987Y-33895910D01*
X50113469Y-34044420D01*
X50131540Y-34161386D01*
X50145048Y-34254854D01*
X50154328Y-34328963D01*
X50159715Y-34387851D01*
X50161543Y-34435656D01*
X50160145Y-34476516D01*
X50155858Y-34514569D01*
X50152929Y-34532722D01*
X50142671Y-34596104D01*
X50131633Y-34670902D01*
X50122447Y-34739061D01*
X50100150Y-34875721D01*
X50067532Y-35005846D01*
X50022114Y-35137071D01*
X49961417Y-35277035D01*
X49920884Y-35359987D01*
X49874651Y-35443691D01*
X49829393Y-35505872D01*
X49779325Y-35552243D01*
X49718662Y-35588521D01*
X49666823Y-35610960D01*
X49605096Y-35632310D01*
X49549008Y-35644112D01*
X49484937Y-35648758D01*
X49449309Y-35649151D01*
X49339702Y-35641181D01*
X49240418Y-35615800D01*
X49145690Y-35570549D01*
X49049752Y-35502968D01*
X48993799Y-35454860D01*
X48921698Y-35383591D01*
X48874206Y-35321593D01*
X48850607Y-35266039D01*
X48850186Y-35214104D01*
X48872224Y-35162961D01*
X48908349Y-35117717D01*
X48940678Y-35087404D01*
X48970882Y-35073037D01*
X49012468Y-35068931D01*
X49024505Y-35068840D01*
X49070009Y-35072774D01*
X49113529Y-35086584D01*
X49160888Y-35113280D01*
X49217908Y-35155873D01*
X49258879Y-35190057D01*
X49306604Y-35224688D01*
X49342137Y-35235357D01*
X49367646Y-35222219D01*
X49380815Y-35198646D01*
X49389056Y-35155844D01*
X49390312Y-35094281D01*
X49385173Y-35022224D01*
X49374224Y-34947939D01*
X49358194Y-34880167D01*
X49333444Y-34816737D01*
X49296287Y-34760134D01*
X49263052Y-34722295D01*
X49225627Y-34683837D01*
X49198308Y-34661600D01*
X49172208Y-34651146D01*
X49138437Y-34648036D01*
X49113986Y-34647846D01*
X49072426Y-34649763D01*
X49035244Y-34657381D01*
X48994129Y-34673502D01*
X48940771Y-34700928D01*
X48916257Y-34714503D01*
X48843767Y-34761610D01*
X48759377Y-34827325D01*
X48667578Y-34907472D01*
X48572860Y-34997876D01*
X48479712Y-35094361D01*
X48392626Y-35192752D01*
X48361693Y-35230221D01*
X48295538Y-35307985D01*
X48218032Y-35392345D01*
X48133449Y-35479217D01*
X48046066Y-35564517D01*
X47960161Y-35644163D01*
X47880009Y-35714070D01*
X47809888Y-35770156D01*
X47760024Y-35804742D01*
X47595195Y-35893637D01*
X47433765Y-35954972D01*
X47276120Y-35988771D01*
X47122650Y-35995062D01*
X46973744Y-35973870D01*
X46829789Y-35925221D01*
X46691175Y-35849139D01*
X46558290Y-35745652D01*
X46534217Y-35723364D01*
X46501764Y-35694239D01*
X46478206Y-35676263D01*
X46469839Y-35673140D01*
X46460115Y-35687193D01*
X46439601Y-35717942D01*
X46414227Y-35756464D01*
X46336479Y-35861778D01*
X46245121Y-35959323D01*
X46134742Y-36054528D01*
X46064123Y-36107746D01*
X45999289Y-36153919D01*
X45951605Y-36185526D01*
X45916042Y-36205206D01*
X45887576Y-36215595D01*
X45861178Y-36219333D01*
X45851057Y-36219558D01*
X45815267Y-36222289D01*
X45786258Y-36233786D01*
X45754620Y-36259002D01*
X45729938Y-36283309D01*
X45696175Y-36315099D01*
X45662905Y-36338507D01*
X45622018Y-36357822D01*
X45565403Y-36377335D01*
X45534061Y-36386896D01*
X45428176Y-36417615D01*
X45341405Y-36440121D01*
X45266424Y-36455615D01*
X45195906Y-36465298D01*
X45122527Y-36470373D01*
X45038961Y-36472041D01*
X45014834Y-36472065D01*
X44917318Y-36470400D01*
X44834141Y-36464799D01*
X44756744Y-36453797D01*
X44676564Y-36435930D01*
X44585040Y-36409733D01*
X44509641Y-36385656D01*
X44433500Y-36359540D01*
X44367364Y-36333664D01*
X44304262Y-36304629D01*
X44237228Y-36269036D01*
X44159292Y-36223485D01*
X44089190Y-36180554D01*
X43930926Y-36089069D01*
X43774349Y-36013116D01*
X43623369Y-35952318D01*
X43521775Y-35918291D01*
X43424381Y-35894220D01*
X43322970Y-35878806D01*
X43209324Y-35870755D01*
X43093609Y-35868729D01*
X43007248Y-35869259D01*
X42941933Y-35871357D01*
X42890652Y-35875784D01*
X42846397Y-35883299D01*
X42802156Y-35894665D01*
X42773128Y-35903515D01*
X42670535Y-35945559D01*
X42593055Y-35999162D01*
X42539982Y-36064881D01*
X42522990Y-36100838D01*
X42510355Y-36139056D01*
X42507965Y-36169628D01*
X42517840Y-36200631D01*
X42542001Y-36240145D01*
X42566350Y-36274258D01*
X42595224Y-36334511D01*
X42600519Y-36397561D01*
X42585035Y-36457918D01*
X42551572Y-36510095D01*
X42502932Y-36548601D01*
X42441914Y-36567949D01*
X42415890Y-36569132D01*
X42372690Y-36564304D01*
X42321384Y-36553785D01*
X42306436Y-36549797D01*
X42144473Y-36495276D01*
X42008714Y-36431986D01*
X41899363Y-36360035D01*
X41837871Y-36303757D01*
X41789269Y-36238787D01*
X41741111Y-36147821D01*
X41693083Y-36030174D01*
X41644870Y-35885160D01*
X41644140Y-35882762D01*
X41628295Y-35828439D01*
X41617225Y-35782483D01*
X41610104Y-35737671D01*
X41606105Y-35686778D01*
X41604401Y-35622580D01*
X41604165Y-35537853D01*
X41604175Y-35533693D01*
X41604517Y-35525149D01*
X41801243Y-35525149D01*
X41801243Y-35526318D01*
X41801737Y-35613224D01*
X41803712Y-35678944D01*
X41807909Y-35730348D01*
X41815067Y-35774309D01*
X41825926Y-35817696D01*
X41836317Y-35852011D01*
X41877370Y-35969151D01*
X41919926Y-36066435D01*
X41962616Y-36141069D01*
X42000012Y-36186554D01*
X42044280Y-36221196D01*
X42103029Y-36257564D01*
X42168570Y-36291893D01*
X42233213Y-36320419D01*
X42289269Y-36339378D01*
X42324005Y-36345155D01*
X42376657Y-36345856D01*
X42348563Y-36293440D01*
X42330756Y-36248128D01*
X42322062Y-36191496D01*
X42320470Y-36140348D01*
X42321560Y-36086800D01*
X42327162Y-36048323D01*
X42340769Y-36013805D01*
X42365878Y-35972132D01*
X42380110Y-35950693D01*
X42455771Y-35861680D01*
X42552610Y-35789200D01*
X42671221Y-35732961D01*
X42812200Y-35692669D01*
X42947432Y-35671036D01*
X43080980Y-35662226D01*
X43214900Y-35667040D01*
X43357242Y-35686122D01*
X43493160Y-35714584D01*
X43674958Y-35765016D01*
X43846615Y-35828530D01*
X44016056Y-35908524D01*
X44191209Y-36008395D01*
X44219495Y-36025946D01*
X44318854Y-36084847D01*
X44418264Y-36137634D01*
X44512092Y-36181667D01*
X44594711Y-36214308D01*
X44660489Y-36232915D01*
X44661274Y-36233066D01*
X44717706Y-36244665D01*
X44772965Y-36257412D01*
X44797320Y-36263695D01*
X44863897Y-36274787D01*
X44950550Y-36278661D01*
X45050432Y-36276022D01*
X45156694Y-36267577D01*
X45262491Y-36254031D01*
X45360973Y-36236090D01*
X45445293Y-36214461D01*
X45507323Y-36190498D01*
X45558606Y-36154076D01*
X45612489Y-36098358D01*
X45663423Y-36030905D01*
X45705857Y-35959278D01*
X45734239Y-35891036D01*
X45738404Y-35875746D01*
X45753883Y-35831437D01*
X45773476Y-35804087D01*
X45786370Y-35798563D01*
X45792021Y-35811480D01*
X45797974Y-35845832D01*
X45803176Y-35895019D01*
X45804449Y-35911915D01*
X45808965Y-35965562D01*
X45814076Y-36007625D01*
X45818855Y-36030892D01*
X45820005Y-36033053D01*
X45834815Y-36029329D01*
X45865891Y-36009991D01*
X45908912Y-35978503D01*
X45959557Y-35938326D01*
X46013505Y-35892923D01*
X46066435Y-35845758D01*
X46114026Y-35800292D01*
X46127220Y-35786876D01*
X46200796Y-35705328D01*
X46256600Y-35629143D01*
X46300547Y-35548634D01*
X46338555Y-35454112D01*
X46348933Y-35423834D01*
X46367533Y-35366730D01*
X46379328Y-35322209D01*
X46383896Y-35283581D01*
X46380819Y-35244158D01*
X46369675Y-35197249D01*
X46350044Y-35136167D01*
X46326628Y-35068840D01*
X46303648Y-34999483D01*
X46283153Y-34930795D01*
X46267914Y-34872415D01*
X46262097Y-34844309D01*
X46254529Y-34794549D01*
X46245997Y-34731689D01*
X46237515Y-34664085D01*
X46230096Y-34600090D01*
X46224756Y-34548058D01*
X46222568Y-34518506D01*
X46209688Y-34487605D01*
X46268114Y-34487605D01*
X46272050Y-34678798D01*
X46302952Y-34872279D01*
X46360125Y-35065573D01*
X46442873Y-35256207D01*
X46524683Y-35401396D01*
X46617675Y-35528469D01*
X46722776Y-35632084D01*
X46838210Y-35711502D01*
X46962198Y-35765983D01*
X47092963Y-35794788D01*
X47228726Y-35797178D01*
X47367711Y-35772412D01*
X47396364Y-35763938D01*
X47466300Y-35737899D01*
X47542124Y-35703628D01*
X47604078Y-35670445D01*
X47644981Y-35645014D01*
X47684734Y-35618041D01*
X47725185Y-35587728D01*
X47768184Y-35552279D01*
X47815579Y-35509899D01*
X47869218Y-35458790D01*
X47930949Y-35397156D01*
X48002623Y-35323200D01*
X48086086Y-35235126D01*
X48183188Y-35131138D01*
X48295777Y-35009439D01*
X48393612Y-34903157D01*
X48532929Y-34762666D01*
X48670313Y-34646118D01*
X48804079Y-34554871D01*
X48872557Y-34517419D01*
X48936272Y-34487391D01*
X48986789Y-34468824D01*
X49034901Y-34458609D01*
X49091396Y-34453635D01*
X49094441Y-34453478D01*
X49186299Y-34455342D01*
X49261584Y-34473321D01*
X49328532Y-34510407D01*
X49384832Y-34558988D01*
X49443155Y-34623453D01*
X49487818Y-34690933D01*
X49523303Y-34769667D01*
X49554094Y-34867896D01*
X49555300Y-34872379D01*
X49582532Y-35008773D01*
X49586762Y-35131616D01*
X49567564Y-35244025D01*
X49524518Y-35349119D01*
X49481230Y-35418243D01*
X49457153Y-35451900D01*
X49529822Y-35444918D01*
X49585739Y-35434954D01*
X49632238Y-35414497D01*
X49673198Y-35379850D01*
X49712500Y-35327317D01*
X49754024Y-35253198D01*
X49774486Y-35211780D01*
X49843085Y-35054650D01*
X49892604Y-34905721D01*
X49925737Y-34755486D01*
X49943350Y-34616116D01*
X49950805Y-34477534D01*
X49949620Y-34334335D01*
X49940357Y-34193867D01*
X49923576Y-34063480D01*
X49899839Y-33950524D01*
X49889909Y-33916206D01*
X49805552Y-33690988D01*
X49700904Y-33484887D01*
X49576188Y-33298169D01*
X49431624Y-33131098D01*
X49267436Y-32983943D01*
X49083844Y-32856967D01*
X48940703Y-32778650D01*
X48775004Y-32704383D01*
X48617560Y-32650690D01*
X48459893Y-32615613D01*
X48293522Y-32597194D01*
X48137210Y-32593183D01*
X47919021Y-32607436D01*
X47706679Y-32647906D01*
X47497738Y-32715212D01*
X47301475Y-32803896D01*
X47215855Y-32854249D01*
X47120195Y-32920959D01*
X47021641Y-32998200D01*
X46927342Y-33080142D01*
X46844444Y-33160956D01*
X46793136Y-33218435D01*
X46735337Y-33292336D01*
X46678771Y-33371054D01*
X46625215Y-33451384D01*
X46576445Y-33530127D01*
X46534241Y-33604079D01*
X46500377Y-33670038D01*
X46476633Y-33724803D01*
X46464785Y-33765171D01*
X46466611Y-33787940D01*
X46474882Y-33791823D01*
X46490152Y-33782637D01*
X46521329Y-33757477D01*
X46564200Y-33719940D01*
X46614555Y-33673624D01*
X46626849Y-33662017D01*
X46753941Y-33552873D01*
X46893483Y-33455808D01*
X47049175Y-33368788D01*
X47224719Y-33289778D01*
X47423816Y-33216746D01*
X47457223Y-33205765D01*
X47534440Y-33182534D01*
X47602435Y-33165476D01*
X47657003Y-33155354D01*
X47693942Y-33152928D01*
X47709050Y-33158959D01*
X47709199Y-33160129D01*
X47696596Y-33168461D01*
X47662970Y-33181081D01*
X47614596Y-33195748D01*
X47593425Y-33201452D01*
X47535364Y-33217256D01*
X47483990Y-33232441D01*
X47448349Y-33244299D01*
X47442569Y-33246592D01*
X47414764Y-33257417D01*
X47367851Y-33274627D01*
X47309276Y-33295519D01*
X47267155Y-33310252D01*
X47122258Y-33367032D01*
X46987112Y-33434571D01*
X46854320Y-33517105D01*
X46716488Y-33618871D01*
X46686650Y-33642726D01*
X46593835Y-33725418D01*
X46517001Y-33812388D01*
X46449871Y-33911692D01*
X46390064Y-34023370D01*
X46343053Y-34125959D01*
X46309897Y-34215992D01*
X46287936Y-34303603D01*
X46274506Y-34398926D01*
X46268114Y-34487605D01*
X46209688Y-34487605D01*
X46209599Y-34487393D01*
X46176062Y-34449474D01*
X46127124Y-34409144D01*
X46067954Y-34370795D01*
X46019146Y-34345597D01*
X45949315Y-34315347D01*
X45882757Y-34290980D01*
X45814872Y-34271694D01*
X45741060Y-34256690D01*
X45656721Y-34245166D01*
X45557255Y-34236322D01*
X45438063Y-34229357D01*
X45323563Y-34224531D01*
X45207114Y-34220169D01*
X45082568Y-34215492D01*
X44958168Y-34210810D01*
X44842159Y-34206434D01*
X44742783Y-34202674D01*
X44710735Y-34201457D01*
X44628651Y-34197739D01*
X44556248Y-34193323D01*
X44498204Y-34188587D01*
X44459195Y-34183908D01*
X44444105Y-34179945D01*
X44453864Y-34176605D01*
X44490114Y-34174685D01*
X44551316Y-34174159D01*
X44635932Y-34175001D01*
X44742425Y-34177183D01*
X44869256Y-34180680D01*
X45014887Y-34185464D01*
X45177779Y-34191509D01*
X45228840Y-34193526D01*
X45318041Y-34196511D01*
X45381987Y-34197178D01*
X45423402Y-34195434D01*
X45445008Y-34191188D01*
X45449862Y-34186023D01*
X45438546Y-34163068D01*
X45406891Y-34128186D01*
X45358332Y-34084362D01*
X45296305Y-34034583D01*
X45224246Y-33981833D01*
X45180362Y-33951823D01*
X45017448Y-33850707D01*
X44856843Y-33767411D01*
X44691632Y-33699185D01*
X44514895Y-33643277D01*
X44319717Y-33596936D01*
X44257044Y-33584584D01*
X44197383Y-33575844D01*
X44121180Y-33568446D01*
X44034161Y-33562552D01*
X43942054Y-33558325D01*
X43850588Y-33555929D01*
X43765490Y-33555527D01*
X43692487Y-33557282D01*
X43637308Y-33561358D01*
X43610640Y-33566159D01*
X43572106Y-33575271D01*
X43516896Y-33585637D01*
X43456201Y-33595179D01*
X43449259Y-33596145D01*
X43233216Y-33639241D01*
X43018441Y-33708112D01*
X42809282Y-33800635D01*
X42610087Y-33914686D01*
X42425203Y-34048144D01*
X42302261Y-34156135D01*
X42249080Y-34209885D01*
X42193597Y-34270934D01*
X42139180Y-34334992D01*
X42089194Y-34397767D01*
X42047006Y-34454965D01*
X42015984Y-34502297D01*
X41999492Y-34535469D01*
X41997707Y-34544392D01*
X42005618Y-34555414D01*
X42032231Y-34561523D01*
X42081872Y-34563621D01*
X42090138Y-34563646D01*
X42182570Y-34563646D01*
X42074140Y-34679420D01*
X41986711Y-34786496D01*
X41917375Y-34903043D01*
X41865147Y-35032122D01*
X41829039Y-35176792D01*
X41808067Y-35340114D01*
X41801243Y-35525149D01*
X41604517Y-35525149D01*
X41612055Y-35336872D01*
X41635529Y-35157845D01*
X41675915Y-34990241D01*
X41734533Y-34827689D01*
X41764106Y-34761102D01*
X41785027Y-34710323D01*
X41793818Y-34666933D01*
X41793107Y-34615526D01*
X41791713Y-34599200D01*
X41790454Y-34547254D01*
X41798359Y-34497837D01*
X41817579Y-34446016D01*
X41850268Y-34386857D01*
X41898579Y-34315429D01*
X41940230Y-34258953D01*
X42068070Y-34108622D01*
X42219310Y-33964283D01*
X42389381Y-33829591D01*
X42573713Y-33708202D01*
X42745719Y-33614485D01*
X42807457Y-33584025D01*
X42860960Y-33557594D01*
X42900675Y-33537938D01*
X42921048Y-33527803D01*
X42921464Y-33527593D01*
X42933436Y-33511768D01*
X42950568Y-33478567D01*
X42968896Y-33437159D01*
X42984458Y-33396709D01*
X42993291Y-33366385D01*
X42994061Y-33359663D01*
X42984264Y-33364432D01*
X42959232Y-33382367D01*
X42939948Y-33397295D01*
X42881326Y-33438333D01*
X42832365Y-33458742D01*
X42786258Y-33460619D01*
X42756984Y-33453675D01*
X42724010Y-33441335D01*
X42695460Y-33425035D01*
X42666446Y-33400429D01*
X42632082Y-33363174D01*
X42587481Y-33308927D01*
X42571379Y-33288697D01*
X42520877Y-33219037D01*
X42490226Y-33162942D01*
X42481496Y-33134332D01*
X42472402Y-33085763D01*
X42460515Y-33032512D01*
X42458460Y-33024235D01*
X42452060Y-32995370D01*
X42449090Y-32967712D01*
X42449342Y-32958808D01*
X42672130Y-32958808D01*
X42672769Y-33016032D01*
X42675613Y-33058159D01*
X42676787Y-33065908D01*
X42687991Y-33098175D01*
X42708659Y-33138420D01*
X42733833Y-33178877D01*
X42758553Y-33211782D01*
X42777861Y-33229369D01*
X42781887Y-33230497D01*
X42789887Y-33217976D01*
X42798695Y-33196598D01*
X43082418Y-33196598D01*
X43171554Y-33264476D01*
X43213269Y-33297710D01*
X43244538Y-33325414D01*
X43259949Y-33342709D01*
X43260691Y-33344889D01*
X43251848Y-33361214D01*
X43228945Y-33390610D01*
X43204558Y-33418319D01*
X43171598Y-33457273D01*
X43154707Y-33489096D01*
X43148827Y-33525137D01*
X43148425Y-33544304D01*
X43148425Y-33609392D01*
X43203080Y-33609392D01*
X43246159Y-33605106D01*
X43301987Y-33593994D01*
X43346920Y-33581861D01*
X43460086Y-33555237D01*
X43599705Y-33537082D01*
X43765894Y-33527384D01*
X43892182Y-33525613D01*
X44057496Y-33529650D01*
X44205851Y-33542399D01*
X44347399Y-33565307D01*
X44492290Y-33599823D01*
X44571196Y-33622500D01*
X44797003Y-33703696D01*
X45012436Y-33808459D01*
X45220076Y-33938227D01*
X45422503Y-34094440D01*
X45432343Y-34102808D01*
X45471702Y-34135560D01*
X45504000Y-34158464D01*
X45536772Y-34174817D01*
X45577549Y-34187914D01*
X45633865Y-34201051D01*
X45677923Y-34210257D01*
X45794247Y-34235771D01*
X45888009Y-34260235D01*
X45964564Y-34285509D01*
X46029264Y-34313451D01*
X46087463Y-34345921D01*
X46109420Y-34360123D01*
X46153781Y-34389145D01*
X46189135Y-34410997D01*
X46209104Y-34421770D01*
X46210800Y-34422265D01*
X46223458Y-34411867D01*
X46240681Y-34385124D01*
X46242374Y-34381912D01*
X46257163Y-34349640D01*
X46263762Y-34327978D01*
X46263784Y-34327324D01*
X46255848Y-34312197D01*
X46233855Y-34278527D01*
X46200526Y-34230273D01*
X46158583Y-34171390D01*
X46120912Y-34119638D01*
X46067182Y-34045233D01*
X46013499Y-33968681D01*
X45964650Y-33896957D01*
X45925422Y-33837039D01*
X45910422Y-33812873D01*
X45856427Y-33715318D01*
X45798094Y-33595729D01*
X45737690Y-33459351D01*
X45677484Y-33311428D01*
X45619744Y-33157203D01*
X45590185Y-33072548D01*
X45544686Y-32931252D01*
X45578928Y-32931252D01*
X45624650Y-33063333D01*
X45723542Y-33326168D01*
X45830564Y-33565629D01*
X45947720Y-33785731D01*
X46077014Y-33990489D01*
X46112873Y-34041718D01*
X46166407Y-34115723D01*
X46206311Y-34168504D01*
X46234473Y-34202223D01*
X46252780Y-34219044D01*
X46263120Y-34221128D01*
X46265965Y-34217133D01*
X46275592Y-34192465D01*
X46292403Y-34150018D01*
X46313123Y-34098058D01*
X46317741Y-34086519D01*
X46341317Y-34024544D01*
X46368446Y-33948500D01*
X46394609Y-33871195D01*
X46404379Y-33840939D01*
X46439138Y-33745884D01*
X46485768Y-33639000D01*
X46539561Y-33529795D01*
X46595812Y-33427775D01*
X46649812Y-33342446D01*
X46654518Y-33335746D01*
X46689232Y-33291507D01*
X46738267Y-33235174D01*
X46796683Y-33171821D01*
X46859539Y-33106519D01*
X46921894Y-33044341D01*
X46978808Y-32990359D01*
X47025340Y-32949645D01*
X47045922Y-32933903D01*
X47081043Y-32907938D01*
X47105477Y-32883358D01*
X47122418Y-32853638D01*
X47135063Y-32812251D01*
X47146608Y-32752670D01*
X47152656Y-32715942D01*
X47165507Y-32650849D01*
X47181821Y-32588716D01*
X47198650Y-32540331D01*
X47203496Y-32529838D01*
X47233868Y-32484207D01*
X47288204Y-32484207D01*
X47299545Y-32500451D01*
X47327469Y-32520033D01*
X47333812Y-32523439D01*
X47369940Y-32544326D01*
X47417074Y-32574618D01*
X47455378Y-32600982D01*
X47495449Y-32628535D01*
X47526531Y-32648036D01*
X47541516Y-32655138D01*
X47558793Y-32651506D01*
X47596174Y-32641810D01*
X47646822Y-32627852D01*
X47669038Y-32621544D01*
X47728930Y-32604795D01*
X47784017Y-32590080D01*
X47824588Y-32579975D01*
X47831989Y-32578329D01*
X47864665Y-32566487D01*
X47874961Y-32547683D01*
X47862516Y-32519324D01*
X47826965Y-32478816D01*
X47816688Y-32468675D01*
X47731469Y-32400156D01*
X47644052Y-32356379D01*
X47557074Y-32337633D01*
X47473171Y-32344206D01*
X47394980Y-32376387D01*
X47342457Y-32416752D01*
X47311925Y-32448562D01*
X47292246Y-32474376D01*
X47288204Y-32484207D01*
X47233868Y-32484207D01*
X47257074Y-32449344D01*
X47326257Y-32382456D01*
X47404218Y-32335271D01*
X47433966Y-32324013D01*
X47476018Y-32309131D01*
X47504597Y-32295904D01*
X47512735Y-32288722D01*
X47500050Y-32277257D01*
X47465870Y-32261318D01*
X47416004Y-32242920D01*
X47356261Y-32224080D01*
X47292451Y-32206814D01*
X47246581Y-32196350D01*
X47150036Y-32183106D01*
X47035968Y-32178169D01*
X46913523Y-32181106D01*
X46791851Y-32191487D01*
X46680098Y-32208880D01*
X46607597Y-32226474D01*
X46421387Y-32292669D01*
X46238132Y-32379089D01*
X46063072Y-32482403D01*
X45901446Y-32599278D01*
X45758496Y-32726383D01*
X45669690Y-32822824D01*
X45578928Y-32931252D01*
X45544686Y-32931252D01*
X45538693Y-32912644D01*
X45498571Y-32766636D01*
X45469027Y-32628210D01*
X45449271Y-32491052D01*
X45438512Y-32348845D01*
X45435958Y-32195276D01*
X45440819Y-32024029D01*
X45446193Y-31922914D01*
X45452327Y-31826206D01*
X45458935Y-31731761D01*
X45465537Y-31645779D01*
X45471654Y-31574460D01*
X45476806Y-31524005D01*
X45477487Y-31518453D01*
X45482138Y-31472967D01*
X45486823Y-31411665D01*
X45491338Y-31339475D01*
X45495478Y-31261325D01*
X45499040Y-31182144D01*
X45501819Y-31106860D01*
X45503610Y-31040400D01*
X45504209Y-30987694D01*
X45503411Y-30953670D01*
X45501353Y-30943094D01*
X45486274Y-30947833D01*
X45451048Y-30960585D01*
X45401667Y-30979146D01*
X45367254Y-30992344D01*
X45260848Y-31025849D01*
X45138148Y-31052073D01*
X45010416Y-31069075D01*
X44888910Y-31074912D01*
X44888536Y-31074911D01*
X44820181Y-31071029D01*
X44735357Y-31060892D01*
X44643236Y-31046115D01*
X44552988Y-31028310D01*
X44473784Y-31009091D01*
X44421934Y-30992826D01*
X44372166Y-30976268D01*
X44339104Y-30969353D01*
X44327210Y-30972951D01*
X44334050Y-30991024D01*
X44352410Y-31026834D01*
X44379045Y-31074248D01*
X44395732Y-31102526D01*
X44444619Y-31185636D01*
X44482040Y-31253949D01*
X44512142Y-31315990D01*
X44539075Y-31380282D01*
X44565666Y-31451662D01*
X44581298Y-31497706D01*
X44603318Y-31565971D01*
X44630295Y-31651723D01*
X44660795Y-31750228D01*
X44693386Y-31856753D01*
X44726634Y-31966563D01*
X44759108Y-32074925D01*
X44789374Y-32177106D01*
X44816000Y-32268372D01*
X44837553Y-32343988D01*
X44852601Y-32399221D01*
X44853461Y-32402541D01*
X44868048Y-32449874D01*
X44893121Y-32520330D01*
X44927663Y-32611428D01*
X44970660Y-32720690D01*
X45021097Y-32845636D01*
X45077958Y-32983786D01*
X45140229Y-33132661D01*
X45206894Y-33289781D01*
X45276938Y-33452666D01*
X45349347Y-33618838D01*
X45379143Y-33686575D01*
X45406851Y-33750339D01*
X45431011Y-33807691D01*
X45448913Y-33852085D01*
X45457575Y-33876022D01*
X45468561Y-33904534D01*
X45488731Y-33949649D01*
X45514325Y-34003064D01*
X45523004Y-34020470D01*
X45547274Y-34071504D01*
X45564769Y-34113846D01*
X45572818Y-34140780D01*
X45572805Y-34145702D01*
X45562695Y-34149253D01*
X45543854Y-34127491D01*
X45516931Y-34081556D01*
X45482572Y-34012590D01*
X45441424Y-33921732D01*
X45427599Y-33889786D01*
X45397230Y-33819942D01*
X45369174Y-33757242D01*
X45345982Y-33707255D01*
X45330204Y-33675551D01*
X45326814Y-33669662D01*
X45306020Y-33648611D01*
X45267628Y-33619280D01*
X45218657Y-33586873D01*
X45199572Y-33575327D01*
X45141911Y-33538426D01*
X45073537Y-33490273D01*
X45004713Y-33438264D01*
X44965718Y-33406826D01*
X44897540Y-33350224D01*
X44820036Y-33286092D01*
X44745514Y-33224609D01*
X44712765Y-33197668D01*
X44645639Y-33141871D01*
X44598793Y-33101153D01*
X44570259Y-33073487D01*
X44558071Y-33056841D01*
X44560261Y-33049187D01*
X44567720Y-33048066D01*
X44586186Y-33056960D01*
X44622069Y-33081774D01*
X44671877Y-33119706D01*
X44732118Y-33167955D01*
X44799299Y-33223721D01*
X44869927Y-33284201D01*
X44940510Y-33346594D01*
X44945411Y-33351008D01*
X44994993Y-33393302D01*
X45051170Y-33437355D01*
X45109812Y-33480406D01*
X45166789Y-33519698D01*
X45217971Y-33552472D01*
X45259229Y-33575970D01*
X45286432Y-33587434D01*
X45295497Y-33584829D01*
X45290200Y-33567853D01*
X45275689Y-33530318D01*
X45254030Y-33477365D01*
X45227292Y-33414135D01*
X45220238Y-33397745D01*
X45186088Y-33318358D01*
X45150048Y-33234063D01*
X45116602Y-33155371D01*
X45092067Y-33097182D01*
X45066126Y-33038214D01*
X45040765Y-32985593D01*
X45019885Y-32947213D01*
X45012322Y-32935801D01*
X44982775Y-32902334D01*
X44936085Y-32855477D01*
X44876973Y-32799439D01*
X44810158Y-32738429D01*
X44740362Y-32676658D01*
X44672303Y-32618335D01*
X44610702Y-32567670D01*
X44560279Y-32528872D01*
X44540866Y-32515325D01*
X44479310Y-32478972D01*
X44411452Y-32445470D01*
X44350810Y-32421419D01*
X44344402Y-32419404D01*
X44288331Y-32402423D01*
X44217080Y-32380805D01*
X44142316Y-32358091D01*
X44107792Y-32347590D01*
X44042186Y-32328585D01*
X43988046Y-32316071D01*
X43935707Y-32308731D01*
X43875504Y-32305250D01*
X43797772Y-32304314D01*
X43789773Y-32304309D01*
X43647623Y-32308900D01*
X43519897Y-32323938D01*
X43394288Y-32351323D01*
X43295773Y-32380554D01*
X43228734Y-32403528D01*
X43183072Y-32423094D01*
X43152943Y-32442687D01*
X43132506Y-32465740D01*
X43122651Y-32482309D01*
X43114258Y-32514035D01*
X43108992Y-32568181D01*
X43106854Y-32639280D01*
X43107847Y-32721859D01*
X43111976Y-32810449D01*
X43119241Y-32899579D01*
X43122417Y-32928945D01*
X43129482Y-32994608D01*
X43132269Y-33040162D01*
X43130331Y-33073305D01*
X43123220Y-33101732D01*
X43110542Y-33133018D01*
X43082418Y-33196598D01*
X42798695Y-33196598D01*
X42803855Y-33184077D01*
X42821673Y-33134301D01*
X42837303Y-33086657D01*
X42859042Y-33020427D01*
X42877889Y-32972879D01*
X42898619Y-32935697D01*
X42926004Y-32900565D01*
X42964817Y-32859166D01*
X42972213Y-32851602D01*
X43061635Y-32760387D01*
X43066935Y-32616547D01*
X43068235Y-32556879D01*
X43067563Y-32509295D01*
X43065105Y-32479653D01*
X43062325Y-32472707D01*
X43043039Y-32478219D01*
X43005399Y-32492720D01*
X42956403Y-32513155D01*
X42903051Y-32536471D01*
X42852340Y-32559614D01*
X42811269Y-32579531D01*
X42787914Y-32592445D01*
X42748505Y-32632846D01*
X42715360Y-32695580D01*
X42690508Y-32775234D01*
X42675980Y-32866395D01*
X42673870Y-32896552D01*
X42672130Y-32958808D01*
X42449342Y-32958808D01*
X42450007Y-32935420D01*
X42455267Y-32892656D01*
X42465329Y-32833580D01*
X42479106Y-32760387D01*
X42496731Y-32679106D01*
X42517465Y-32611688D01*
X42544388Y-32555187D01*
X42580582Y-32506657D01*
X42629127Y-32463151D01*
X42693104Y-32421724D01*
X42775593Y-32379429D01*
X42879677Y-32333321D01*
X42960861Y-32299710D01*
X43089446Y-32249068D01*
X43201371Y-32209236D01*
X43304717Y-32177772D01*
X43407565Y-32152233D01*
X43517995Y-32130178D01*
X43527320Y-32128505D01*
X43622469Y-32111525D01*
X43695007Y-32098961D01*
X43750004Y-32090582D01*
X43792530Y-32086156D01*
X43827653Y-32085451D01*
X43860441Y-32088238D01*
X43895965Y-32094283D01*
X43939293Y-32103357D01*
X43963739Y-32108590D01*
X44032354Y-32124250D01*
X44097936Y-32141089D01*
X44151037Y-32156597D01*
X44172845Y-32164166D01*
X44224071Y-32181357D01*
X44285223Y-32198164D01*
X44318381Y-32205765D01*
X44375726Y-32220741D01*
X44442632Y-32242690D01*
X44496535Y-32263557D01*
X44544782Y-32283368D01*
X44583302Y-32297861D01*
X44604571Y-32304225D01*
X44605626Y-32304309D01*
X44611736Y-32298943D01*
X44611727Y-32280692D01*
X44604922Y-32246330D01*
X44590641Y-32192630D01*
X44568207Y-32116365D01*
X44561372Y-32093812D01*
X44544553Y-32038300D01*
X44522084Y-31963781D01*
X44496336Y-31878146D01*
X44469683Y-31789282D01*
X44455825Y-31742983D01*
X44430158Y-31659533D01*
X44404096Y-31578947D01*
X44379883Y-31507886D01*
X44359765Y-31453006D01*
X44350310Y-31429976D01*
X44317984Y-31363665D01*
X44276896Y-31288652D01*
X44230681Y-31210689D01*
X44182975Y-31135527D01*
X44137412Y-31068920D01*
X44097628Y-31016620D01*
X44070450Y-30987145D01*
X44004708Y-30925900D01*
X43950457Y-30870107D01*
X43896731Y-30808385D01*
X43887821Y-30797648D01*
X43854463Y-30761074D01*
X43821154Y-30736188D01*
X43777815Y-30716764D01*
X43733456Y-30702275D01*
X43638215Y-30670538D01*
X43533361Y-30631304D01*
X44043031Y-30631304D01*
X44076363Y-30691010D01*
X44120934Y-30748942D01*
X44188168Y-30807705D01*
X44272937Y-30864187D01*
X44370117Y-30915280D01*
X44474581Y-30957872D01*
X44557930Y-30983219D01*
X44609896Y-30997300D01*
X44650748Y-31009806D01*
X44673295Y-31018494D01*
X44675220Y-31019797D01*
X44691586Y-31022507D01*
X44730981Y-31024228D01*
X44788385Y-31024878D01*
X44858776Y-31024374D01*
X44902042Y-31023554D01*
X44998684Y-31020423D01*
X45074332Y-31015550D01*
X45136043Y-31008148D01*
X45190872Y-30997432D01*
X45231218Y-30986891D01*
X45380902Y-30935314D01*
X45511594Y-30870300D01*
X45601264Y-30810827D01*
X45648110Y-30772518D01*
X45689242Y-30732372D01*
X45720484Y-30695291D01*
X45737665Y-30666182D01*
X45737516Y-30650712D01*
X45722229Y-30651272D01*
X45685807Y-30657580D01*
X45634321Y-30668486D01*
X45594196Y-30677846D01*
X45557080Y-30686528D01*
X45522759Y-30693550D01*
X45487777Y-30699088D01*
X45448678Y-30703322D01*
X45402006Y-30706427D01*
X45344303Y-30708584D01*
X45272114Y-30709968D01*
X45181982Y-30710759D01*
X45070451Y-30711134D01*
X44944668Y-30711265D01*
X44807466Y-30711194D01*
X44695311Y-30710737D01*
X44605184Y-30709774D01*
X44534066Y-30708183D01*
X44478940Y-30705846D01*
X44436787Y-30702642D01*
X44404588Y-30698452D01*
X44379325Y-30693155D01*
X44362293Y-30688110D01*
X44304172Y-30671877D01*
X44241922Y-30659065D01*
X44221961Y-30656160D01*
X44167102Y-30649167D01*
X44113230Y-30641787D01*
X44097413Y-30639475D01*
X44043031Y-30631304D01*
X43533361Y-30631304D01*
X43526968Y-30628912D01*
X43408330Y-30580976D01*
X43290917Y-30530313D01*
X43183345Y-30480502D01*
X43106326Y-30441638D01*
X42987735Y-30375134D01*
X42860737Y-30298068D01*
X42734030Y-30216055D01*
X42616312Y-30134711D01*
X42523950Y-30065702D01*
X42453258Y-30006270D01*
X42370649Y-29930431D01*
X42281255Y-29843474D01*
X42190206Y-29750688D01*
X42102634Y-29657361D01*
X42023671Y-29568783D01*
X41958447Y-29490243D01*
X41931998Y-29455580D01*
X41776065Y-29223391D01*
X41644400Y-28986287D01*
X41538014Y-28746440D01*
X41457917Y-28506025D01*
X41422603Y-28360994D01*
X41400229Y-28254681D01*
X41382594Y-28172766D01*
X41368944Y-28112121D01*
X41358524Y-28069623D01*
X41350578Y-28042144D01*
X41344352Y-28026559D01*
X41340462Y-28020898D01*
X41322498Y-28019399D01*
X41285698Y-28026006D01*
X41237629Y-28039308D01*
X41231885Y-28041150D01*
X41109388Y-28067799D01*
X40971732Y-28073887D01*
X40822811Y-28059461D01*
X40704108Y-28034710D01*
X40617272Y-28011650D01*
X40542605Y-27989262D01*
X40473527Y-27964919D01*
X40403455Y-27935992D01*
X40325808Y-27899851D01*
X40234005Y-27853867D01*
X40174875Y-27823314D01*
X40094091Y-27780968D01*
X40034400Y-27750910D01*
X39991374Y-27733750D01*
X39960585Y-27730100D01*
X39937603Y-27740569D01*
X39918002Y-27765770D01*
X39897352Y-27806311D01*
X39871225Y-27862805D01*
X39870026Y-27865357D01*
X39818604Y-27997266D01*
X39789983Y-28124378D01*
X39784413Y-28243820D01*
X39802146Y-28352721D01*
X39822654Y-28408707D01*
X39846493Y-28486000D01*
X39845875Y-28556074D01*
X39821158Y-28615804D01*
X39795661Y-28644710D01*
X39762335Y-28669355D01*
X39726725Y-28680942D01*
X39677948Y-28683757D01*
X39553392Y-28670480D01*
X39432225Y-28632442D01*
X39320988Y-28572332D01*
X39234743Y-28501556D01*
X39174721Y-28428638D01*
X39119247Y-28337822D01*
X39073470Y-28239270D01*
X39042538Y-28143143D01*
X39035592Y-28108398D01*
X39025106Y-28045457D01*
X39012122Y-27972065D01*
X39000870Y-27911613D01*
X38999960Y-27905777D01*
X39219892Y-27905777D01*
X39220130Y-27954673D01*
X39221822Y-27993229D01*
X39227233Y-28063453D01*
X39237267Y-28118019D01*
X39254840Y-28169279D01*
X39272705Y-28208803D01*
X39326074Y-28297136D01*
X39392798Y-28371593D01*
X39468123Y-28428252D01*
X39547295Y-28463191D01*
X39591551Y-28471809D01*
X39597550Y-28458682D01*
X39601039Y-28417810D01*
X39602020Y-28349123D01*
X39600496Y-28252552D01*
X39600437Y-28250191D01*
X39598523Y-28164964D01*
X39598195Y-28101378D01*
X39600073Y-28053023D01*
X39604779Y-28013490D01*
X39612933Y-27976371D01*
X39625157Y-27935255D01*
X39633420Y-27909888D01*
X39662381Y-27826505D01*
X39689246Y-27761928D01*
X39718576Y-27707697D01*
X39754932Y-27655350D01*
X39801505Y-27598038D01*
X39879287Y-27506354D01*
X39828117Y-27496754D01*
X39757009Y-27490365D01*
X39677260Y-27494062D01*
X39599233Y-27506494D01*
X39533289Y-27526314D01*
X39508438Y-27538367D01*
X39458233Y-27574873D01*
X39400316Y-27627879D01*
X39341699Y-27689993D01*
X39289398Y-27753822D01*
X39252873Y-27807728D01*
X39234787Y-27841130D01*
X39224286Y-27870871D01*
X39219892Y-27905777D01*
X38999960Y-27905777D01*
X38987936Y-27828700D01*
X38982256Y-27747148D01*
X38982371Y-27741496D01*
X39179434Y-27741496D01*
X39180014Y-27787315D01*
X39184391Y-27811193D01*
X39187496Y-27813702D01*
X39202732Y-27802938D01*
X39225844Y-27775571D01*
X39238917Y-27756980D01*
X39291065Y-27689446D01*
X39356617Y-27621032D01*
X39427574Y-27559092D01*
X39495934Y-27510979D01*
X39522344Y-27496468D01*
X39563971Y-27477394D01*
X39600453Y-27465407D01*
X39640652Y-27458899D01*
X39693433Y-27456262D01*
X39746168Y-27455856D01*
X39887282Y-27455856D01*
X40216279Y-27620014D01*
X40310222Y-27666180D01*
X40401053Y-27709508D01*
X40484192Y-27747915D01*
X40555062Y-27779315D01*
X40609084Y-27801624D01*
X40636492Y-27811347D01*
X40757085Y-27844990D01*
X40858018Y-27867363D01*
X40945120Y-27878938D01*
X41024223Y-27880187D01*
X41101158Y-27871583D01*
X41176294Y-27855040D01*
X41249425Y-27834501D01*
X41304077Y-27814414D01*
X41349338Y-27789970D01*
X41354887Y-27785821D01*
X41682985Y-27785821D01*
X41685534Y-27904032D01*
X41691567Y-28009004D01*
X41699715Y-28083569D01*
X41750905Y-28337015D01*
X41828634Y-28583953D01*
X41931844Y-28822983D01*
X42059475Y-29052707D01*
X42210470Y-29271725D01*
X42383769Y-29478640D01*
X42578314Y-29672051D01*
X42793047Y-29850561D01*
X43026909Y-30012769D01*
X43262273Y-30148626D01*
X43531016Y-30275856D01*
X43806440Y-30378157D01*
X44090658Y-30456031D01*
X44385782Y-30509983D01*
X44693926Y-30540518D01*
X44937652Y-30548370D01*
X45070956Y-30547971D01*
X45183899Y-30544945D01*
X45284098Y-30538900D01*
X45379168Y-30529444D01*
X45428812Y-30523089D01*
X45511361Y-30511186D01*
X45594603Y-30498122D01*
X45669322Y-30485409D01*
X45726301Y-30474554D01*
X45730525Y-30473660D01*
X46012242Y-30401304D01*
X46286621Y-30307228D01*
X46549831Y-30193172D01*
X46798040Y-30060875D01*
X47027419Y-29912074D01*
X47119807Y-29843060D01*
X47230989Y-29754435D01*
X47326511Y-29673432D01*
X47411356Y-29594907D01*
X47490506Y-29513718D01*
X47568942Y-29424724D01*
X47651647Y-29322782D01*
X47743603Y-29202750D01*
X47755233Y-29187237D01*
X47802323Y-29129992D01*
X47852536Y-29082308D01*
X47910788Y-29041183D01*
X47981994Y-29003618D01*
X48071070Y-28966610D01*
X48179128Y-28928429D01*
X48330231Y-28877867D01*
X48556483Y-28884002D01*
X48635843Y-28886780D01*
X48707417Y-28890448D01*
X48765555Y-28894628D01*
X48804604Y-28898943D01*
X48816377Y-28901390D01*
X48839330Y-28906904D01*
X48844941Y-28897034D01*
X48839844Y-28872101D01*
X48829141Y-28840168D01*
X48809987Y-28792227D01*
X48786128Y-28737550D01*
X48780872Y-28726084D01*
X48751768Y-28659426D01*
X48722427Y-28586176D01*
X48699265Y-28522376D01*
X48680185Y-28462233D01*
X48659253Y-28391329D01*
X48637998Y-28315449D01*
X48617944Y-28240377D01*
X48600618Y-28171901D01*
X48587547Y-28115804D01*
X48580255Y-28077873D01*
X48579254Y-28067444D01*
X48584529Y-28045891D01*
X48597592Y-28046366D01*
X48614305Y-28065491D01*
X48630525Y-28099891D01*
X48634664Y-28112639D01*
X48659120Y-28184385D01*
X48694470Y-28272956D01*
X48737368Y-28370995D01*
X48784465Y-28471142D01*
X48832415Y-28566039D01*
X48877869Y-28648327D01*
X48879969Y-28651898D01*
X48993279Y-28829537D01*
X49107284Y-28979351D01*
X49222281Y-29101581D01*
X49338564Y-29196466D01*
X49456428Y-29264246D01*
X49576168Y-29305161D01*
X49698078Y-29319449D01*
X49701906Y-29319469D01*
X49820887Y-29305901D01*
X49937452Y-29265603D01*
X50050741Y-29199866D01*
X50159891Y-29109983D01*
X50264042Y-28997247D01*
X50362333Y-28862949D01*
X50453901Y-28708382D01*
X50537887Y-28534838D01*
X50613428Y-28343610D01*
X50679663Y-28135991D01*
X50735731Y-27913272D01*
X50775532Y-27708453D01*
X50783763Y-27652262D01*
X50793218Y-27575554D01*
X50803069Y-27485805D01*
X50812486Y-27390491D01*
X50819127Y-27315525D01*
X50826913Y-27215179D01*
X50831938Y-27129060D01*
X50834279Y-27049043D01*
X50834015Y-26967005D01*
X50831226Y-26874822D01*
X50825990Y-26764370D01*
X50824699Y-26740166D01*
X50818860Y-26643948D01*
X50812090Y-26551815D01*
X50804892Y-26469357D01*
X50797765Y-26402165D01*
X50791209Y-26355831D01*
X50789518Y-26347237D01*
X50777000Y-26282668D01*
X50765779Y-26212240D01*
X50761461Y-26178840D01*
X50749410Y-26102545D01*
X50728809Y-26005981D01*
X50701138Y-25895090D01*
X50667876Y-25775816D01*
X50632270Y-25659613D01*
X50563935Y-25472298D01*
X50483576Y-25297201D01*
X50393081Y-25137171D01*
X50294337Y-24995055D01*
X50189234Y-24873701D01*
X50079658Y-24775956D01*
X50018156Y-24733284D01*
X49936133Y-24685448D01*
X49866703Y-24653870D01*
X49801530Y-24636111D01*
X49732278Y-24629730D01*
X49669211Y-24631129D01*
X49602001Y-24636911D01*
X49549034Y-24647959D01*
X49496530Y-24667945D01*
X49454266Y-24688409D01*
X49348320Y-24752669D01*
X49242461Y-24838485D01*
X49133531Y-24948471D01*
X49114240Y-24970033D01*
X49069544Y-25027555D01*
X49017977Y-25105187D01*
X48962923Y-25196911D01*
X48907767Y-25296713D01*
X48855891Y-25398575D01*
X48810680Y-25496481D01*
X48789531Y-25547348D01*
X48765834Y-25612930D01*
X48740706Y-25692113D01*
X48715756Y-25778678D01*
X48692591Y-25866406D01*
X48672818Y-25949080D01*
X48658046Y-26020481D01*
X48649882Y-26074390D01*
X48648787Y-26091736D01*
X48643758Y-26141029D01*
X48632189Y-26186402D01*
X48629584Y-26192873D01*
X48611014Y-26234972D01*
X48600583Y-26182320D01*
X48598182Y-26141486D01*
X48601783Y-26076399D01*
X48611153Y-25990170D01*
X48619786Y-25927251D01*
X48632656Y-25831461D01*
X48642047Y-25745142D01*
X48647739Y-25671989D01*
X48649515Y-25615695D01*
X48647156Y-25579954D01*
X48641032Y-25568398D01*
X48626625Y-25575971D01*
X48594913Y-25596291D01*
X48551404Y-25625761D01*
X48525258Y-25643991D01*
X48426565Y-25706937D01*
X48323797Y-25758166D01*
X48207323Y-25802169D01*
X48142298Y-25822460D01*
X48100042Y-25833691D01*
X48056131Y-25842214D01*
X48005248Y-25848549D01*
X47942072Y-25853212D01*
X47861284Y-25856721D01*
X47761610Y-25859498D01*
X47674137Y-25861110D01*
X47594549Y-25861735D01*
X47527767Y-25861403D01*
X47478713Y-25860141D01*
X47452310Y-25857977D01*
X47451128Y-25857718D01*
X47427604Y-25845493D01*
X47388824Y-25818601D01*
X47340394Y-25781153D01*
X47293468Y-25742063D01*
X47057419Y-25554237D01*
X46814286Y-25392289D01*
X46560487Y-25254249D01*
X46292443Y-25138150D01*
X46036916Y-25051050D01*
X45892212Y-25008707D01*
X45772026Y-24976486D01*
X45674837Y-24954032D01*
X45599124Y-24940993D01*
X45546087Y-24937004D01*
X45498334Y-24934138D01*
X45436857Y-24926737D01*
X45377689Y-24916895D01*
X45264973Y-24900792D01*
X45130508Y-24891205D01*
X44979827Y-24888067D01*
X44818465Y-24891310D01*
X44651956Y-24900867D01*
X44485834Y-24916671D01*
X44390359Y-24928882D01*
X44146400Y-24974241D01*
X43895088Y-25041412D01*
X43643036Y-25127864D01*
X43396857Y-25231064D01*
X43163164Y-25348482D01*
X42948571Y-25477584D01*
X42936918Y-25485331D01*
X42811816Y-25576219D01*
X42678975Y-25685602D01*
X42544580Y-25807606D01*
X42414815Y-25936356D01*
X42295862Y-26065976D01*
X42193907Y-26190593D01*
X42192175Y-26192873D01*
X42064203Y-26380906D01*
X41950443Y-26586858D01*
X41853607Y-26804352D01*
X41776403Y-27027008D01*
X41721542Y-27248448D01*
X41706261Y-27336575D01*
X41695558Y-27429747D01*
X41688065Y-27540879D01*
X41683851Y-27662170D01*
X41682985Y-27785821D01*
X41354887Y-27785821D01*
X41394296Y-27756358D01*
X41441701Y-27714578D01*
X41520580Y-27642488D01*
X41520580Y-27546146D01*
X41522661Y-27490043D01*
X41528260Y-27417507D01*
X41536407Y-27339809D01*
X41542138Y-27295243D01*
X41551569Y-27225684D01*
X41555866Y-27175079D01*
X41553222Y-27135405D01*
X41541833Y-27098641D01*
X41519892Y-27056764D01*
X41485594Y-27001753D01*
X41470912Y-26978812D01*
X41405120Y-26893505D01*
X41325610Y-26824211D01*
X41228492Y-26768415D01*
X41109877Y-26723601D01*
X41050470Y-26706867D01*
X40956064Y-26683629D01*
X40860309Y-26662089D01*
X40770841Y-26643828D01*
X40695297Y-26630429D01*
X40654033Y-26624706D01*
X40619658Y-26617638D01*
X40597611Y-26607569D01*
X40592358Y-26598145D01*
X40608367Y-26593010D01*
X40614959Y-26592818D01*
X40685629Y-26597324D01*
X40774734Y-26609751D01*
X40875257Y-26628465D01*
X40980180Y-26651827D01*
X41082485Y-26678204D01*
X41175155Y-26705958D01*
X41251171Y-26733454D01*
X41286126Y-26749279D01*
X41353360Y-26793095D01*
X41418858Y-26852423D01*
X41476507Y-26920192D01*
X41520194Y-26989332D01*
X41542158Y-27045387D01*
X41552381Y-27073250D01*
X41562473Y-27083978D01*
X41574145Y-27071835D01*
X41590836Y-27040485D01*
X41609311Y-26997546D01*
X41626336Y-26950635D01*
X41638674Y-26907371D01*
X41639945Y-26901547D01*
X41651032Y-26861505D01*
X41669117Y-26809151D01*
X41684590Y-26769741D01*
X41704676Y-26714001D01*
X41710621Y-26669048D01*
X41701152Y-26626029D01*
X41674993Y-26576091D01*
X41651570Y-26540319D01*
X41592082Y-26470457D01*
X41509508Y-26399245D01*
X41408493Y-26329648D01*
X41293684Y-26264631D01*
X41169727Y-26207159D01*
X41071519Y-26170100D01*
X41021170Y-26153521D01*
X40978491Y-26141406D01*
X40937222Y-26132912D01*
X40891101Y-26127192D01*
X40833865Y-26123402D01*
X40759253Y-26120698D01*
X40692624Y-26118981D01*
X40594617Y-26117216D01*
X40519034Y-26117439D01*
X40460282Y-26119944D01*
X40412770Y-26125026D01*
X40370908Y-26132978D01*
X40355829Y-26136681D01*
X40164270Y-26199149D01*
X39987772Y-26284167D01*
X39823594Y-26393293D01*
X39670101Y-26527005D01*
X39532779Y-26680360D01*
X39416496Y-26849160D01*
X39322981Y-27030046D01*
X39253962Y-27219662D01*
X39211167Y-27414651D01*
X39210356Y-27420204D01*
X39198112Y-27513089D01*
X39188720Y-27600312D01*
X39182415Y-27677805D01*
X39179434Y-27741496D01*
X38982371Y-27741496D01*
X38984033Y-27660303D01*
X38993471Y-27561516D01*
X39010775Y-27444135D01*
X39016207Y-27411963D01*
X39039606Y-27287131D01*
X39064471Y-27181338D01*
X39093721Y-27085598D01*
X39130273Y-26990922D01*
X39177048Y-26888322D01*
X39204074Y-26833448D01*
X39311597Y-26649058D01*
X39440274Y-26480873D01*
X39587836Y-26330719D01*
X39752012Y-26200422D01*
X39930532Y-26091808D01*
X40121125Y-26006706D01*
X40299640Y-25952079D01*
X40426795Y-25928629D01*
X40566324Y-25915533D01*
X40709172Y-25912881D01*
X40846279Y-25920766D01*
X40968588Y-25939281D01*
X40993562Y-25945024D01*
X41167974Y-25996893D01*
X41333805Y-26063067D01*
X41484906Y-26140727D01*
X41615128Y-26227058D01*
X41624009Y-26233902D01*
X41664898Y-26264912D01*
X41697063Y-26287700D01*
X41714351Y-26297936D01*
X41715264Y-26298121D01*
X41726447Y-26287091D01*
X41747779Y-26257975D01*
X41774936Y-26216731D01*
X41778903Y-26210414D01*
X41808571Y-26165235D01*
X41850014Y-26105243D01*
X41897962Y-26037928D01*
X41947151Y-25970779D01*
X41952044Y-25964217D01*
X42129911Y-25748573D01*
X42331260Y-25545551D01*
X42553631Y-25357052D01*
X42794568Y-25184980D01*
X43051613Y-25031236D01*
X43322307Y-24897723D01*
X43340225Y-24889830D01*
X43476818Y-24834338D01*
X43627759Y-24780359D01*
X43785528Y-24730122D01*
X43942605Y-24685854D01*
X44091472Y-24649785D01*
X44224610Y-24624141D01*
X44249624Y-24620325D01*
X44324916Y-24609306D01*
X44404308Y-24597453D01*
X44474384Y-24586777D01*
X44495608Y-24583473D01*
X44548629Y-24577822D01*
X44624259Y-24573403D01*
X44717066Y-24570215D01*
X44821618Y-24568257D01*
X44932485Y-24567530D01*
X45044236Y-24568032D01*
X45151438Y-24569763D01*
X45248662Y-24572722D01*
X45330475Y-24576909D01*
X45391447Y-24582323D01*
X45400746Y-24583565D01*
X45532261Y-24602883D01*
X45641534Y-24619798D01*
X45734151Y-24635540D01*
X45815701Y-24651335D01*
X45891771Y-24668415D01*
X45967949Y-24688006D01*
X46049821Y-24711339D01*
X46142977Y-24739641D01*
X46219931Y-24763709D01*
X46487109Y-24860806D01*
X46752199Y-24982231D01*
X47008959Y-25124598D01*
X47251145Y-25284518D01*
X47421581Y-25415684D01*
X47477869Y-25461159D01*
X47519471Y-25491566D01*
X47552730Y-25510426D01*
X47583986Y-25521260D01*
X47619582Y-25527588D01*
X47624197Y-25528181D01*
X47758047Y-25537974D01*
X47888351Y-25534431D01*
X47996878Y-25519347D01*
X48104959Y-25486974D01*
X48219093Y-25435646D01*
X48332839Y-25369636D01*
X48439753Y-25293218D01*
X48533393Y-25210663D01*
X48607314Y-25126245D01*
X48622576Y-25104417D01*
X48652612Y-25058631D01*
X48691584Y-24998863D01*
X48733231Y-24934725D01*
X48754522Y-24901823D01*
X48801224Y-24835380D01*
X48859238Y-24761258D01*
X48919366Y-24690931D01*
X48949764Y-24658275D01*
X49063685Y-24549389D01*
X49173403Y-24463856D01*
X49284308Y-24398655D01*
X49401792Y-24350764D01*
X49531247Y-24317162D01*
X49571881Y-24309644D01*
X49638004Y-24298969D01*
X49686941Y-24293640D01*
X49729066Y-24293686D01*
G36*
X106982205Y-30663302D02*
G01*
X107073620Y-30773794D01*
X107084260Y-30949647D01*
X107022992Y-31112561D01*
X106923487Y-31181933D01*
X106780191Y-31137648D01*
X106733290Y-31070690D01*
X106722775Y-30890058D01*
X106798171Y-30731451D01*
X106922496Y-30655395D01*
X106982205Y-30663302D01*
G37*
X106982205Y-30663302D02*
X107073620Y-30773794D01*
X107084260Y-30949647D01*
X107022992Y-31112561D01*
X106923487Y-31181933D01*
X106780191Y-31137648D01*
X106733290Y-31070690D01*
X106722775Y-30890058D01*
X106798171Y-30731451D01*
X106922496Y-30655395D01*
X106982205Y-30663302D01*
G36*
X98282345Y-31329829D02*
G01*
X98255667Y-31453667D01*
X98150878Y-31525200D01*
X98023000Y-31530210D01*
X97959353Y-31465642D01*
X97959334Y-31464034D01*
X98017103Y-31352536D01*
X98078796Y-31290589D01*
X98208182Y-31252011D01*
X98282345Y-31329829D01*
G37*
X98282345Y-31329829D02*
X98255667Y-31453667D01*
X98150878Y-31525200D01*
X98023000Y-31530210D01*
X97959353Y-31465642D01*
X97959334Y-31464034D01*
X98017103Y-31352536D01*
X98078796Y-31290589D01*
X98208182Y-31252011D01*
X98282345Y-31329829D01*
G36*
X102069624Y-26524583D02*
G01*
X102034133Y-26569081D01*
X101842108Y-26679865D01*
X101610800Y-26702597D01*
X101303667Y-26692860D01*
X101602876Y-26634231D01*
X101840309Y-26574060D01*
X102016351Y-26506339D01*
X102026209Y-26500716D01*
X102105653Y-26461917D01*
X102069624Y-26524583D01*
G37*
X102069624Y-26524583D02*
X102034133Y-26569081D01*
X101842108Y-26679865D01*
X101610800Y-26702597D01*
X101303667Y-26692860D01*
X101602876Y-26634231D01*
X101840309Y-26574060D01*
X102016351Y-26506339D01*
X102026209Y-26500716D01*
X102105653Y-26461917D01*
X102069624Y-26524583D01*
G36*
X102841778Y-26740556D02*
G01*
X102830156Y-26790890D01*
X102785334Y-26797000D01*
X102715643Y-26766022D01*
X102728889Y-26740556D01*
X102829369Y-26730423D01*
X102841778Y-26740556D01*
G37*
X102841778Y-26740556D02*
X102830156Y-26790890D01*
X102785334Y-26797000D01*
X102715643Y-26766022D01*
X102728889Y-26740556D01*
X102829369Y-26730423D01*
X102841778Y-26740556D01*
G36*
X100894445Y-27163889D02*
G01*
X100882822Y-27214223D01*
X100838000Y-27220334D01*
X100768310Y-27189355D01*
X100781556Y-27163889D01*
X100882035Y-27153756D01*
X100894445Y-27163889D01*
G37*
X100894445Y-27163889D02*
X100882822Y-27214223D01*
X100838000Y-27220334D01*
X100768310Y-27189355D01*
X100781556Y-27163889D01*
X100882035Y-27153756D01*
X100894445Y-27163889D01*
G36*
X102558677Y-26865706D02*
G01*
X102427309Y-26938083D01*
X102210426Y-27027372D01*
X101946867Y-27119440D01*
X101675473Y-27200150D01*
X101435081Y-27255367D01*
X101346000Y-27268274D01*
X101195549Y-27278634D01*
X101165523Y-27262726D01*
X101267499Y-27214041D01*
X101513059Y-27126070D01*
X101727000Y-27054094D01*
X102065036Y-26946554D01*
X102343680Y-26867027D01*
X102523431Y-26826332D01*
X102565691Y-26824377D01*
X102558677Y-26865706D01*
G37*
X102558677Y-26865706D02*
X102427309Y-26938083D01*
X102210426Y-27027372D01*
X101946867Y-27119440D01*
X101675473Y-27200150D01*
X101435081Y-27255367D01*
X101346000Y-27268274D01*
X101195549Y-27278634D01*
X101165523Y-27262726D01*
X101267499Y-27214041D01*
X101513059Y-27126070D01*
X101727000Y-27054094D01*
X102065036Y-26946554D01*
X102343680Y-26867027D01*
X102523431Y-26826332D01*
X102565691Y-26824377D01*
X102558677Y-26865706D01*
G36*
X103783290Y-27254000D02*
G01*
X104095046Y-27335179D01*
X104212256Y-27390412D01*
X104221509Y-27418427D01*
X104103609Y-27423537D01*
X103839362Y-27410055D01*
X103778796Y-27406243D01*
X103182678Y-27419909D01*
X102502071Y-27536422D01*
X102469083Y-27544079D01*
X101944468Y-27660654D01*
X101539749Y-27731755D01*
X101212614Y-27760513D01*
X100920752Y-27750062D01*
X100621851Y-27703534D01*
X100541667Y-27686762D01*
X100209421Y-27611041D01*
X99895829Y-27533632D01*
X99737334Y-27490750D01*
X99556844Y-27434711D01*
X99529923Y-27408396D01*
X99646475Y-27398082D01*
X99668580Y-27397303D01*
X99867069Y-27412491D01*
X100163286Y-27459655D01*
X100472913Y-27524108D01*
X100947779Y-27604093D01*
X101399654Y-27605435D01*
X101886880Y-27523922D01*
X102369778Y-27387182D01*
X102849002Y-27274931D01*
X103339068Y-27229968D01*
X103783290Y-27254000D01*
G37*
X103783290Y-27254000D02*
X104095046Y-27335179D01*
X104212256Y-27390412D01*
X104221509Y-27418427D01*
X104103609Y-27423537D01*
X103839362Y-27410055D01*
X103778796Y-27406243D01*
X103182678Y-27419909D01*
X102502071Y-27536422D01*
X102469083Y-27544079D01*
X101944468Y-27660654D01*
X101539749Y-27731755D01*
X101212614Y-27760513D01*
X100920752Y-27750062D01*
X100621851Y-27703534D01*
X100541667Y-27686762D01*
X100209421Y-27611041D01*
X99895829Y-27533632D01*
X99737334Y-27490750D01*
X99556844Y-27434711D01*
X99529923Y-27408396D01*
X99646475Y-27398082D01*
X99668580Y-27397303D01*
X99867069Y-27412491D01*
X100163286Y-27459655D01*
X100472913Y-27524108D01*
X100947779Y-27604093D01*
X101399654Y-27605435D01*
X101886880Y-27523922D01*
X102369778Y-27387182D01*
X102849002Y-27274931D01*
X103339068Y-27229968D01*
X103783290Y-27254000D01*
G36*
X111613445Y-28519464D02*
G01*
X111616259Y-28547259D01*
X111483717Y-28558611D01*
X111463667Y-28558495D01*
X111332353Y-28546286D01*
X111344888Y-28520517D01*
X111359445Y-28516327D01*
X111543875Y-28503932D01*
X111613445Y-28519464D01*
G37*
X111613445Y-28519464D02*
X111616259Y-28547259D01*
X111483717Y-28558611D01*
X111463667Y-28558495D01*
X111332353Y-28546286D01*
X111344888Y-28520517D01*
X111359445Y-28516327D01*
X111543875Y-28503932D01*
X111613445Y-28519464D01*
G36*
X111398403Y-28862514D02*
G01*
X111373152Y-28900996D01*
X111287278Y-28906983D01*
X111196936Y-28886305D01*
X111236125Y-28855830D01*
X111368449Y-28845736D01*
X111398403Y-28862514D01*
G37*
X111398403Y-28862514D02*
X111373152Y-28900996D01*
X111287278Y-28906983D01*
X111196936Y-28886305D01*
X111236125Y-28855830D01*
X111368449Y-28845736D01*
X111398403Y-28862514D01*
G36*
X102517606Y-31950082D02*
G01*
X102675986Y-32133966D01*
X102797150Y-32375607D01*
X102830781Y-32498823D01*
X102867764Y-32810816D01*
X102832255Y-32973026D01*
X102723020Y-32989281D01*
X102679498Y-32968450D01*
X102536553Y-32832034D01*
X102411707Y-32619197D01*
X102317679Y-32373661D01*
X102267188Y-32139146D01*
X102272951Y-31959374D01*
X102347686Y-31878064D01*
X102362000Y-31877000D01*
X102517606Y-31950082D01*
G37*
X102517606Y-31950082D02*
X102675986Y-32133966D01*
X102797150Y-32375607D01*
X102830781Y-32498823D01*
X102867764Y-32810816D01*
X102832255Y-32973026D01*
X102723020Y-32989281D01*
X102679498Y-32968450D01*
X102536553Y-32832034D01*
X102411707Y-32619197D01*
X102317679Y-32373661D01*
X102267188Y-32139146D01*
X102272951Y-31959374D01*
X102347686Y-31878064D01*
X102362000Y-31877000D01*
X102517606Y-31950082D01*
G36*
X101303176Y-32512117D02*
G01*
X101345275Y-32667291D01*
X101346000Y-32706734D01*
X101300819Y-32924049D01*
X101190661Y-33082903D01*
X101053602Y-33156835D01*
X100927722Y-33119381D01*
X100874221Y-33034601D01*
X100866890Y-32840771D01*
X100948886Y-32638899D01*
X101083891Y-32497291D01*
X101174571Y-32469667D01*
X101303176Y-32512117D01*
G37*
X101303176Y-32512117D02*
X101345275Y-32667291D01*
X101346000Y-32706734D01*
X101300819Y-32924049D01*
X101190661Y-33082903D01*
X101053602Y-33156835D01*
X100927722Y-33119381D01*
X100874221Y-33034601D01*
X100866890Y-32840771D01*
X100948886Y-32638899D01*
X101083891Y-32497291D01*
X101174571Y-32469667D01*
X101303176Y-32512117D01*
G36*
X106921299Y-28179377D02*
G01*
X107488774Y-28314772D01*
X107989410Y-28589078D01*
X108448533Y-29014224D01*
X108691970Y-29315917D01*
X108981039Y-29730579D01*
X109172499Y-30081442D01*
X109288037Y-30424886D01*
X109349337Y-30817290D01*
X109367698Y-31072667D01*
X109379502Y-31444794D01*
X109360031Y-31717784D01*
X109298391Y-31960600D01*
X109183687Y-32242206D01*
X109182518Y-32244819D01*
X108883526Y-32751091D01*
X108473602Y-33216763D01*
X107988505Y-33614681D01*
X107463997Y-33917687D01*
X106935838Y-34098628D01*
X106694827Y-34133905D01*
X106183576Y-34090687D01*
X105849104Y-33985937D01*
X105533861Y-33814643D01*
X105163387Y-33542231D01*
X104778872Y-33206781D01*
X104421508Y-32846377D01*
X104132484Y-32499101D01*
X103977987Y-32256005D01*
X103741131Y-31623342D01*
X103659278Y-30986857D01*
X103665702Y-30922210D01*
X103877058Y-30922210D01*
X103933727Y-31511676D01*
X104099218Y-32046208D01*
X104138244Y-32127558D01*
X104353980Y-32440706D01*
X104670938Y-32771863D01*
X105034559Y-33072662D01*
X105390282Y-33294737D01*
X105517915Y-33350608D01*
X105908416Y-33439096D01*
X106382104Y-33465904D01*
X106873912Y-33434327D01*
X107318774Y-33347665D01*
X107587918Y-33245712D01*
X108122411Y-32882533D01*
X108535458Y-32422569D01*
X108822420Y-31891123D01*
X108978661Y-31313497D01*
X108999543Y-30714991D01*
X108880427Y-30120907D01*
X108616677Y-29556548D01*
X108332966Y-29180991D01*
X107858355Y-28776387D01*
X107301858Y-28502344D01*
X106696691Y-28365222D01*
X106076072Y-28371385D01*
X105473215Y-28527192D01*
X105306347Y-28601327D01*
X104796575Y-28935774D01*
X104365467Y-29383359D01*
X104094754Y-29820765D01*
X103930353Y-30338381D01*
X103877058Y-30922210D01*
X103665702Y-30922210D01*
X103720855Y-30367250D01*
X103914291Y-29785221D01*
X104228012Y-29261472D01*
X104650447Y-28816702D01*
X105170024Y-28471612D01*
X105775169Y-28246903D01*
X106261663Y-28170962D01*
X106921299Y-28179377D01*
G37*
X106921299Y-28179377D02*
X107488774Y-28314772D01*
X107989410Y-28589078D01*
X108448533Y-29014224D01*
X108691970Y-29315917D01*
X108981039Y-29730579D01*
X109172499Y-30081442D01*
X109288037Y-30424886D01*
X109349337Y-30817290D01*
X109367698Y-31072667D01*
X109379502Y-31444794D01*
X109360031Y-31717784D01*
X109298391Y-31960600D01*
X109183687Y-32242206D01*
X109182518Y-32244819D01*
X108883526Y-32751091D01*
X108473602Y-33216763D01*
X107988505Y-33614681D01*
X107463997Y-33917687D01*
X106935838Y-34098628D01*
X106694827Y-34133905D01*
X106183576Y-34090687D01*
X105849104Y-33985937D01*
X105533861Y-33814643D01*
X105163387Y-33542231D01*
X104778872Y-33206781D01*
X104421508Y-32846377D01*
X104132484Y-32499101D01*
X103977987Y-32256005D01*
X103741131Y-31623342D01*
X103659278Y-30986857D01*
X103665702Y-30922210D01*
X103877058Y-30922210D01*
X103933727Y-31511676D01*
X104099218Y-32046208D01*
X104138244Y-32127558D01*
X104353980Y-32440706D01*
X104670938Y-32771863D01*
X105034559Y-33072662D01*
X105390282Y-33294737D01*
X105517915Y-33350608D01*
X105908416Y-33439096D01*
X106382104Y-33465904D01*
X106873912Y-33434327D01*
X107318774Y-33347665D01*
X107587918Y-33245712D01*
X108122411Y-32882533D01*
X108535458Y-32422569D01*
X108822420Y-31891123D01*
X108978661Y-31313497D01*
X108999543Y-30714991D01*
X108880427Y-30120907D01*
X108616677Y-29556548D01*
X108332966Y-29180991D01*
X107858355Y-28776387D01*
X107301858Y-28502344D01*
X106696691Y-28365222D01*
X106076072Y-28371385D01*
X105473215Y-28527192D01*
X105306347Y-28601327D01*
X104796575Y-28935774D01*
X104365467Y-29383359D01*
X104094754Y-29820765D01*
X103930353Y-30338381D01*
X103877058Y-30922210D01*
X103665702Y-30922210D01*
X103720855Y-30367250D01*
X103914291Y-29785221D01*
X104228012Y-29261472D01*
X104650447Y-28816702D01*
X105170024Y-28471612D01*
X105775169Y-28246903D01*
X106261663Y-28170962D01*
X106921299Y-28179377D01*
G36*
X109701351Y-33379849D02*
G01*
X109624209Y-33502807D01*
X109418783Y-33729027D01*
X109389196Y-33758758D01*
X109190644Y-33965405D01*
X109083748Y-34125281D01*
X109042442Y-34305472D01*
X109040659Y-34573064D01*
X109042966Y-34649834D01*
X109039661Y-34934558D01*
X109012982Y-35123420D01*
X108976179Y-35179000D01*
X108882682Y-35248052D01*
X108843307Y-35327167D01*
X108755235Y-35497987D01*
X108621338Y-35687000D01*
X108539939Y-35777014D01*
X108531027Y-35751768D01*
X108597324Y-35597972D01*
X108670814Y-35445647D01*
X108816241Y-35089248D01*
X108871963Y-34759296D01*
X108871225Y-34526417D01*
X108865516Y-34270094D01*
X108895706Y-34096471D01*
X108988670Y-33946459D01*
X109171283Y-33760971D01*
X109254984Y-33682662D01*
X109507547Y-33464565D01*
X109659400Y-33365365D01*
X109701351Y-33379849D01*
G37*
X109701351Y-33379849D02*
X109624209Y-33502807D01*
X109418783Y-33729027D01*
X109389196Y-33758758D01*
X109190644Y-33965405D01*
X109083748Y-34125281D01*
X109042442Y-34305472D01*
X109040659Y-34573064D01*
X109042966Y-34649834D01*
X109039661Y-34934558D01*
X109012982Y-35123420D01*
X108976179Y-35179000D01*
X108882682Y-35248052D01*
X108843307Y-35327167D01*
X108755235Y-35497987D01*
X108621338Y-35687000D01*
X108539939Y-35777014D01*
X108531027Y-35751768D01*
X108597324Y-35597972D01*
X108670814Y-35445647D01*
X108816241Y-35089248D01*
X108871963Y-34759296D01*
X108871225Y-34526417D01*
X108865516Y-34270094D01*
X108895706Y-34096471D01*
X108988670Y-33946459D01*
X109171283Y-33760971D01*
X109254984Y-33682662D01*
X109507547Y-33464565D01*
X109659400Y-33365365D01*
X109701351Y-33379849D01*
G36*
X106249364Y-38121167D02*
G01*
X106056152Y-38481000D01*
X105584910Y-38466208D01*
X105329852Y-38457210D01*
X105236710Y-38449034D01*
X105298124Y-38438036D01*
X105494667Y-38421518D01*
X105765770Y-38375147D01*
X105972969Y-38259913D01*
X106159121Y-38076476D01*
X106442575Y-37761334D01*
X106249364Y-38121167D01*
G37*
X106249364Y-38121167D02*
X106056152Y-38481000D01*
X105584910Y-38466208D01*
X105329852Y-38457210D01*
X105236710Y-38449034D01*
X105298124Y-38438036D01*
X105494667Y-38421518D01*
X105765770Y-38375147D01*
X105972969Y-38259913D01*
X106159121Y-38076476D01*
X106442575Y-37761334D01*
X106249364Y-38121167D01*
G36*
X101487111Y-22761222D02*
G01*
X101497244Y-22861702D01*
X101487111Y-22874111D01*
X101436777Y-22862489D01*
X101430667Y-22817667D01*
X101461645Y-22747977D01*
X101487111Y-22761222D01*
G37*
X101487111Y-22761222D02*
X101497244Y-22861702D01*
X101487111Y-22874111D01*
X101436777Y-22862489D01*
X101430667Y-22817667D01*
X101461645Y-22747977D01*
X101487111Y-22761222D01*
G36*
X110715778Y-23184556D02*
G01*
X110704156Y-23234890D01*
X110659334Y-23241000D01*
X110589643Y-23210022D01*
X110602889Y-23184556D01*
X110703369Y-23174423D01*
X110715778Y-23184556D01*
G37*
X110715778Y-23184556D02*
X110704156Y-23234890D01*
X110659334Y-23241000D01*
X110589643Y-23210022D01*
X110602889Y-23184556D01*
X110703369Y-23174423D01*
X110715778Y-23184556D01*
G36*
X99702555Y-22870828D02*
G01*
X99593736Y-23001549D01*
X99568000Y-23029334D01*
X99423143Y-23171732D01*
X99331935Y-23239979D01*
X99326816Y-23241000D01*
X99348778Y-23187839D01*
X99457597Y-23057118D01*
X99483334Y-23029334D01*
X99628191Y-22886935D01*
X99719399Y-22818688D01*
X99724517Y-22817667D01*
X99702555Y-22870828D01*
G37*
X99702555Y-22870828D02*
X99593736Y-23001549D01*
X99568000Y-23029334D01*
X99423143Y-23171732D01*
X99331935Y-23239979D01*
X99326816Y-23241000D01*
X99348778Y-23187839D01*
X99457597Y-23057118D01*
X99483334Y-23029334D01*
X99628191Y-22886935D01*
X99719399Y-22818688D01*
X99724517Y-22817667D01*
X99702555Y-22870828D01*
G36*
X110490000Y-23283334D02*
G01*
X110447667Y-23325667D01*
X110405334Y-23283334D01*
X110447667Y-23241000D01*
X110490000Y-23283334D01*
G37*
X110490000Y-23283334D02*
X110447667Y-23325667D01*
X110405334Y-23283334D01*
X110447667Y-23241000D01*
X110490000Y-23283334D01*
G36*
X110320667Y-23016617D02*
G01*
X110257838Y-23082517D01*
X110105920Y-23192880D01*
X110098576Y-23197712D01*
X109964786Y-23271061D01*
X109929051Y-23259421D01*
X109933958Y-23250238D01*
X110024780Y-23159983D01*
X110161042Y-23067195D01*
X110280005Y-23009776D01*
X110320667Y-23016617D01*
G37*
X110320667Y-23016617D02*
X110257838Y-23082517D01*
X110105920Y-23192880D01*
X110098576Y-23197712D01*
X109964786Y-23271061D01*
X109929051Y-23259421D01*
X109933958Y-23250238D01*
X110024780Y-23159983D01*
X110161042Y-23067195D01*
X110280005Y-23009776D01*
X110320667Y-23016617D01*
G36*
X110320667Y-23368000D02*
G01*
X110278334Y-23410334D01*
X110236000Y-23368000D01*
X110278334Y-23325667D01*
X110320667Y-23368000D01*
G37*
X110320667Y-23368000D02*
X110278334Y-23410334D01*
X110236000Y-23368000D01*
X110278334Y-23325667D01*
X110320667Y-23368000D01*
G36*
X101402073Y-23135167D02*
G01*
X101413256Y-23308509D01*
X101402073Y-23346834D01*
X101371171Y-23357470D01*
X101359369Y-23241000D01*
X101372674Y-23120805D01*
X101402073Y-23135167D01*
G37*
X101402073Y-23135167D02*
X101413256Y-23308509D01*
X101402073Y-23346834D01*
X101371171Y-23357470D01*
X101359369Y-23241000D01*
X101372674Y-23120805D01*
X101402073Y-23135167D01*
G36*
X99568000Y-23368000D02*
G01*
X99525667Y-23410334D01*
X99483334Y-23368000D01*
X99525667Y-23325667D01*
X99568000Y-23368000D01*
G37*
X99568000Y-23368000D02*
X99525667Y-23410334D01*
X99483334Y-23368000D01*
X99525667Y-23325667D01*
X99568000Y-23368000D01*
G36*
X110151334Y-23452667D02*
G01*
X110109000Y-23495000D01*
X110066667Y-23452667D01*
X110109000Y-23410334D01*
X110151334Y-23452667D01*
G37*
X110151334Y-23452667D02*
X110109000Y-23495000D01*
X110066667Y-23452667D01*
X110109000Y-23410334D01*
X110151334Y-23452667D01*
G36*
X101176667Y-23537334D02*
G01*
X101134334Y-23579667D01*
X101092000Y-23537334D01*
X101134334Y-23495000D01*
X101176667Y-23537334D01*
G37*
X101176667Y-23537334D02*
X101134334Y-23579667D01*
X101092000Y-23537334D01*
X101134334Y-23495000D01*
X101176667Y-23537334D01*
G36*
X109982000Y-23531376D02*
G01*
X109917097Y-23599375D01*
X109812667Y-23664334D01*
X109681762Y-23718836D01*
X109643334Y-23712625D01*
X109708236Y-23644625D01*
X109812667Y-23579667D01*
X109943572Y-23525165D01*
X109982000Y-23531376D01*
G37*
X109982000Y-23531376D02*
X109917097Y-23599375D01*
X109812667Y-23664334D01*
X109681762Y-23718836D01*
X109643334Y-23712625D01*
X109708236Y-23644625D01*
X109812667Y-23579667D01*
X109943572Y-23525165D01*
X109982000Y-23531376D01*
G36*
X95645111Y-24200556D02*
G01*
X95633489Y-24250890D01*
X95588667Y-24257000D01*
X95518977Y-24226022D01*
X95532222Y-24200556D01*
X95632702Y-24190423D01*
X95645111Y-24200556D01*
G37*
X95645111Y-24200556D02*
X95633489Y-24250890D01*
X95588667Y-24257000D01*
X95518977Y-24226022D01*
X95532222Y-24200556D01*
X95632702Y-24190423D01*
X95645111Y-24200556D01*
G36*
X95280650Y-24468667D02*
G01*
X95159599Y-24672884D01*
X95101019Y-24757365D01*
X95082251Y-24748755D01*
X95080667Y-24703824D01*
X95131933Y-24581893D01*
X95255025Y-24414547D01*
X95429384Y-24214667D01*
X95280650Y-24468667D01*
G37*
X95280650Y-24468667D02*
X95159599Y-24672884D01*
X95101019Y-24757365D01*
X95082251Y-24748755D01*
X95080667Y-24703824D01*
X95131933Y-24581893D01*
X95255025Y-24414547D01*
X95429384Y-24214667D01*
X95280650Y-24468667D01*
G36*
X95334667Y-24976667D02*
G01*
X95292334Y-25019000D01*
X95250000Y-24976667D01*
X95292334Y-24934334D01*
X95334667Y-24976667D01*
G37*
X95334667Y-24976667D02*
X95292334Y-25019000D01*
X95250000Y-24976667D01*
X95292334Y-24934334D01*
X95334667Y-24976667D01*
G36*
X112070445Y-27587222D02*
G01*
X112058822Y-27637557D01*
X112014000Y-27643667D01*
X111944310Y-27612689D01*
X111957556Y-27587222D01*
X112058035Y-27577089D01*
X112070445Y-27587222D01*
G37*
X112070445Y-27587222D02*
X112058822Y-27637557D01*
X112014000Y-27643667D01*
X111944310Y-27612689D01*
X111957556Y-27587222D01*
X112058035Y-27577089D01*
X112070445Y-27587222D01*
G36*
X112500834Y-28947956D02*
G01*
X112660814Y-29098073D01*
X112683910Y-29163454D01*
X112662122Y-29167667D01*
X112592977Y-29110570D01*
X112471622Y-28977167D01*
X112310334Y-28786667D01*
X112500834Y-28947956D01*
G37*
X112500834Y-28947956D02*
X112660814Y-29098073D01*
X112683910Y-29163454D01*
X112662122Y-29167667D01*
X112592977Y-29110570D01*
X112471622Y-28977167D01*
X112310334Y-28786667D01*
X112500834Y-28947956D01*
G36*
X104626540Y-22346196D02*
G01*
X104552377Y-22438126D01*
X104391708Y-22671158D01*
X104249431Y-22939284D01*
X104157581Y-23177171D01*
X104140000Y-23279129D01*
X104177005Y-23356228D01*
X104310380Y-23397123D01*
X104573664Y-23410913D01*
X104626834Y-23411207D01*
X105135543Y-23424166D01*
X105716819Y-23458695D01*
X106335467Y-23510753D01*
X106956290Y-23576296D01*
X107544095Y-23651284D01*
X108063685Y-23731673D01*
X108479865Y-23813422D01*
X108730403Y-23882493D01*
X108952315Y-23950721D01*
X109083045Y-23948556D01*
X109187314Y-23871703D01*
X109207106Y-23850855D01*
X109268460Y-23791334D01*
X109389334Y-23791334D01*
X109431667Y-23833667D01*
X109474000Y-23791334D01*
X109431667Y-23749000D01*
X109389334Y-23791334D01*
X109268460Y-23791334D01*
X109367917Y-23694849D01*
X109575806Y-23512708D01*
X109601000Y-23491859D01*
X109855000Y-23283334D01*
X109663726Y-23501281D01*
X109547219Y-23658045D01*
X109512387Y-23756584D01*
X109516078Y-23762856D01*
X109494012Y-23843640D01*
X109391085Y-23959082D01*
X109317906Y-24033897D01*
X109296697Y-24107121D01*
X109342914Y-24207160D01*
X109472012Y-24362423D01*
X109699446Y-24601315D01*
X109792597Y-24697064D01*
X110101527Y-25036116D01*
X110415215Y-25416239D01*
X110677228Y-25768195D01*
X110731668Y-25849223D01*
X110906045Y-26134509D01*
X111104164Y-26485533D01*
X111305135Y-26861893D01*
X111488063Y-27223184D01*
X111632057Y-27529001D01*
X111716223Y-27738939D01*
X111725223Y-27770667D01*
X111814424Y-28059587D01*
X111937392Y-28355311D01*
X112066769Y-28598437D01*
X112162732Y-28720525D01*
X112232761Y-28789834D01*
X112191163Y-28779706D01*
X112112405Y-28766941D01*
X112118494Y-28875629D01*
X112131039Y-28921594D01*
X112249597Y-29469278D01*
X112321714Y-30096899D01*
X112338820Y-30719349D01*
X112331042Y-30907345D01*
X112196971Y-31710726D01*
X111897244Y-32493547D01*
X111434907Y-33249853D01*
X110813006Y-33973690D01*
X110710596Y-34074795D01*
X110497866Y-34289905D01*
X110381143Y-34454669D01*
X110331687Y-34633249D01*
X110320760Y-34889810D01*
X110320667Y-34945348D01*
X110300200Y-35273250D01*
X110247772Y-35577480D01*
X110204742Y-35715887D01*
X110092120Y-35887417D01*
X109876085Y-36137821D01*
X109585188Y-36439865D01*
X109247980Y-36766312D01*
X108893011Y-37089927D01*
X108548833Y-37383475D01*
X108243996Y-37619720D01*
X108119334Y-37705218D01*
X107825752Y-37919622D01*
X107536531Y-38169155D01*
X107444497Y-38260453D01*
X107218578Y-38445928D01*
X106841236Y-38687978D01*
X106319168Y-38982580D01*
X105734790Y-39287459D01*
X104318918Y-40005000D01*
X102980626Y-39994438D01*
X102479116Y-39986396D01*
X101998326Y-39971365D01*
X101581472Y-39951205D01*
X101271769Y-39927777D01*
X101180774Y-39916941D01*
X100813394Y-39825464D01*
X100592366Y-39672075D01*
X100502124Y-39444414D01*
X100498177Y-39374985D01*
X100461761Y-39058090D01*
X100340261Y-38860827D01*
X100107548Y-38744085D01*
X100069395Y-38733222D01*
X99730163Y-38579988D01*
X99537270Y-38355216D01*
X99494821Y-38079259D01*
X99606926Y-37772471D01*
X99822000Y-37507334D01*
X100010218Y-37297708D01*
X100133182Y-37111199D01*
X100160667Y-37024484D01*
X100199671Y-36896521D01*
X100245334Y-36872334D01*
X100321104Y-36804044D01*
X100330000Y-36749317D01*
X100290237Y-36550008D01*
X100194984Y-36350885D01*
X100081671Y-36218722D01*
X100432241Y-36218722D01*
X100446287Y-36336787D01*
X100478337Y-36571733D01*
X100492371Y-36730375D01*
X100555319Y-36849792D01*
X100647500Y-36856215D01*
X100749596Y-36788432D01*
X100791902Y-36611807D01*
X100795667Y-36490174D01*
X100780817Y-36266989D01*
X100763285Y-36237334D01*
X101346000Y-36237334D01*
X101388334Y-36279667D01*
X101430667Y-36237334D01*
X101388334Y-36195000D01*
X101346000Y-36237334D01*
X100763285Y-36237334D01*
X100718323Y-36161285D01*
X100601416Y-36125120D01*
X100466530Y-36127036D01*
X100432241Y-36218722D01*
X100081671Y-36218722D01*
X100080295Y-36217118D01*
X100023340Y-36195000D01*
X99933981Y-36121240D01*
X99846324Y-35937364D01*
X99825173Y-35868116D01*
X99763765Y-35676502D01*
X99678727Y-35572452D01*
X99518830Y-35519379D01*
X99292743Y-35487852D01*
X98928338Y-35455438D01*
X98528687Y-35436072D01*
X98380274Y-35433736D01*
X97912215Y-35433000D01*
X97459951Y-34578941D01*
X97257743Y-34186613D01*
X97129073Y-33903864D01*
X97061382Y-33694461D01*
X97042109Y-33522171D01*
X97051264Y-33399993D01*
X97059189Y-33152433D01*
X96982234Y-32980002D01*
X96896857Y-32889108D01*
X96621972Y-32521293D01*
X96473718Y-32077145D01*
X96450557Y-31590992D01*
X96475081Y-31470353D01*
X96627715Y-31470353D01*
X96644963Y-31951997D01*
X96803690Y-32404008D01*
X97091153Y-32797463D01*
X97494609Y-33103441D01*
X97747667Y-33218985D01*
X98118091Y-33283955D01*
X98544263Y-33251701D01*
X98951065Y-33132465D01*
X99147605Y-33028106D01*
X99526014Y-32685169D01*
X99773671Y-32263465D01*
X99885703Y-31795827D01*
X99857238Y-31315089D01*
X99683404Y-30854084D01*
X99507741Y-30601137D01*
X99128938Y-30268782D01*
X98692839Y-30076723D01*
X98230210Y-30020620D01*
X97771816Y-30096133D01*
X97348423Y-30298925D01*
X96990796Y-30624656D01*
X96764690Y-30988000D01*
X96627715Y-31470353D01*
X96475081Y-31470353D01*
X96550948Y-31097162D01*
X96773353Y-30629984D01*
X97011825Y-30325544D01*
X97153159Y-30166972D01*
X97184919Y-30075131D01*
X97117586Y-29997334D01*
X97082390Y-29970883D01*
X96792492Y-29735471D01*
X96539103Y-29489458D01*
X96353850Y-29267277D01*
X96268357Y-29103362D01*
X96266000Y-29082002D01*
X96279838Y-29018107D01*
X96620487Y-29018107D01*
X96660098Y-29214663D01*
X96789613Y-29394776D01*
X96855606Y-29461067D01*
X97029272Y-29608767D01*
X97144647Y-29643036D01*
X97237182Y-29593063D01*
X97412644Y-29530149D01*
X97702649Y-29507938D01*
X98058408Y-29522442D01*
X98431136Y-29569674D01*
X98772042Y-29645648D01*
X99017667Y-29738553D01*
X99483148Y-30061992D01*
X99818104Y-30484878D01*
X100025726Y-31013325D01*
X100109208Y-31653448D01*
X100111046Y-31832516D01*
X100047863Y-32475695D01*
X99871076Y-32995508D01*
X99577091Y-33397320D01*
X99162313Y-33686496D01*
X98771352Y-33832264D01*
X98309818Y-33882617D01*
X97888664Y-33768658D01*
X97577053Y-33557852D01*
X97374221Y-33413139D01*
X97255607Y-33401247D01*
X97219652Y-33508997D01*
X97264798Y-33723211D01*
X97389485Y-34030709D01*
X97592155Y-34418311D01*
X97700614Y-34602576D01*
X97899463Y-34898779D01*
X98085993Y-35071942D01*
X98315795Y-35154143D01*
X98644459Y-35177464D01*
X98697510Y-35177844D01*
X98919695Y-35168547D01*
X99009299Y-35127035D01*
X99002435Y-35035796D01*
X99000653Y-35030834D01*
X98971879Y-34932543D01*
X99018159Y-34947988D01*
X99115810Y-35030834D01*
X99339185Y-35149145D01*
X99591063Y-35176056D01*
X99807409Y-35112872D01*
X99903924Y-35014792D01*
X99942633Y-34905871D01*
X99880904Y-34850101D01*
X99685005Y-34818511D01*
X99674070Y-34817358D01*
X99603868Y-34802278D01*
X99684662Y-34790022D01*
X99898115Y-34782442D01*
X100033667Y-34781045D01*
X100333561Y-34784443D01*
X100481010Y-34797449D01*
X100469068Y-34819169D01*
X100416901Y-34830312D01*
X100136190Y-34956658D01*
X99962251Y-35205160D01*
X99909211Y-35517667D01*
X99925374Y-35717482D01*
X99992537Y-35852112D01*
X100138875Y-35935965D01*
X100392563Y-35983451D01*
X100781777Y-36008978D01*
X100877160Y-36012673D01*
X101223374Y-36021572D01*
X101495355Y-36021560D01*
X101656460Y-36013023D01*
X101684667Y-36004141D01*
X101679687Y-35983334D01*
X102277334Y-35983334D01*
X102319667Y-36025667D01*
X102362000Y-35983334D01*
X102319667Y-35941000D01*
X102277334Y-35983334D01*
X101679687Y-35983334D01*
X101660968Y-35905131D01*
X101604140Y-35720801D01*
X101529805Y-35475262D01*
X101448442Y-35180435D01*
X101432889Y-35120497D01*
X101404606Y-35030834D01*
X101530876Y-35030834D01*
X101535499Y-35196063D01*
X101614160Y-35253437D01*
X101788168Y-35204987D01*
X101914741Y-35139714D01*
X102277334Y-35139714D01*
X102315866Y-35354890D01*
X102409822Y-35611886D01*
X102526739Y-35832379D01*
X102600674Y-35919834D01*
X102699148Y-35987494D01*
X102808525Y-36017817D01*
X102978144Y-36014412D01*
X103257347Y-35980889D01*
X103319478Y-35972425D01*
X103707923Y-35919182D01*
X103394795Y-35338862D01*
X103234154Y-35063874D01*
X103227770Y-35054728D01*
X104140000Y-35054728D01*
X104208331Y-35262257D01*
X104330500Y-35345695D01*
X104574451Y-35419528D01*
X104701554Y-35390469D01*
X104732667Y-35281922D01*
X104665210Y-35138390D01*
X104501362Y-34994473D01*
X104486770Y-34985588D01*
X104279325Y-34872641D01*
X104176822Y-34860091D01*
X104142771Y-34955212D01*
X104140000Y-35054728D01*
X103227770Y-35054728D01*
X103091073Y-34858918D01*
X102991827Y-34760728D01*
X102978706Y-34757104D01*
X102812948Y-34793942D01*
X102603152Y-34886194D01*
X102409041Y-35001280D01*
X102290338Y-35106618D01*
X102277334Y-35139714D01*
X101914741Y-35139714D01*
X102032972Y-35078743D01*
X102231790Y-34951922D01*
X102348835Y-34848110D01*
X102362000Y-34820104D01*
X102286393Y-34782061D01*
X102093961Y-34767829D01*
X101959834Y-34772195D01*
X101714504Y-34797176D01*
X101590870Y-34849936D01*
X101541299Y-34959198D01*
X101530876Y-35030834D01*
X101404606Y-35030834D01*
X101361773Y-34895051D01*
X101266335Y-34785322D01*
X101093071Y-34740225D01*
X101026582Y-34732563D01*
X101012450Y-34722326D01*
X101148481Y-34712078D01*
X101415510Y-34702434D01*
X101794367Y-34694010D01*
X102265886Y-34687421D01*
X102501311Y-34685233D01*
X104291622Y-34671000D01*
X104869383Y-35117161D01*
X105378593Y-35575116D01*
X105723025Y-36040820D01*
X105907185Y-36526056D01*
X105935582Y-37042603D01*
X105816150Y-37592000D01*
X105703437Y-37930667D01*
X104096219Y-37910924D01*
X103339638Y-37898829D01*
X102625274Y-37882068D01*
X101971335Y-37861488D01*
X101396026Y-37837938D01*
X100917557Y-37812266D01*
X100554132Y-37785321D01*
X100323960Y-37757950D01*
X100245218Y-37731493D01*
X100321397Y-37706010D01*
X100517739Y-37698343D01*
X100701778Y-37705141D01*
X101158454Y-37733616D01*
X101164464Y-37658037D01*
X103757149Y-37658037D01*
X103789329Y-37697192D01*
X103935562Y-37713703D01*
X104223277Y-37716024D01*
X104227691Y-37716000D01*
X104515911Y-37711913D01*
X104657443Y-37698122D01*
X104674927Y-37666263D01*
X104591003Y-37607971D01*
X104563334Y-37592000D01*
X104440000Y-37507758D01*
X104433879Y-37471055D01*
X104436334Y-37471001D01*
X104567010Y-37509118D01*
X104732667Y-37588844D01*
X104897956Y-37658532D01*
X104953855Y-37642173D01*
X105212272Y-37642173D01*
X105226203Y-37679323D01*
X105329177Y-37657860D01*
X105491478Y-37584836D01*
X105547876Y-37532070D01*
X105574494Y-37417180D01*
X105501337Y-37381171D01*
X105381406Y-37429905D01*
X105306691Y-37505403D01*
X105212272Y-37642173D01*
X104953855Y-37642173D01*
X105025572Y-37621185D01*
X105134834Y-37528752D01*
X105253670Y-37378539D01*
X105311155Y-37178177D01*
X105325334Y-36890033D01*
X105320444Y-36627081D01*
X105294401Y-36496710D01*
X105230138Y-36462218D01*
X105134834Y-36480303D01*
X104938800Y-36510540D01*
X104656953Y-36529459D01*
X104507497Y-36532511D01*
X104070660Y-36533667D01*
X104188992Y-36978167D01*
X104254374Y-37223663D01*
X104297784Y-37386457D01*
X104308329Y-37425816D01*
X104237544Y-37433701D01*
X104126070Y-37442770D01*
X103913861Y-37513504D01*
X103811594Y-37587788D01*
X103757149Y-37658037D01*
X101164464Y-37658037D01*
X101220220Y-36957000D01*
X100245334Y-36957000D01*
X100244037Y-37274500D01*
X100228941Y-37460890D01*
X100189774Y-37502554D01*
X100174650Y-37484726D01*
X100084643Y-37462649D01*
X99953126Y-37551724D01*
X99814446Y-37711711D01*
X99702948Y-37902368D01*
X99652978Y-38083457D01*
X99652667Y-38096288D01*
X99678637Y-38241569D01*
X99773172Y-38352704D01*
X99961211Y-38441356D01*
X100267691Y-38519188D01*
X100717550Y-38597863D01*
X100728969Y-38599648D01*
X101062534Y-38653775D01*
X101240006Y-38689336D01*
X101273074Y-38710628D01*
X101173430Y-38721952D01*
X101070834Y-38725381D01*
X100827300Y-38738961D01*
X100707315Y-38782312D01*
X100665119Y-38882348D01*
X100658635Y-38967834D01*
X100661731Y-39273904D01*
X100709729Y-39462201D01*
X100764577Y-39539334D01*
X100917276Y-39604163D01*
X101237296Y-39656659D01*
X101723065Y-39696688D01*
X102373011Y-39724117D01*
X103112787Y-39738090D01*
X104329241Y-39751000D01*
X105737454Y-39025069D01*
X106195150Y-38783632D01*
X106609512Y-38554757D01*
X106953086Y-38354426D01*
X107198416Y-38198615D01*
X107315000Y-38106929D01*
X107437342Y-37955821D01*
X107626893Y-37707788D01*
X107852612Y-37403823D01*
X107984206Y-37223121D01*
X108235213Y-36887489D01*
X108411732Y-36675595D01*
X108508710Y-36590502D01*
X108521095Y-36635271D01*
X108443837Y-36812965D01*
X108339467Y-37007800D01*
X108221219Y-37233499D01*
X108153419Y-37391169D01*
X108146911Y-37436133D01*
X108234869Y-37411490D01*
X108421626Y-37288846D01*
X108683394Y-37087016D01*
X108996381Y-36824814D01*
X109336800Y-36521055D01*
X109517613Y-36352112D01*
X110151334Y-35750139D01*
X110151334Y-35155114D01*
X110149389Y-34846869D01*
X110136559Y-34680695D01*
X110102352Y-34629328D01*
X110036274Y-34665505D01*
X109981481Y-34713803D01*
X109845327Y-34814308D01*
X109774349Y-34830238D01*
X109814447Y-34757853D01*
X109950164Y-34584793D01*
X110161988Y-34334556D01*
X110430408Y-34030639D01*
X110527344Y-33923382D01*
X111088404Y-33260600D01*
X111511840Y-32647597D01*
X111809682Y-32054921D01*
X111993961Y-31453121D01*
X112076707Y-30812745D01*
X112072198Y-30141334D01*
X112042141Y-29707372D01*
X112004760Y-29410701D01*
X111949292Y-29219315D01*
X111864973Y-29101207D01*
X111741041Y-29024369D01*
X111689218Y-29002455D01*
X111463667Y-28912654D01*
X111696367Y-28957073D01*
X111929068Y-29001493D01*
X111717534Y-28439500D01*
X111613199Y-28156895D01*
X111537632Y-27941898D01*
X111506157Y-27838203D01*
X111506000Y-27836195D01*
X111441067Y-27826787D01*
X111357834Y-27851291D01*
X111262011Y-27875253D01*
X111305774Y-27810889D01*
X111311440Y-27805143D01*
X111323357Y-27681695D01*
X111253034Y-27444407D01*
X111113409Y-27119492D01*
X110917422Y-26733162D01*
X110678010Y-26311632D01*
X110408111Y-25881115D01*
X110239048Y-25632425D01*
X109956979Y-25265147D01*
X109663055Y-24940862D01*
X109382379Y-24682005D01*
X109140053Y-24511009D01*
X108961181Y-24450308D01*
X108923726Y-24456928D01*
X108746715Y-24500099D01*
X108688102Y-24438941D01*
X108693804Y-24381677D01*
X108632195Y-24283514D01*
X108424142Y-24179561D01*
X108092211Y-24074427D01*
X107658973Y-23972719D01*
X107146995Y-23879046D01*
X106578845Y-23798015D01*
X105977094Y-23734236D01*
X105364308Y-23692317D01*
X105304167Y-23689543D01*
X104140000Y-23638315D01*
X104137307Y-23841824D01*
X104125970Y-23980394D01*
X104076575Y-23965040D01*
X104022140Y-23897167D01*
X103919492Y-23806285D01*
X103765070Y-23761834D01*
X103528796Y-23763116D01*
X103180590Y-23809435D01*
X102845584Y-23869918D01*
X102321073Y-23975144D01*
X101946395Y-24063144D01*
X101703651Y-24139894D01*
X101574939Y-24211369D01*
X101542356Y-24283546D01*
X101547459Y-24303263D01*
X101557625Y-24379665D01*
X101467054Y-24344352D01*
X101437509Y-24326291D01*
X101329433Y-24289254D01*
X101178840Y-24308082D01*
X100949059Y-24392128D01*
X100656204Y-24525575D01*
X100300010Y-24702325D01*
X99949011Y-24889007D01*
X99674926Y-25047370D01*
X99658507Y-25057647D01*
X99447875Y-25200183D01*
X99366933Y-25289480D01*
X99396057Y-25352163D01*
X99426945Y-25371809D01*
X99546504Y-25473599D01*
X99562843Y-25553842D01*
X99478411Y-25563593D01*
X99418646Y-25537692D01*
X99217333Y-25504372D01*
X98965169Y-25600152D01*
X98652361Y-25831009D01*
X98269115Y-26202917D01*
X98189797Y-26287567D01*
X97500177Y-27138056D01*
X96972959Y-28023441D01*
X96802177Y-28401022D01*
X96668580Y-28761447D01*
X96620487Y-29018107D01*
X96279838Y-29018107D01*
X96308317Y-28886620D01*
X96424605Y-28583419D01*
X96598871Y-28208037D01*
X96815122Y-27796114D01*
X96945215Y-27568495D01*
X97214091Y-27112323D01*
X96591879Y-27156272D01*
X96261081Y-27185157D01*
X95979579Y-27219552D01*
X95805651Y-27252270D01*
X95800334Y-27253888D01*
X95751162Y-27259234D01*
X95840092Y-27205628D01*
X95885000Y-27183096D01*
X96110745Y-27114859D01*
X96431572Y-27068407D01*
X96698010Y-27054819D01*
X97257021Y-27051000D01*
X97641973Y-26561018D01*
X97838183Y-26305506D01*
X97943905Y-26137313D01*
X97974895Y-26011904D01*
X97946909Y-25884740D01*
X97912004Y-25797720D01*
X97769284Y-25553705D01*
X97604555Y-25473607D01*
X97400414Y-25554171D01*
X97255253Y-25674974D01*
X96991306Y-25900134D01*
X96746328Y-26034805D01*
X96460184Y-26100700D01*
X96072738Y-26119535D01*
X96023711Y-26119667D01*
X95704030Y-26113656D01*
X95504083Y-26086042D01*
X95414480Y-26042100D01*
X96429742Y-26042100D01*
X96510478Y-26030089D01*
X96722080Y-25934603D01*
X96763205Y-25913583D01*
X96974891Y-25775769D01*
X97118833Y-25642110D01*
X97160897Y-25569961D01*
X97091650Y-25586476D01*
X96901000Y-25692410D01*
X96632176Y-25861747D01*
X96472699Y-25982148D01*
X96429742Y-26042100D01*
X95414480Y-26042100D01*
X95374423Y-26022456D01*
X95265607Y-25908525D01*
X95256145Y-25896582D01*
X95104657Y-25601954D01*
X95106101Y-25315910D01*
X95164230Y-25188334D01*
X95210230Y-25154498D01*
X95209156Y-25275873D01*
X95195736Y-25369302D01*
X95185639Y-25617416D01*
X95269936Y-25795595D01*
X95325136Y-25856136D01*
X95516580Y-25987619D01*
X95689174Y-26035000D01*
X95801313Y-26027484D01*
X95809677Y-25981457D01*
X95707987Y-25861705D01*
X95646841Y-25797534D01*
X95473032Y-25601569D01*
X95424205Y-25517082D01*
X95492279Y-25550819D01*
X95669174Y-25709527D01*
X95707200Y-25747134D01*
X95892148Y-25916400D01*
X96035451Y-26019891D01*
X96076558Y-26035000D01*
X96186413Y-25986115D01*
X96371465Y-25862269D01*
X96471474Y-25785922D01*
X96760510Y-25592670D01*
X97086828Y-25423813D01*
X97162942Y-25392467D01*
X97529268Y-25308022D01*
X97811719Y-25369162D01*
X98015897Y-25577712D01*
X98070829Y-25688062D01*
X98174101Y-25933673D01*
X98456868Y-25681021D01*
X98739635Y-25428368D01*
X98505370Y-25183848D01*
X98348290Y-24978702D01*
X98283850Y-24752048D01*
X98276995Y-24549682D01*
X98289034Y-24465869D01*
X98382667Y-24465869D01*
X98429231Y-24814274D01*
X98554989Y-25085690D01*
X98739035Y-25244809D01*
X98859751Y-25271704D01*
X98912553Y-25203242D01*
X98926396Y-24988595D01*
X98912278Y-24730383D01*
X98903249Y-24398121D01*
X98924587Y-24094617D01*
X98959957Y-23926050D01*
X99006670Y-23734390D01*
X98963028Y-23677435D01*
X98824317Y-23754945D01*
X98645621Y-23909969D01*
X98456852Y-24134026D01*
X98386407Y-24372789D01*
X98382667Y-24465869D01*
X98289034Y-24465869D01*
X98328229Y-24193007D01*
X98438610Y-23985869D01*
X98618996Y-23820844D01*
X98856116Y-23648549D01*
X99095810Y-23503662D01*
X99283916Y-23420860D01*
X99333484Y-23412908D01*
X99368418Y-23444783D01*
X99298698Y-23498500D01*
X99189576Y-23639471D01*
X99094345Y-23895429D01*
X99025071Y-24212036D01*
X98993822Y-24534956D01*
X99010234Y-24797488D01*
X99056134Y-24996344D01*
X99096750Y-25099589D01*
X99103313Y-25103667D01*
X99186845Y-25061146D01*
X99372437Y-24949443D01*
X99620621Y-24792344D01*
X99631255Y-24785477D01*
X99982843Y-24575890D01*
X100390702Y-24358046D01*
X100690670Y-24213977D01*
X100994653Y-24062220D01*
X101177048Y-23936002D01*
X101219882Y-23854834D01*
X101232342Y-23762141D01*
X101318941Y-23764216D01*
X101386334Y-23830432D01*
X101500760Y-23868924D01*
X101632984Y-23837221D01*
X101820924Y-23783736D01*
X102131218Y-23713994D01*
X102518730Y-23636641D01*
X102938322Y-23560322D01*
X103344856Y-23493684D01*
X103653167Y-23450264D01*
X103929071Y-23393080D01*
X104048394Y-23307822D01*
X104055334Y-23274773D01*
X104102719Y-23084471D01*
X104220314Y-22830780D01*
X104371276Y-22581511D01*
X104518761Y-22404474D01*
X104535979Y-22390129D01*
X104639340Y-22313840D01*
X104626540Y-22346196D01*
G37*
X104626540Y-22346196D02*
X104552377Y-22438126D01*
X104391708Y-22671158D01*
X104249431Y-22939284D01*
X104157581Y-23177171D01*
X104140000Y-23279129D01*
X104177005Y-23356228D01*
X104310380Y-23397123D01*
X104573664Y-23410913D01*
X104626834Y-23411207D01*
X105135543Y-23424166D01*
X105716819Y-23458695D01*
X106335467Y-23510753D01*
X106956290Y-23576296D01*
X107544095Y-23651284D01*
X108063685Y-23731673D01*
X108479865Y-23813422D01*
X108730403Y-23882493D01*
X108952315Y-23950721D01*
X109083045Y-23948556D01*
X109187314Y-23871703D01*
X109207106Y-23850855D01*
X109268460Y-23791334D01*
X109389334Y-23791334D01*
X109431667Y-23833667D01*
X109474000Y-23791334D01*
X109431667Y-23749000D01*
X109389334Y-23791334D01*
X109268460Y-23791334D01*
X109367917Y-23694849D01*
X109575806Y-23512708D01*
X109601000Y-23491859D01*
X109855000Y-23283334D01*
X109663726Y-23501281D01*
X109547219Y-23658045D01*
X109512387Y-23756584D01*
X109516078Y-23762856D01*
X109494012Y-23843640D01*
X109391085Y-23959082D01*
X109317906Y-24033897D01*
X109296697Y-24107121D01*
X109342914Y-24207160D01*
X109472012Y-24362423D01*
X109699446Y-24601315D01*
X109792597Y-24697064D01*
X110101527Y-25036116D01*
X110415215Y-25416239D01*
X110677228Y-25768195D01*
X110731668Y-25849223D01*
X110906045Y-26134509D01*
X111104164Y-26485533D01*
X111305135Y-26861893D01*
X111488063Y-27223184D01*
X111632057Y-27529001D01*
X111716223Y-27738939D01*
X111725223Y-27770667D01*
X111814424Y-28059587D01*
X111937392Y-28355311D01*
X112066769Y-28598437D01*
X112162732Y-28720525D01*
X112232761Y-28789834D01*
X112191163Y-28779706D01*
X112112405Y-28766941D01*
X112118494Y-28875629D01*
X112131039Y-28921594D01*
X112249597Y-29469278D01*
X112321714Y-30096899D01*
X112338820Y-30719349D01*
X112331042Y-30907345D01*
X112196971Y-31710726D01*
X111897244Y-32493547D01*
X111434907Y-33249853D01*
X110813006Y-33973690D01*
X110710596Y-34074795D01*
X110497866Y-34289905D01*
X110381143Y-34454669D01*
X110331687Y-34633249D01*
X110320760Y-34889810D01*
X110320667Y-34945348D01*
X110300200Y-35273250D01*
X110247772Y-35577480D01*
X110204742Y-35715887D01*
X110092120Y-35887417D01*
X109876085Y-36137821D01*
X109585188Y-36439865D01*
X109247980Y-36766312D01*
X108893011Y-37089927D01*
X108548833Y-37383475D01*
X108243996Y-37619720D01*
X108119334Y-37705218D01*
X107825752Y-37919622D01*
X107536531Y-38169155D01*
X107444497Y-38260453D01*
X107218578Y-38445928D01*
X106841236Y-38687978D01*
X106319168Y-38982580D01*
X105734790Y-39287459D01*
X104318918Y-40005000D01*
X102980626Y-39994438D01*
X102479116Y-39986396D01*
X101998326Y-39971365D01*
X101581472Y-39951205D01*
X101271769Y-39927777D01*
X101180774Y-39916941D01*
X100813394Y-39825464D01*
X100592366Y-39672075D01*
X100502124Y-39444414D01*
X100498177Y-39374985D01*
X100461761Y-39058090D01*
X100340261Y-38860827D01*
X100107548Y-38744085D01*
X100069395Y-38733222D01*
X99730163Y-38579988D01*
X99537270Y-38355216D01*
X99494821Y-38079259D01*
X99606926Y-37772471D01*
X99822000Y-37507334D01*
X100010218Y-37297708D01*
X100133182Y-37111199D01*
X100160667Y-37024484D01*
X100199671Y-36896521D01*
X100245334Y-36872334D01*
X100321104Y-36804044D01*
X100330000Y-36749317D01*
X100290237Y-36550008D01*
X100194984Y-36350885D01*
X100081671Y-36218722D01*
X100432241Y-36218722D01*
X100446287Y-36336787D01*
X100478337Y-36571733D01*
X100492371Y-36730375D01*
X100555319Y-36849792D01*
X100647500Y-36856215D01*
X100749596Y-36788432D01*
X100791902Y-36611807D01*
X100795667Y-36490174D01*
X100780817Y-36266989D01*
X100763285Y-36237334D01*
X101346000Y-36237334D01*
X101388334Y-36279667D01*
X101430667Y-36237334D01*
X101388334Y-36195000D01*
X101346000Y-36237334D01*
X100763285Y-36237334D01*
X100718323Y-36161285D01*
X100601416Y-36125120D01*
X100466530Y-36127036D01*
X100432241Y-36218722D01*
X100081671Y-36218722D01*
X100080295Y-36217118D01*
X100023340Y-36195000D01*
X99933981Y-36121240D01*
X99846324Y-35937364D01*
X99825173Y-35868116D01*
X99763765Y-35676502D01*
X99678727Y-35572452D01*
X99518830Y-35519379D01*
X99292743Y-35487852D01*
X98928338Y-35455438D01*
X98528687Y-35436072D01*
X98380274Y-35433736D01*
X97912215Y-35433000D01*
X97459951Y-34578941D01*
X97257743Y-34186613D01*
X97129073Y-33903864D01*
X97061382Y-33694461D01*
X97042109Y-33522171D01*
X97051264Y-33399993D01*
X97059189Y-33152433D01*
X96982234Y-32980002D01*
X96896857Y-32889108D01*
X96621972Y-32521293D01*
X96473718Y-32077145D01*
X96450557Y-31590992D01*
X96475081Y-31470353D01*
X96627715Y-31470353D01*
X96644963Y-31951997D01*
X96803690Y-32404008D01*
X97091153Y-32797463D01*
X97494609Y-33103441D01*
X97747667Y-33218985D01*
X98118091Y-33283955D01*
X98544263Y-33251701D01*
X98951065Y-33132465D01*
X99147605Y-33028106D01*
X99526014Y-32685169D01*
X99773671Y-32263465D01*
X99885703Y-31795827D01*
X99857238Y-31315089D01*
X99683404Y-30854084D01*
X99507741Y-30601137D01*
X99128938Y-30268782D01*
X98692839Y-30076723D01*
X98230210Y-30020620D01*
X97771816Y-30096133D01*
X97348423Y-30298925D01*
X96990796Y-30624656D01*
X96764690Y-30988000D01*
X96627715Y-31470353D01*
X96475081Y-31470353D01*
X96550948Y-31097162D01*
X96773353Y-30629984D01*
X97011825Y-30325544D01*
X97153159Y-30166972D01*
X97184919Y-30075131D01*
X97117586Y-29997334D01*
X97082390Y-29970883D01*
X96792492Y-29735471D01*
X96539103Y-29489458D01*
X96353850Y-29267277D01*
X96268357Y-29103362D01*
X96266000Y-29082002D01*
X96279838Y-29018107D01*
X96620487Y-29018107D01*
X96660098Y-29214663D01*
X96789613Y-29394776D01*
X96855606Y-29461067D01*
X97029272Y-29608767D01*
X97144647Y-29643036D01*
X97237182Y-29593063D01*
X97412644Y-29530149D01*
X97702649Y-29507938D01*
X98058408Y-29522442D01*
X98431136Y-29569674D01*
X98772042Y-29645648D01*
X99017667Y-29738553D01*
X99483148Y-30061992D01*
X99818104Y-30484878D01*
X100025726Y-31013325D01*
X100109208Y-31653448D01*
X100111046Y-31832516D01*
X100047863Y-32475695D01*
X99871076Y-32995508D01*
X99577091Y-33397320D01*
X99162313Y-33686496D01*
X98771352Y-33832264D01*
X98309818Y-33882617D01*
X97888664Y-33768658D01*
X97577053Y-33557852D01*
X97374221Y-33413139D01*
X97255607Y-33401247D01*
X97219652Y-33508997D01*
X97264798Y-33723211D01*
X97389485Y-34030709D01*
X97592155Y-34418311D01*
X97700614Y-34602576D01*
X97899463Y-34898779D01*
X98085993Y-35071942D01*
X98315795Y-35154143D01*
X98644459Y-35177464D01*
X98697510Y-35177844D01*
X98919695Y-35168547D01*
X99009299Y-35127035D01*
X99002435Y-35035796D01*
X99000653Y-35030834D01*
X98971879Y-34932543D01*
X99018159Y-34947988D01*
X99115810Y-35030834D01*
X99339185Y-35149145D01*
X99591063Y-35176056D01*
X99807409Y-35112872D01*
X99903924Y-35014792D01*
X99942633Y-34905871D01*
X99880904Y-34850101D01*
X99685005Y-34818511D01*
X99674070Y-34817358D01*
X99603868Y-34802278D01*
X99684662Y-34790022D01*
X99898115Y-34782442D01*
X100033667Y-34781045D01*
X100333561Y-34784443D01*
X100481010Y-34797449D01*
X100469068Y-34819169D01*
X100416901Y-34830312D01*
X100136190Y-34956658D01*
X99962251Y-35205160D01*
X99909211Y-35517667D01*
X99925374Y-35717482D01*
X99992537Y-35852112D01*
X100138875Y-35935965D01*
X100392563Y-35983451D01*
X100781777Y-36008978D01*
X100877160Y-36012673D01*
X101223374Y-36021572D01*
X101495355Y-36021560D01*
X101656460Y-36013023D01*
X101684667Y-36004141D01*
X101679687Y-35983334D01*
X102277334Y-35983334D01*
X102319667Y-36025667D01*
X102362000Y-35983334D01*
X102319667Y-35941000D01*
X102277334Y-35983334D01*
X101679687Y-35983334D01*
X101660968Y-35905131D01*
X101604140Y-35720801D01*
X101529805Y-35475262D01*
X101448442Y-35180435D01*
X101432889Y-35120497D01*
X101404606Y-35030834D01*
X101530876Y-35030834D01*
X101535499Y-35196063D01*
X101614160Y-35253437D01*
X101788168Y-35204987D01*
X101914741Y-35139714D01*
X102277334Y-35139714D01*
X102315866Y-35354890D01*
X102409822Y-35611886D01*
X102526739Y-35832379D01*
X102600674Y-35919834D01*
X102699148Y-35987494D01*
X102808525Y-36017817D01*
X102978144Y-36014412D01*
X103257347Y-35980889D01*
X103319478Y-35972425D01*
X103707923Y-35919182D01*
X103394795Y-35338862D01*
X103234154Y-35063874D01*
X103227770Y-35054728D01*
X104140000Y-35054728D01*
X104208331Y-35262257D01*
X104330500Y-35345695D01*
X104574451Y-35419528D01*
X104701554Y-35390469D01*
X104732667Y-35281922D01*
X104665210Y-35138390D01*
X104501362Y-34994473D01*
X104486770Y-34985588D01*
X104279325Y-34872641D01*
X104176822Y-34860091D01*
X104142771Y-34955212D01*
X104140000Y-35054728D01*
X103227770Y-35054728D01*
X103091073Y-34858918D01*
X102991827Y-34760728D01*
X102978706Y-34757104D01*
X102812948Y-34793942D01*
X102603152Y-34886194D01*
X102409041Y-35001280D01*
X102290338Y-35106618D01*
X102277334Y-35139714D01*
X101914741Y-35139714D01*
X102032972Y-35078743D01*
X102231790Y-34951922D01*
X102348835Y-34848110D01*
X102362000Y-34820104D01*
X102286393Y-34782061D01*
X102093961Y-34767829D01*
X101959834Y-34772195D01*
X101714504Y-34797176D01*
X101590870Y-34849936D01*
X101541299Y-34959198D01*
X101530876Y-35030834D01*
X101404606Y-35030834D01*
X101361773Y-34895051D01*
X101266335Y-34785322D01*
X101093071Y-34740225D01*
X101026582Y-34732563D01*
X101012450Y-34722326D01*
X101148481Y-34712078D01*
X101415510Y-34702434D01*
X101794367Y-34694010D01*
X102265886Y-34687421D01*
X102501311Y-34685233D01*
X104291622Y-34671000D01*
X104869383Y-35117161D01*
X105378593Y-35575116D01*
X105723025Y-36040820D01*
X105907185Y-36526056D01*
X105935582Y-37042603D01*
X105816150Y-37592000D01*
X105703437Y-37930667D01*
X104096219Y-37910924D01*
X103339638Y-37898829D01*
X102625274Y-37882068D01*
X101971335Y-37861488D01*
X101396026Y-37837938D01*
X100917557Y-37812266D01*
X100554132Y-37785321D01*
X100323960Y-37757950D01*
X100245218Y-37731493D01*
X100321397Y-37706010D01*
X100517739Y-37698343D01*
X100701778Y-37705141D01*
X101158454Y-37733616D01*
X101164464Y-37658037D01*
X103757149Y-37658037D01*
X103789329Y-37697192D01*
X103935562Y-37713703D01*
X104223277Y-37716024D01*
X104227691Y-37716000D01*
X104515911Y-37711913D01*
X104657443Y-37698122D01*
X104674927Y-37666263D01*
X104591003Y-37607971D01*
X104563334Y-37592000D01*
X104440000Y-37507758D01*
X104433879Y-37471055D01*
X104436334Y-37471001D01*
X104567010Y-37509118D01*
X104732667Y-37588844D01*
X104897956Y-37658532D01*
X104953855Y-37642173D01*
X105212272Y-37642173D01*
X105226203Y-37679323D01*
X105329177Y-37657860D01*
X105491478Y-37584836D01*
X105547876Y-37532070D01*
X105574494Y-37417180D01*
X105501337Y-37381171D01*
X105381406Y-37429905D01*
X105306691Y-37505403D01*
X105212272Y-37642173D01*
X104953855Y-37642173D01*
X105025572Y-37621185D01*
X105134834Y-37528752D01*
X105253670Y-37378539D01*
X105311155Y-37178177D01*
X105325334Y-36890033D01*
X105320444Y-36627081D01*
X105294401Y-36496710D01*
X105230138Y-36462218D01*
X105134834Y-36480303D01*
X104938800Y-36510540D01*
X104656953Y-36529459D01*
X104507497Y-36532511D01*
X104070660Y-36533667D01*
X104188992Y-36978167D01*
X104254374Y-37223663D01*
X104297784Y-37386457D01*
X104308329Y-37425816D01*
X104237544Y-37433701D01*
X104126070Y-37442770D01*
X103913861Y-37513504D01*
X103811594Y-37587788D01*
X103757149Y-37658037D01*
X101164464Y-37658037D01*
X101220220Y-36957000D01*
X100245334Y-36957000D01*
X100244037Y-37274500D01*
X100228941Y-37460890D01*
X100189774Y-37502554D01*
X100174650Y-37484726D01*
X100084643Y-37462649D01*
X99953126Y-37551724D01*
X99814446Y-37711711D01*
X99702948Y-37902368D01*
X99652978Y-38083457D01*
X99652667Y-38096288D01*
X99678637Y-38241569D01*
X99773172Y-38352704D01*
X99961211Y-38441356D01*
X100267691Y-38519188D01*
X100717550Y-38597863D01*
X100728969Y-38599648D01*
X101062534Y-38653775D01*
X101240006Y-38689336D01*
X101273074Y-38710628D01*
X101173430Y-38721952D01*
X101070834Y-38725381D01*
X100827300Y-38738961D01*
X100707315Y-38782312D01*
X100665119Y-38882348D01*
X100658635Y-38967834D01*
X100661731Y-39273904D01*
X100709729Y-39462201D01*
X100764577Y-39539334D01*
X100917276Y-39604163D01*
X101237296Y-39656659D01*
X101723065Y-39696688D01*
X102373011Y-39724117D01*
X103112787Y-39738090D01*
X104329241Y-39751000D01*
X105737454Y-39025069D01*
X106195150Y-38783632D01*
X106609512Y-38554757D01*
X106953086Y-38354426D01*
X107198416Y-38198615D01*
X107315000Y-38106929D01*
X107437342Y-37955821D01*
X107626893Y-37707788D01*
X107852612Y-37403823D01*
X107984206Y-37223121D01*
X108235213Y-36887489D01*
X108411732Y-36675595D01*
X108508710Y-36590502D01*
X108521095Y-36635271D01*
X108443837Y-36812965D01*
X108339467Y-37007800D01*
X108221219Y-37233499D01*
X108153419Y-37391169D01*
X108146911Y-37436133D01*
X108234869Y-37411490D01*
X108421626Y-37288846D01*
X108683394Y-37087016D01*
X108996381Y-36824814D01*
X109336800Y-36521055D01*
X109517613Y-36352112D01*
X110151334Y-35750139D01*
X110151334Y-35155114D01*
X110149389Y-34846869D01*
X110136559Y-34680695D01*
X110102352Y-34629328D01*
X110036274Y-34665505D01*
X109981481Y-34713803D01*
X109845327Y-34814308D01*
X109774349Y-34830238D01*
X109814447Y-34757853D01*
X109950164Y-34584793D01*
X110161988Y-34334556D01*
X110430408Y-34030639D01*
X110527344Y-33923382D01*
X111088404Y-33260600D01*
X111511840Y-32647597D01*
X111809682Y-32054921D01*
X111993961Y-31453121D01*
X112076707Y-30812745D01*
X112072198Y-30141334D01*
X112042141Y-29707372D01*
X112004760Y-29410701D01*
X111949292Y-29219315D01*
X111864973Y-29101207D01*
X111741041Y-29024369D01*
X111689218Y-29002455D01*
X111463667Y-28912654D01*
X111696367Y-28957073D01*
X111929068Y-29001493D01*
X111717534Y-28439500D01*
X111613199Y-28156895D01*
X111537632Y-27941898D01*
X111506157Y-27838203D01*
X111506000Y-27836195D01*
X111441067Y-27826787D01*
X111357834Y-27851291D01*
X111262011Y-27875253D01*
X111305774Y-27810889D01*
X111311440Y-27805143D01*
X111323357Y-27681695D01*
X111253034Y-27444407D01*
X111113409Y-27119492D01*
X110917422Y-26733162D01*
X110678010Y-26311632D01*
X110408111Y-25881115D01*
X110239048Y-25632425D01*
X109956979Y-25265147D01*
X109663055Y-24940862D01*
X109382379Y-24682005D01*
X109140053Y-24511009D01*
X108961181Y-24450308D01*
X108923726Y-24456928D01*
X108746715Y-24500099D01*
X108688102Y-24438941D01*
X108693804Y-24381677D01*
X108632195Y-24283514D01*
X108424142Y-24179561D01*
X108092211Y-24074427D01*
X107658973Y-23972719D01*
X107146995Y-23879046D01*
X106578845Y-23798015D01*
X105977094Y-23734236D01*
X105364308Y-23692317D01*
X105304167Y-23689543D01*
X104140000Y-23638315D01*
X104137307Y-23841824D01*
X104125970Y-23980394D01*
X104076575Y-23965040D01*
X104022140Y-23897167D01*
X103919492Y-23806285D01*
X103765070Y-23761834D01*
X103528796Y-23763116D01*
X103180590Y-23809435D01*
X102845584Y-23869918D01*
X102321073Y-23975144D01*
X101946395Y-24063144D01*
X101703651Y-24139894D01*
X101574939Y-24211369D01*
X101542356Y-24283546D01*
X101547459Y-24303263D01*
X101557625Y-24379665D01*
X101467054Y-24344352D01*
X101437509Y-24326291D01*
X101329433Y-24289254D01*
X101178840Y-24308082D01*
X100949059Y-24392128D01*
X100656204Y-24525575D01*
X100300010Y-24702325D01*
X99949011Y-24889007D01*
X99674926Y-25047370D01*
X99658507Y-25057647D01*
X99447875Y-25200183D01*
X99366933Y-25289480D01*
X99396057Y-25352163D01*
X99426945Y-25371809D01*
X99546504Y-25473599D01*
X99562843Y-25553842D01*
X99478411Y-25563593D01*
X99418646Y-25537692D01*
X99217333Y-25504372D01*
X98965169Y-25600152D01*
X98652361Y-25831009D01*
X98269115Y-26202917D01*
X98189797Y-26287567D01*
X97500177Y-27138056D01*
X96972959Y-28023441D01*
X96802177Y-28401022D01*
X96668580Y-28761447D01*
X96620487Y-29018107D01*
X96279838Y-29018107D01*
X96308317Y-28886620D01*
X96424605Y-28583419D01*
X96598871Y-28208037D01*
X96815122Y-27796114D01*
X96945215Y-27568495D01*
X97214091Y-27112323D01*
X96591879Y-27156272D01*
X96261081Y-27185157D01*
X95979579Y-27219552D01*
X95805651Y-27252270D01*
X95800334Y-27253888D01*
X95751162Y-27259234D01*
X95840092Y-27205628D01*
X95885000Y-27183096D01*
X96110745Y-27114859D01*
X96431572Y-27068407D01*
X96698010Y-27054819D01*
X97257021Y-27051000D01*
X97641973Y-26561018D01*
X97838183Y-26305506D01*
X97943905Y-26137313D01*
X97974895Y-26011904D01*
X97946909Y-25884740D01*
X97912004Y-25797720D01*
X97769284Y-25553705D01*
X97604555Y-25473607D01*
X97400414Y-25554171D01*
X97255253Y-25674974D01*
X96991306Y-25900134D01*
X96746328Y-26034805D01*
X96460184Y-26100700D01*
X96072738Y-26119535D01*
X96023711Y-26119667D01*
X95704030Y-26113656D01*
X95504083Y-26086042D01*
X95414480Y-26042100D01*
X96429742Y-26042100D01*
X96510478Y-26030089D01*
X96722080Y-25934603D01*
X96763205Y-25913583D01*
X96974891Y-25775769D01*
X97118833Y-25642110D01*
X97160897Y-25569961D01*
X97091650Y-25586476D01*
X96901000Y-25692410D01*
X96632176Y-25861747D01*
X96472699Y-25982148D01*
X96429742Y-26042100D01*
X95414480Y-26042100D01*
X95374423Y-26022456D01*
X95265607Y-25908525D01*
X95256145Y-25896582D01*
X95104657Y-25601954D01*
X95106101Y-25315910D01*
X95164230Y-25188334D01*
X95210230Y-25154498D01*
X95209156Y-25275873D01*
X95195736Y-25369302D01*
X95185639Y-25617416D01*
X95269936Y-25795595D01*
X95325136Y-25856136D01*
X95516580Y-25987619D01*
X95689174Y-26035000D01*
X95801313Y-26027484D01*
X95809677Y-25981457D01*
X95707987Y-25861705D01*
X95646841Y-25797534D01*
X95473032Y-25601569D01*
X95424205Y-25517082D01*
X95492279Y-25550819D01*
X95669174Y-25709527D01*
X95707200Y-25747134D01*
X95892148Y-25916400D01*
X96035451Y-26019891D01*
X96076558Y-26035000D01*
X96186413Y-25986115D01*
X96371465Y-25862269D01*
X96471474Y-25785922D01*
X96760510Y-25592670D01*
X97086828Y-25423813D01*
X97162942Y-25392467D01*
X97529268Y-25308022D01*
X97811719Y-25369162D01*
X98015897Y-25577712D01*
X98070829Y-25688062D01*
X98174101Y-25933673D01*
X98456868Y-25681021D01*
X98739635Y-25428368D01*
X98505370Y-25183848D01*
X98348290Y-24978702D01*
X98283850Y-24752048D01*
X98276995Y-24549682D01*
X98289034Y-24465869D01*
X98382667Y-24465869D01*
X98429231Y-24814274D01*
X98554989Y-25085690D01*
X98739035Y-25244809D01*
X98859751Y-25271704D01*
X98912553Y-25203242D01*
X98926396Y-24988595D01*
X98912278Y-24730383D01*
X98903249Y-24398121D01*
X98924587Y-24094617D01*
X98959957Y-23926050D01*
X99006670Y-23734390D01*
X98963028Y-23677435D01*
X98824317Y-23754945D01*
X98645621Y-23909969D01*
X98456852Y-24134026D01*
X98386407Y-24372789D01*
X98382667Y-24465869D01*
X98289034Y-24465869D01*
X98328229Y-24193007D01*
X98438610Y-23985869D01*
X98618996Y-23820844D01*
X98856116Y-23648549D01*
X99095810Y-23503662D01*
X99283916Y-23420860D01*
X99333484Y-23412908D01*
X99368418Y-23444783D01*
X99298698Y-23498500D01*
X99189576Y-23639471D01*
X99094345Y-23895429D01*
X99025071Y-24212036D01*
X98993822Y-24534956D01*
X99010234Y-24797488D01*
X99056134Y-24996344D01*
X99096750Y-25099589D01*
X99103313Y-25103667D01*
X99186845Y-25061146D01*
X99372437Y-24949443D01*
X99620621Y-24792344D01*
X99631255Y-24785477D01*
X99982843Y-24575890D01*
X100390702Y-24358046D01*
X100690670Y-24213977D01*
X100994653Y-24062220D01*
X101177048Y-23936002D01*
X101219882Y-23854834D01*
X101232342Y-23762141D01*
X101318941Y-23764216D01*
X101386334Y-23830432D01*
X101500760Y-23868924D01*
X101632984Y-23837221D01*
X101820924Y-23783736D01*
X102131218Y-23713994D01*
X102518730Y-23636641D01*
X102938322Y-23560322D01*
X103344856Y-23493684D01*
X103653167Y-23450264D01*
X103929071Y-23393080D01*
X104048394Y-23307822D01*
X104055334Y-23274773D01*
X104102719Y-23084471D01*
X104220314Y-22830780D01*
X104371276Y-22581511D01*
X104518761Y-22404474D01*
X104535979Y-22390129D01*
X104639340Y-22313840D01*
X104626540Y-22346196D01*
D12*
%TO.C,U1*%
X23260000Y-48245000D02*
G75*
G03*
X23260000Y-48245000I-100000J0D01*
G01*
D13*
X18110000Y-56695000D02*
X21260000Y-56695000D01*
X18110000Y-66495000D02*
X18110000Y-56695000D01*
X21260000Y-66495000D02*
X18110000Y-66495000D01*
X21260000Y-66765000D02*
X21260000Y-66495000D01*
X24360000Y-69495000D02*
X23140000Y-69495000D01*
X24360000Y-72695000D02*
X24360000Y-69495000D01*
X34060000Y-69495000D02*
X34060000Y-72695000D01*
X35290000Y-69495000D02*
X34060000Y-69495000D01*
X37160000Y-65595000D02*
X37160000Y-66715000D01*
X38710000Y-65595000D02*
X37160000Y-65595000D01*
X38710000Y-57495000D02*
X38710000Y-65595000D01*
X37160000Y-57495000D02*
X38710000Y-57495000D01*
X34660000Y-53595000D02*
X35290000Y-53595000D01*
X34660000Y-47295000D02*
X34660000Y-53595000D01*
X23760000Y-47295000D02*
X34660000Y-47295000D01*
X23760000Y-53595000D02*
X23760000Y-47295000D01*
X23140000Y-53595000D02*
X23760000Y-53595000D01*
D14*
%TO.C,J1*%
X93285000Y-14675000D02*
X93285000Y-23305000D01*
X93166905Y-14675000D02*
X93166905Y-23305000D01*
X93048810Y-14675000D02*
X93048810Y-23305000D01*
X92930715Y-14675000D02*
X92930715Y-23305000D01*
X92812620Y-14675000D02*
X92812620Y-23305000D01*
X92694525Y-14675000D02*
X92694525Y-23305000D01*
X92576430Y-14675000D02*
X92576430Y-23305000D01*
X92458335Y-14675000D02*
X92458335Y-23305000D01*
X92340240Y-14675000D02*
X92340240Y-23305000D01*
X92222145Y-14675000D02*
X92222145Y-23305000D01*
X92104050Y-14675000D02*
X92104050Y-23305000D01*
X91985955Y-14675000D02*
X91985955Y-23305000D01*
X91867860Y-14675000D02*
X91867860Y-23305000D01*
X91749765Y-14675000D02*
X91749765Y-23305000D01*
X91631670Y-14675000D02*
X91631670Y-23305000D01*
X91513575Y-14675000D02*
X91513575Y-23305000D01*
X91395480Y-14675000D02*
X91395480Y-23305000D01*
X91277385Y-14675000D02*
X91277385Y-23305000D01*
X91159290Y-14675000D02*
X91159290Y-23305000D01*
X91041195Y-14675000D02*
X91041195Y-23305000D01*
X90923100Y-14675000D02*
X90923100Y-23305000D01*
X92435000Y-23305000D02*
X92435000Y-23655000D01*
X91715000Y-23305000D02*
X91715000Y-23655000D01*
X89895000Y-23305000D02*
X89895000Y-23715000D01*
X89175000Y-23305000D02*
X89175000Y-23715000D01*
X87355000Y-23305000D02*
X87355000Y-23715000D01*
X86635000Y-23305000D02*
X86635000Y-23715000D01*
X84815000Y-23305000D02*
X84815000Y-23715000D01*
X84095000Y-23305000D02*
X84095000Y-23715000D01*
X82275000Y-23305000D02*
X82275000Y-23715000D01*
X81555000Y-23305000D02*
X81555000Y-23715000D01*
X79735000Y-23305000D02*
X79735000Y-23715000D01*
X79015000Y-23305000D02*
X79015000Y-23715000D01*
X77195000Y-23305000D02*
X77195000Y-23715000D01*
X76475000Y-23305000D02*
X76475000Y-23715000D01*
X74655000Y-23305000D02*
X74655000Y-23715000D01*
X73935000Y-23305000D02*
X73935000Y-23715000D01*
X72115000Y-23305000D02*
X72115000Y-23715000D01*
X71395000Y-23305000D02*
X71395000Y-23715000D01*
X69575000Y-23305000D02*
X69575000Y-23715000D01*
X68855000Y-23305000D02*
X68855000Y-23715000D01*
X67035000Y-23305000D02*
X67035000Y-23715000D01*
X66315000Y-23305000D02*
X66315000Y-23715000D01*
X64495000Y-23305000D02*
X64495000Y-23715000D01*
X63775000Y-23305000D02*
X63775000Y-23715000D01*
X61955000Y-23305000D02*
X61955000Y-23715000D01*
X61235000Y-23305000D02*
X61235000Y-23715000D01*
X59415000Y-23305000D02*
X59415000Y-23715000D01*
X58695000Y-23305000D02*
X58695000Y-23715000D01*
X56875000Y-23305000D02*
X56875000Y-23715000D01*
X56155000Y-23305000D02*
X56155000Y-23715000D01*
X90805000Y-14675000D02*
X90805000Y-23305000D01*
X88265000Y-14675000D02*
X88265000Y-23305000D01*
X85725000Y-14675000D02*
X85725000Y-23305000D01*
X83185000Y-14675000D02*
X83185000Y-23305000D01*
X80645000Y-14675000D02*
X80645000Y-23305000D01*
X78105000Y-14675000D02*
X78105000Y-23305000D01*
X75565000Y-14675000D02*
X75565000Y-23305000D01*
X73025000Y-14675000D02*
X73025000Y-23305000D01*
X70485000Y-14675000D02*
X70485000Y-23305000D01*
X67945000Y-14675000D02*
X67945000Y-23305000D01*
X65405000Y-14675000D02*
X65405000Y-23305000D01*
X62865000Y-14675000D02*
X62865000Y-23305000D01*
X60325000Y-14675000D02*
X60325000Y-23305000D01*
X57785000Y-14675000D02*
X57785000Y-23305000D01*
X93405000Y-14675000D02*
X93405000Y-23305000D01*
X93405000Y-23305000D02*
X55185000Y-23305000D01*
X55185000Y-14675000D02*
X55185000Y-23305000D01*
X93405000Y-14675000D02*
X55185000Y-14675000D01*
X93405000Y-25875000D02*
X92075000Y-25875000D01*
X93405000Y-24765000D02*
X93405000Y-25875000D01*
%TO.C,LCD1*%
X45005000Y-43815000D02*
X45005000Y-71755000D01*
X48725000Y-43815000D02*
G75*
G03*
X48725000Y-43815000I-1100000J0D01*
G01*
X48725000Y-71755000D02*
G75*
G03*
X48725000Y-71755000I-1100000J0D01*
G01*
X47625000Y-41195000D02*
X98495000Y-41195000D01*
X47625000Y-74375000D02*
X98495000Y-74375000D01*
X101125000Y-71755000D02*
X101125000Y-43815000D01*
X99595000Y-71755000D02*
G75*
G03*
X99595000Y-71755000I-1100000J0D01*
G01*
X99595000Y-43815000D02*
G75*
G03*
X99595000Y-43815000I-1100000J0D01*
G01*
X47625000Y-41195000D02*
G75*
G03*
X45005000Y-43815000I0J-2620000D01*
G01*
X47625000Y-74375000D02*
G75*
G02*
X45005000Y-71755000I0J2620000D01*
G01*
X98505000Y-41195000D02*
G75*
G02*
X101125000Y-43815000I0J-2620000D01*
G01*
X98505000Y-74375000D02*
G75*
G03*
X101125000Y-71755000I0J2620000D01*
G01*
%TO.C,SW1*%
X106145000Y-61120000D02*
X118445000Y-61120000D01*
X118445000Y-65700000D02*
X118445000Y-68840000D01*
X118445000Y-73420000D02*
X106145000Y-73420000D01*
X106145000Y-63840000D02*
X106145000Y-61120000D01*
X116974050Y-67310000D02*
G75*
G03*
X116974050Y-67310000I-4579050J0D01*
G01*
X106145000Y-73420000D02*
X106145000Y-70700000D01*
X106145000Y-68840000D02*
X106145000Y-65700000D01*
X118445000Y-70700000D02*
X118445000Y-73420000D01*
X118445000Y-61120000D02*
X118445000Y-63840000D01*
%TO.C,SW2*%
X32720000Y-37225000D02*
X20420000Y-37225000D01*
X20420000Y-32645000D02*
X20420000Y-29505000D01*
X20420000Y-24925000D02*
X32720000Y-24925000D01*
X32720000Y-34505000D02*
X32720000Y-37225000D01*
X31049050Y-31035000D02*
G75*
G03*
X31049050Y-31035000I-4579050J0D01*
G01*
X32720000Y-24925000D02*
X32720000Y-27645000D01*
X32720000Y-29505000D02*
X32720000Y-32645000D01*
X20420000Y-27645000D02*
X20420000Y-24925000D01*
X20420000Y-37225000D02*
X20420000Y-34505000D01*
%TO.C,SW3*%
X128170000Y-46515000D02*
X128170000Y-49235000D01*
X128170000Y-56095000D02*
X128170000Y-58815000D01*
X115870000Y-54235000D02*
X115870000Y-51095000D01*
X115870000Y-58815000D02*
X115870000Y-56095000D01*
X126699050Y-52705000D02*
G75*
G03*
X126699050Y-52705000I-4579050J0D01*
G01*
X115870000Y-49235000D02*
X115870000Y-46515000D01*
X128170000Y-58815000D02*
X115870000Y-58815000D01*
X128170000Y-51095000D02*
X128170000Y-54235000D01*
X115870000Y-46515000D02*
X128170000Y-46515000D01*
%TO.C,SW4*%
X128170000Y-24925000D02*
X128170000Y-27645000D01*
X128170000Y-34505000D02*
X128170000Y-37225000D01*
X115870000Y-32645000D02*
X115870000Y-29505000D01*
X115870000Y-37225000D02*
X115870000Y-34505000D01*
X126699050Y-31115000D02*
G75*
G03*
X126699050Y-31115000I-4579050J0D01*
G01*
X115870000Y-27645000D02*
X115870000Y-24925000D01*
X128170000Y-37225000D02*
X115870000Y-37225000D01*
X128170000Y-29505000D02*
X128170000Y-32645000D01*
X115870000Y-24925000D02*
X128170000Y-24925000D01*
%TO.C,U1*%
D15*
X28448095Y-45807380D02*
X28448095Y-46616904D01*
X28495714Y-46712142D01*
X28543333Y-46759761D01*
X28638571Y-46807380D01*
X28829047Y-46807380D01*
X28924285Y-46759761D01*
X28971904Y-46712142D01*
X29019523Y-46616904D01*
X29019523Y-45807380D01*
X30019523Y-46807380D02*
X29448095Y-46807380D01*
X29733809Y-46807380D02*
X29733809Y-45807380D01*
X29638571Y-45950238D01*
X29543333Y-46045476D01*
X29448095Y-46093095D01*
%TO.C,J1*%
X91741666Y-29297380D02*
X91741666Y-30011666D01*
X91694047Y-30154523D01*
X91598809Y-30249761D01*
X91455952Y-30297380D01*
X91360714Y-30297380D01*
X92741666Y-30297380D02*
X92170238Y-30297380D01*
X92455952Y-30297380D02*
X92455952Y-29297380D01*
X92360714Y-29440238D01*
X92265476Y-29535476D01*
X92170238Y-29583095D01*
X68675952Y-28392380D02*
X68675952Y-27392380D01*
X69009285Y-28106666D01*
X69342619Y-27392380D01*
X69342619Y-28392380D01*
X70247380Y-28392380D02*
X70247380Y-27868571D01*
X70199761Y-27773333D01*
X70104523Y-27725714D01*
X69914047Y-27725714D01*
X69818809Y-27773333D01*
X70247380Y-28344761D02*
X70152142Y-28392380D01*
X69914047Y-28392380D01*
X69818809Y-28344761D01*
X69771190Y-28249523D01*
X69771190Y-28154285D01*
X69818809Y-28059047D01*
X69914047Y-28011428D01*
X70152142Y-28011428D01*
X70247380Y-27963809D01*
X70723571Y-28392380D02*
X70723571Y-27725714D01*
X70723571Y-27392380D02*
X70675952Y-27440000D01*
X70723571Y-27487619D01*
X70771190Y-27440000D01*
X70723571Y-27392380D01*
X70723571Y-27487619D01*
X71199761Y-27725714D02*
X71199761Y-28392380D01*
X71199761Y-27820952D02*
X71247380Y-27773333D01*
X71342619Y-27725714D01*
X71485476Y-27725714D01*
X71580714Y-27773333D01*
X71628333Y-27868571D01*
X71628333Y-28392380D01*
X71866428Y-28487619D02*
X72628333Y-28487619D01*
X73437857Y-28297142D02*
X73390238Y-28344761D01*
X73247380Y-28392380D01*
X73152142Y-28392380D01*
X73009285Y-28344761D01*
X72914047Y-28249523D01*
X72866428Y-28154285D01*
X72818809Y-27963809D01*
X72818809Y-27820952D01*
X72866428Y-27630476D01*
X72914047Y-27535238D01*
X73009285Y-27440000D01*
X73152142Y-27392380D01*
X73247380Y-27392380D01*
X73390238Y-27440000D01*
X73437857Y-27487619D01*
X74009285Y-28392380D02*
X73914047Y-28344761D01*
X73866428Y-28297142D01*
X73818809Y-28201904D01*
X73818809Y-27916190D01*
X73866428Y-27820952D01*
X73914047Y-27773333D01*
X74009285Y-27725714D01*
X74152142Y-27725714D01*
X74247380Y-27773333D01*
X74295000Y-27820952D01*
X74342619Y-27916190D01*
X74342619Y-28201904D01*
X74295000Y-28297142D01*
X74247380Y-28344761D01*
X74152142Y-28392380D01*
X74009285Y-28392380D01*
X74771190Y-27725714D02*
X74771190Y-28392380D01*
X74771190Y-27820952D02*
X74818809Y-27773333D01*
X74914047Y-27725714D01*
X75056904Y-27725714D01*
X75152142Y-27773333D01*
X75199761Y-27868571D01*
X75199761Y-28392380D01*
X75675952Y-27725714D02*
X75675952Y-28392380D01*
X75675952Y-27820952D02*
X75723571Y-27773333D01*
X75818809Y-27725714D01*
X75961666Y-27725714D01*
X76056904Y-27773333D01*
X76104523Y-27868571D01*
X76104523Y-28392380D01*
X76961666Y-28344761D02*
X76866428Y-28392380D01*
X76675952Y-28392380D01*
X76580714Y-28344761D01*
X76533095Y-28249523D01*
X76533095Y-27868571D01*
X76580714Y-27773333D01*
X76675952Y-27725714D01*
X76866428Y-27725714D01*
X76961666Y-27773333D01*
X77009285Y-27868571D01*
X77009285Y-27963809D01*
X76533095Y-28059047D01*
X77866428Y-28344761D02*
X77771190Y-28392380D01*
X77580714Y-28392380D01*
X77485476Y-28344761D01*
X77437857Y-28297142D01*
X77390238Y-28201904D01*
X77390238Y-27916190D01*
X77437857Y-27820952D01*
X77485476Y-27773333D01*
X77580714Y-27725714D01*
X77771190Y-27725714D01*
X77866428Y-27773333D01*
X78152142Y-27725714D02*
X78533095Y-27725714D01*
X78295000Y-27392380D02*
X78295000Y-28249523D01*
X78342619Y-28344761D01*
X78437857Y-28392380D01*
X78533095Y-28392380D01*
X79009285Y-28392380D02*
X78914047Y-28344761D01*
X78866428Y-28297142D01*
X78818809Y-28201904D01*
X78818809Y-27916190D01*
X78866428Y-27820952D01*
X78914047Y-27773333D01*
X79009285Y-27725714D01*
X79152142Y-27725714D01*
X79247380Y-27773333D01*
X79295000Y-27820952D01*
X79342619Y-27916190D01*
X79342619Y-28201904D01*
X79295000Y-28297142D01*
X79247380Y-28344761D01*
X79152142Y-28392380D01*
X79009285Y-28392380D01*
X79771190Y-28392380D02*
X79771190Y-27725714D01*
X79771190Y-27916190D02*
X79818809Y-27820952D01*
X79866428Y-27773333D01*
X79961666Y-27725714D01*
X80056904Y-27725714D01*
%TO.C,LCD1*%
X73278333Y-37917380D02*
X72802142Y-37917380D01*
X72802142Y-36917380D01*
X74183095Y-37822142D02*
X74135476Y-37869761D01*
X73992619Y-37917380D01*
X73897380Y-37917380D01*
X73754523Y-37869761D01*
X73659285Y-37774523D01*
X73611666Y-37679285D01*
X73564047Y-37488809D01*
X73564047Y-37345952D01*
X73611666Y-37155476D01*
X73659285Y-37060238D01*
X73754523Y-36965000D01*
X73897380Y-36917380D01*
X73992619Y-36917380D01*
X74135476Y-36965000D01*
X74183095Y-37012619D01*
X74611666Y-37917380D02*
X74611666Y-36917380D01*
X74849761Y-36917380D01*
X74992619Y-36965000D01*
X75087857Y-37060238D01*
X75135476Y-37155476D01*
X75183095Y-37345952D01*
X75183095Y-37488809D01*
X75135476Y-37679285D01*
X75087857Y-37774523D01*
X74992619Y-37869761D01*
X74849761Y-37917380D01*
X74611666Y-37917380D01*
X76135476Y-37917380D02*
X75564047Y-37917380D01*
X75849761Y-37917380D02*
X75849761Y-36917380D01*
X75754523Y-37060238D01*
X75659285Y-37155476D01*
X75564047Y-37203095D01*
%TO.C,SW1*%
X110791666Y-60514761D02*
X110934523Y-60562380D01*
X111172619Y-60562380D01*
X111267857Y-60514761D01*
X111315476Y-60467142D01*
X111363095Y-60371904D01*
X111363095Y-60276666D01*
X111315476Y-60181428D01*
X111267857Y-60133809D01*
X111172619Y-60086190D01*
X110982142Y-60038571D01*
X110886904Y-59990952D01*
X110839285Y-59943333D01*
X110791666Y-59848095D01*
X110791666Y-59752857D01*
X110839285Y-59657619D01*
X110886904Y-59610000D01*
X110982142Y-59562380D01*
X111220238Y-59562380D01*
X111363095Y-59610000D01*
X111696428Y-59562380D02*
X111934523Y-60562380D01*
X112125000Y-59848095D01*
X112315476Y-60562380D01*
X112553571Y-59562380D01*
X113458333Y-60562380D02*
X112886904Y-60562380D01*
X113172619Y-60562380D02*
X113172619Y-59562380D01*
X113077380Y-59705238D01*
X112982142Y-59800476D01*
X112886904Y-59848095D01*
X112426904Y-74866666D02*
X112903095Y-74866666D01*
X112331666Y-75152380D02*
X112665000Y-74152380D01*
X112998333Y-75152380D01*
%TO.C,SW2*%
X25406666Y-38639761D02*
X25549523Y-38687380D01*
X25787619Y-38687380D01*
X25882857Y-38639761D01*
X25930476Y-38592142D01*
X25978095Y-38496904D01*
X25978095Y-38401666D01*
X25930476Y-38306428D01*
X25882857Y-38258809D01*
X25787619Y-38211190D01*
X25597142Y-38163571D01*
X25501904Y-38115952D01*
X25454285Y-38068333D01*
X25406666Y-37973095D01*
X25406666Y-37877857D01*
X25454285Y-37782619D01*
X25501904Y-37735000D01*
X25597142Y-37687380D01*
X25835238Y-37687380D01*
X25978095Y-37735000D01*
X26311428Y-37687380D02*
X26549523Y-38687380D01*
X26740000Y-37973095D01*
X26930476Y-38687380D01*
X27168571Y-37687380D01*
X27501904Y-37782619D02*
X27549523Y-37735000D01*
X27644761Y-37687380D01*
X27882857Y-37687380D01*
X27978095Y-37735000D01*
X28025714Y-37782619D01*
X28073333Y-37877857D01*
X28073333Y-37973095D01*
X28025714Y-38115952D01*
X27454285Y-38687380D01*
X28073333Y-38687380D01*
X25866666Y-23573571D02*
X26009523Y-23621190D01*
X26057142Y-23668809D01*
X26104761Y-23764047D01*
X26104761Y-23906904D01*
X26057142Y-24002142D01*
X26009523Y-24049761D01*
X25914285Y-24097380D01*
X25533333Y-24097380D01*
X25533333Y-23097380D01*
X25866666Y-23097380D01*
X25961904Y-23145000D01*
X26009523Y-23192619D01*
X26057142Y-23287857D01*
X26057142Y-23383095D01*
X26009523Y-23478333D01*
X25961904Y-23525952D01*
X25866666Y-23573571D01*
X25533333Y-23573571D01*
X27009523Y-24097380D02*
X26533333Y-24097380D01*
X26533333Y-23097380D01*
%TO.C,SW3*%
X120516666Y-45909761D02*
X120659523Y-45957380D01*
X120897619Y-45957380D01*
X120992857Y-45909761D01*
X121040476Y-45862142D01*
X121088095Y-45766904D01*
X121088095Y-45671666D01*
X121040476Y-45576428D01*
X120992857Y-45528809D01*
X120897619Y-45481190D01*
X120707142Y-45433571D01*
X120611904Y-45385952D01*
X120564285Y-45338333D01*
X120516666Y-45243095D01*
X120516666Y-45147857D01*
X120564285Y-45052619D01*
X120611904Y-45005000D01*
X120707142Y-44957380D01*
X120945238Y-44957380D01*
X121088095Y-45005000D01*
X121421428Y-44957380D02*
X121659523Y-45957380D01*
X121850000Y-45243095D01*
X122040476Y-45957380D01*
X122278571Y-44957380D01*
X122564285Y-44957380D02*
X123183333Y-44957380D01*
X122850000Y-45338333D01*
X122992857Y-45338333D01*
X123088095Y-45385952D01*
X123135714Y-45433571D01*
X123183333Y-45528809D01*
X123183333Y-45766904D01*
X123135714Y-45862142D01*
X123088095Y-45909761D01*
X122992857Y-45957380D01*
X122707142Y-45957380D01*
X122611904Y-45909761D01*
X122564285Y-45862142D01*
X122461428Y-60023571D02*
X122604285Y-60071190D01*
X122651904Y-60118809D01*
X122699523Y-60214047D01*
X122699523Y-60356904D01*
X122651904Y-60452142D01*
X122604285Y-60499761D01*
X122509047Y-60547380D01*
X122128095Y-60547380D01*
X122128095Y-59547380D01*
X122461428Y-59547380D01*
X122556666Y-59595000D01*
X122604285Y-59642619D01*
X122651904Y-59737857D01*
X122651904Y-59833095D01*
X122604285Y-59928333D01*
X122556666Y-59975952D01*
X122461428Y-60023571D01*
X122128095Y-60023571D01*
%TO.C,SW4*%
X120516666Y-24319761D02*
X120659523Y-24367380D01*
X120897619Y-24367380D01*
X120992857Y-24319761D01*
X121040476Y-24272142D01*
X121088095Y-24176904D01*
X121088095Y-24081666D01*
X121040476Y-23986428D01*
X120992857Y-23938809D01*
X120897619Y-23891190D01*
X120707142Y-23843571D01*
X120611904Y-23795952D01*
X120564285Y-23748333D01*
X120516666Y-23653095D01*
X120516666Y-23557857D01*
X120564285Y-23462619D01*
X120611904Y-23415000D01*
X120707142Y-23367380D01*
X120945238Y-23367380D01*
X121088095Y-23415000D01*
X121421428Y-23367380D02*
X121659523Y-24367380D01*
X121850000Y-23653095D01*
X122040476Y-24367380D01*
X122278571Y-23367380D01*
X123088095Y-23700714D02*
X123088095Y-24367380D01*
X122850000Y-23319761D02*
X122611904Y-24034047D01*
X123230952Y-24034047D01*
X121961428Y-38433571D02*
X122104285Y-38481190D01*
X122151904Y-38528809D01*
X122199523Y-38624047D01*
X122199523Y-38766904D01*
X122151904Y-38862142D01*
X122104285Y-38909761D01*
X122009047Y-38957380D01*
X121628095Y-38957380D01*
X121628095Y-37957380D01*
X121961428Y-37957380D01*
X122056666Y-38005000D01*
X122104285Y-38052619D01*
X122151904Y-38147857D01*
X122151904Y-38243095D01*
X122104285Y-38338333D01*
X122056666Y-38385952D01*
X121961428Y-38433571D01*
X121628095Y-38433571D01*
X123199523Y-38957380D02*
X122866190Y-38481190D01*
X122628095Y-38957380D02*
X122628095Y-37957380D01*
X123009047Y-37957380D01*
X123104285Y-38005000D01*
X123151904Y-38052619D01*
X123199523Y-38147857D01*
X123199523Y-38290714D01*
X123151904Y-38385952D01*
X123104285Y-38433571D01*
X123009047Y-38481190D01*
X122628095Y-38481190D01*
%TD*%
%LPC*%
D16*
%TO.C,U1*%
X19050000Y-64135000D03*
X19050000Y-61595000D03*
X19050000Y-59055000D03*
D17*
X36830000Y-54927500D03*
X36830000Y-68262500D03*
X21590000Y-68262500D03*
X21590000Y-54927500D03*
D16*
X31750000Y-71755000D03*
X29210000Y-71755000D03*
X26670000Y-71755000D03*
X32385000Y-53975000D03*
X26035000Y-53975000D03*
X32385000Y-48895000D03*
X26035000Y-48895000D03*
%TD*%
D18*
%TO.C,J1*%
X92075000Y-24765000D03*
D19*
X89535000Y-24765000D03*
X86995000Y-24765000D03*
X84455000Y-24765000D03*
X81915000Y-24765000D03*
X79375000Y-24765000D03*
X76835000Y-24765000D03*
X74295000Y-24765000D03*
X71755000Y-24765000D03*
X69215000Y-24765000D03*
X66675000Y-24765000D03*
X64135000Y-24765000D03*
X61595000Y-24765000D03*
X59055000Y-24765000D03*
X56515000Y-24765000D03*
%TD*%
D20*
%TO.C,LCD1*%
X47625000Y-43815000D03*
X47625000Y-71755000D03*
D21*
X47625000Y-69215000D03*
X47625000Y-66675000D03*
X47625000Y-64135000D03*
X47625000Y-61595000D03*
X47625000Y-59055000D03*
X47625000Y-56515000D03*
X47625000Y-53975000D03*
X47625000Y-51435000D03*
X47625000Y-48895000D03*
X47625000Y-46355000D03*
D20*
X98495000Y-71755000D03*
X98495000Y-43815000D03*
%TD*%
D22*
%TO.C,SW1*%
X118545000Y-64770000D03*
X118545000Y-69770000D03*
X106045000Y-64770000D03*
X106045000Y-69770000D03*
%TD*%
%TO.C,SW2*%
X20320000Y-33575000D03*
X20320000Y-28575000D03*
X32820000Y-33575000D03*
X32820000Y-28575000D03*
%TD*%
%TO.C,SW3*%
X115770000Y-55165000D03*
X115770000Y-50165000D03*
X128270000Y-55165000D03*
X128270000Y-50165000D03*
%TD*%
%TO.C,SW4*%
X115770000Y-33575000D03*
X115770000Y-28575000D03*
X128270000Y-33575000D03*
X128270000Y-28575000D03*
%TD*%
M02*
