%TF.GenerationSoftware,KiCad,Pcbnew,(5.1.9)-1*%
%TF.CreationDate,2022-04-18T12:46:42-05:00*%
%TF.ProjectId,Controllers,436f6e74-726f-46c6-9c65-72732e6b6963,rev?*%
%TF.SameCoordinates,Original*%
%TF.FileFunction,Soldermask,Top*%
%TF.FilePolarity,Negative*%
%FSLAX46Y46*%
G04 Gerber Fmt 4.6, Leading zero omitted, Abs format (unit mm)*
G04 Created by KiCad (PCBNEW (5.1.9)-1) date 2022-04-18 12:46:42*
%MOMM*%
%LPD*%
G01*
G04 APERTURE LIST*
%ADD10C,1.778000*%
%ADD11C,2.286000*%
%ADD12R,1.700000X1.700000*%
%ADD13O,1.700000X1.700000*%
%ADD14C,2.200000*%
%ADD15C,1.524000*%
%ADD16O,3.048000X1.850000*%
G04 APERTURE END LIST*
D10*
%TO.C,U1*%
X19050000Y-64135000D03*
X19050000Y-61595000D03*
X19050000Y-59055000D03*
D11*
X36830000Y-54927500D03*
X36830000Y-68262500D03*
X21590000Y-68262500D03*
X21590000Y-54927500D03*
D10*
X31750000Y-71755000D03*
X29210000Y-71755000D03*
X26670000Y-71755000D03*
X32385000Y-53975000D03*
X26035000Y-53975000D03*
X32385000Y-48895000D03*
X26035000Y-48895000D03*
%TD*%
D12*
%TO.C,J1*%
X92075000Y-24765000D03*
D13*
X89535000Y-24765000D03*
X86995000Y-24765000D03*
X84455000Y-24765000D03*
X81915000Y-24765000D03*
X79375000Y-24765000D03*
X76835000Y-24765000D03*
X74295000Y-24765000D03*
X71755000Y-24765000D03*
X69215000Y-24765000D03*
X66675000Y-24765000D03*
X64135000Y-24765000D03*
X61595000Y-24765000D03*
X59055000Y-24765000D03*
X56515000Y-24765000D03*
%TD*%
D14*
%TO.C,LCD1*%
X47625000Y-43815000D03*
X47625000Y-71755000D03*
D15*
X47625000Y-69215000D03*
X47625000Y-66675000D03*
X47625000Y-64135000D03*
X47625000Y-61595000D03*
X47625000Y-59055000D03*
X47625000Y-56515000D03*
X47625000Y-53975000D03*
X47625000Y-51435000D03*
X47625000Y-48895000D03*
X47625000Y-46355000D03*
D14*
X98495000Y-71755000D03*
X98495000Y-43815000D03*
%TD*%
D16*
%TO.C,SW1*%
X118545000Y-64770000D03*
X118545000Y-69770000D03*
X106045000Y-64770000D03*
X106045000Y-69770000D03*
%TD*%
%TO.C,SW2*%
X20320000Y-33575000D03*
X20320000Y-28575000D03*
X32820000Y-33575000D03*
X32820000Y-28575000D03*
%TD*%
%TO.C,SW3*%
X115770000Y-55165000D03*
X115770000Y-50165000D03*
X128270000Y-55165000D03*
X128270000Y-50165000D03*
%TD*%
%TO.C,SW4*%
X115770000Y-33575000D03*
X115770000Y-28575000D03*
X128270000Y-33575000D03*
X128270000Y-28575000D03*
%TD*%
M02*
