%FSLAX45Y45*%
G04 Gerber Fmt 4.5, Leading zero omitted, Abs format (unit mm)*
G04 Created by KiCad (PCBNEW (5.1.9)-1) date 2022-04-18 12:46:46*
%MOMM*%
%LPD*%
G01*
G04 APERTURE LIST*
%TA.AperFunction,Profile*%
%ADD10C,0.100000*%
%TD*%
%ADD11C,0.200000*%
%ADD12C,0.300000*%
G04 APERTURE END LIST*
D10*
X13398500Y-2222500D02*
G75*
G02*
X13462000Y-2286000I0J-63500D01*
G01*
X13462000Y-7874000D02*
G75*
G02*
X13398500Y-7937500I-63500J0D01*
G01*
X1460500Y-7937500D02*
G75*
G02*
X1397000Y-7874000I0J63500D01*
G01*
X1397000Y-2286000D02*
G75*
G02*
X1460500Y-2222500I63500J0D01*
G01*
X13462000Y-2286000D02*
X13462000Y-7874000D01*
X1460500Y-2222500D02*
X13398500Y-2222500D01*
X1397000Y-7874000D02*
X1397000Y-2286000D01*
X13398500Y-7937500D02*
X1460500Y-7937500D01*
D11*
X4652500Y-4271500D02*
X4872500Y-4491500D01*
X4872500Y-4271500D02*
X4652500Y-4491500D01*
X4652500Y-7065500D02*
X4872500Y-7285500D01*
X4872500Y-7065500D02*
X4652500Y-7285500D01*
X9739500Y-4271500D02*
X9959500Y-4491500D01*
X9959500Y-4271500D02*
X9739500Y-4491500D01*
X9739500Y-7065500D02*
X9959500Y-7285500D01*
X9959500Y-7065500D02*
X9739500Y-7285500D01*
D12*
X1678428Y-8408214D02*
X1678428Y-8108214D01*
X1749857Y-8108214D01*
X1792714Y-8122500D01*
X1821286Y-8151071D01*
X1835571Y-8179643D01*
X1849857Y-8236786D01*
X1849857Y-8279643D01*
X1835571Y-8336786D01*
X1821286Y-8365357D01*
X1792714Y-8393929D01*
X1749857Y-8408214D01*
X1678428Y-8408214D01*
X1978428Y-8408214D02*
X1978428Y-8208214D01*
X1978428Y-8265357D02*
X1992714Y-8236786D01*
X2007000Y-8222500D01*
X2035571Y-8208214D01*
X2064143Y-8208214D01*
X2164143Y-8408214D02*
X2164143Y-8208214D01*
X2164143Y-8108214D02*
X2149857Y-8122500D01*
X2164143Y-8136786D01*
X2178428Y-8122500D01*
X2164143Y-8108214D01*
X2164143Y-8136786D01*
X2349857Y-8408214D02*
X2321286Y-8393929D01*
X2307000Y-8365357D01*
X2307000Y-8108214D01*
X2507000Y-8408214D02*
X2478428Y-8393929D01*
X2464143Y-8365357D01*
X2464143Y-8108214D01*
X2849857Y-8408214D02*
X2849857Y-8108214D01*
X2949857Y-8322500D01*
X3049857Y-8108214D01*
X3049857Y-8408214D01*
X3321286Y-8408214D02*
X3321286Y-8251071D01*
X3307000Y-8222500D01*
X3278428Y-8208214D01*
X3221286Y-8208214D01*
X3192714Y-8222500D01*
X3321286Y-8393929D02*
X3292714Y-8408214D01*
X3221286Y-8408214D01*
X3192714Y-8393929D01*
X3178428Y-8365357D01*
X3178428Y-8336786D01*
X3192714Y-8308214D01*
X3221286Y-8293929D01*
X3292714Y-8293929D01*
X3321286Y-8279643D01*
X3464143Y-8208214D02*
X3464143Y-8508214D01*
X3464143Y-8222500D02*
X3492714Y-8208214D01*
X3549857Y-8208214D01*
X3578428Y-8222500D01*
X3592714Y-8236786D01*
X3607000Y-8265357D01*
X3607000Y-8351071D01*
X3592714Y-8379643D01*
X3578428Y-8393929D01*
X3549857Y-8408214D01*
X3492714Y-8408214D01*
X3464143Y-8393929D01*
X3735571Y-8379643D02*
X3749857Y-8393929D01*
X3735571Y-8408214D01*
X3721286Y-8393929D01*
X3735571Y-8379643D01*
X3735571Y-8408214D01*
X3735571Y-8222500D02*
X3749857Y-8236786D01*
X3735571Y-8251071D01*
X3721286Y-8236786D01*
X3735571Y-8222500D01*
X3735571Y-8251071D01*
X1172000Y-8792500D02*
X1392000Y-9012500D01*
X1392000Y-8792500D02*
X1172000Y-9012500D01*
X1664143Y-8766786D02*
X1678428Y-8752500D01*
X1707000Y-8738214D01*
X1778428Y-8738214D01*
X1807000Y-8752500D01*
X1821286Y-8766786D01*
X1835571Y-8795357D01*
X1835571Y-8823929D01*
X1821286Y-8866786D01*
X1649857Y-9038214D01*
X1835571Y-9038214D01*
X1964143Y-9009643D02*
X1978428Y-9023929D01*
X1964143Y-9038214D01*
X1949857Y-9023929D01*
X1964143Y-9009643D01*
X1964143Y-9038214D01*
X2092714Y-8766786D02*
X2107000Y-8752500D01*
X2135571Y-8738214D01*
X2207000Y-8738214D01*
X2235571Y-8752500D01*
X2249857Y-8766786D01*
X2264143Y-8795357D01*
X2264143Y-8823929D01*
X2249857Y-8866786D01*
X2078428Y-9038214D01*
X2264143Y-9038214D01*
X2449857Y-8738214D02*
X2478428Y-8738214D01*
X2507000Y-8752500D01*
X2521286Y-8766786D01*
X2535571Y-8795357D01*
X2549857Y-8852500D01*
X2549857Y-8923929D01*
X2535571Y-8981072D01*
X2521286Y-9009643D01*
X2507000Y-9023929D01*
X2478428Y-9038214D01*
X2449857Y-9038214D01*
X2421286Y-9023929D01*
X2407000Y-9009643D01*
X2392714Y-8981072D01*
X2378428Y-8923929D01*
X2378428Y-8852500D01*
X2392714Y-8795357D01*
X2407000Y-8766786D01*
X2421286Y-8752500D01*
X2449857Y-8738214D01*
X2678428Y-9038214D02*
X2678428Y-8838214D01*
X2678428Y-8866786D02*
X2692714Y-8852500D01*
X2721286Y-8838214D01*
X2764143Y-8838214D01*
X2792714Y-8852500D01*
X2807000Y-8881072D01*
X2807000Y-9038214D01*
X2807000Y-8881072D02*
X2821286Y-8852500D01*
X2849857Y-8838214D01*
X2892714Y-8838214D01*
X2921286Y-8852500D01*
X2935571Y-8881072D01*
X2935571Y-9038214D01*
X3078428Y-9038214D02*
X3078428Y-8838214D01*
X3078428Y-8866786D02*
X3092714Y-8852500D01*
X3121286Y-8838214D01*
X3164143Y-8838214D01*
X3192714Y-8852500D01*
X3207000Y-8881072D01*
X3207000Y-9038214D01*
X3207000Y-8881072D02*
X3221286Y-8852500D01*
X3249857Y-8838214D01*
X3292714Y-8838214D01*
X3321286Y-8852500D01*
X3335571Y-8881072D01*
X3335571Y-9038214D01*
X3921286Y-8723929D02*
X3664143Y-9109643D01*
X4307000Y-8738214D02*
X4335571Y-8738214D01*
X4364143Y-8752500D01*
X4378428Y-8766786D01*
X4392714Y-8795357D01*
X4407000Y-8852500D01*
X4407000Y-8923929D01*
X4392714Y-8981072D01*
X4378428Y-9009643D01*
X4364143Y-9023929D01*
X4335571Y-9038214D01*
X4307000Y-9038214D01*
X4278428Y-9023929D01*
X4264143Y-9009643D01*
X4249857Y-8981072D01*
X4235571Y-8923929D01*
X4235571Y-8852500D01*
X4249857Y-8795357D01*
X4264143Y-8766786D01*
X4278428Y-8752500D01*
X4307000Y-8738214D01*
X4535571Y-9009643D02*
X4549857Y-9023929D01*
X4535571Y-9038214D01*
X4521286Y-9023929D01*
X4535571Y-9009643D01*
X4535571Y-9038214D01*
X4735571Y-8738214D02*
X4764143Y-8738214D01*
X4792714Y-8752500D01*
X4807000Y-8766786D01*
X4821286Y-8795357D01*
X4835571Y-8852500D01*
X4835571Y-8923929D01*
X4821286Y-8981072D01*
X4807000Y-9009643D01*
X4792714Y-9023929D01*
X4764143Y-9038214D01*
X4735571Y-9038214D01*
X4707000Y-9023929D01*
X4692714Y-9009643D01*
X4678428Y-8981072D01*
X4664143Y-8923929D01*
X4664143Y-8852500D01*
X4678428Y-8795357D01*
X4692714Y-8766786D01*
X4707000Y-8752500D01*
X4735571Y-8738214D01*
X5007000Y-8866786D02*
X4978428Y-8852500D01*
X4964143Y-8838214D01*
X4949857Y-8809643D01*
X4949857Y-8795357D01*
X4964143Y-8766786D01*
X4978428Y-8752500D01*
X5007000Y-8738214D01*
X5064143Y-8738214D01*
X5092714Y-8752500D01*
X5107000Y-8766786D01*
X5121286Y-8795357D01*
X5121286Y-8809643D01*
X5107000Y-8838214D01*
X5092714Y-8852500D01*
X5064143Y-8866786D01*
X5007000Y-8866786D01*
X4978428Y-8881072D01*
X4964143Y-8895357D01*
X4949857Y-8923929D01*
X4949857Y-8981072D01*
X4964143Y-9009643D01*
X4978428Y-9023929D01*
X5007000Y-9038214D01*
X5064143Y-9038214D01*
X5092714Y-9023929D01*
X5107000Y-9009643D01*
X5121286Y-8981072D01*
X5121286Y-8923929D01*
X5107000Y-8895357D01*
X5092714Y-8881072D01*
X5064143Y-8866786D01*
X5221286Y-8738214D02*
X5421286Y-8738214D01*
X5292714Y-9038214D01*
X5521286Y-8738214D02*
X5521286Y-8795357D01*
X5635571Y-8738214D02*
X5635571Y-8795357D01*
X6078428Y-9152500D02*
X6064143Y-9138214D01*
X6035571Y-9095357D01*
X6021286Y-9066786D01*
X6007000Y-9023929D01*
X5992714Y-8952500D01*
X5992714Y-8895357D01*
X6007000Y-8823929D01*
X6021286Y-8781072D01*
X6035571Y-8752500D01*
X6064143Y-8709643D01*
X6078428Y-8695357D01*
X6321286Y-8838214D02*
X6321286Y-9038214D01*
X6249857Y-8723929D02*
X6178428Y-8938214D01*
X6364143Y-8938214D01*
X6707000Y-9038214D02*
X6707000Y-8738214D01*
X6835571Y-9038214D02*
X6835571Y-8881072D01*
X6821286Y-8852500D01*
X6792714Y-8838214D01*
X6749857Y-8838214D01*
X6721286Y-8852500D01*
X6707000Y-8866786D01*
X7021286Y-9038214D02*
X6992714Y-9023929D01*
X6978428Y-9009643D01*
X6964143Y-8981072D01*
X6964143Y-8895357D01*
X6978428Y-8866786D01*
X6992714Y-8852500D01*
X7021286Y-8838214D01*
X7064143Y-8838214D01*
X7092714Y-8852500D01*
X7107000Y-8866786D01*
X7121286Y-8895357D01*
X7121286Y-8981072D01*
X7107000Y-9009643D01*
X7092714Y-9023929D01*
X7064143Y-9038214D01*
X7021286Y-9038214D01*
X7292714Y-9038214D02*
X7264143Y-9023929D01*
X7249857Y-8995357D01*
X7249857Y-8738214D01*
X7521286Y-9023929D02*
X7492714Y-9038214D01*
X7435571Y-9038214D01*
X7407000Y-9023929D01*
X7392714Y-8995357D01*
X7392714Y-8881072D01*
X7407000Y-8852500D01*
X7435571Y-8838214D01*
X7492714Y-8838214D01*
X7521286Y-8852500D01*
X7535571Y-8881072D01*
X7535571Y-8909643D01*
X7392714Y-8938214D01*
X7649857Y-9023929D02*
X7678428Y-9038214D01*
X7735571Y-9038214D01*
X7764143Y-9023929D01*
X7778428Y-8995357D01*
X7778428Y-8981072D01*
X7764143Y-8952500D01*
X7735571Y-8938214D01*
X7692714Y-8938214D01*
X7664143Y-8923929D01*
X7649857Y-8895357D01*
X7649857Y-8881072D01*
X7664143Y-8852500D01*
X7692714Y-8838214D01*
X7735571Y-8838214D01*
X7764143Y-8852500D01*
X7878428Y-9152500D02*
X7892714Y-9138214D01*
X7921286Y-9095357D01*
X7935571Y-9066786D01*
X7949857Y-9023929D01*
X7964143Y-8952500D01*
X7964143Y-8895357D01*
X7949857Y-8823929D01*
X7935571Y-8781072D01*
X7921286Y-8752500D01*
X7892714Y-8709643D01*
X7878428Y-8695357D01*
X8421286Y-9152500D02*
X8407000Y-9138214D01*
X8378428Y-9095357D01*
X8364143Y-9066786D01*
X8349857Y-9023929D01*
X8335571Y-8952500D01*
X8335571Y-8895357D01*
X8349857Y-8823929D01*
X8364143Y-8781072D01*
X8378428Y-8752500D01*
X8407000Y-8709643D01*
X8421286Y-8695357D01*
X8535571Y-8838214D02*
X8535571Y-9038214D01*
X8535571Y-8866786D02*
X8549857Y-8852500D01*
X8578428Y-8838214D01*
X8621286Y-8838214D01*
X8649857Y-8852500D01*
X8664143Y-8881072D01*
X8664143Y-9038214D01*
X8849857Y-9038214D02*
X8821286Y-9023929D01*
X8807000Y-9009643D01*
X8792714Y-8981072D01*
X8792714Y-8895357D01*
X8807000Y-8866786D01*
X8821286Y-8852500D01*
X8849857Y-8838214D01*
X8892714Y-8838214D01*
X8921286Y-8852500D01*
X8935571Y-8866786D01*
X8949857Y-8895357D01*
X8949857Y-8981072D01*
X8935571Y-9009643D01*
X8921286Y-9023929D01*
X8892714Y-9038214D01*
X8849857Y-9038214D01*
X9035571Y-8838214D02*
X9149857Y-8838214D01*
X9078428Y-8738214D02*
X9078428Y-8995357D01*
X9092714Y-9023929D01*
X9121286Y-9038214D01*
X9149857Y-9038214D01*
X9478428Y-8838214D02*
X9478428Y-9138214D01*
X9478428Y-8852500D02*
X9507000Y-8838214D01*
X9564143Y-8838214D01*
X9592714Y-8852500D01*
X9607000Y-8866786D01*
X9621286Y-8895357D01*
X9621286Y-8981072D01*
X9607000Y-9009643D01*
X9592714Y-9023929D01*
X9564143Y-9038214D01*
X9507000Y-9038214D01*
X9478428Y-9023929D01*
X9792714Y-9038214D02*
X9764143Y-9023929D01*
X9749857Y-8995357D01*
X9749857Y-8738214D01*
X10035571Y-9038214D02*
X10035571Y-8881072D01*
X10021286Y-8852500D01*
X9992714Y-8838214D01*
X9935571Y-8838214D01*
X9907000Y-8852500D01*
X10035571Y-9023929D02*
X10007000Y-9038214D01*
X9935571Y-9038214D01*
X9907000Y-9023929D01*
X9892714Y-8995357D01*
X9892714Y-8966786D01*
X9907000Y-8938214D01*
X9935571Y-8923929D01*
X10007000Y-8923929D01*
X10035571Y-8909643D01*
X10135571Y-8838214D02*
X10249857Y-8838214D01*
X10178428Y-8738214D02*
X10178428Y-8995357D01*
X10192714Y-9023929D01*
X10221286Y-9038214D01*
X10249857Y-9038214D01*
X10464143Y-9023929D02*
X10435571Y-9038214D01*
X10378428Y-9038214D01*
X10349857Y-9023929D01*
X10335571Y-8995357D01*
X10335571Y-8881072D01*
X10349857Y-8852500D01*
X10378428Y-8838214D01*
X10435571Y-8838214D01*
X10464143Y-8852500D01*
X10478428Y-8881072D01*
X10478428Y-8909643D01*
X10335571Y-8938214D01*
X10735571Y-9038214D02*
X10735571Y-8738214D01*
X10735571Y-9023929D02*
X10707000Y-9038214D01*
X10649857Y-9038214D01*
X10621286Y-9023929D01*
X10607000Y-9009643D01*
X10592714Y-8981072D01*
X10592714Y-8895357D01*
X10607000Y-8866786D01*
X10621286Y-8852500D01*
X10649857Y-8838214D01*
X10707000Y-8838214D01*
X10735571Y-8852500D01*
X10849857Y-9152500D02*
X10864143Y-9138214D01*
X10892714Y-9095357D01*
X10907000Y-9066786D01*
X10921286Y-9023929D01*
X10935571Y-8952500D01*
X10935571Y-8895357D01*
X10921286Y-8823929D01*
X10907000Y-8781072D01*
X10892714Y-8752500D01*
X10864143Y-8709643D01*
X10849857Y-8695357D01*
M02*
