M48
; DRILL file {KiCad (5.1.9)-1} date 04/18/22 12:46:45
; FORMAT={-:-/ absolute / metric / decimal}
; #@! TF.CreationDate,2022-04-18T12:46:45-05:00
; #@! TF.GenerationSoftware,Kicad,Pcbnew,(5.1.9)-1
; #@! TF.FileFunction,Plated,1,2,PTH
FMAT,2
METRIC
T1C0.400
T2C0.762
T3C0.889
T4C0.900
T5C1.000
T6C1.300
T7C1.397
%
G90
G05
T1
X19.05Y-46.99
X26.67Y-58.42
X26.67Y-64.77
X29.845Y-38.1
X33.655Y-46.355
X59.055Y-33.02
X61.595Y-27.94
X64.135Y-36.83
X66.675Y-59.69
X69.215Y-54.61
X71.755Y-69.215
X73.66Y-64.135
X76.2Y-61.595
X78.74Y-59.055
X81.28Y-56.515
X83.82Y-53.34
X86.36Y-51.435
X88.9Y-48.895
X105.41Y-24.765
X106.68Y-28.575
X106.68Y-50.165
T2
X47.625Y-46.355
X47.625Y-48.895
X47.625Y-51.435
X47.625Y-53.975
X47.625Y-56.515
X47.625Y-59.055
X47.625Y-61.595
X47.625Y-64.135
X47.625Y-66.675
X47.625Y-69.215
T3
X19.05Y-59.055
X19.05Y-61.595
X19.05Y-64.135
X26.67Y-71.755
X29.21Y-71.755
X31.75Y-71.755
T4
X26.035Y-48.895
X26.035Y-53.975
X32.385Y-48.895
X32.385Y-53.975
T5
X56.515Y-24.765
X59.055Y-24.765
X61.595Y-24.765
X64.135Y-24.765
X66.675Y-24.765
X69.215Y-24.765
X71.755Y-24.765
X74.295Y-24.765
X76.835Y-24.765
X79.375Y-24.765
X81.915Y-24.765
X84.455Y-24.765
X86.995Y-24.765
X89.535Y-24.765
X92.075Y-24.765
T6
X20.32Y-28.575
X20.32Y-33.575
X32.82Y-28.575
X32.82Y-33.575
X106.045Y-64.77
X106.045Y-69.77
X115.77Y-28.575
X115.77Y-33.575
X115.77Y-50.165
X115.77Y-55.165
X118.545Y-64.77
X118.545Y-69.77
X128.27Y-28.575
X128.27Y-33.575
X128.27Y-50.165
X128.27Y-55.165
T7
X21.59Y-54.927
X21.59Y-68.263
X36.83Y-54.927
X36.83Y-68.263
T0
M30
