%TF.GenerationSoftware,KiCad,Pcbnew,(5.1.9)-1*%
%TF.CreationDate,2022-04-18T12:46:42-05:00*%
%TF.ProjectId,Controllers,436f6e74-726f-46c6-9c65-72732e6b6963,rev?*%
%TF.SameCoordinates,Original*%
%TF.FileFunction,Copper,L1,Top*%
%TF.FilePolarity,Positive*%
%FSLAX46Y46*%
G04 Gerber Fmt 4.6, Leading zero omitted, Abs format (unit mm)*
G04 Created by KiCad (PCBNEW (5.1.9)-1) date 2022-04-18 12:46:42*
%MOMM*%
%LPD*%
G01*
G04 APERTURE LIST*
%TA.AperFunction,ComponentPad*%
%ADD10C,1.778000*%
%TD*%
%TA.AperFunction,ComponentPad*%
%ADD11C,2.286000*%
%TD*%
%TA.AperFunction,ComponentPad*%
%ADD12R,1.700000X1.700000*%
%TD*%
%TA.AperFunction,ComponentPad*%
%ADD13O,1.700000X1.700000*%
%TD*%
%TA.AperFunction,ComponentPad*%
%ADD14C,1.524000*%
%TD*%
%TA.AperFunction,ComponentPad*%
%ADD15O,3.048000X1.850000*%
%TD*%
%TA.AperFunction,ViaPad*%
%ADD16C,0.800000*%
%TD*%
%TA.AperFunction,Conductor*%
%ADD17C,0.508000*%
%TD*%
%TA.AperFunction,Conductor*%
%ADD18C,0.250000*%
%TD*%
%TA.AperFunction,Conductor*%
%ADD19C,0.254000*%
%TD*%
%TA.AperFunction,Conductor*%
%ADD20C,0.100000*%
%TD*%
G04 APERTURE END LIST*
D10*
%TO.P,U1,V3*%
%TO.N,GND*%
X19050000Y-64135000D03*
%TO.P,U1,V2*%
%TO.N,/J_X*%
X19050000Y-61595000D03*
%TO.P,U1,V1*%
%TO.N,+3V3*%
X19050000Y-59055000D03*
D11*
%TO.P,U1,S4*%
%TO.N,Net-(U1-PadS1)*%
X36830000Y-54927500D03*
%TO.P,U1,S3*%
X36830000Y-68262500D03*
%TO.P,U1,S2*%
X21590000Y-68262500D03*
%TO.P,U1,S1*%
X21590000Y-54927500D03*
D10*
%TO.P,U1,H3*%
%TO.N,GND*%
X31750000Y-71755000D03*
%TO.P,U1,H2*%
%TO.N,/J_Y*%
X29210000Y-71755000D03*
%TO.P,U1,H1*%
%TO.N,+3V3*%
X26670000Y-71755000D03*
%TO.P,U1,B2B*%
%TO.N,N/C*%
X32385000Y-53975000D03*
%TO.P,U1,B2A*%
%TO.N,Net-(U1-PadB2A)*%
X26035000Y-53975000D03*
%TO.P,U1,B1B*%
%TO.N,N/C*%
X32385000Y-48895000D03*
%TO.P,U1,B1A*%
%TO.N,Net-(U1-PadB1A)*%
X26035000Y-48895000D03*
%TD*%
D12*
%TO.P,J1,1*%
%TO.N,+3V3*%
X92075000Y-24765000D03*
D13*
%TO.P,J1,2*%
%TO.N,/MISO*%
X89535000Y-24765000D03*
%TO.P,J1,3*%
%TO.N,/SCK*%
X86995000Y-24765000D03*
%TO.P,J1,4*%
%TO.N,/MOSI*%
X84455000Y-24765000D03*
%TO.P,J1,5*%
%TO.N,/TFT_CS*%
X81915000Y-24765000D03*
%TO.P,J1,6*%
%TO.N,/CARD_CS*%
X79375000Y-24765000D03*
%TO.P,J1,7*%
%TO.N,/D_C*%
X76835000Y-24765000D03*
%TO.P,J1,8*%
%TO.N,/RESET*%
X74295000Y-24765000D03*
%TO.P,J1,9*%
%TO.N,/A*%
X71755000Y-24765000D03*
%TO.P,J1,10*%
%TO.N,/B*%
X69215000Y-24765000D03*
%TO.P,J1,11*%
%TO.N,/J_X*%
X66675000Y-24765000D03*
%TO.P,J1,12*%
%TO.N,/J_Y*%
X64135000Y-24765000D03*
%TO.P,J1,13*%
%TO.N,/BL*%
X61595000Y-24765000D03*
%TO.P,J1,14*%
%TO.N,/BR*%
X59055000Y-24765000D03*
%TO.P,J1,15*%
%TO.N,GND*%
X56515000Y-24765000D03*
%TD*%
D14*
%TO.P,LCD1,10*%
%TO.N,GND*%
X47625000Y-69215000D03*
%TO.P,LCD1,9*%
%TO.N,+3V3*%
X47625000Y-66675000D03*
%TO.P,LCD1,8*%
%TO.N,/RESET*%
X47625000Y-64135000D03*
%TO.P,LCD1,7*%
%TO.N,/D_C*%
X47625000Y-61595000D03*
%TO.P,LCD1,6*%
%TO.N,/CARD_CS*%
X47625000Y-59055000D03*
%TO.P,LCD1,5*%
%TO.N,/TFT_CS*%
X47625000Y-56515000D03*
%TO.P,LCD1,4*%
%TO.N,/MOSI*%
X47625000Y-53975000D03*
%TO.P,LCD1,3*%
%TO.N,/SCK*%
X47625000Y-51435000D03*
%TO.P,LCD1,2*%
%TO.N,/MISO*%
X47625000Y-48895000D03*
%TO.P,LCD1,1*%
%TO.N,+3V3*%
X47625000Y-46355000D03*
%TD*%
D15*
%TO.P,SW1,1*%
%TO.N,+3V3*%
X118545000Y-64770000D03*
%TO.P,SW1,2*%
%TO.N,/A*%
X118545000Y-69770000D03*
%TO.P,SW1,1*%
%TO.N,+3V3*%
X106045000Y-64770000D03*
%TO.P,SW1,2*%
%TO.N,/A*%
X106045000Y-69770000D03*
%TD*%
%TO.P,SW2,1*%
%TO.N,+3V3*%
X20320000Y-33575000D03*
%TO.P,SW2,2*%
%TO.N,/BL*%
X20320000Y-28575000D03*
%TO.P,SW2,1*%
%TO.N,+3V3*%
X32820000Y-33575000D03*
%TO.P,SW2,2*%
%TO.N,/BL*%
X32820000Y-28575000D03*
%TD*%
%TO.P,SW3,2*%
%TO.N,/B*%
X115770000Y-55165000D03*
%TO.P,SW3,1*%
%TO.N,+3V3*%
X115770000Y-50165000D03*
%TO.P,SW3,2*%
%TO.N,/B*%
X128270000Y-55165000D03*
%TO.P,SW3,1*%
%TO.N,+3V3*%
X128270000Y-50165000D03*
%TD*%
%TO.P,SW4,2*%
%TO.N,/BR*%
X115770000Y-33575000D03*
%TO.P,SW4,1*%
%TO.N,+3V3*%
X115770000Y-28575000D03*
%TO.P,SW4,2*%
%TO.N,/BR*%
X128270000Y-33575000D03*
%TO.P,SW4,1*%
%TO.N,+3V3*%
X128270000Y-28575000D03*
%TD*%
D16*
%TO.N,+3V3*%
X33655000Y-46355000D03*
X19050000Y-46990000D03*
X26670000Y-58420000D03*
X26670000Y-64770000D03*
X106680000Y-50165000D03*
X106680000Y-28575000D03*
X105410000Y-24765000D03*
%TO.N,/MISO*%
X88900000Y-48895000D03*
%TO.N,/SCK*%
X86360000Y-51435000D03*
%TO.N,/MOSI*%
X83820000Y-53340000D03*
%TO.N,/TFT_CS*%
X81280000Y-56515000D03*
%TO.N,/CARD_CS*%
X78740000Y-59055000D03*
%TO.N,/D_C*%
X76200000Y-61595000D03*
%TO.N,/RESET*%
X73660000Y-64135000D03*
%TO.N,/A*%
X71755000Y-69215000D03*
%TO.N,/B*%
X69215000Y-54610000D03*
%TO.N,/J_X*%
X66675000Y-59690000D03*
%TO.N,/J_Y*%
X29845000Y-38100000D03*
X64135000Y-36830000D03*
%TO.N,/BL*%
X61595000Y-27940000D03*
%TO.N,/BR*%
X59055000Y-33020000D03*
%TD*%
D17*
%TO.N,+3V3*%
X32820000Y-45520000D02*
X33655000Y-46355000D01*
X32820000Y-33575000D02*
X32820000Y-45520000D01*
X19050000Y-46990000D02*
X19050000Y-59055000D01*
X26670000Y-64770000D02*
X26670000Y-71755000D01*
X106045000Y-50800000D02*
X106680000Y-50165000D01*
X106045000Y-64770000D02*
X106045000Y-50800000D01*
X106045000Y-50800000D02*
X106045000Y-29210000D01*
X106045000Y-29210000D02*
X106680000Y-28575000D01*
X106045000Y-25400000D02*
X105410000Y-24765000D01*
X106045000Y-29210000D02*
X106045000Y-25400000D01*
X26670000Y-64770000D02*
X26670000Y-58420000D01*
D18*
%TO.N,/MISO*%
X89535000Y-48260000D02*
X88900000Y-48895000D01*
X89535000Y-24765000D02*
X89535000Y-48260000D01*
%TO.N,/SCK*%
X86995000Y-50800000D02*
X86360000Y-51435000D01*
X86995000Y-24765000D02*
X86995000Y-50800000D01*
%TO.N,/MOSI*%
X84455000Y-52705000D02*
X83820000Y-53340000D01*
X84455000Y-24765000D02*
X84455000Y-52705000D01*
%TO.N,/TFT_CS*%
X81915000Y-55880000D02*
X81280000Y-56515000D01*
X81915000Y-24765000D02*
X81915000Y-55880000D01*
%TO.N,/CARD_CS*%
X79375000Y-58420000D02*
X78740000Y-59055000D01*
X79375000Y-24765000D02*
X79375000Y-58420000D01*
%TO.N,/D_C*%
X76835000Y-60960000D02*
X76200000Y-61595000D01*
X76835000Y-24765000D02*
X76835000Y-60960000D01*
%TO.N,/RESET*%
X74295000Y-63500000D02*
X73660000Y-64135000D01*
X74295000Y-24765000D02*
X74295000Y-63500000D01*
%TO.N,/A*%
X71755000Y-69215000D02*
X71755000Y-24765000D01*
%TO.N,/B*%
X69215000Y-54610000D02*
X69215000Y-24765000D01*
%TO.N,/J_X*%
X66675000Y-59690000D02*
X66675000Y-24765000D01*
%TO.N,/J_Y*%
X29210000Y-38735000D02*
X29845000Y-38100000D01*
X29210000Y-71755000D02*
X29210000Y-38735000D01*
X64135000Y-36830000D02*
X64135000Y-24765000D01*
%TO.N,/BL*%
X61595000Y-27940000D02*
X61595000Y-24765000D01*
%TO.N,/BR*%
X59055000Y-33020000D02*
X59055000Y-24765000D01*
%TD*%
D19*
%TO.N,GND*%
X133935001Y-78690000D02*
X14655000Y-78690000D01*
X14655000Y-71604899D01*
X25146000Y-71604899D01*
X25146000Y-71905101D01*
X25204566Y-72199534D01*
X25319449Y-72476885D01*
X25486232Y-72726493D01*
X25698507Y-72938768D01*
X25948115Y-73105551D01*
X26225466Y-73220434D01*
X26519899Y-73279000D01*
X26820101Y-73279000D01*
X27114534Y-73220434D01*
X27391885Y-73105551D01*
X27641493Y-72938768D01*
X27853768Y-72726493D01*
X27940000Y-72597438D01*
X28026232Y-72726493D01*
X28238507Y-72938768D01*
X28488115Y-73105551D01*
X28765466Y-73220434D01*
X29059899Y-73279000D01*
X29360101Y-73279000D01*
X29654534Y-73220434D01*
X29931885Y-73105551D01*
X30181493Y-72938768D01*
X30309030Y-72811231D01*
X30873374Y-72811231D01*
X30955727Y-73064289D01*
X31226418Y-73194086D01*
X31517230Y-73268580D01*
X31816988Y-73284908D01*
X32114171Y-73242443D01*
X32397359Y-73142816D01*
X32544273Y-73064289D01*
X32626626Y-72811231D01*
X31750000Y-71934605D01*
X30873374Y-72811231D01*
X30309030Y-72811231D01*
X30393768Y-72726493D01*
X30499417Y-72568378D01*
X30693769Y-72631626D01*
X31570395Y-71755000D01*
X31929605Y-71755000D01*
X32806231Y-72631626D01*
X33059289Y-72549273D01*
X33189086Y-72278582D01*
X33263580Y-71987770D01*
X33279908Y-71688012D01*
X33265063Y-71584117D01*
X45890000Y-71584117D01*
X45890000Y-71925883D01*
X45956675Y-72261081D01*
X46087463Y-72576831D01*
X46277337Y-72860998D01*
X46519002Y-73102663D01*
X46803169Y-73292537D01*
X47118919Y-73423325D01*
X47454117Y-73490000D01*
X47795883Y-73490000D01*
X48131081Y-73423325D01*
X48446831Y-73292537D01*
X48730998Y-73102663D01*
X48972663Y-72860998D01*
X49162537Y-72576831D01*
X49293325Y-72261081D01*
X49360000Y-71925883D01*
X49360000Y-71584117D01*
X96760000Y-71584117D01*
X96760000Y-71925883D01*
X96826675Y-72261081D01*
X96957463Y-72576831D01*
X97147337Y-72860998D01*
X97389002Y-73102663D01*
X97673169Y-73292537D01*
X97988919Y-73423325D01*
X98324117Y-73490000D01*
X98665883Y-73490000D01*
X99001081Y-73423325D01*
X99316831Y-73292537D01*
X99600998Y-73102663D01*
X99842663Y-72860998D01*
X100032537Y-72576831D01*
X100163325Y-72261081D01*
X100230000Y-71925883D01*
X100230000Y-71584117D01*
X100163325Y-71248919D01*
X100032537Y-70933169D01*
X99842663Y-70649002D01*
X99600998Y-70407337D01*
X99316831Y-70217463D01*
X99001081Y-70086675D01*
X98665883Y-70020000D01*
X98324117Y-70020000D01*
X97988919Y-70086675D01*
X97673169Y-70217463D01*
X97389002Y-70407337D01*
X97147337Y-70649002D01*
X96957463Y-70933169D01*
X96826675Y-71248919D01*
X96760000Y-71584117D01*
X49360000Y-71584117D01*
X49293325Y-71248919D01*
X49162537Y-70933169D01*
X48972663Y-70649002D01*
X48730998Y-70407337D01*
X48446831Y-70217463D01*
X48405448Y-70200322D01*
X48410960Y-70180565D01*
X47625000Y-69394605D01*
X46839040Y-70180565D01*
X46844552Y-70200322D01*
X46803169Y-70217463D01*
X46519002Y-70407337D01*
X46277337Y-70649002D01*
X46087463Y-70933169D01*
X45956675Y-71248919D01*
X45890000Y-71584117D01*
X33265063Y-71584117D01*
X33237443Y-71390829D01*
X33137816Y-71107641D01*
X33059289Y-70960727D01*
X32806231Y-70878374D01*
X31929605Y-71755000D01*
X31570395Y-71755000D01*
X30693769Y-70878374D01*
X30499417Y-70941622D01*
X30393768Y-70783507D01*
X30309030Y-70698769D01*
X30873374Y-70698769D01*
X31750000Y-71575395D01*
X32626626Y-70698769D01*
X32544273Y-70445711D01*
X32273582Y-70315914D01*
X31982770Y-70241420D01*
X31683012Y-70225092D01*
X31385829Y-70267557D01*
X31102641Y-70367184D01*
X30955727Y-70445711D01*
X30873374Y-70698769D01*
X30309030Y-70698769D01*
X30181493Y-70571232D01*
X29970000Y-70429917D01*
X29970000Y-68087382D01*
X35052000Y-68087382D01*
X35052000Y-68437618D01*
X35120328Y-68781123D01*
X35254357Y-69104699D01*
X35448937Y-69395909D01*
X35696591Y-69643563D01*
X35987801Y-69838143D01*
X36311377Y-69972172D01*
X36654882Y-70040500D01*
X37005118Y-70040500D01*
X37348623Y-69972172D01*
X37672199Y-69838143D01*
X37963409Y-69643563D01*
X38211063Y-69395909D01*
X38283822Y-69287017D01*
X46223090Y-69287017D01*
X46264078Y-69559133D01*
X46357364Y-69818023D01*
X46419344Y-69933980D01*
X46659435Y-70000960D01*
X47445395Y-69215000D01*
X47804605Y-69215000D01*
X48590565Y-70000960D01*
X48830656Y-69933980D01*
X48947756Y-69684952D01*
X49014023Y-69417865D01*
X49026910Y-69142983D01*
X48985922Y-68870867D01*
X48892636Y-68611977D01*
X48830656Y-68496020D01*
X48590565Y-68429040D01*
X47804605Y-69215000D01*
X47445395Y-69215000D01*
X46659435Y-68429040D01*
X46419344Y-68496020D01*
X46302244Y-68745048D01*
X46235977Y-69012135D01*
X46223090Y-69287017D01*
X38283822Y-69287017D01*
X38405643Y-69104699D01*
X38539672Y-68781123D01*
X38608000Y-68437618D01*
X38608000Y-68087382D01*
X38539672Y-67743877D01*
X38405643Y-67420301D01*
X38211063Y-67129091D01*
X37963409Y-66881437D01*
X37672199Y-66686857D01*
X37348623Y-66552828D01*
X37005118Y-66484500D01*
X36654882Y-66484500D01*
X36311377Y-66552828D01*
X35987801Y-66686857D01*
X35696591Y-66881437D01*
X35448937Y-67129091D01*
X35254357Y-67420301D01*
X35120328Y-67743877D01*
X35052000Y-68087382D01*
X29970000Y-68087382D01*
X29970000Y-53824899D01*
X30861000Y-53824899D01*
X30861000Y-54125101D01*
X30919566Y-54419534D01*
X31034449Y-54696885D01*
X31201232Y-54946493D01*
X31413507Y-55158768D01*
X31663115Y-55325551D01*
X31940466Y-55440434D01*
X32234899Y-55499000D01*
X32535101Y-55499000D01*
X32829534Y-55440434D01*
X33106885Y-55325551D01*
X33356493Y-55158768D01*
X33568768Y-54946493D01*
X33698469Y-54752382D01*
X35052000Y-54752382D01*
X35052000Y-55102618D01*
X35120328Y-55446123D01*
X35254357Y-55769699D01*
X35448937Y-56060909D01*
X35696591Y-56308563D01*
X35987801Y-56503143D01*
X36311377Y-56637172D01*
X36654882Y-56705500D01*
X37005118Y-56705500D01*
X37348623Y-56637172D01*
X37672199Y-56503143D01*
X37963409Y-56308563D01*
X38211063Y-56060909D01*
X38405643Y-55769699D01*
X38539672Y-55446123D01*
X38608000Y-55102618D01*
X38608000Y-54752382D01*
X38539672Y-54408877D01*
X38405643Y-54085301D01*
X38211063Y-53794091D01*
X37963409Y-53546437D01*
X37672199Y-53351857D01*
X37348623Y-53217828D01*
X37005118Y-53149500D01*
X36654882Y-53149500D01*
X36311377Y-53217828D01*
X35987801Y-53351857D01*
X35696591Y-53546437D01*
X35448937Y-53794091D01*
X35254357Y-54085301D01*
X35120328Y-54408877D01*
X35052000Y-54752382D01*
X33698469Y-54752382D01*
X33735551Y-54696885D01*
X33850434Y-54419534D01*
X33909000Y-54125101D01*
X33909000Y-53824899D01*
X33850434Y-53530466D01*
X33735551Y-53253115D01*
X33568768Y-53003507D01*
X33356493Y-52791232D01*
X33106885Y-52624449D01*
X32829534Y-52509566D01*
X32535101Y-52451000D01*
X32234899Y-52451000D01*
X31940466Y-52509566D01*
X31663115Y-52624449D01*
X31413507Y-52791232D01*
X31201232Y-53003507D01*
X31034449Y-53253115D01*
X30919566Y-53530466D01*
X30861000Y-53824899D01*
X29970000Y-53824899D01*
X29970000Y-48744899D01*
X30861000Y-48744899D01*
X30861000Y-49045101D01*
X30919566Y-49339534D01*
X31034449Y-49616885D01*
X31201232Y-49866493D01*
X31413507Y-50078768D01*
X31663115Y-50245551D01*
X31940466Y-50360434D01*
X32234899Y-50419000D01*
X32535101Y-50419000D01*
X32829534Y-50360434D01*
X33106885Y-50245551D01*
X33356493Y-50078768D01*
X33568768Y-49866493D01*
X33735551Y-49616885D01*
X33850434Y-49339534D01*
X33909000Y-49045101D01*
X33909000Y-48744899D01*
X33850434Y-48450466D01*
X33735551Y-48173115D01*
X33568768Y-47923507D01*
X33356493Y-47711232D01*
X33106885Y-47544449D01*
X32829534Y-47429566D01*
X32535101Y-47371000D01*
X32234899Y-47371000D01*
X31940466Y-47429566D01*
X31663115Y-47544449D01*
X31413507Y-47711232D01*
X31201232Y-47923507D01*
X31034449Y-48173115D01*
X30919566Y-48450466D01*
X30861000Y-48744899D01*
X29970000Y-48744899D01*
X29970000Y-39130413D01*
X30146898Y-39095226D01*
X30335256Y-39017205D01*
X30504774Y-38903937D01*
X30648937Y-38759774D01*
X30762205Y-38590256D01*
X30840226Y-38401898D01*
X30880000Y-38201939D01*
X30880000Y-37998061D01*
X30840226Y-37798102D01*
X30762205Y-37609744D01*
X30648937Y-37440226D01*
X30504774Y-37296063D01*
X30335256Y-37182795D01*
X30146898Y-37104774D01*
X29946939Y-37065000D01*
X29743061Y-37065000D01*
X29543102Y-37104774D01*
X29354744Y-37182795D01*
X29185226Y-37296063D01*
X29041063Y-37440226D01*
X28927795Y-37609744D01*
X28849774Y-37798102D01*
X28810000Y-37998061D01*
X28810000Y-38060199D01*
X28698998Y-38171201D01*
X28670000Y-38194999D01*
X28646202Y-38223997D01*
X28646201Y-38223998D01*
X28575026Y-38310724D01*
X28504454Y-38442754D01*
X28460998Y-38586015D01*
X28446324Y-38735000D01*
X28450001Y-38772333D01*
X28450000Y-70429917D01*
X28238507Y-70571232D01*
X28026232Y-70783507D01*
X27940000Y-70912562D01*
X27853768Y-70783507D01*
X27641493Y-70571232D01*
X27559000Y-70516112D01*
X27559000Y-65302468D01*
X27587205Y-65260256D01*
X27665226Y-65071898D01*
X27705000Y-64871939D01*
X27705000Y-64668061D01*
X27665226Y-64468102D01*
X27587205Y-64279744D01*
X27559000Y-64237532D01*
X27559000Y-58952468D01*
X27587205Y-58910256D01*
X27665226Y-58721898D01*
X27705000Y-58521939D01*
X27705000Y-58318061D01*
X27665226Y-58118102D01*
X27587205Y-57929744D01*
X27473937Y-57760226D01*
X27329774Y-57616063D01*
X27160256Y-57502795D01*
X26971898Y-57424774D01*
X26771939Y-57385000D01*
X26568061Y-57385000D01*
X26368102Y-57424774D01*
X26179744Y-57502795D01*
X26010226Y-57616063D01*
X25866063Y-57760226D01*
X25752795Y-57929744D01*
X25674774Y-58118102D01*
X25635000Y-58318061D01*
X25635000Y-58521939D01*
X25674774Y-58721898D01*
X25752795Y-58910256D01*
X25781001Y-58952469D01*
X25781000Y-64237532D01*
X25752795Y-64279744D01*
X25674774Y-64468102D01*
X25635000Y-64668061D01*
X25635000Y-64871939D01*
X25674774Y-65071898D01*
X25752795Y-65260256D01*
X25781000Y-65302468D01*
X25781001Y-70516111D01*
X25698507Y-70571232D01*
X25486232Y-70783507D01*
X25319449Y-71033115D01*
X25204566Y-71310466D01*
X25146000Y-71604899D01*
X14655000Y-71604899D01*
X14655000Y-68087382D01*
X19812000Y-68087382D01*
X19812000Y-68437618D01*
X19880328Y-68781123D01*
X20014357Y-69104699D01*
X20208937Y-69395909D01*
X20456591Y-69643563D01*
X20747801Y-69838143D01*
X21071377Y-69972172D01*
X21414882Y-70040500D01*
X21765118Y-70040500D01*
X22108623Y-69972172D01*
X22432199Y-69838143D01*
X22723409Y-69643563D01*
X22971063Y-69395909D01*
X23165643Y-69104699D01*
X23299672Y-68781123D01*
X23368000Y-68437618D01*
X23368000Y-68087382D01*
X23299672Y-67743877D01*
X23165643Y-67420301D01*
X22971063Y-67129091D01*
X22723409Y-66881437D01*
X22432199Y-66686857D01*
X22108623Y-66552828D01*
X21765118Y-66484500D01*
X21414882Y-66484500D01*
X21071377Y-66552828D01*
X20747801Y-66686857D01*
X20456591Y-66881437D01*
X20208937Y-67129091D01*
X20014357Y-67420301D01*
X19880328Y-67743877D01*
X19812000Y-68087382D01*
X14655000Y-68087382D01*
X14655000Y-65191231D01*
X18173374Y-65191231D01*
X18255727Y-65444289D01*
X18526418Y-65574086D01*
X18817230Y-65648580D01*
X19116988Y-65664908D01*
X19414171Y-65622443D01*
X19697359Y-65522816D01*
X19844273Y-65444289D01*
X19926626Y-65191231D01*
X19050000Y-64314605D01*
X18173374Y-65191231D01*
X14655000Y-65191231D01*
X14655000Y-64201988D01*
X17520092Y-64201988D01*
X17562557Y-64499171D01*
X17662184Y-64782359D01*
X17740711Y-64929273D01*
X17993769Y-65011626D01*
X18870395Y-64135000D01*
X19229605Y-64135000D01*
X20106231Y-65011626D01*
X20359289Y-64929273D01*
X20489086Y-64658582D01*
X20563580Y-64367770D01*
X20579908Y-64068012D01*
X20537443Y-63770829D01*
X20437816Y-63487641D01*
X20359289Y-63340727D01*
X20106231Y-63258374D01*
X19229605Y-64135000D01*
X18870395Y-64135000D01*
X17993769Y-63258374D01*
X17740711Y-63340727D01*
X17610914Y-63611418D01*
X17536420Y-63902230D01*
X17520092Y-64201988D01*
X14655000Y-64201988D01*
X14655000Y-58904899D01*
X17526000Y-58904899D01*
X17526000Y-59205101D01*
X17584566Y-59499534D01*
X17699449Y-59776885D01*
X17866232Y-60026493D01*
X18078507Y-60238768D01*
X18207562Y-60325000D01*
X18078507Y-60411232D01*
X17866232Y-60623507D01*
X17699449Y-60873115D01*
X17584566Y-61150466D01*
X17526000Y-61444899D01*
X17526000Y-61745101D01*
X17584566Y-62039534D01*
X17699449Y-62316885D01*
X17866232Y-62566493D01*
X18078507Y-62778768D01*
X18236622Y-62884417D01*
X18173374Y-63078769D01*
X19050000Y-63955395D01*
X19926626Y-63078769D01*
X19863378Y-62884417D01*
X20021493Y-62778768D01*
X20233768Y-62566493D01*
X20400551Y-62316885D01*
X20515434Y-62039534D01*
X20574000Y-61745101D01*
X20574000Y-61444899D01*
X20515434Y-61150466D01*
X20400551Y-60873115D01*
X20233768Y-60623507D01*
X20021493Y-60411232D01*
X19892438Y-60325000D01*
X20021493Y-60238768D01*
X20233768Y-60026493D01*
X20400551Y-59776885D01*
X20515434Y-59499534D01*
X20574000Y-59205101D01*
X20574000Y-58904899D01*
X20515434Y-58610466D01*
X20400551Y-58333115D01*
X20233768Y-58083507D01*
X20021493Y-57871232D01*
X19939000Y-57816112D01*
X19939000Y-55587770D01*
X20014357Y-55769699D01*
X20208937Y-56060909D01*
X20456591Y-56308563D01*
X20747801Y-56503143D01*
X21071377Y-56637172D01*
X21414882Y-56705500D01*
X21765118Y-56705500D01*
X22108623Y-56637172D01*
X22432199Y-56503143D01*
X22723409Y-56308563D01*
X22971063Y-56060909D01*
X23165643Y-55769699D01*
X23299672Y-55446123D01*
X23368000Y-55102618D01*
X23368000Y-54752382D01*
X23299672Y-54408877D01*
X23165643Y-54085301D01*
X22991649Y-53824899D01*
X24511000Y-53824899D01*
X24511000Y-54125101D01*
X24569566Y-54419534D01*
X24684449Y-54696885D01*
X24851232Y-54946493D01*
X25063507Y-55158768D01*
X25313115Y-55325551D01*
X25590466Y-55440434D01*
X25884899Y-55499000D01*
X26185101Y-55499000D01*
X26479534Y-55440434D01*
X26756885Y-55325551D01*
X27006493Y-55158768D01*
X27218768Y-54946493D01*
X27385551Y-54696885D01*
X27500434Y-54419534D01*
X27559000Y-54125101D01*
X27559000Y-53824899D01*
X27500434Y-53530466D01*
X27385551Y-53253115D01*
X27218768Y-53003507D01*
X27006493Y-52791232D01*
X26756885Y-52624449D01*
X26479534Y-52509566D01*
X26185101Y-52451000D01*
X25884899Y-52451000D01*
X25590466Y-52509566D01*
X25313115Y-52624449D01*
X25063507Y-52791232D01*
X24851232Y-53003507D01*
X24684449Y-53253115D01*
X24569566Y-53530466D01*
X24511000Y-53824899D01*
X22991649Y-53824899D01*
X22971063Y-53794091D01*
X22723409Y-53546437D01*
X22432199Y-53351857D01*
X22108623Y-53217828D01*
X21765118Y-53149500D01*
X21414882Y-53149500D01*
X21071377Y-53217828D01*
X20747801Y-53351857D01*
X20456591Y-53546437D01*
X20208937Y-53794091D01*
X20014357Y-54085301D01*
X19939000Y-54267230D01*
X19939000Y-48744899D01*
X24511000Y-48744899D01*
X24511000Y-49045101D01*
X24569566Y-49339534D01*
X24684449Y-49616885D01*
X24851232Y-49866493D01*
X25063507Y-50078768D01*
X25313115Y-50245551D01*
X25590466Y-50360434D01*
X25884899Y-50419000D01*
X26185101Y-50419000D01*
X26479534Y-50360434D01*
X26756885Y-50245551D01*
X27006493Y-50078768D01*
X27218768Y-49866493D01*
X27385551Y-49616885D01*
X27500434Y-49339534D01*
X27559000Y-49045101D01*
X27559000Y-48744899D01*
X27500434Y-48450466D01*
X27385551Y-48173115D01*
X27218768Y-47923507D01*
X27006493Y-47711232D01*
X26756885Y-47544449D01*
X26479534Y-47429566D01*
X26185101Y-47371000D01*
X25884899Y-47371000D01*
X25590466Y-47429566D01*
X25313115Y-47544449D01*
X25063507Y-47711232D01*
X24851232Y-47923507D01*
X24684449Y-48173115D01*
X24569566Y-48450466D01*
X24511000Y-48744899D01*
X19939000Y-48744899D01*
X19939000Y-47522468D01*
X19967205Y-47480256D01*
X20045226Y-47291898D01*
X20085000Y-47091939D01*
X20085000Y-46888061D01*
X20045226Y-46688102D01*
X19967205Y-46499744D01*
X19853937Y-46330226D01*
X19709774Y-46186063D01*
X19540256Y-46072795D01*
X19351898Y-45994774D01*
X19151939Y-45955000D01*
X18948061Y-45955000D01*
X18748102Y-45994774D01*
X18559744Y-46072795D01*
X18390226Y-46186063D01*
X18246063Y-46330226D01*
X18132795Y-46499744D01*
X18054774Y-46688102D01*
X18015000Y-46888061D01*
X18015000Y-47091939D01*
X18054774Y-47291898D01*
X18132795Y-47480256D01*
X18161000Y-47522468D01*
X18161001Y-57816111D01*
X18078507Y-57871232D01*
X17866232Y-58083507D01*
X17699449Y-58333115D01*
X17584566Y-58610466D01*
X17526000Y-58904899D01*
X14655000Y-58904899D01*
X14655000Y-33575000D01*
X18153452Y-33575000D01*
X18183572Y-33880813D01*
X18272774Y-34174875D01*
X18417631Y-34445883D01*
X18612576Y-34683424D01*
X18850117Y-34878369D01*
X19121125Y-35023226D01*
X19415187Y-35112428D01*
X19644364Y-35135000D01*
X20995636Y-35135000D01*
X21224813Y-35112428D01*
X21518875Y-35023226D01*
X21789883Y-34878369D01*
X22027424Y-34683424D01*
X22222369Y-34445883D01*
X22367226Y-34174875D01*
X22456428Y-33880813D01*
X22486548Y-33575000D01*
X30653452Y-33575000D01*
X30683572Y-33880813D01*
X30772774Y-34174875D01*
X30917631Y-34445883D01*
X31112576Y-34683424D01*
X31350117Y-34878369D01*
X31621125Y-35023226D01*
X31915187Y-35112428D01*
X31931000Y-35113985D01*
X31931001Y-45476330D01*
X31926700Y-45520000D01*
X31943864Y-45694274D01*
X31994698Y-45861852D01*
X31996244Y-45864744D01*
X32077248Y-46016291D01*
X32188342Y-46151659D01*
X32222259Y-46179494D01*
X32649870Y-46607105D01*
X32659774Y-46656898D01*
X32737795Y-46845256D01*
X32851063Y-47014774D01*
X32995226Y-47158937D01*
X33164744Y-47272205D01*
X33353102Y-47350226D01*
X33553061Y-47390000D01*
X33756939Y-47390000D01*
X33956898Y-47350226D01*
X34145256Y-47272205D01*
X34314774Y-47158937D01*
X34458937Y-47014774D01*
X34572205Y-46845256D01*
X34650226Y-46656898D01*
X34690000Y-46456939D01*
X34690000Y-46253061D01*
X34650226Y-46053102D01*
X34572205Y-45864744D01*
X34458937Y-45695226D01*
X34314774Y-45551063D01*
X34145256Y-45437795D01*
X33956898Y-45359774D01*
X33907105Y-45349870D01*
X33709000Y-45151765D01*
X33709000Y-43644117D01*
X45890000Y-43644117D01*
X45890000Y-43985883D01*
X45956675Y-44321081D01*
X46087463Y-44636831D01*
X46277337Y-44920998D01*
X46519002Y-45162663D01*
X46712435Y-45291910D01*
X46539880Y-45464465D01*
X46386995Y-45693273D01*
X46281686Y-45947510D01*
X46228000Y-46217408D01*
X46228000Y-46492592D01*
X46281686Y-46762490D01*
X46386995Y-47016727D01*
X46539880Y-47245535D01*
X46734465Y-47440120D01*
X46963273Y-47593005D01*
X47040515Y-47625000D01*
X46963273Y-47656995D01*
X46734465Y-47809880D01*
X46539880Y-48004465D01*
X46386995Y-48233273D01*
X46281686Y-48487510D01*
X46228000Y-48757408D01*
X46228000Y-49032592D01*
X46281686Y-49302490D01*
X46386995Y-49556727D01*
X46539880Y-49785535D01*
X46734465Y-49980120D01*
X46963273Y-50133005D01*
X47040515Y-50165000D01*
X46963273Y-50196995D01*
X46734465Y-50349880D01*
X46539880Y-50544465D01*
X46386995Y-50773273D01*
X46281686Y-51027510D01*
X46228000Y-51297408D01*
X46228000Y-51572592D01*
X46281686Y-51842490D01*
X46386995Y-52096727D01*
X46539880Y-52325535D01*
X46734465Y-52520120D01*
X46963273Y-52673005D01*
X47040515Y-52705000D01*
X46963273Y-52736995D01*
X46734465Y-52889880D01*
X46539880Y-53084465D01*
X46386995Y-53313273D01*
X46281686Y-53567510D01*
X46228000Y-53837408D01*
X46228000Y-54112592D01*
X46281686Y-54382490D01*
X46386995Y-54636727D01*
X46539880Y-54865535D01*
X46734465Y-55060120D01*
X46963273Y-55213005D01*
X47040515Y-55245000D01*
X46963273Y-55276995D01*
X46734465Y-55429880D01*
X46539880Y-55624465D01*
X46386995Y-55853273D01*
X46281686Y-56107510D01*
X46228000Y-56377408D01*
X46228000Y-56652592D01*
X46281686Y-56922490D01*
X46386995Y-57176727D01*
X46539880Y-57405535D01*
X46734465Y-57600120D01*
X46963273Y-57753005D01*
X47040515Y-57785000D01*
X46963273Y-57816995D01*
X46734465Y-57969880D01*
X46539880Y-58164465D01*
X46386995Y-58393273D01*
X46281686Y-58647510D01*
X46228000Y-58917408D01*
X46228000Y-59192592D01*
X46281686Y-59462490D01*
X46386995Y-59716727D01*
X46539880Y-59945535D01*
X46734465Y-60140120D01*
X46963273Y-60293005D01*
X47040515Y-60325000D01*
X46963273Y-60356995D01*
X46734465Y-60509880D01*
X46539880Y-60704465D01*
X46386995Y-60933273D01*
X46281686Y-61187510D01*
X46228000Y-61457408D01*
X46228000Y-61732592D01*
X46281686Y-62002490D01*
X46386995Y-62256727D01*
X46539880Y-62485535D01*
X46734465Y-62680120D01*
X46963273Y-62833005D01*
X47040515Y-62865000D01*
X46963273Y-62896995D01*
X46734465Y-63049880D01*
X46539880Y-63244465D01*
X46386995Y-63473273D01*
X46281686Y-63727510D01*
X46228000Y-63997408D01*
X46228000Y-64272592D01*
X46281686Y-64542490D01*
X46386995Y-64796727D01*
X46539880Y-65025535D01*
X46734465Y-65220120D01*
X46963273Y-65373005D01*
X47040515Y-65405000D01*
X46963273Y-65436995D01*
X46734465Y-65589880D01*
X46539880Y-65784465D01*
X46386995Y-66013273D01*
X46281686Y-66267510D01*
X46228000Y-66537408D01*
X46228000Y-66812592D01*
X46281686Y-67082490D01*
X46386995Y-67336727D01*
X46539880Y-67565535D01*
X46734465Y-67760120D01*
X46963273Y-67913005D01*
X47034943Y-67942692D01*
X47021977Y-67947364D01*
X46906020Y-68009344D01*
X46839040Y-68249435D01*
X47625000Y-69035395D01*
X48410960Y-68249435D01*
X48343980Y-68009344D01*
X48208240Y-67945515D01*
X48286727Y-67913005D01*
X48515535Y-67760120D01*
X48710120Y-67565535D01*
X48863005Y-67336727D01*
X48968314Y-67082490D01*
X49022000Y-66812592D01*
X49022000Y-66537408D01*
X48968314Y-66267510D01*
X48863005Y-66013273D01*
X48710120Y-65784465D01*
X48515535Y-65589880D01*
X48286727Y-65436995D01*
X48209485Y-65405000D01*
X48286727Y-65373005D01*
X48515535Y-65220120D01*
X48710120Y-65025535D01*
X48863005Y-64796727D01*
X48968314Y-64542490D01*
X49022000Y-64272592D01*
X49022000Y-63997408D01*
X48968314Y-63727510D01*
X48863005Y-63473273D01*
X48710120Y-63244465D01*
X48515535Y-63049880D01*
X48286727Y-62896995D01*
X48209485Y-62865000D01*
X48286727Y-62833005D01*
X48515535Y-62680120D01*
X48710120Y-62485535D01*
X48863005Y-62256727D01*
X48968314Y-62002490D01*
X49022000Y-61732592D01*
X49022000Y-61457408D01*
X48968314Y-61187510D01*
X48863005Y-60933273D01*
X48710120Y-60704465D01*
X48515535Y-60509880D01*
X48286727Y-60356995D01*
X48209485Y-60325000D01*
X48286727Y-60293005D01*
X48515535Y-60140120D01*
X48710120Y-59945535D01*
X48863005Y-59716727D01*
X48968314Y-59462490D01*
X49022000Y-59192592D01*
X49022000Y-58917408D01*
X48968314Y-58647510D01*
X48863005Y-58393273D01*
X48710120Y-58164465D01*
X48515535Y-57969880D01*
X48286727Y-57816995D01*
X48209485Y-57785000D01*
X48286727Y-57753005D01*
X48515535Y-57600120D01*
X48710120Y-57405535D01*
X48863005Y-57176727D01*
X48968314Y-56922490D01*
X49022000Y-56652592D01*
X49022000Y-56377408D01*
X48968314Y-56107510D01*
X48863005Y-55853273D01*
X48710120Y-55624465D01*
X48515535Y-55429880D01*
X48286727Y-55276995D01*
X48209485Y-55245000D01*
X48286727Y-55213005D01*
X48515535Y-55060120D01*
X48710120Y-54865535D01*
X48863005Y-54636727D01*
X48968314Y-54382490D01*
X49022000Y-54112592D01*
X49022000Y-53837408D01*
X48968314Y-53567510D01*
X48863005Y-53313273D01*
X48710120Y-53084465D01*
X48515535Y-52889880D01*
X48286727Y-52736995D01*
X48209485Y-52705000D01*
X48286727Y-52673005D01*
X48515535Y-52520120D01*
X48710120Y-52325535D01*
X48863005Y-52096727D01*
X48968314Y-51842490D01*
X49022000Y-51572592D01*
X49022000Y-51297408D01*
X48968314Y-51027510D01*
X48863005Y-50773273D01*
X48710120Y-50544465D01*
X48515535Y-50349880D01*
X48286727Y-50196995D01*
X48209485Y-50165000D01*
X48286727Y-50133005D01*
X48515535Y-49980120D01*
X48710120Y-49785535D01*
X48863005Y-49556727D01*
X48968314Y-49302490D01*
X49022000Y-49032592D01*
X49022000Y-48757408D01*
X48968314Y-48487510D01*
X48863005Y-48233273D01*
X48710120Y-48004465D01*
X48515535Y-47809880D01*
X48286727Y-47656995D01*
X48209485Y-47625000D01*
X48286727Y-47593005D01*
X48515535Y-47440120D01*
X48710120Y-47245535D01*
X48863005Y-47016727D01*
X48968314Y-46762490D01*
X49022000Y-46492592D01*
X49022000Y-46217408D01*
X48968314Y-45947510D01*
X48863005Y-45693273D01*
X48710120Y-45464465D01*
X48537565Y-45291910D01*
X48730998Y-45162663D01*
X48972663Y-44920998D01*
X49162537Y-44636831D01*
X49293325Y-44321081D01*
X49360000Y-43985883D01*
X49360000Y-43644117D01*
X49293325Y-43308919D01*
X49162537Y-42993169D01*
X48972663Y-42709002D01*
X48730998Y-42467337D01*
X48446831Y-42277463D01*
X48131081Y-42146675D01*
X47795883Y-42080000D01*
X47454117Y-42080000D01*
X47118919Y-42146675D01*
X46803169Y-42277463D01*
X46519002Y-42467337D01*
X46277337Y-42709002D01*
X46087463Y-42993169D01*
X45956675Y-43308919D01*
X45890000Y-43644117D01*
X33709000Y-43644117D01*
X33709000Y-35113985D01*
X33724813Y-35112428D01*
X34018875Y-35023226D01*
X34289883Y-34878369D01*
X34527424Y-34683424D01*
X34722369Y-34445883D01*
X34867226Y-34174875D01*
X34956428Y-33880813D01*
X34986548Y-33575000D01*
X34956428Y-33269187D01*
X34867226Y-32975125D01*
X34722369Y-32704117D01*
X34527424Y-32466576D01*
X34289883Y-32271631D01*
X34018875Y-32126774D01*
X33724813Y-32037572D01*
X33495636Y-32015000D01*
X32144364Y-32015000D01*
X31915187Y-32037572D01*
X31621125Y-32126774D01*
X31350117Y-32271631D01*
X31112576Y-32466576D01*
X30917631Y-32704117D01*
X30772774Y-32975125D01*
X30683572Y-33269187D01*
X30653452Y-33575000D01*
X22486548Y-33575000D01*
X22456428Y-33269187D01*
X22367226Y-32975125D01*
X22222369Y-32704117D01*
X22027424Y-32466576D01*
X21789883Y-32271631D01*
X21518875Y-32126774D01*
X21224813Y-32037572D01*
X20995636Y-32015000D01*
X19644364Y-32015000D01*
X19415187Y-32037572D01*
X19121125Y-32126774D01*
X18850117Y-32271631D01*
X18612576Y-32466576D01*
X18417631Y-32704117D01*
X18272774Y-32975125D01*
X18183572Y-33269187D01*
X18153452Y-33575000D01*
X14655000Y-33575000D01*
X14655000Y-28575000D01*
X18153452Y-28575000D01*
X18183572Y-28880813D01*
X18272774Y-29174875D01*
X18417631Y-29445883D01*
X18612576Y-29683424D01*
X18850117Y-29878369D01*
X19121125Y-30023226D01*
X19415187Y-30112428D01*
X19644364Y-30135000D01*
X20995636Y-30135000D01*
X21224813Y-30112428D01*
X21518875Y-30023226D01*
X21789883Y-29878369D01*
X22027424Y-29683424D01*
X22222369Y-29445883D01*
X22367226Y-29174875D01*
X22456428Y-28880813D01*
X22486548Y-28575000D01*
X30653452Y-28575000D01*
X30683572Y-28880813D01*
X30772774Y-29174875D01*
X30917631Y-29445883D01*
X31112576Y-29683424D01*
X31350117Y-29878369D01*
X31621125Y-30023226D01*
X31915187Y-30112428D01*
X32144364Y-30135000D01*
X33495636Y-30135000D01*
X33724813Y-30112428D01*
X34018875Y-30023226D01*
X34289883Y-29878369D01*
X34527424Y-29683424D01*
X34722369Y-29445883D01*
X34867226Y-29174875D01*
X34956428Y-28880813D01*
X34986548Y-28575000D01*
X34956428Y-28269187D01*
X34867226Y-27975125D01*
X34722369Y-27704117D01*
X34527424Y-27466576D01*
X34289883Y-27271631D01*
X34018875Y-27126774D01*
X33724813Y-27037572D01*
X33495636Y-27015000D01*
X32144364Y-27015000D01*
X31915187Y-27037572D01*
X31621125Y-27126774D01*
X31350117Y-27271631D01*
X31112576Y-27466576D01*
X30917631Y-27704117D01*
X30772774Y-27975125D01*
X30683572Y-28269187D01*
X30653452Y-28575000D01*
X22486548Y-28575000D01*
X22456428Y-28269187D01*
X22367226Y-27975125D01*
X22222369Y-27704117D01*
X22027424Y-27466576D01*
X21789883Y-27271631D01*
X21518875Y-27126774D01*
X21224813Y-27037572D01*
X20995636Y-27015000D01*
X19644364Y-27015000D01*
X19415187Y-27037572D01*
X19121125Y-27126774D01*
X18850117Y-27271631D01*
X18612576Y-27466576D01*
X18417631Y-27704117D01*
X18272774Y-27975125D01*
X18183572Y-28269187D01*
X18153452Y-28575000D01*
X14655000Y-28575000D01*
X14655000Y-25121891D01*
X55073519Y-25121891D01*
X55170843Y-25396252D01*
X55319822Y-25646355D01*
X55514731Y-25862588D01*
X55748080Y-26036641D01*
X56010901Y-26161825D01*
X56158110Y-26206476D01*
X56388000Y-26085155D01*
X56388000Y-24892000D01*
X55194186Y-24892000D01*
X55073519Y-25121891D01*
X14655000Y-25121891D01*
X14655000Y-24408109D01*
X55073519Y-24408109D01*
X55194186Y-24638000D01*
X56388000Y-24638000D01*
X56388000Y-23444845D01*
X56642000Y-23444845D01*
X56642000Y-24638000D01*
X56662000Y-24638000D01*
X56662000Y-24892000D01*
X56642000Y-24892000D01*
X56642000Y-26085155D01*
X56871890Y-26206476D01*
X57019099Y-26161825D01*
X57281920Y-26036641D01*
X57515269Y-25862588D01*
X57710178Y-25646355D01*
X57779805Y-25529466D01*
X57901525Y-25711632D01*
X58108368Y-25918475D01*
X58295001Y-26043179D01*
X58295000Y-32316289D01*
X58251063Y-32360226D01*
X58137795Y-32529744D01*
X58059774Y-32718102D01*
X58020000Y-32918061D01*
X58020000Y-33121939D01*
X58059774Y-33321898D01*
X58137795Y-33510256D01*
X58251063Y-33679774D01*
X58395226Y-33823937D01*
X58564744Y-33937205D01*
X58753102Y-34015226D01*
X58953061Y-34055000D01*
X59156939Y-34055000D01*
X59356898Y-34015226D01*
X59545256Y-33937205D01*
X59714774Y-33823937D01*
X59858937Y-33679774D01*
X59972205Y-33510256D01*
X60050226Y-33321898D01*
X60090000Y-33121939D01*
X60090000Y-32918061D01*
X60050226Y-32718102D01*
X59972205Y-32529744D01*
X59858937Y-32360226D01*
X59815000Y-32316289D01*
X59815000Y-26043178D01*
X60001632Y-25918475D01*
X60208475Y-25711632D01*
X60325000Y-25537240D01*
X60441525Y-25711632D01*
X60648368Y-25918475D01*
X60835001Y-26043179D01*
X60835000Y-27236289D01*
X60791063Y-27280226D01*
X60677795Y-27449744D01*
X60599774Y-27638102D01*
X60560000Y-27838061D01*
X60560000Y-28041939D01*
X60599774Y-28241898D01*
X60677795Y-28430256D01*
X60791063Y-28599774D01*
X60935226Y-28743937D01*
X61104744Y-28857205D01*
X61293102Y-28935226D01*
X61493061Y-28975000D01*
X61696939Y-28975000D01*
X61896898Y-28935226D01*
X62085256Y-28857205D01*
X62254774Y-28743937D01*
X62398937Y-28599774D01*
X62512205Y-28430256D01*
X62590226Y-28241898D01*
X62630000Y-28041939D01*
X62630000Y-27838061D01*
X62590226Y-27638102D01*
X62512205Y-27449744D01*
X62398937Y-27280226D01*
X62355000Y-27236289D01*
X62355000Y-26043178D01*
X62541632Y-25918475D01*
X62748475Y-25711632D01*
X62865000Y-25537240D01*
X62981525Y-25711632D01*
X63188368Y-25918475D01*
X63375001Y-26043179D01*
X63375000Y-36126289D01*
X63331063Y-36170226D01*
X63217795Y-36339744D01*
X63139774Y-36528102D01*
X63100000Y-36728061D01*
X63100000Y-36931939D01*
X63139774Y-37131898D01*
X63217795Y-37320256D01*
X63331063Y-37489774D01*
X63475226Y-37633937D01*
X63644744Y-37747205D01*
X63833102Y-37825226D01*
X64033061Y-37865000D01*
X64236939Y-37865000D01*
X64436898Y-37825226D01*
X64625256Y-37747205D01*
X64794774Y-37633937D01*
X64938937Y-37489774D01*
X65052205Y-37320256D01*
X65130226Y-37131898D01*
X65170000Y-36931939D01*
X65170000Y-36728061D01*
X65130226Y-36528102D01*
X65052205Y-36339744D01*
X64938937Y-36170226D01*
X64895000Y-36126289D01*
X64895000Y-26043178D01*
X65081632Y-25918475D01*
X65288475Y-25711632D01*
X65405000Y-25537240D01*
X65521525Y-25711632D01*
X65728368Y-25918475D01*
X65915001Y-26043179D01*
X65915000Y-58986289D01*
X65871063Y-59030226D01*
X65757795Y-59199744D01*
X65679774Y-59388102D01*
X65640000Y-59588061D01*
X65640000Y-59791939D01*
X65679774Y-59991898D01*
X65757795Y-60180256D01*
X65871063Y-60349774D01*
X66015226Y-60493937D01*
X66184744Y-60607205D01*
X66373102Y-60685226D01*
X66573061Y-60725000D01*
X66776939Y-60725000D01*
X66976898Y-60685226D01*
X67165256Y-60607205D01*
X67334774Y-60493937D01*
X67478937Y-60349774D01*
X67592205Y-60180256D01*
X67670226Y-59991898D01*
X67710000Y-59791939D01*
X67710000Y-59588061D01*
X67670226Y-59388102D01*
X67592205Y-59199744D01*
X67478937Y-59030226D01*
X67435000Y-58986289D01*
X67435000Y-26043178D01*
X67621632Y-25918475D01*
X67828475Y-25711632D01*
X67945000Y-25537240D01*
X68061525Y-25711632D01*
X68268368Y-25918475D01*
X68455001Y-26043179D01*
X68455000Y-53906289D01*
X68411063Y-53950226D01*
X68297795Y-54119744D01*
X68219774Y-54308102D01*
X68180000Y-54508061D01*
X68180000Y-54711939D01*
X68219774Y-54911898D01*
X68297795Y-55100256D01*
X68411063Y-55269774D01*
X68555226Y-55413937D01*
X68724744Y-55527205D01*
X68913102Y-55605226D01*
X69113061Y-55645000D01*
X69316939Y-55645000D01*
X69516898Y-55605226D01*
X69705256Y-55527205D01*
X69874774Y-55413937D01*
X70018937Y-55269774D01*
X70132205Y-55100256D01*
X70210226Y-54911898D01*
X70250000Y-54711939D01*
X70250000Y-54508061D01*
X70210226Y-54308102D01*
X70132205Y-54119744D01*
X70018937Y-53950226D01*
X69975000Y-53906289D01*
X69975000Y-26043178D01*
X70161632Y-25918475D01*
X70368475Y-25711632D01*
X70485000Y-25537240D01*
X70601525Y-25711632D01*
X70808368Y-25918475D01*
X70995001Y-26043179D01*
X70995000Y-68511289D01*
X70951063Y-68555226D01*
X70837795Y-68724744D01*
X70759774Y-68913102D01*
X70720000Y-69113061D01*
X70720000Y-69316939D01*
X70759774Y-69516898D01*
X70837795Y-69705256D01*
X70951063Y-69874774D01*
X71095226Y-70018937D01*
X71264744Y-70132205D01*
X71453102Y-70210226D01*
X71653061Y-70250000D01*
X71856939Y-70250000D01*
X72056898Y-70210226D01*
X72245256Y-70132205D01*
X72414774Y-70018937D01*
X72558937Y-69874774D01*
X72628944Y-69770000D01*
X103878452Y-69770000D01*
X103908572Y-70075813D01*
X103997774Y-70369875D01*
X104142631Y-70640883D01*
X104337576Y-70878424D01*
X104575117Y-71073369D01*
X104846125Y-71218226D01*
X105140187Y-71307428D01*
X105369364Y-71330000D01*
X106720636Y-71330000D01*
X106949813Y-71307428D01*
X107243875Y-71218226D01*
X107514883Y-71073369D01*
X107752424Y-70878424D01*
X107947369Y-70640883D01*
X108092226Y-70369875D01*
X108181428Y-70075813D01*
X108211548Y-69770000D01*
X116378452Y-69770000D01*
X116408572Y-70075813D01*
X116497774Y-70369875D01*
X116642631Y-70640883D01*
X116837576Y-70878424D01*
X117075117Y-71073369D01*
X117346125Y-71218226D01*
X117640187Y-71307428D01*
X117869364Y-71330000D01*
X119220636Y-71330000D01*
X119449813Y-71307428D01*
X119743875Y-71218226D01*
X120014883Y-71073369D01*
X120252424Y-70878424D01*
X120447369Y-70640883D01*
X120592226Y-70369875D01*
X120681428Y-70075813D01*
X120711548Y-69770000D01*
X120681428Y-69464187D01*
X120592226Y-69170125D01*
X120447369Y-68899117D01*
X120252424Y-68661576D01*
X120014883Y-68466631D01*
X119743875Y-68321774D01*
X119449813Y-68232572D01*
X119220636Y-68210000D01*
X117869364Y-68210000D01*
X117640187Y-68232572D01*
X117346125Y-68321774D01*
X117075117Y-68466631D01*
X116837576Y-68661576D01*
X116642631Y-68899117D01*
X116497774Y-69170125D01*
X116408572Y-69464187D01*
X116378452Y-69770000D01*
X108211548Y-69770000D01*
X108181428Y-69464187D01*
X108092226Y-69170125D01*
X107947369Y-68899117D01*
X107752424Y-68661576D01*
X107514883Y-68466631D01*
X107243875Y-68321774D01*
X106949813Y-68232572D01*
X106720636Y-68210000D01*
X105369364Y-68210000D01*
X105140187Y-68232572D01*
X104846125Y-68321774D01*
X104575117Y-68466631D01*
X104337576Y-68661576D01*
X104142631Y-68899117D01*
X103997774Y-69170125D01*
X103908572Y-69464187D01*
X103878452Y-69770000D01*
X72628944Y-69770000D01*
X72672205Y-69705256D01*
X72750226Y-69516898D01*
X72790000Y-69316939D01*
X72790000Y-69113061D01*
X72750226Y-68913102D01*
X72672205Y-68724744D01*
X72558937Y-68555226D01*
X72515000Y-68511289D01*
X72515000Y-26043178D01*
X72701632Y-25918475D01*
X72908475Y-25711632D01*
X73025000Y-25537240D01*
X73141525Y-25711632D01*
X73348368Y-25918475D01*
X73535000Y-26043178D01*
X73535001Y-63104587D01*
X73358102Y-63139774D01*
X73169744Y-63217795D01*
X73000226Y-63331063D01*
X72856063Y-63475226D01*
X72742795Y-63644744D01*
X72664774Y-63833102D01*
X72625000Y-64033061D01*
X72625000Y-64236939D01*
X72664774Y-64436898D01*
X72742795Y-64625256D01*
X72856063Y-64794774D01*
X73000226Y-64938937D01*
X73169744Y-65052205D01*
X73358102Y-65130226D01*
X73558061Y-65170000D01*
X73761939Y-65170000D01*
X73961898Y-65130226D01*
X74150256Y-65052205D01*
X74319774Y-64938937D01*
X74463937Y-64794774D01*
X74480490Y-64770000D01*
X103878452Y-64770000D01*
X103908572Y-65075813D01*
X103997774Y-65369875D01*
X104142631Y-65640883D01*
X104337576Y-65878424D01*
X104575117Y-66073369D01*
X104846125Y-66218226D01*
X105140187Y-66307428D01*
X105369364Y-66330000D01*
X106720636Y-66330000D01*
X106949813Y-66307428D01*
X107243875Y-66218226D01*
X107514883Y-66073369D01*
X107752424Y-65878424D01*
X107947369Y-65640883D01*
X108092226Y-65369875D01*
X108181428Y-65075813D01*
X108211548Y-64770000D01*
X116378452Y-64770000D01*
X116408572Y-65075813D01*
X116497774Y-65369875D01*
X116642631Y-65640883D01*
X116837576Y-65878424D01*
X117075117Y-66073369D01*
X117346125Y-66218226D01*
X117640187Y-66307428D01*
X117869364Y-66330000D01*
X119220636Y-66330000D01*
X119449813Y-66307428D01*
X119743875Y-66218226D01*
X120014883Y-66073369D01*
X120252424Y-65878424D01*
X120447369Y-65640883D01*
X120592226Y-65369875D01*
X120681428Y-65075813D01*
X120711548Y-64770000D01*
X120681428Y-64464187D01*
X120592226Y-64170125D01*
X120447369Y-63899117D01*
X120252424Y-63661576D01*
X120014883Y-63466631D01*
X119743875Y-63321774D01*
X119449813Y-63232572D01*
X119220636Y-63210000D01*
X117869364Y-63210000D01*
X117640187Y-63232572D01*
X117346125Y-63321774D01*
X117075117Y-63466631D01*
X116837576Y-63661576D01*
X116642631Y-63899117D01*
X116497774Y-64170125D01*
X116408572Y-64464187D01*
X116378452Y-64770000D01*
X108211548Y-64770000D01*
X108181428Y-64464187D01*
X108092226Y-64170125D01*
X107947369Y-63899117D01*
X107752424Y-63661576D01*
X107514883Y-63466631D01*
X107243875Y-63321774D01*
X106949813Y-63232572D01*
X106934000Y-63231015D01*
X106934000Y-55165000D01*
X113603452Y-55165000D01*
X113633572Y-55470813D01*
X113722774Y-55764875D01*
X113867631Y-56035883D01*
X114062576Y-56273424D01*
X114300117Y-56468369D01*
X114571125Y-56613226D01*
X114865187Y-56702428D01*
X115094364Y-56725000D01*
X116445636Y-56725000D01*
X116674813Y-56702428D01*
X116968875Y-56613226D01*
X117239883Y-56468369D01*
X117477424Y-56273424D01*
X117672369Y-56035883D01*
X117817226Y-55764875D01*
X117906428Y-55470813D01*
X117936548Y-55165000D01*
X126103452Y-55165000D01*
X126133572Y-55470813D01*
X126222774Y-55764875D01*
X126367631Y-56035883D01*
X126562576Y-56273424D01*
X126800117Y-56468369D01*
X127071125Y-56613226D01*
X127365187Y-56702428D01*
X127594364Y-56725000D01*
X128945636Y-56725000D01*
X129174813Y-56702428D01*
X129468875Y-56613226D01*
X129739883Y-56468369D01*
X129977424Y-56273424D01*
X130172369Y-56035883D01*
X130317226Y-55764875D01*
X130406428Y-55470813D01*
X130436548Y-55165000D01*
X130406428Y-54859187D01*
X130317226Y-54565125D01*
X130172369Y-54294117D01*
X129977424Y-54056576D01*
X129739883Y-53861631D01*
X129468875Y-53716774D01*
X129174813Y-53627572D01*
X128945636Y-53605000D01*
X127594364Y-53605000D01*
X127365187Y-53627572D01*
X127071125Y-53716774D01*
X126800117Y-53861631D01*
X126562576Y-54056576D01*
X126367631Y-54294117D01*
X126222774Y-54565125D01*
X126133572Y-54859187D01*
X126103452Y-55165000D01*
X117936548Y-55165000D01*
X117906428Y-54859187D01*
X117817226Y-54565125D01*
X117672369Y-54294117D01*
X117477424Y-54056576D01*
X117239883Y-53861631D01*
X116968875Y-53716774D01*
X116674813Y-53627572D01*
X116445636Y-53605000D01*
X115094364Y-53605000D01*
X114865187Y-53627572D01*
X114571125Y-53716774D01*
X114300117Y-53861631D01*
X114062576Y-54056576D01*
X113867631Y-54294117D01*
X113722774Y-54565125D01*
X113633572Y-54859187D01*
X113603452Y-55165000D01*
X106934000Y-55165000D01*
X106934000Y-51169753D01*
X106981898Y-51160226D01*
X107170256Y-51082205D01*
X107339774Y-50968937D01*
X107483937Y-50824774D01*
X107597205Y-50655256D01*
X107675226Y-50466898D01*
X107715000Y-50266939D01*
X107715000Y-50165000D01*
X113603452Y-50165000D01*
X113633572Y-50470813D01*
X113722774Y-50764875D01*
X113867631Y-51035883D01*
X114062576Y-51273424D01*
X114300117Y-51468369D01*
X114571125Y-51613226D01*
X114865187Y-51702428D01*
X115094364Y-51725000D01*
X116445636Y-51725000D01*
X116674813Y-51702428D01*
X116968875Y-51613226D01*
X117239883Y-51468369D01*
X117477424Y-51273424D01*
X117672369Y-51035883D01*
X117817226Y-50764875D01*
X117906428Y-50470813D01*
X117936548Y-50165000D01*
X126103452Y-50165000D01*
X126133572Y-50470813D01*
X126222774Y-50764875D01*
X126367631Y-51035883D01*
X126562576Y-51273424D01*
X126800117Y-51468369D01*
X127071125Y-51613226D01*
X127365187Y-51702428D01*
X127594364Y-51725000D01*
X128945636Y-51725000D01*
X129174813Y-51702428D01*
X129468875Y-51613226D01*
X129739883Y-51468369D01*
X129977424Y-51273424D01*
X130172369Y-51035883D01*
X130317226Y-50764875D01*
X130406428Y-50470813D01*
X130436548Y-50165000D01*
X130406428Y-49859187D01*
X130317226Y-49565125D01*
X130172369Y-49294117D01*
X129977424Y-49056576D01*
X129739883Y-48861631D01*
X129468875Y-48716774D01*
X129174813Y-48627572D01*
X128945636Y-48605000D01*
X127594364Y-48605000D01*
X127365187Y-48627572D01*
X127071125Y-48716774D01*
X126800117Y-48861631D01*
X126562576Y-49056576D01*
X126367631Y-49294117D01*
X126222774Y-49565125D01*
X126133572Y-49859187D01*
X126103452Y-50165000D01*
X117936548Y-50165000D01*
X117906428Y-49859187D01*
X117817226Y-49565125D01*
X117672369Y-49294117D01*
X117477424Y-49056576D01*
X117239883Y-48861631D01*
X116968875Y-48716774D01*
X116674813Y-48627572D01*
X116445636Y-48605000D01*
X115094364Y-48605000D01*
X114865187Y-48627572D01*
X114571125Y-48716774D01*
X114300117Y-48861631D01*
X114062576Y-49056576D01*
X113867631Y-49294117D01*
X113722774Y-49565125D01*
X113633572Y-49859187D01*
X113603452Y-50165000D01*
X107715000Y-50165000D01*
X107715000Y-50063061D01*
X107675226Y-49863102D01*
X107597205Y-49674744D01*
X107483937Y-49505226D01*
X107339774Y-49361063D01*
X107170256Y-49247795D01*
X106981898Y-49169774D01*
X106934000Y-49160247D01*
X106934000Y-33575000D01*
X113603452Y-33575000D01*
X113633572Y-33880813D01*
X113722774Y-34174875D01*
X113867631Y-34445883D01*
X114062576Y-34683424D01*
X114300117Y-34878369D01*
X114571125Y-35023226D01*
X114865187Y-35112428D01*
X115094364Y-35135000D01*
X116445636Y-35135000D01*
X116674813Y-35112428D01*
X116968875Y-35023226D01*
X117239883Y-34878369D01*
X117477424Y-34683424D01*
X117672369Y-34445883D01*
X117817226Y-34174875D01*
X117906428Y-33880813D01*
X117936548Y-33575000D01*
X126103452Y-33575000D01*
X126133572Y-33880813D01*
X126222774Y-34174875D01*
X126367631Y-34445883D01*
X126562576Y-34683424D01*
X126800117Y-34878369D01*
X127071125Y-35023226D01*
X127365187Y-35112428D01*
X127594364Y-35135000D01*
X128945636Y-35135000D01*
X129174813Y-35112428D01*
X129468875Y-35023226D01*
X129739883Y-34878369D01*
X129977424Y-34683424D01*
X130172369Y-34445883D01*
X130317226Y-34174875D01*
X130406428Y-33880813D01*
X130436548Y-33575000D01*
X130406428Y-33269187D01*
X130317226Y-32975125D01*
X130172369Y-32704117D01*
X129977424Y-32466576D01*
X129739883Y-32271631D01*
X129468875Y-32126774D01*
X129174813Y-32037572D01*
X128945636Y-32015000D01*
X127594364Y-32015000D01*
X127365187Y-32037572D01*
X127071125Y-32126774D01*
X126800117Y-32271631D01*
X126562576Y-32466576D01*
X126367631Y-32704117D01*
X126222774Y-32975125D01*
X126133572Y-33269187D01*
X126103452Y-33575000D01*
X117936548Y-33575000D01*
X117906428Y-33269187D01*
X117817226Y-32975125D01*
X117672369Y-32704117D01*
X117477424Y-32466576D01*
X117239883Y-32271631D01*
X116968875Y-32126774D01*
X116674813Y-32037572D01*
X116445636Y-32015000D01*
X115094364Y-32015000D01*
X114865187Y-32037572D01*
X114571125Y-32126774D01*
X114300117Y-32271631D01*
X114062576Y-32466576D01*
X113867631Y-32704117D01*
X113722774Y-32975125D01*
X113633572Y-33269187D01*
X113603452Y-33575000D01*
X106934000Y-33575000D01*
X106934000Y-29579753D01*
X106981898Y-29570226D01*
X107170256Y-29492205D01*
X107339774Y-29378937D01*
X107483937Y-29234774D01*
X107597205Y-29065256D01*
X107675226Y-28876898D01*
X107715000Y-28676939D01*
X107715000Y-28575000D01*
X113603452Y-28575000D01*
X113633572Y-28880813D01*
X113722774Y-29174875D01*
X113867631Y-29445883D01*
X114062576Y-29683424D01*
X114300117Y-29878369D01*
X114571125Y-30023226D01*
X114865187Y-30112428D01*
X115094364Y-30135000D01*
X116445636Y-30135000D01*
X116674813Y-30112428D01*
X116968875Y-30023226D01*
X117239883Y-29878369D01*
X117477424Y-29683424D01*
X117672369Y-29445883D01*
X117817226Y-29174875D01*
X117906428Y-28880813D01*
X117936548Y-28575000D01*
X126103452Y-28575000D01*
X126133572Y-28880813D01*
X126222774Y-29174875D01*
X126367631Y-29445883D01*
X126562576Y-29683424D01*
X126800117Y-29878369D01*
X127071125Y-30023226D01*
X127365187Y-30112428D01*
X127594364Y-30135000D01*
X128945636Y-30135000D01*
X129174813Y-30112428D01*
X129468875Y-30023226D01*
X129739883Y-29878369D01*
X129977424Y-29683424D01*
X130172369Y-29445883D01*
X130317226Y-29174875D01*
X130406428Y-28880813D01*
X130436548Y-28575000D01*
X130406428Y-28269187D01*
X130317226Y-27975125D01*
X130172369Y-27704117D01*
X129977424Y-27466576D01*
X129739883Y-27271631D01*
X129468875Y-27126774D01*
X129174813Y-27037572D01*
X128945636Y-27015000D01*
X127594364Y-27015000D01*
X127365187Y-27037572D01*
X127071125Y-27126774D01*
X126800117Y-27271631D01*
X126562576Y-27466576D01*
X126367631Y-27704117D01*
X126222774Y-27975125D01*
X126133572Y-28269187D01*
X126103452Y-28575000D01*
X117936548Y-28575000D01*
X117906428Y-28269187D01*
X117817226Y-27975125D01*
X117672369Y-27704117D01*
X117477424Y-27466576D01*
X117239883Y-27271631D01*
X116968875Y-27126774D01*
X116674813Y-27037572D01*
X116445636Y-27015000D01*
X115094364Y-27015000D01*
X114865187Y-27037572D01*
X114571125Y-27126774D01*
X114300117Y-27271631D01*
X114062576Y-27466576D01*
X113867631Y-27704117D01*
X113722774Y-27975125D01*
X113633572Y-28269187D01*
X113603452Y-28575000D01*
X107715000Y-28575000D01*
X107715000Y-28473061D01*
X107675226Y-28273102D01*
X107597205Y-28084744D01*
X107483937Y-27915226D01*
X107339774Y-27771063D01*
X107170256Y-27657795D01*
X106981898Y-27579774D01*
X106934000Y-27570247D01*
X106934000Y-25443660D01*
X106938300Y-25400000D01*
X106934000Y-25356340D01*
X106934000Y-25356333D01*
X106921136Y-25225726D01*
X106912774Y-25198158D01*
X106905716Y-25174892D01*
X106870303Y-25058149D01*
X106787753Y-24903709D01*
X106676659Y-24768341D01*
X106642741Y-24740505D01*
X106415130Y-24512895D01*
X106405226Y-24463102D01*
X106327205Y-24274744D01*
X106213937Y-24105226D01*
X106069774Y-23961063D01*
X105900256Y-23847795D01*
X105711898Y-23769774D01*
X105511939Y-23730000D01*
X105308061Y-23730000D01*
X105108102Y-23769774D01*
X104919744Y-23847795D01*
X104750226Y-23961063D01*
X104606063Y-24105226D01*
X104492795Y-24274744D01*
X104414774Y-24463102D01*
X104375000Y-24663061D01*
X104375000Y-24866939D01*
X104414774Y-25066898D01*
X104492795Y-25255256D01*
X104606063Y-25424774D01*
X104750226Y-25568937D01*
X104919744Y-25682205D01*
X105108102Y-25760226D01*
X105156001Y-25769754D01*
X105156000Y-29166340D01*
X105151700Y-29210000D01*
X105156000Y-29253660D01*
X105156000Y-29253666D01*
X105156001Y-29253676D01*
X105156000Y-50756340D01*
X105151700Y-50800000D01*
X105156000Y-50843660D01*
X105156000Y-50843666D01*
X105156001Y-50843676D01*
X105156000Y-63231015D01*
X105140187Y-63232572D01*
X104846125Y-63321774D01*
X104575117Y-63466631D01*
X104337576Y-63661576D01*
X104142631Y-63899117D01*
X103997774Y-64170125D01*
X103908572Y-64464187D01*
X103878452Y-64770000D01*
X74480490Y-64770000D01*
X74577205Y-64625256D01*
X74655226Y-64436898D01*
X74695000Y-64236939D01*
X74695000Y-64174802D01*
X74806002Y-64063800D01*
X74835001Y-64040001D01*
X74929974Y-63924276D01*
X75000546Y-63792247D01*
X75044003Y-63648986D01*
X75055000Y-63537333D01*
X75058677Y-63500000D01*
X75055000Y-63462667D01*
X75055000Y-26043178D01*
X75241632Y-25918475D01*
X75448475Y-25711632D01*
X75565000Y-25537240D01*
X75681525Y-25711632D01*
X75888368Y-25918475D01*
X76075000Y-26043178D01*
X76075001Y-60564587D01*
X75898102Y-60599774D01*
X75709744Y-60677795D01*
X75540226Y-60791063D01*
X75396063Y-60935226D01*
X75282795Y-61104744D01*
X75204774Y-61293102D01*
X75165000Y-61493061D01*
X75165000Y-61696939D01*
X75204774Y-61896898D01*
X75282795Y-62085256D01*
X75396063Y-62254774D01*
X75540226Y-62398937D01*
X75709744Y-62512205D01*
X75898102Y-62590226D01*
X76098061Y-62630000D01*
X76301939Y-62630000D01*
X76501898Y-62590226D01*
X76690256Y-62512205D01*
X76859774Y-62398937D01*
X77003937Y-62254774D01*
X77117205Y-62085256D01*
X77195226Y-61896898D01*
X77235000Y-61696939D01*
X77235000Y-61634802D01*
X77346002Y-61523800D01*
X77375001Y-61500001D01*
X77469974Y-61384276D01*
X77540546Y-61252247D01*
X77584003Y-61108986D01*
X77595000Y-60997333D01*
X77598677Y-60960000D01*
X77595000Y-60922667D01*
X77595000Y-26043178D01*
X77781632Y-25918475D01*
X77988475Y-25711632D01*
X78105000Y-25537240D01*
X78221525Y-25711632D01*
X78428368Y-25918475D01*
X78615000Y-26043178D01*
X78615001Y-58024587D01*
X78438102Y-58059774D01*
X78249744Y-58137795D01*
X78080226Y-58251063D01*
X77936063Y-58395226D01*
X77822795Y-58564744D01*
X77744774Y-58753102D01*
X77705000Y-58953061D01*
X77705000Y-59156939D01*
X77744774Y-59356898D01*
X77822795Y-59545256D01*
X77936063Y-59714774D01*
X78080226Y-59858937D01*
X78249744Y-59972205D01*
X78438102Y-60050226D01*
X78638061Y-60090000D01*
X78841939Y-60090000D01*
X79041898Y-60050226D01*
X79230256Y-59972205D01*
X79399774Y-59858937D01*
X79543937Y-59714774D01*
X79657205Y-59545256D01*
X79735226Y-59356898D01*
X79775000Y-59156939D01*
X79775000Y-59094802D01*
X79886002Y-58983800D01*
X79915001Y-58960001D01*
X80009974Y-58844276D01*
X80080546Y-58712247D01*
X80124003Y-58568986D01*
X80135000Y-58457333D01*
X80138677Y-58420000D01*
X80135000Y-58382667D01*
X80135000Y-26043178D01*
X80321632Y-25918475D01*
X80528475Y-25711632D01*
X80645000Y-25537240D01*
X80761525Y-25711632D01*
X80968368Y-25918475D01*
X81155000Y-26043178D01*
X81155001Y-55484587D01*
X80978102Y-55519774D01*
X80789744Y-55597795D01*
X80620226Y-55711063D01*
X80476063Y-55855226D01*
X80362795Y-56024744D01*
X80284774Y-56213102D01*
X80245000Y-56413061D01*
X80245000Y-56616939D01*
X80284774Y-56816898D01*
X80362795Y-57005256D01*
X80476063Y-57174774D01*
X80620226Y-57318937D01*
X80789744Y-57432205D01*
X80978102Y-57510226D01*
X81178061Y-57550000D01*
X81381939Y-57550000D01*
X81581898Y-57510226D01*
X81770256Y-57432205D01*
X81939774Y-57318937D01*
X82083937Y-57174774D01*
X82197205Y-57005256D01*
X82275226Y-56816898D01*
X82315000Y-56616939D01*
X82315000Y-56554802D01*
X82426002Y-56443800D01*
X82455001Y-56420001D01*
X82549974Y-56304276D01*
X82620546Y-56172247D01*
X82664003Y-56028986D01*
X82675000Y-55917333D01*
X82678677Y-55880000D01*
X82675000Y-55842667D01*
X82675000Y-26043178D01*
X82861632Y-25918475D01*
X83068475Y-25711632D01*
X83185000Y-25537240D01*
X83301525Y-25711632D01*
X83508368Y-25918475D01*
X83695000Y-26043178D01*
X83695001Y-52309587D01*
X83518102Y-52344774D01*
X83329744Y-52422795D01*
X83160226Y-52536063D01*
X83016063Y-52680226D01*
X82902795Y-52849744D01*
X82824774Y-53038102D01*
X82785000Y-53238061D01*
X82785000Y-53441939D01*
X82824774Y-53641898D01*
X82902795Y-53830256D01*
X83016063Y-53999774D01*
X83160226Y-54143937D01*
X83329744Y-54257205D01*
X83518102Y-54335226D01*
X83718061Y-54375000D01*
X83921939Y-54375000D01*
X84121898Y-54335226D01*
X84310256Y-54257205D01*
X84479774Y-54143937D01*
X84623937Y-53999774D01*
X84737205Y-53830256D01*
X84815226Y-53641898D01*
X84855000Y-53441939D01*
X84855000Y-53379802D01*
X84966002Y-53268800D01*
X84995001Y-53245001D01*
X85089974Y-53129276D01*
X85160546Y-52997247D01*
X85204003Y-52853986D01*
X85215000Y-52742333D01*
X85218677Y-52705000D01*
X85215000Y-52667667D01*
X85215000Y-26043178D01*
X85401632Y-25918475D01*
X85608475Y-25711632D01*
X85725000Y-25537240D01*
X85841525Y-25711632D01*
X86048368Y-25918475D01*
X86235000Y-26043178D01*
X86235001Y-50404587D01*
X86058102Y-50439774D01*
X85869744Y-50517795D01*
X85700226Y-50631063D01*
X85556063Y-50775226D01*
X85442795Y-50944744D01*
X85364774Y-51133102D01*
X85325000Y-51333061D01*
X85325000Y-51536939D01*
X85364774Y-51736898D01*
X85442795Y-51925256D01*
X85556063Y-52094774D01*
X85700226Y-52238937D01*
X85869744Y-52352205D01*
X86058102Y-52430226D01*
X86258061Y-52470000D01*
X86461939Y-52470000D01*
X86661898Y-52430226D01*
X86850256Y-52352205D01*
X87019774Y-52238937D01*
X87163937Y-52094774D01*
X87277205Y-51925256D01*
X87355226Y-51736898D01*
X87395000Y-51536939D01*
X87395000Y-51474802D01*
X87506002Y-51363800D01*
X87535001Y-51340001D01*
X87629974Y-51224276D01*
X87700546Y-51092247D01*
X87744003Y-50948986D01*
X87755000Y-50837333D01*
X87758677Y-50800000D01*
X87755000Y-50762667D01*
X87755000Y-26043178D01*
X87941632Y-25918475D01*
X88148475Y-25711632D01*
X88265000Y-25537240D01*
X88381525Y-25711632D01*
X88588368Y-25918475D01*
X88775000Y-26043178D01*
X88775001Y-47864587D01*
X88598102Y-47899774D01*
X88409744Y-47977795D01*
X88240226Y-48091063D01*
X88096063Y-48235226D01*
X87982795Y-48404744D01*
X87904774Y-48593102D01*
X87865000Y-48793061D01*
X87865000Y-48996939D01*
X87904774Y-49196898D01*
X87982795Y-49385256D01*
X88096063Y-49554774D01*
X88240226Y-49698937D01*
X88409744Y-49812205D01*
X88598102Y-49890226D01*
X88798061Y-49930000D01*
X89001939Y-49930000D01*
X89201898Y-49890226D01*
X89390256Y-49812205D01*
X89559774Y-49698937D01*
X89703937Y-49554774D01*
X89817205Y-49385256D01*
X89895226Y-49196898D01*
X89935000Y-48996939D01*
X89935000Y-48934802D01*
X90046002Y-48823800D01*
X90075001Y-48800001D01*
X90169974Y-48684276D01*
X90240546Y-48552247D01*
X90284003Y-48408986D01*
X90295000Y-48297333D01*
X90298677Y-48260000D01*
X90295000Y-48222667D01*
X90295000Y-43644117D01*
X96760000Y-43644117D01*
X96760000Y-43985883D01*
X96826675Y-44321081D01*
X96957463Y-44636831D01*
X97147337Y-44920998D01*
X97389002Y-45162663D01*
X97673169Y-45352537D01*
X97988919Y-45483325D01*
X98324117Y-45550000D01*
X98665883Y-45550000D01*
X99001081Y-45483325D01*
X99316831Y-45352537D01*
X99600998Y-45162663D01*
X99842663Y-44920998D01*
X100032537Y-44636831D01*
X100163325Y-44321081D01*
X100230000Y-43985883D01*
X100230000Y-43644117D01*
X100163325Y-43308919D01*
X100032537Y-42993169D01*
X99842663Y-42709002D01*
X99600998Y-42467337D01*
X99316831Y-42277463D01*
X99001081Y-42146675D01*
X98665883Y-42080000D01*
X98324117Y-42080000D01*
X97988919Y-42146675D01*
X97673169Y-42277463D01*
X97389002Y-42467337D01*
X97147337Y-42709002D01*
X96957463Y-42993169D01*
X96826675Y-43308919D01*
X96760000Y-43644117D01*
X90295000Y-43644117D01*
X90295000Y-26043178D01*
X90481632Y-25918475D01*
X90613487Y-25786620D01*
X90635498Y-25859180D01*
X90694463Y-25969494D01*
X90773815Y-26066185D01*
X90870506Y-26145537D01*
X90980820Y-26204502D01*
X91100518Y-26240812D01*
X91225000Y-26253072D01*
X92925000Y-26253072D01*
X93049482Y-26240812D01*
X93169180Y-26204502D01*
X93279494Y-26145537D01*
X93376185Y-26066185D01*
X93455537Y-25969494D01*
X93514502Y-25859180D01*
X93550812Y-25739482D01*
X93563072Y-25615000D01*
X93563072Y-23915000D01*
X93550812Y-23790518D01*
X93514502Y-23670820D01*
X93455537Y-23560506D01*
X93376185Y-23463815D01*
X93279494Y-23384463D01*
X93169180Y-23325498D01*
X93049482Y-23289188D01*
X92925000Y-23276928D01*
X91225000Y-23276928D01*
X91100518Y-23289188D01*
X90980820Y-23325498D01*
X90870506Y-23384463D01*
X90773815Y-23463815D01*
X90694463Y-23560506D01*
X90635498Y-23670820D01*
X90613487Y-23743380D01*
X90481632Y-23611525D01*
X90238411Y-23449010D01*
X89968158Y-23337068D01*
X89681260Y-23280000D01*
X89388740Y-23280000D01*
X89101842Y-23337068D01*
X88831589Y-23449010D01*
X88588368Y-23611525D01*
X88381525Y-23818368D01*
X88265000Y-23992760D01*
X88148475Y-23818368D01*
X87941632Y-23611525D01*
X87698411Y-23449010D01*
X87428158Y-23337068D01*
X87141260Y-23280000D01*
X86848740Y-23280000D01*
X86561842Y-23337068D01*
X86291589Y-23449010D01*
X86048368Y-23611525D01*
X85841525Y-23818368D01*
X85725000Y-23992760D01*
X85608475Y-23818368D01*
X85401632Y-23611525D01*
X85158411Y-23449010D01*
X84888158Y-23337068D01*
X84601260Y-23280000D01*
X84308740Y-23280000D01*
X84021842Y-23337068D01*
X83751589Y-23449010D01*
X83508368Y-23611525D01*
X83301525Y-23818368D01*
X83185000Y-23992760D01*
X83068475Y-23818368D01*
X82861632Y-23611525D01*
X82618411Y-23449010D01*
X82348158Y-23337068D01*
X82061260Y-23280000D01*
X81768740Y-23280000D01*
X81481842Y-23337068D01*
X81211589Y-23449010D01*
X80968368Y-23611525D01*
X80761525Y-23818368D01*
X80645000Y-23992760D01*
X80528475Y-23818368D01*
X80321632Y-23611525D01*
X80078411Y-23449010D01*
X79808158Y-23337068D01*
X79521260Y-23280000D01*
X79228740Y-23280000D01*
X78941842Y-23337068D01*
X78671589Y-23449010D01*
X78428368Y-23611525D01*
X78221525Y-23818368D01*
X78105000Y-23992760D01*
X77988475Y-23818368D01*
X77781632Y-23611525D01*
X77538411Y-23449010D01*
X77268158Y-23337068D01*
X76981260Y-23280000D01*
X76688740Y-23280000D01*
X76401842Y-23337068D01*
X76131589Y-23449010D01*
X75888368Y-23611525D01*
X75681525Y-23818368D01*
X75565000Y-23992760D01*
X75448475Y-23818368D01*
X75241632Y-23611525D01*
X74998411Y-23449010D01*
X74728158Y-23337068D01*
X74441260Y-23280000D01*
X74148740Y-23280000D01*
X73861842Y-23337068D01*
X73591589Y-23449010D01*
X73348368Y-23611525D01*
X73141525Y-23818368D01*
X73025000Y-23992760D01*
X72908475Y-23818368D01*
X72701632Y-23611525D01*
X72458411Y-23449010D01*
X72188158Y-23337068D01*
X71901260Y-23280000D01*
X71608740Y-23280000D01*
X71321842Y-23337068D01*
X71051589Y-23449010D01*
X70808368Y-23611525D01*
X70601525Y-23818368D01*
X70485000Y-23992760D01*
X70368475Y-23818368D01*
X70161632Y-23611525D01*
X69918411Y-23449010D01*
X69648158Y-23337068D01*
X69361260Y-23280000D01*
X69068740Y-23280000D01*
X68781842Y-23337068D01*
X68511589Y-23449010D01*
X68268368Y-23611525D01*
X68061525Y-23818368D01*
X67945000Y-23992760D01*
X67828475Y-23818368D01*
X67621632Y-23611525D01*
X67378411Y-23449010D01*
X67108158Y-23337068D01*
X66821260Y-23280000D01*
X66528740Y-23280000D01*
X66241842Y-23337068D01*
X65971589Y-23449010D01*
X65728368Y-23611525D01*
X65521525Y-23818368D01*
X65405000Y-23992760D01*
X65288475Y-23818368D01*
X65081632Y-23611525D01*
X64838411Y-23449010D01*
X64568158Y-23337068D01*
X64281260Y-23280000D01*
X63988740Y-23280000D01*
X63701842Y-23337068D01*
X63431589Y-23449010D01*
X63188368Y-23611525D01*
X62981525Y-23818368D01*
X62865000Y-23992760D01*
X62748475Y-23818368D01*
X62541632Y-23611525D01*
X62298411Y-23449010D01*
X62028158Y-23337068D01*
X61741260Y-23280000D01*
X61448740Y-23280000D01*
X61161842Y-23337068D01*
X60891589Y-23449010D01*
X60648368Y-23611525D01*
X60441525Y-23818368D01*
X60325000Y-23992760D01*
X60208475Y-23818368D01*
X60001632Y-23611525D01*
X59758411Y-23449010D01*
X59488158Y-23337068D01*
X59201260Y-23280000D01*
X58908740Y-23280000D01*
X58621842Y-23337068D01*
X58351589Y-23449010D01*
X58108368Y-23611525D01*
X57901525Y-23818368D01*
X57779805Y-24000534D01*
X57710178Y-23883645D01*
X57515269Y-23667412D01*
X57281920Y-23493359D01*
X57019099Y-23368175D01*
X56871890Y-23323524D01*
X56642000Y-23444845D01*
X56388000Y-23444845D01*
X56158110Y-23323524D01*
X56010901Y-23368175D01*
X55748080Y-23493359D01*
X55514731Y-23667412D01*
X55319822Y-23883645D01*
X55170843Y-24133748D01*
X55073519Y-24408109D01*
X14655000Y-24408109D01*
X14655000Y-22910000D01*
X133935000Y-22910000D01*
X133935001Y-78690000D01*
%TA.AperFunction,Conductor*%
D20*
G36*
X133935001Y-78690000D02*
G01*
X14655000Y-78690000D01*
X14655000Y-71604899D01*
X25146000Y-71604899D01*
X25146000Y-71905101D01*
X25204566Y-72199534D01*
X25319449Y-72476885D01*
X25486232Y-72726493D01*
X25698507Y-72938768D01*
X25948115Y-73105551D01*
X26225466Y-73220434D01*
X26519899Y-73279000D01*
X26820101Y-73279000D01*
X27114534Y-73220434D01*
X27391885Y-73105551D01*
X27641493Y-72938768D01*
X27853768Y-72726493D01*
X27940000Y-72597438D01*
X28026232Y-72726493D01*
X28238507Y-72938768D01*
X28488115Y-73105551D01*
X28765466Y-73220434D01*
X29059899Y-73279000D01*
X29360101Y-73279000D01*
X29654534Y-73220434D01*
X29931885Y-73105551D01*
X30181493Y-72938768D01*
X30309030Y-72811231D01*
X30873374Y-72811231D01*
X30955727Y-73064289D01*
X31226418Y-73194086D01*
X31517230Y-73268580D01*
X31816988Y-73284908D01*
X32114171Y-73242443D01*
X32397359Y-73142816D01*
X32544273Y-73064289D01*
X32626626Y-72811231D01*
X31750000Y-71934605D01*
X30873374Y-72811231D01*
X30309030Y-72811231D01*
X30393768Y-72726493D01*
X30499417Y-72568378D01*
X30693769Y-72631626D01*
X31570395Y-71755000D01*
X31929605Y-71755000D01*
X32806231Y-72631626D01*
X33059289Y-72549273D01*
X33189086Y-72278582D01*
X33263580Y-71987770D01*
X33279908Y-71688012D01*
X33265063Y-71584117D01*
X45890000Y-71584117D01*
X45890000Y-71925883D01*
X45956675Y-72261081D01*
X46087463Y-72576831D01*
X46277337Y-72860998D01*
X46519002Y-73102663D01*
X46803169Y-73292537D01*
X47118919Y-73423325D01*
X47454117Y-73490000D01*
X47795883Y-73490000D01*
X48131081Y-73423325D01*
X48446831Y-73292537D01*
X48730998Y-73102663D01*
X48972663Y-72860998D01*
X49162537Y-72576831D01*
X49293325Y-72261081D01*
X49360000Y-71925883D01*
X49360000Y-71584117D01*
X96760000Y-71584117D01*
X96760000Y-71925883D01*
X96826675Y-72261081D01*
X96957463Y-72576831D01*
X97147337Y-72860998D01*
X97389002Y-73102663D01*
X97673169Y-73292537D01*
X97988919Y-73423325D01*
X98324117Y-73490000D01*
X98665883Y-73490000D01*
X99001081Y-73423325D01*
X99316831Y-73292537D01*
X99600998Y-73102663D01*
X99842663Y-72860998D01*
X100032537Y-72576831D01*
X100163325Y-72261081D01*
X100230000Y-71925883D01*
X100230000Y-71584117D01*
X100163325Y-71248919D01*
X100032537Y-70933169D01*
X99842663Y-70649002D01*
X99600998Y-70407337D01*
X99316831Y-70217463D01*
X99001081Y-70086675D01*
X98665883Y-70020000D01*
X98324117Y-70020000D01*
X97988919Y-70086675D01*
X97673169Y-70217463D01*
X97389002Y-70407337D01*
X97147337Y-70649002D01*
X96957463Y-70933169D01*
X96826675Y-71248919D01*
X96760000Y-71584117D01*
X49360000Y-71584117D01*
X49293325Y-71248919D01*
X49162537Y-70933169D01*
X48972663Y-70649002D01*
X48730998Y-70407337D01*
X48446831Y-70217463D01*
X48405448Y-70200322D01*
X48410960Y-70180565D01*
X47625000Y-69394605D01*
X46839040Y-70180565D01*
X46844552Y-70200322D01*
X46803169Y-70217463D01*
X46519002Y-70407337D01*
X46277337Y-70649002D01*
X46087463Y-70933169D01*
X45956675Y-71248919D01*
X45890000Y-71584117D01*
X33265063Y-71584117D01*
X33237443Y-71390829D01*
X33137816Y-71107641D01*
X33059289Y-70960727D01*
X32806231Y-70878374D01*
X31929605Y-71755000D01*
X31570395Y-71755000D01*
X30693769Y-70878374D01*
X30499417Y-70941622D01*
X30393768Y-70783507D01*
X30309030Y-70698769D01*
X30873374Y-70698769D01*
X31750000Y-71575395D01*
X32626626Y-70698769D01*
X32544273Y-70445711D01*
X32273582Y-70315914D01*
X31982770Y-70241420D01*
X31683012Y-70225092D01*
X31385829Y-70267557D01*
X31102641Y-70367184D01*
X30955727Y-70445711D01*
X30873374Y-70698769D01*
X30309030Y-70698769D01*
X30181493Y-70571232D01*
X29970000Y-70429917D01*
X29970000Y-68087382D01*
X35052000Y-68087382D01*
X35052000Y-68437618D01*
X35120328Y-68781123D01*
X35254357Y-69104699D01*
X35448937Y-69395909D01*
X35696591Y-69643563D01*
X35987801Y-69838143D01*
X36311377Y-69972172D01*
X36654882Y-70040500D01*
X37005118Y-70040500D01*
X37348623Y-69972172D01*
X37672199Y-69838143D01*
X37963409Y-69643563D01*
X38211063Y-69395909D01*
X38283822Y-69287017D01*
X46223090Y-69287017D01*
X46264078Y-69559133D01*
X46357364Y-69818023D01*
X46419344Y-69933980D01*
X46659435Y-70000960D01*
X47445395Y-69215000D01*
X47804605Y-69215000D01*
X48590565Y-70000960D01*
X48830656Y-69933980D01*
X48947756Y-69684952D01*
X49014023Y-69417865D01*
X49026910Y-69142983D01*
X48985922Y-68870867D01*
X48892636Y-68611977D01*
X48830656Y-68496020D01*
X48590565Y-68429040D01*
X47804605Y-69215000D01*
X47445395Y-69215000D01*
X46659435Y-68429040D01*
X46419344Y-68496020D01*
X46302244Y-68745048D01*
X46235977Y-69012135D01*
X46223090Y-69287017D01*
X38283822Y-69287017D01*
X38405643Y-69104699D01*
X38539672Y-68781123D01*
X38608000Y-68437618D01*
X38608000Y-68087382D01*
X38539672Y-67743877D01*
X38405643Y-67420301D01*
X38211063Y-67129091D01*
X37963409Y-66881437D01*
X37672199Y-66686857D01*
X37348623Y-66552828D01*
X37005118Y-66484500D01*
X36654882Y-66484500D01*
X36311377Y-66552828D01*
X35987801Y-66686857D01*
X35696591Y-66881437D01*
X35448937Y-67129091D01*
X35254357Y-67420301D01*
X35120328Y-67743877D01*
X35052000Y-68087382D01*
X29970000Y-68087382D01*
X29970000Y-53824899D01*
X30861000Y-53824899D01*
X30861000Y-54125101D01*
X30919566Y-54419534D01*
X31034449Y-54696885D01*
X31201232Y-54946493D01*
X31413507Y-55158768D01*
X31663115Y-55325551D01*
X31940466Y-55440434D01*
X32234899Y-55499000D01*
X32535101Y-55499000D01*
X32829534Y-55440434D01*
X33106885Y-55325551D01*
X33356493Y-55158768D01*
X33568768Y-54946493D01*
X33698469Y-54752382D01*
X35052000Y-54752382D01*
X35052000Y-55102618D01*
X35120328Y-55446123D01*
X35254357Y-55769699D01*
X35448937Y-56060909D01*
X35696591Y-56308563D01*
X35987801Y-56503143D01*
X36311377Y-56637172D01*
X36654882Y-56705500D01*
X37005118Y-56705500D01*
X37348623Y-56637172D01*
X37672199Y-56503143D01*
X37963409Y-56308563D01*
X38211063Y-56060909D01*
X38405643Y-55769699D01*
X38539672Y-55446123D01*
X38608000Y-55102618D01*
X38608000Y-54752382D01*
X38539672Y-54408877D01*
X38405643Y-54085301D01*
X38211063Y-53794091D01*
X37963409Y-53546437D01*
X37672199Y-53351857D01*
X37348623Y-53217828D01*
X37005118Y-53149500D01*
X36654882Y-53149500D01*
X36311377Y-53217828D01*
X35987801Y-53351857D01*
X35696591Y-53546437D01*
X35448937Y-53794091D01*
X35254357Y-54085301D01*
X35120328Y-54408877D01*
X35052000Y-54752382D01*
X33698469Y-54752382D01*
X33735551Y-54696885D01*
X33850434Y-54419534D01*
X33909000Y-54125101D01*
X33909000Y-53824899D01*
X33850434Y-53530466D01*
X33735551Y-53253115D01*
X33568768Y-53003507D01*
X33356493Y-52791232D01*
X33106885Y-52624449D01*
X32829534Y-52509566D01*
X32535101Y-52451000D01*
X32234899Y-52451000D01*
X31940466Y-52509566D01*
X31663115Y-52624449D01*
X31413507Y-52791232D01*
X31201232Y-53003507D01*
X31034449Y-53253115D01*
X30919566Y-53530466D01*
X30861000Y-53824899D01*
X29970000Y-53824899D01*
X29970000Y-48744899D01*
X30861000Y-48744899D01*
X30861000Y-49045101D01*
X30919566Y-49339534D01*
X31034449Y-49616885D01*
X31201232Y-49866493D01*
X31413507Y-50078768D01*
X31663115Y-50245551D01*
X31940466Y-50360434D01*
X32234899Y-50419000D01*
X32535101Y-50419000D01*
X32829534Y-50360434D01*
X33106885Y-50245551D01*
X33356493Y-50078768D01*
X33568768Y-49866493D01*
X33735551Y-49616885D01*
X33850434Y-49339534D01*
X33909000Y-49045101D01*
X33909000Y-48744899D01*
X33850434Y-48450466D01*
X33735551Y-48173115D01*
X33568768Y-47923507D01*
X33356493Y-47711232D01*
X33106885Y-47544449D01*
X32829534Y-47429566D01*
X32535101Y-47371000D01*
X32234899Y-47371000D01*
X31940466Y-47429566D01*
X31663115Y-47544449D01*
X31413507Y-47711232D01*
X31201232Y-47923507D01*
X31034449Y-48173115D01*
X30919566Y-48450466D01*
X30861000Y-48744899D01*
X29970000Y-48744899D01*
X29970000Y-39130413D01*
X30146898Y-39095226D01*
X30335256Y-39017205D01*
X30504774Y-38903937D01*
X30648937Y-38759774D01*
X30762205Y-38590256D01*
X30840226Y-38401898D01*
X30880000Y-38201939D01*
X30880000Y-37998061D01*
X30840226Y-37798102D01*
X30762205Y-37609744D01*
X30648937Y-37440226D01*
X30504774Y-37296063D01*
X30335256Y-37182795D01*
X30146898Y-37104774D01*
X29946939Y-37065000D01*
X29743061Y-37065000D01*
X29543102Y-37104774D01*
X29354744Y-37182795D01*
X29185226Y-37296063D01*
X29041063Y-37440226D01*
X28927795Y-37609744D01*
X28849774Y-37798102D01*
X28810000Y-37998061D01*
X28810000Y-38060199D01*
X28698998Y-38171201D01*
X28670000Y-38194999D01*
X28646202Y-38223997D01*
X28646201Y-38223998D01*
X28575026Y-38310724D01*
X28504454Y-38442754D01*
X28460998Y-38586015D01*
X28446324Y-38735000D01*
X28450001Y-38772333D01*
X28450000Y-70429917D01*
X28238507Y-70571232D01*
X28026232Y-70783507D01*
X27940000Y-70912562D01*
X27853768Y-70783507D01*
X27641493Y-70571232D01*
X27559000Y-70516112D01*
X27559000Y-65302468D01*
X27587205Y-65260256D01*
X27665226Y-65071898D01*
X27705000Y-64871939D01*
X27705000Y-64668061D01*
X27665226Y-64468102D01*
X27587205Y-64279744D01*
X27559000Y-64237532D01*
X27559000Y-58952468D01*
X27587205Y-58910256D01*
X27665226Y-58721898D01*
X27705000Y-58521939D01*
X27705000Y-58318061D01*
X27665226Y-58118102D01*
X27587205Y-57929744D01*
X27473937Y-57760226D01*
X27329774Y-57616063D01*
X27160256Y-57502795D01*
X26971898Y-57424774D01*
X26771939Y-57385000D01*
X26568061Y-57385000D01*
X26368102Y-57424774D01*
X26179744Y-57502795D01*
X26010226Y-57616063D01*
X25866063Y-57760226D01*
X25752795Y-57929744D01*
X25674774Y-58118102D01*
X25635000Y-58318061D01*
X25635000Y-58521939D01*
X25674774Y-58721898D01*
X25752795Y-58910256D01*
X25781001Y-58952469D01*
X25781000Y-64237532D01*
X25752795Y-64279744D01*
X25674774Y-64468102D01*
X25635000Y-64668061D01*
X25635000Y-64871939D01*
X25674774Y-65071898D01*
X25752795Y-65260256D01*
X25781000Y-65302468D01*
X25781001Y-70516111D01*
X25698507Y-70571232D01*
X25486232Y-70783507D01*
X25319449Y-71033115D01*
X25204566Y-71310466D01*
X25146000Y-71604899D01*
X14655000Y-71604899D01*
X14655000Y-68087382D01*
X19812000Y-68087382D01*
X19812000Y-68437618D01*
X19880328Y-68781123D01*
X20014357Y-69104699D01*
X20208937Y-69395909D01*
X20456591Y-69643563D01*
X20747801Y-69838143D01*
X21071377Y-69972172D01*
X21414882Y-70040500D01*
X21765118Y-70040500D01*
X22108623Y-69972172D01*
X22432199Y-69838143D01*
X22723409Y-69643563D01*
X22971063Y-69395909D01*
X23165643Y-69104699D01*
X23299672Y-68781123D01*
X23368000Y-68437618D01*
X23368000Y-68087382D01*
X23299672Y-67743877D01*
X23165643Y-67420301D01*
X22971063Y-67129091D01*
X22723409Y-66881437D01*
X22432199Y-66686857D01*
X22108623Y-66552828D01*
X21765118Y-66484500D01*
X21414882Y-66484500D01*
X21071377Y-66552828D01*
X20747801Y-66686857D01*
X20456591Y-66881437D01*
X20208937Y-67129091D01*
X20014357Y-67420301D01*
X19880328Y-67743877D01*
X19812000Y-68087382D01*
X14655000Y-68087382D01*
X14655000Y-65191231D01*
X18173374Y-65191231D01*
X18255727Y-65444289D01*
X18526418Y-65574086D01*
X18817230Y-65648580D01*
X19116988Y-65664908D01*
X19414171Y-65622443D01*
X19697359Y-65522816D01*
X19844273Y-65444289D01*
X19926626Y-65191231D01*
X19050000Y-64314605D01*
X18173374Y-65191231D01*
X14655000Y-65191231D01*
X14655000Y-64201988D01*
X17520092Y-64201988D01*
X17562557Y-64499171D01*
X17662184Y-64782359D01*
X17740711Y-64929273D01*
X17993769Y-65011626D01*
X18870395Y-64135000D01*
X19229605Y-64135000D01*
X20106231Y-65011626D01*
X20359289Y-64929273D01*
X20489086Y-64658582D01*
X20563580Y-64367770D01*
X20579908Y-64068012D01*
X20537443Y-63770829D01*
X20437816Y-63487641D01*
X20359289Y-63340727D01*
X20106231Y-63258374D01*
X19229605Y-64135000D01*
X18870395Y-64135000D01*
X17993769Y-63258374D01*
X17740711Y-63340727D01*
X17610914Y-63611418D01*
X17536420Y-63902230D01*
X17520092Y-64201988D01*
X14655000Y-64201988D01*
X14655000Y-58904899D01*
X17526000Y-58904899D01*
X17526000Y-59205101D01*
X17584566Y-59499534D01*
X17699449Y-59776885D01*
X17866232Y-60026493D01*
X18078507Y-60238768D01*
X18207562Y-60325000D01*
X18078507Y-60411232D01*
X17866232Y-60623507D01*
X17699449Y-60873115D01*
X17584566Y-61150466D01*
X17526000Y-61444899D01*
X17526000Y-61745101D01*
X17584566Y-62039534D01*
X17699449Y-62316885D01*
X17866232Y-62566493D01*
X18078507Y-62778768D01*
X18236622Y-62884417D01*
X18173374Y-63078769D01*
X19050000Y-63955395D01*
X19926626Y-63078769D01*
X19863378Y-62884417D01*
X20021493Y-62778768D01*
X20233768Y-62566493D01*
X20400551Y-62316885D01*
X20515434Y-62039534D01*
X20574000Y-61745101D01*
X20574000Y-61444899D01*
X20515434Y-61150466D01*
X20400551Y-60873115D01*
X20233768Y-60623507D01*
X20021493Y-60411232D01*
X19892438Y-60325000D01*
X20021493Y-60238768D01*
X20233768Y-60026493D01*
X20400551Y-59776885D01*
X20515434Y-59499534D01*
X20574000Y-59205101D01*
X20574000Y-58904899D01*
X20515434Y-58610466D01*
X20400551Y-58333115D01*
X20233768Y-58083507D01*
X20021493Y-57871232D01*
X19939000Y-57816112D01*
X19939000Y-55587770D01*
X20014357Y-55769699D01*
X20208937Y-56060909D01*
X20456591Y-56308563D01*
X20747801Y-56503143D01*
X21071377Y-56637172D01*
X21414882Y-56705500D01*
X21765118Y-56705500D01*
X22108623Y-56637172D01*
X22432199Y-56503143D01*
X22723409Y-56308563D01*
X22971063Y-56060909D01*
X23165643Y-55769699D01*
X23299672Y-55446123D01*
X23368000Y-55102618D01*
X23368000Y-54752382D01*
X23299672Y-54408877D01*
X23165643Y-54085301D01*
X22991649Y-53824899D01*
X24511000Y-53824899D01*
X24511000Y-54125101D01*
X24569566Y-54419534D01*
X24684449Y-54696885D01*
X24851232Y-54946493D01*
X25063507Y-55158768D01*
X25313115Y-55325551D01*
X25590466Y-55440434D01*
X25884899Y-55499000D01*
X26185101Y-55499000D01*
X26479534Y-55440434D01*
X26756885Y-55325551D01*
X27006493Y-55158768D01*
X27218768Y-54946493D01*
X27385551Y-54696885D01*
X27500434Y-54419534D01*
X27559000Y-54125101D01*
X27559000Y-53824899D01*
X27500434Y-53530466D01*
X27385551Y-53253115D01*
X27218768Y-53003507D01*
X27006493Y-52791232D01*
X26756885Y-52624449D01*
X26479534Y-52509566D01*
X26185101Y-52451000D01*
X25884899Y-52451000D01*
X25590466Y-52509566D01*
X25313115Y-52624449D01*
X25063507Y-52791232D01*
X24851232Y-53003507D01*
X24684449Y-53253115D01*
X24569566Y-53530466D01*
X24511000Y-53824899D01*
X22991649Y-53824899D01*
X22971063Y-53794091D01*
X22723409Y-53546437D01*
X22432199Y-53351857D01*
X22108623Y-53217828D01*
X21765118Y-53149500D01*
X21414882Y-53149500D01*
X21071377Y-53217828D01*
X20747801Y-53351857D01*
X20456591Y-53546437D01*
X20208937Y-53794091D01*
X20014357Y-54085301D01*
X19939000Y-54267230D01*
X19939000Y-48744899D01*
X24511000Y-48744899D01*
X24511000Y-49045101D01*
X24569566Y-49339534D01*
X24684449Y-49616885D01*
X24851232Y-49866493D01*
X25063507Y-50078768D01*
X25313115Y-50245551D01*
X25590466Y-50360434D01*
X25884899Y-50419000D01*
X26185101Y-50419000D01*
X26479534Y-50360434D01*
X26756885Y-50245551D01*
X27006493Y-50078768D01*
X27218768Y-49866493D01*
X27385551Y-49616885D01*
X27500434Y-49339534D01*
X27559000Y-49045101D01*
X27559000Y-48744899D01*
X27500434Y-48450466D01*
X27385551Y-48173115D01*
X27218768Y-47923507D01*
X27006493Y-47711232D01*
X26756885Y-47544449D01*
X26479534Y-47429566D01*
X26185101Y-47371000D01*
X25884899Y-47371000D01*
X25590466Y-47429566D01*
X25313115Y-47544449D01*
X25063507Y-47711232D01*
X24851232Y-47923507D01*
X24684449Y-48173115D01*
X24569566Y-48450466D01*
X24511000Y-48744899D01*
X19939000Y-48744899D01*
X19939000Y-47522468D01*
X19967205Y-47480256D01*
X20045226Y-47291898D01*
X20085000Y-47091939D01*
X20085000Y-46888061D01*
X20045226Y-46688102D01*
X19967205Y-46499744D01*
X19853937Y-46330226D01*
X19709774Y-46186063D01*
X19540256Y-46072795D01*
X19351898Y-45994774D01*
X19151939Y-45955000D01*
X18948061Y-45955000D01*
X18748102Y-45994774D01*
X18559744Y-46072795D01*
X18390226Y-46186063D01*
X18246063Y-46330226D01*
X18132795Y-46499744D01*
X18054774Y-46688102D01*
X18015000Y-46888061D01*
X18015000Y-47091939D01*
X18054774Y-47291898D01*
X18132795Y-47480256D01*
X18161000Y-47522468D01*
X18161001Y-57816111D01*
X18078507Y-57871232D01*
X17866232Y-58083507D01*
X17699449Y-58333115D01*
X17584566Y-58610466D01*
X17526000Y-58904899D01*
X14655000Y-58904899D01*
X14655000Y-33575000D01*
X18153452Y-33575000D01*
X18183572Y-33880813D01*
X18272774Y-34174875D01*
X18417631Y-34445883D01*
X18612576Y-34683424D01*
X18850117Y-34878369D01*
X19121125Y-35023226D01*
X19415187Y-35112428D01*
X19644364Y-35135000D01*
X20995636Y-35135000D01*
X21224813Y-35112428D01*
X21518875Y-35023226D01*
X21789883Y-34878369D01*
X22027424Y-34683424D01*
X22222369Y-34445883D01*
X22367226Y-34174875D01*
X22456428Y-33880813D01*
X22486548Y-33575000D01*
X30653452Y-33575000D01*
X30683572Y-33880813D01*
X30772774Y-34174875D01*
X30917631Y-34445883D01*
X31112576Y-34683424D01*
X31350117Y-34878369D01*
X31621125Y-35023226D01*
X31915187Y-35112428D01*
X31931000Y-35113985D01*
X31931001Y-45476330D01*
X31926700Y-45520000D01*
X31943864Y-45694274D01*
X31994698Y-45861852D01*
X31996244Y-45864744D01*
X32077248Y-46016291D01*
X32188342Y-46151659D01*
X32222259Y-46179494D01*
X32649870Y-46607105D01*
X32659774Y-46656898D01*
X32737795Y-46845256D01*
X32851063Y-47014774D01*
X32995226Y-47158937D01*
X33164744Y-47272205D01*
X33353102Y-47350226D01*
X33553061Y-47390000D01*
X33756939Y-47390000D01*
X33956898Y-47350226D01*
X34145256Y-47272205D01*
X34314774Y-47158937D01*
X34458937Y-47014774D01*
X34572205Y-46845256D01*
X34650226Y-46656898D01*
X34690000Y-46456939D01*
X34690000Y-46253061D01*
X34650226Y-46053102D01*
X34572205Y-45864744D01*
X34458937Y-45695226D01*
X34314774Y-45551063D01*
X34145256Y-45437795D01*
X33956898Y-45359774D01*
X33907105Y-45349870D01*
X33709000Y-45151765D01*
X33709000Y-43644117D01*
X45890000Y-43644117D01*
X45890000Y-43985883D01*
X45956675Y-44321081D01*
X46087463Y-44636831D01*
X46277337Y-44920998D01*
X46519002Y-45162663D01*
X46712435Y-45291910D01*
X46539880Y-45464465D01*
X46386995Y-45693273D01*
X46281686Y-45947510D01*
X46228000Y-46217408D01*
X46228000Y-46492592D01*
X46281686Y-46762490D01*
X46386995Y-47016727D01*
X46539880Y-47245535D01*
X46734465Y-47440120D01*
X46963273Y-47593005D01*
X47040515Y-47625000D01*
X46963273Y-47656995D01*
X46734465Y-47809880D01*
X46539880Y-48004465D01*
X46386995Y-48233273D01*
X46281686Y-48487510D01*
X46228000Y-48757408D01*
X46228000Y-49032592D01*
X46281686Y-49302490D01*
X46386995Y-49556727D01*
X46539880Y-49785535D01*
X46734465Y-49980120D01*
X46963273Y-50133005D01*
X47040515Y-50165000D01*
X46963273Y-50196995D01*
X46734465Y-50349880D01*
X46539880Y-50544465D01*
X46386995Y-50773273D01*
X46281686Y-51027510D01*
X46228000Y-51297408D01*
X46228000Y-51572592D01*
X46281686Y-51842490D01*
X46386995Y-52096727D01*
X46539880Y-52325535D01*
X46734465Y-52520120D01*
X46963273Y-52673005D01*
X47040515Y-52705000D01*
X46963273Y-52736995D01*
X46734465Y-52889880D01*
X46539880Y-53084465D01*
X46386995Y-53313273D01*
X46281686Y-53567510D01*
X46228000Y-53837408D01*
X46228000Y-54112592D01*
X46281686Y-54382490D01*
X46386995Y-54636727D01*
X46539880Y-54865535D01*
X46734465Y-55060120D01*
X46963273Y-55213005D01*
X47040515Y-55245000D01*
X46963273Y-55276995D01*
X46734465Y-55429880D01*
X46539880Y-55624465D01*
X46386995Y-55853273D01*
X46281686Y-56107510D01*
X46228000Y-56377408D01*
X46228000Y-56652592D01*
X46281686Y-56922490D01*
X46386995Y-57176727D01*
X46539880Y-57405535D01*
X46734465Y-57600120D01*
X46963273Y-57753005D01*
X47040515Y-57785000D01*
X46963273Y-57816995D01*
X46734465Y-57969880D01*
X46539880Y-58164465D01*
X46386995Y-58393273D01*
X46281686Y-58647510D01*
X46228000Y-58917408D01*
X46228000Y-59192592D01*
X46281686Y-59462490D01*
X46386995Y-59716727D01*
X46539880Y-59945535D01*
X46734465Y-60140120D01*
X46963273Y-60293005D01*
X47040515Y-60325000D01*
X46963273Y-60356995D01*
X46734465Y-60509880D01*
X46539880Y-60704465D01*
X46386995Y-60933273D01*
X46281686Y-61187510D01*
X46228000Y-61457408D01*
X46228000Y-61732592D01*
X46281686Y-62002490D01*
X46386995Y-62256727D01*
X46539880Y-62485535D01*
X46734465Y-62680120D01*
X46963273Y-62833005D01*
X47040515Y-62865000D01*
X46963273Y-62896995D01*
X46734465Y-63049880D01*
X46539880Y-63244465D01*
X46386995Y-63473273D01*
X46281686Y-63727510D01*
X46228000Y-63997408D01*
X46228000Y-64272592D01*
X46281686Y-64542490D01*
X46386995Y-64796727D01*
X46539880Y-65025535D01*
X46734465Y-65220120D01*
X46963273Y-65373005D01*
X47040515Y-65405000D01*
X46963273Y-65436995D01*
X46734465Y-65589880D01*
X46539880Y-65784465D01*
X46386995Y-66013273D01*
X46281686Y-66267510D01*
X46228000Y-66537408D01*
X46228000Y-66812592D01*
X46281686Y-67082490D01*
X46386995Y-67336727D01*
X46539880Y-67565535D01*
X46734465Y-67760120D01*
X46963273Y-67913005D01*
X47034943Y-67942692D01*
X47021977Y-67947364D01*
X46906020Y-68009344D01*
X46839040Y-68249435D01*
X47625000Y-69035395D01*
X48410960Y-68249435D01*
X48343980Y-68009344D01*
X48208240Y-67945515D01*
X48286727Y-67913005D01*
X48515535Y-67760120D01*
X48710120Y-67565535D01*
X48863005Y-67336727D01*
X48968314Y-67082490D01*
X49022000Y-66812592D01*
X49022000Y-66537408D01*
X48968314Y-66267510D01*
X48863005Y-66013273D01*
X48710120Y-65784465D01*
X48515535Y-65589880D01*
X48286727Y-65436995D01*
X48209485Y-65405000D01*
X48286727Y-65373005D01*
X48515535Y-65220120D01*
X48710120Y-65025535D01*
X48863005Y-64796727D01*
X48968314Y-64542490D01*
X49022000Y-64272592D01*
X49022000Y-63997408D01*
X48968314Y-63727510D01*
X48863005Y-63473273D01*
X48710120Y-63244465D01*
X48515535Y-63049880D01*
X48286727Y-62896995D01*
X48209485Y-62865000D01*
X48286727Y-62833005D01*
X48515535Y-62680120D01*
X48710120Y-62485535D01*
X48863005Y-62256727D01*
X48968314Y-62002490D01*
X49022000Y-61732592D01*
X49022000Y-61457408D01*
X48968314Y-61187510D01*
X48863005Y-60933273D01*
X48710120Y-60704465D01*
X48515535Y-60509880D01*
X48286727Y-60356995D01*
X48209485Y-60325000D01*
X48286727Y-60293005D01*
X48515535Y-60140120D01*
X48710120Y-59945535D01*
X48863005Y-59716727D01*
X48968314Y-59462490D01*
X49022000Y-59192592D01*
X49022000Y-58917408D01*
X48968314Y-58647510D01*
X48863005Y-58393273D01*
X48710120Y-58164465D01*
X48515535Y-57969880D01*
X48286727Y-57816995D01*
X48209485Y-57785000D01*
X48286727Y-57753005D01*
X48515535Y-57600120D01*
X48710120Y-57405535D01*
X48863005Y-57176727D01*
X48968314Y-56922490D01*
X49022000Y-56652592D01*
X49022000Y-56377408D01*
X48968314Y-56107510D01*
X48863005Y-55853273D01*
X48710120Y-55624465D01*
X48515535Y-55429880D01*
X48286727Y-55276995D01*
X48209485Y-55245000D01*
X48286727Y-55213005D01*
X48515535Y-55060120D01*
X48710120Y-54865535D01*
X48863005Y-54636727D01*
X48968314Y-54382490D01*
X49022000Y-54112592D01*
X49022000Y-53837408D01*
X48968314Y-53567510D01*
X48863005Y-53313273D01*
X48710120Y-53084465D01*
X48515535Y-52889880D01*
X48286727Y-52736995D01*
X48209485Y-52705000D01*
X48286727Y-52673005D01*
X48515535Y-52520120D01*
X48710120Y-52325535D01*
X48863005Y-52096727D01*
X48968314Y-51842490D01*
X49022000Y-51572592D01*
X49022000Y-51297408D01*
X48968314Y-51027510D01*
X48863005Y-50773273D01*
X48710120Y-50544465D01*
X48515535Y-50349880D01*
X48286727Y-50196995D01*
X48209485Y-50165000D01*
X48286727Y-50133005D01*
X48515535Y-49980120D01*
X48710120Y-49785535D01*
X48863005Y-49556727D01*
X48968314Y-49302490D01*
X49022000Y-49032592D01*
X49022000Y-48757408D01*
X48968314Y-48487510D01*
X48863005Y-48233273D01*
X48710120Y-48004465D01*
X48515535Y-47809880D01*
X48286727Y-47656995D01*
X48209485Y-47625000D01*
X48286727Y-47593005D01*
X48515535Y-47440120D01*
X48710120Y-47245535D01*
X48863005Y-47016727D01*
X48968314Y-46762490D01*
X49022000Y-46492592D01*
X49022000Y-46217408D01*
X48968314Y-45947510D01*
X48863005Y-45693273D01*
X48710120Y-45464465D01*
X48537565Y-45291910D01*
X48730998Y-45162663D01*
X48972663Y-44920998D01*
X49162537Y-44636831D01*
X49293325Y-44321081D01*
X49360000Y-43985883D01*
X49360000Y-43644117D01*
X49293325Y-43308919D01*
X49162537Y-42993169D01*
X48972663Y-42709002D01*
X48730998Y-42467337D01*
X48446831Y-42277463D01*
X48131081Y-42146675D01*
X47795883Y-42080000D01*
X47454117Y-42080000D01*
X47118919Y-42146675D01*
X46803169Y-42277463D01*
X46519002Y-42467337D01*
X46277337Y-42709002D01*
X46087463Y-42993169D01*
X45956675Y-43308919D01*
X45890000Y-43644117D01*
X33709000Y-43644117D01*
X33709000Y-35113985D01*
X33724813Y-35112428D01*
X34018875Y-35023226D01*
X34289883Y-34878369D01*
X34527424Y-34683424D01*
X34722369Y-34445883D01*
X34867226Y-34174875D01*
X34956428Y-33880813D01*
X34986548Y-33575000D01*
X34956428Y-33269187D01*
X34867226Y-32975125D01*
X34722369Y-32704117D01*
X34527424Y-32466576D01*
X34289883Y-32271631D01*
X34018875Y-32126774D01*
X33724813Y-32037572D01*
X33495636Y-32015000D01*
X32144364Y-32015000D01*
X31915187Y-32037572D01*
X31621125Y-32126774D01*
X31350117Y-32271631D01*
X31112576Y-32466576D01*
X30917631Y-32704117D01*
X30772774Y-32975125D01*
X30683572Y-33269187D01*
X30653452Y-33575000D01*
X22486548Y-33575000D01*
X22456428Y-33269187D01*
X22367226Y-32975125D01*
X22222369Y-32704117D01*
X22027424Y-32466576D01*
X21789883Y-32271631D01*
X21518875Y-32126774D01*
X21224813Y-32037572D01*
X20995636Y-32015000D01*
X19644364Y-32015000D01*
X19415187Y-32037572D01*
X19121125Y-32126774D01*
X18850117Y-32271631D01*
X18612576Y-32466576D01*
X18417631Y-32704117D01*
X18272774Y-32975125D01*
X18183572Y-33269187D01*
X18153452Y-33575000D01*
X14655000Y-33575000D01*
X14655000Y-28575000D01*
X18153452Y-28575000D01*
X18183572Y-28880813D01*
X18272774Y-29174875D01*
X18417631Y-29445883D01*
X18612576Y-29683424D01*
X18850117Y-29878369D01*
X19121125Y-30023226D01*
X19415187Y-30112428D01*
X19644364Y-30135000D01*
X20995636Y-30135000D01*
X21224813Y-30112428D01*
X21518875Y-30023226D01*
X21789883Y-29878369D01*
X22027424Y-29683424D01*
X22222369Y-29445883D01*
X22367226Y-29174875D01*
X22456428Y-28880813D01*
X22486548Y-28575000D01*
X30653452Y-28575000D01*
X30683572Y-28880813D01*
X30772774Y-29174875D01*
X30917631Y-29445883D01*
X31112576Y-29683424D01*
X31350117Y-29878369D01*
X31621125Y-30023226D01*
X31915187Y-30112428D01*
X32144364Y-30135000D01*
X33495636Y-30135000D01*
X33724813Y-30112428D01*
X34018875Y-30023226D01*
X34289883Y-29878369D01*
X34527424Y-29683424D01*
X34722369Y-29445883D01*
X34867226Y-29174875D01*
X34956428Y-28880813D01*
X34986548Y-28575000D01*
X34956428Y-28269187D01*
X34867226Y-27975125D01*
X34722369Y-27704117D01*
X34527424Y-27466576D01*
X34289883Y-27271631D01*
X34018875Y-27126774D01*
X33724813Y-27037572D01*
X33495636Y-27015000D01*
X32144364Y-27015000D01*
X31915187Y-27037572D01*
X31621125Y-27126774D01*
X31350117Y-27271631D01*
X31112576Y-27466576D01*
X30917631Y-27704117D01*
X30772774Y-27975125D01*
X30683572Y-28269187D01*
X30653452Y-28575000D01*
X22486548Y-28575000D01*
X22456428Y-28269187D01*
X22367226Y-27975125D01*
X22222369Y-27704117D01*
X22027424Y-27466576D01*
X21789883Y-27271631D01*
X21518875Y-27126774D01*
X21224813Y-27037572D01*
X20995636Y-27015000D01*
X19644364Y-27015000D01*
X19415187Y-27037572D01*
X19121125Y-27126774D01*
X18850117Y-27271631D01*
X18612576Y-27466576D01*
X18417631Y-27704117D01*
X18272774Y-27975125D01*
X18183572Y-28269187D01*
X18153452Y-28575000D01*
X14655000Y-28575000D01*
X14655000Y-25121891D01*
X55073519Y-25121891D01*
X55170843Y-25396252D01*
X55319822Y-25646355D01*
X55514731Y-25862588D01*
X55748080Y-26036641D01*
X56010901Y-26161825D01*
X56158110Y-26206476D01*
X56388000Y-26085155D01*
X56388000Y-24892000D01*
X55194186Y-24892000D01*
X55073519Y-25121891D01*
X14655000Y-25121891D01*
X14655000Y-24408109D01*
X55073519Y-24408109D01*
X55194186Y-24638000D01*
X56388000Y-24638000D01*
X56388000Y-23444845D01*
X56642000Y-23444845D01*
X56642000Y-24638000D01*
X56662000Y-24638000D01*
X56662000Y-24892000D01*
X56642000Y-24892000D01*
X56642000Y-26085155D01*
X56871890Y-26206476D01*
X57019099Y-26161825D01*
X57281920Y-26036641D01*
X57515269Y-25862588D01*
X57710178Y-25646355D01*
X57779805Y-25529466D01*
X57901525Y-25711632D01*
X58108368Y-25918475D01*
X58295001Y-26043179D01*
X58295000Y-32316289D01*
X58251063Y-32360226D01*
X58137795Y-32529744D01*
X58059774Y-32718102D01*
X58020000Y-32918061D01*
X58020000Y-33121939D01*
X58059774Y-33321898D01*
X58137795Y-33510256D01*
X58251063Y-33679774D01*
X58395226Y-33823937D01*
X58564744Y-33937205D01*
X58753102Y-34015226D01*
X58953061Y-34055000D01*
X59156939Y-34055000D01*
X59356898Y-34015226D01*
X59545256Y-33937205D01*
X59714774Y-33823937D01*
X59858937Y-33679774D01*
X59972205Y-33510256D01*
X60050226Y-33321898D01*
X60090000Y-33121939D01*
X60090000Y-32918061D01*
X60050226Y-32718102D01*
X59972205Y-32529744D01*
X59858937Y-32360226D01*
X59815000Y-32316289D01*
X59815000Y-26043178D01*
X60001632Y-25918475D01*
X60208475Y-25711632D01*
X60325000Y-25537240D01*
X60441525Y-25711632D01*
X60648368Y-25918475D01*
X60835001Y-26043179D01*
X60835000Y-27236289D01*
X60791063Y-27280226D01*
X60677795Y-27449744D01*
X60599774Y-27638102D01*
X60560000Y-27838061D01*
X60560000Y-28041939D01*
X60599774Y-28241898D01*
X60677795Y-28430256D01*
X60791063Y-28599774D01*
X60935226Y-28743937D01*
X61104744Y-28857205D01*
X61293102Y-28935226D01*
X61493061Y-28975000D01*
X61696939Y-28975000D01*
X61896898Y-28935226D01*
X62085256Y-28857205D01*
X62254774Y-28743937D01*
X62398937Y-28599774D01*
X62512205Y-28430256D01*
X62590226Y-28241898D01*
X62630000Y-28041939D01*
X62630000Y-27838061D01*
X62590226Y-27638102D01*
X62512205Y-27449744D01*
X62398937Y-27280226D01*
X62355000Y-27236289D01*
X62355000Y-26043178D01*
X62541632Y-25918475D01*
X62748475Y-25711632D01*
X62865000Y-25537240D01*
X62981525Y-25711632D01*
X63188368Y-25918475D01*
X63375001Y-26043179D01*
X63375000Y-36126289D01*
X63331063Y-36170226D01*
X63217795Y-36339744D01*
X63139774Y-36528102D01*
X63100000Y-36728061D01*
X63100000Y-36931939D01*
X63139774Y-37131898D01*
X63217795Y-37320256D01*
X63331063Y-37489774D01*
X63475226Y-37633937D01*
X63644744Y-37747205D01*
X63833102Y-37825226D01*
X64033061Y-37865000D01*
X64236939Y-37865000D01*
X64436898Y-37825226D01*
X64625256Y-37747205D01*
X64794774Y-37633937D01*
X64938937Y-37489774D01*
X65052205Y-37320256D01*
X65130226Y-37131898D01*
X65170000Y-36931939D01*
X65170000Y-36728061D01*
X65130226Y-36528102D01*
X65052205Y-36339744D01*
X64938937Y-36170226D01*
X64895000Y-36126289D01*
X64895000Y-26043178D01*
X65081632Y-25918475D01*
X65288475Y-25711632D01*
X65405000Y-25537240D01*
X65521525Y-25711632D01*
X65728368Y-25918475D01*
X65915001Y-26043179D01*
X65915000Y-58986289D01*
X65871063Y-59030226D01*
X65757795Y-59199744D01*
X65679774Y-59388102D01*
X65640000Y-59588061D01*
X65640000Y-59791939D01*
X65679774Y-59991898D01*
X65757795Y-60180256D01*
X65871063Y-60349774D01*
X66015226Y-60493937D01*
X66184744Y-60607205D01*
X66373102Y-60685226D01*
X66573061Y-60725000D01*
X66776939Y-60725000D01*
X66976898Y-60685226D01*
X67165256Y-60607205D01*
X67334774Y-60493937D01*
X67478937Y-60349774D01*
X67592205Y-60180256D01*
X67670226Y-59991898D01*
X67710000Y-59791939D01*
X67710000Y-59588061D01*
X67670226Y-59388102D01*
X67592205Y-59199744D01*
X67478937Y-59030226D01*
X67435000Y-58986289D01*
X67435000Y-26043178D01*
X67621632Y-25918475D01*
X67828475Y-25711632D01*
X67945000Y-25537240D01*
X68061525Y-25711632D01*
X68268368Y-25918475D01*
X68455001Y-26043179D01*
X68455000Y-53906289D01*
X68411063Y-53950226D01*
X68297795Y-54119744D01*
X68219774Y-54308102D01*
X68180000Y-54508061D01*
X68180000Y-54711939D01*
X68219774Y-54911898D01*
X68297795Y-55100256D01*
X68411063Y-55269774D01*
X68555226Y-55413937D01*
X68724744Y-55527205D01*
X68913102Y-55605226D01*
X69113061Y-55645000D01*
X69316939Y-55645000D01*
X69516898Y-55605226D01*
X69705256Y-55527205D01*
X69874774Y-55413937D01*
X70018937Y-55269774D01*
X70132205Y-55100256D01*
X70210226Y-54911898D01*
X70250000Y-54711939D01*
X70250000Y-54508061D01*
X70210226Y-54308102D01*
X70132205Y-54119744D01*
X70018937Y-53950226D01*
X69975000Y-53906289D01*
X69975000Y-26043178D01*
X70161632Y-25918475D01*
X70368475Y-25711632D01*
X70485000Y-25537240D01*
X70601525Y-25711632D01*
X70808368Y-25918475D01*
X70995001Y-26043179D01*
X70995000Y-68511289D01*
X70951063Y-68555226D01*
X70837795Y-68724744D01*
X70759774Y-68913102D01*
X70720000Y-69113061D01*
X70720000Y-69316939D01*
X70759774Y-69516898D01*
X70837795Y-69705256D01*
X70951063Y-69874774D01*
X71095226Y-70018937D01*
X71264744Y-70132205D01*
X71453102Y-70210226D01*
X71653061Y-70250000D01*
X71856939Y-70250000D01*
X72056898Y-70210226D01*
X72245256Y-70132205D01*
X72414774Y-70018937D01*
X72558937Y-69874774D01*
X72628944Y-69770000D01*
X103878452Y-69770000D01*
X103908572Y-70075813D01*
X103997774Y-70369875D01*
X104142631Y-70640883D01*
X104337576Y-70878424D01*
X104575117Y-71073369D01*
X104846125Y-71218226D01*
X105140187Y-71307428D01*
X105369364Y-71330000D01*
X106720636Y-71330000D01*
X106949813Y-71307428D01*
X107243875Y-71218226D01*
X107514883Y-71073369D01*
X107752424Y-70878424D01*
X107947369Y-70640883D01*
X108092226Y-70369875D01*
X108181428Y-70075813D01*
X108211548Y-69770000D01*
X116378452Y-69770000D01*
X116408572Y-70075813D01*
X116497774Y-70369875D01*
X116642631Y-70640883D01*
X116837576Y-70878424D01*
X117075117Y-71073369D01*
X117346125Y-71218226D01*
X117640187Y-71307428D01*
X117869364Y-71330000D01*
X119220636Y-71330000D01*
X119449813Y-71307428D01*
X119743875Y-71218226D01*
X120014883Y-71073369D01*
X120252424Y-70878424D01*
X120447369Y-70640883D01*
X120592226Y-70369875D01*
X120681428Y-70075813D01*
X120711548Y-69770000D01*
X120681428Y-69464187D01*
X120592226Y-69170125D01*
X120447369Y-68899117D01*
X120252424Y-68661576D01*
X120014883Y-68466631D01*
X119743875Y-68321774D01*
X119449813Y-68232572D01*
X119220636Y-68210000D01*
X117869364Y-68210000D01*
X117640187Y-68232572D01*
X117346125Y-68321774D01*
X117075117Y-68466631D01*
X116837576Y-68661576D01*
X116642631Y-68899117D01*
X116497774Y-69170125D01*
X116408572Y-69464187D01*
X116378452Y-69770000D01*
X108211548Y-69770000D01*
X108181428Y-69464187D01*
X108092226Y-69170125D01*
X107947369Y-68899117D01*
X107752424Y-68661576D01*
X107514883Y-68466631D01*
X107243875Y-68321774D01*
X106949813Y-68232572D01*
X106720636Y-68210000D01*
X105369364Y-68210000D01*
X105140187Y-68232572D01*
X104846125Y-68321774D01*
X104575117Y-68466631D01*
X104337576Y-68661576D01*
X104142631Y-68899117D01*
X103997774Y-69170125D01*
X103908572Y-69464187D01*
X103878452Y-69770000D01*
X72628944Y-69770000D01*
X72672205Y-69705256D01*
X72750226Y-69516898D01*
X72790000Y-69316939D01*
X72790000Y-69113061D01*
X72750226Y-68913102D01*
X72672205Y-68724744D01*
X72558937Y-68555226D01*
X72515000Y-68511289D01*
X72515000Y-26043178D01*
X72701632Y-25918475D01*
X72908475Y-25711632D01*
X73025000Y-25537240D01*
X73141525Y-25711632D01*
X73348368Y-25918475D01*
X73535000Y-26043178D01*
X73535001Y-63104587D01*
X73358102Y-63139774D01*
X73169744Y-63217795D01*
X73000226Y-63331063D01*
X72856063Y-63475226D01*
X72742795Y-63644744D01*
X72664774Y-63833102D01*
X72625000Y-64033061D01*
X72625000Y-64236939D01*
X72664774Y-64436898D01*
X72742795Y-64625256D01*
X72856063Y-64794774D01*
X73000226Y-64938937D01*
X73169744Y-65052205D01*
X73358102Y-65130226D01*
X73558061Y-65170000D01*
X73761939Y-65170000D01*
X73961898Y-65130226D01*
X74150256Y-65052205D01*
X74319774Y-64938937D01*
X74463937Y-64794774D01*
X74480490Y-64770000D01*
X103878452Y-64770000D01*
X103908572Y-65075813D01*
X103997774Y-65369875D01*
X104142631Y-65640883D01*
X104337576Y-65878424D01*
X104575117Y-66073369D01*
X104846125Y-66218226D01*
X105140187Y-66307428D01*
X105369364Y-66330000D01*
X106720636Y-66330000D01*
X106949813Y-66307428D01*
X107243875Y-66218226D01*
X107514883Y-66073369D01*
X107752424Y-65878424D01*
X107947369Y-65640883D01*
X108092226Y-65369875D01*
X108181428Y-65075813D01*
X108211548Y-64770000D01*
X116378452Y-64770000D01*
X116408572Y-65075813D01*
X116497774Y-65369875D01*
X116642631Y-65640883D01*
X116837576Y-65878424D01*
X117075117Y-66073369D01*
X117346125Y-66218226D01*
X117640187Y-66307428D01*
X117869364Y-66330000D01*
X119220636Y-66330000D01*
X119449813Y-66307428D01*
X119743875Y-66218226D01*
X120014883Y-66073369D01*
X120252424Y-65878424D01*
X120447369Y-65640883D01*
X120592226Y-65369875D01*
X120681428Y-65075813D01*
X120711548Y-64770000D01*
X120681428Y-64464187D01*
X120592226Y-64170125D01*
X120447369Y-63899117D01*
X120252424Y-63661576D01*
X120014883Y-63466631D01*
X119743875Y-63321774D01*
X119449813Y-63232572D01*
X119220636Y-63210000D01*
X117869364Y-63210000D01*
X117640187Y-63232572D01*
X117346125Y-63321774D01*
X117075117Y-63466631D01*
X116837576Y-63661576D01*
X116642631Y-63899117D01*
X116497774Y-64170125D01*
X116408572Y-64464187D01*
X116378452Y-64770000D01*
X108211548Y-64770000D01*
X108181428Y-64464187D01*
X108092226Y-64170125D01*
X107947369Y-63899117D01*
X107752424Y-63661576D01*
X107514883Y-63466631D01*
X107243875Y-63321774D01*
X106949813Y-63232572D01*
X106934000Y-63231015D01*
X106934000Y-55165000D01*
X113603452Y-55165000D01*
X113633572Y-55470813D01*
X113722774Y-55764875D01*
X113867631Y-56035883D01*
X114062576Y-56273424D01*
X114300117Y-56468369D01*
X114571125Y-56613226D01*
X114865187Y-56702428D01*
X115094364Y-56725000D01*
X116445636Y-56725000D01*
X116674813Y-56702428D01*
X116968875Y-56613226D01*
X117239883Y-56468369D01*
X117477424Y-56273424D01*
X117672369Y-56035883D01*
X117817226Y-55764875D01*
X117906428Y-55470813D01*
X117936548Y-55165000D01*
X126103452Y-55165000D01*
X126133572Y-55470813D01*
X126222774Y-55764875D01*
X126367631Y-56035883D01*
X126562576Y-56273424D01*
X126800117Y-56468369D01*
X127071125Y-56613226D01*
X127365187Y-56702428D01*
X127594364Y-56725000D01*
X128945636Y-56725000D01*
X129174813Y-56702428D01*
X129468875Y-56613226D01*
X129739883Y-56468369D01*
X129977424Y-56273424D01*
X130172369Y-56035883D01*
X130317226Y-55764875D01*
X130406428Y-55470813D01*
X130436548Y-55165000D01*
X130406428Y-54859187D01*
X130317226Y-54565125D01*
X130172369Y-54294117D01*
X129977424Y-54056576D01*
X129739883Y-53861631D01*
X129468875Y-53716774D01*
X129174813Y-53627572D01*
X128945636Y-53605000D01*
X127594364Y-53605000D01*
X127365187Y-53627572D01*
X127071125Y-53716774D01*
X126800117Y-53861631D01*
X126562576Y-54056576D01*
X126367631Y-54294117D01*
X126222774Y-54565125D01*
X126133572Y-54859187D01*
X126103452Y-55165000D01*
X117936548Y-55165000D01*
X117906428Y-54859187D01*
X117817226Y-54565125D01*
X117672369Y-54294117D01*
X117477424Y-54056576D01*
X117239883Y-53861631D01*
X116968875Y-53716774D01*
X116674813Y-53627572D01*
X116445636Y-53605000D01*
X115094364Y-53605000D01*
X114865187Y-53627572D01*
X114571125Y-53716774D01*
X114300117Y-53861631D01*
X114062576Y-54056576D01*
X113867631Y-54294117D01*
X113722774Y-54565125D01*
X113633572Y-54859187D01*
X113603452Y-55165000D01*
X106934000Y-55165000D01*
X106934000Y-51169753D01*
X106981898Y-51160226D01*
X107170256Y-51082205D01*
X107339774Y-50968937D01*
X107483937Y-50824774D01*
X107597205Y-50655256D01*
X107675226Y-50466898D01*
X107715000Y-50266939D01*
X107715000Y-50165000D01*
X113603452Y-50165000D01*
X113633572Y-50470813D01*
X113722774Y-50764875D01*
X113867631Y-51035883D01*
X114062576Y-51273424D01*
X114300117Y-51468369D01*
X114571125Y-51613226D01*
X114865187Y-51702428D01*
X115094364Y-51725000D01*
X116445636Y-51725000D01*
X116674813Y-51702428D01*
X116968875Y-51613226D01*
X117239883Y-51468369D01*
X117477424Y-51273424D01*
X117672369Y-51035883D01*
X117817226Y-50764875D01*
X117906428Y-50470813D01*
X117936548Y-50165000D01*
X126103452Y-50165000D01*
X126133572Y-50470813D01*
X126222774Y-50764875D01*
X126367631Y-51035883D01*
X126562576Y-51273424D01*
X126800117Y-51468369D01*
X127071125Y-51613226D01*
X127365187Y-51702428D01*
X127594364Y-51725000D01*
X128945636Y-51725000D01*
X129174813Y-51702428D01*
X129468875Y-51613226D01*
X129739883Y-51468369D01*
X129977424Y-51273424D01*
X130172369Y-51035883D01*
X130317226Y-50764875D01*
X130406428Y-50470813D01*
X130436548Y-50165000D01*
X130406428Y-49859187D01*
X130317226Y-49565125D01*
X130172369Y-49294117D01*
X129977424Y-49056576D01*
X129739883Y-48861631D01*
X129468875Y-48716774D01*
X129174813Y-48627572D01*
X128945636Y-48605000D01*
X127594364Y-48605000D01*
X127365187Y-48627572D01*
X127071125Y-48716774D01*
X126800117Y-48861631D01*
X126562576Y-49056576D01*
X126367631Y-49294117D01*
X126222774Y-49565125D01*
X126133572Y-49859187D01*
X126103452Y-50165000D01*
X117936548Y-50165000D01*
X117906428Y-49859187D01*
X117817226Y-49565125D01*
X117672369Y-49294117D01*
X117477424Y-49056576D01*
X117239883Y-48861631D01*
X116968875Y-48716774D01*
X116674813Y-48627572D01*
X116445636Y-48605000D01*
X115094364Y-48605000D01*
X114865187Y-48627572D01*
X114571125Y-48716774D01*
X114300117Y-48861631D01*
X114062576Y-49056576D01*
X113867631Y-49294117D01*
X113722774Y-49565125D01*
X113633572Y-49859187D01*
X113603452Y-50165000D01*
X107715000Y-50165000D01*
X107715000Y-50063061D01*
X107675226Y-49863102D01*
X107597205Y-49674744D01*
X107483937Y-49505226D01*
X107339774Y-49361063D01*
X107170256Y-49247795D01*
X106981898Y-49169774D01*
X106934000Y-49160247D01*
X106934000Y-33575000D01*
X113603452Y-33575000D01*
X113633572Y-33880813D01*
X113722774Y-34174875D01*
X113867631Y-34445883D01*
X114062576Y-34683424D01*
X114300117Y-34878369D01*
X114571125Y-35023226D01*
X114865187Y-35112428D01*
X115094364Y-35135000D01*
X116445636Y-35135000D01*
X116674813Y-35112428D01*
X116968875Y-35023226D01*
X117239883Y-34878369D01*
X117477424Y-34683424D01*
X117672369Y-34445883D01*
X117817226Y-34174875D01*
X117906428Y-33880813D01*
X117936548Y-33575000D01*
X126103452Y-33575000D01*
X126133572Y-33880813D01*
X126222774Y-34174875D01*
X126367631Y-34445883D01*
X126562576Y-34683424D01*
X126800117Y-34878369D01*
X127071125Y-35023226D01*
X127365187Y-35112428D01*
X127594364Y-35135000D01*
X128945636Y-35135000D01*
X129174813Y-35112428D01*
X129468875Y-35023226D01*
X129739883Y-34878369D01*
X129977424Y-34683424D01*
X130172369Y-34445883D01*
X130317226Y-34174875D01*
X130406428Y-33880813D01*
X130436548Y-33575000D01*
X130406428Y-33269187D01*
X130317226Y-32975125D01*
X130172369Y-32704117D01*
X129977424Y-32466576D01*
X129739883Y-32271631D01*
X129468875Y-32126774D01*
X129174813Y-32037572D01*
X128945636Y-32015000D01*
X127594364Y-32015000D01*
X127365187Y-32037572D01*
X127071125Y-32126774D01*
X126800117Y-32271631D01*
X126562576Y-32466576D01*
X126367631Y-32704117D01*
X126222774Y-32975125D01*
X126133572Y-33269187D01*
X126103452Y-33575000D01*
X117936548Y-33575000D01*
X117906428Y-33269187D01*
X117817226Y-32975125D01*
X117672369Y-32704117D01*
X117477424Y-32466576D01*
X117239883Y-32271631D01*
X116968875Y-32126774D01*
X116674813Y-32037572D01*
X116445636Y-32015000D01*
X115094364Y-32015000D01*
X114865187Y-32037572D01*
X114571125Y-32126774D01*
X114300117Y-32271631D01*
X114062576Y-32466576D01*
X113867631Y-32704117D01*
X113722774Y-32975125D01*
X113633572Y-33269187D01*
X113603452Y-33575000D01*
X106934000Y-33575000D01*
X106934000Y-29579753D01*
X106981898Y-29570226D01*
X107170256Y-29492205D01*
X107339774Y-29378937D01*
X107483937Y-29234774D01*
X107597205Y-29065256D01*
X107675226Y-28876898D01*
X107715000Y-28676939D01*
X107715000Y-28575000D01*
X113603452Y-28575000D01*
X113633572Y-28880813D01*
X113722774Y-29174875D01*
X113867631Y-29445883D01*
X114062576Y-29683424D01*
X114300117Y-29878369D01*
X114571125Y-30023226D01*
X114865187Y-30112428D01*
X115094364Y-30135000D01*
X116445636Y-30135000D01*
X116674813Y-30112428D01*
X116968875Y-30023226D01*
X117239883Y-29878369D01*
X117477424Y-29683424D01*
X117672369Y-29445883D01*
X117817226Y-29174875D01*
X117906428Y-28880813D01*
X117936548Y-28575000D01*
X126103452Y-28575000D01*
X126133572Y-28880813D01*
X126222774Y-29174875D01*
X126367631Y-29445883D01*
X126562576Y-29683424D01*
X126800117Y-29878369D01*
X127071125Y-30023226D01*
X127365187Y-30112428D01*
X127594364Y-30135000D01*
X128945636Y-30135000D01*
X129174813Y-30112428D01*
X129468875Y-30023226D01*
X129739883Y-29878369D01*
X129977424Y-29683424D01*
X130172369Y-29445883D01*
X130317226Y-29174875D01*
X130406428Y-28880813D01*
X130436548Y-28575000D01*
X130406428Y-28269187D01*
X130317226Y-27975125D01*
X130172369Y-27704117D01*
X129977424Y-27466576D01*
X129739883Y-27271631D01*
X129468875Y-27126774D01*
X129174813Y-27037572D01*
X128945636Y-27015000D01*
X127594364Y-27015000D01*
X127365187Y-27037572D01*
X127071125Y-27126774D01*
X126800117Y-27271631D01*
X126562576Y-27466576D01*
X126367631Y-27704117D01*
X126222774Y-27975125D01*
X126133572Y-28269187D01*
X126103452Y-28575000D01*
X117936548Y-28575000D01*
X117906428Y-28269187D01*
X117817226Y-27975125D01*
X117672369Y-27704117D01*
X117477424Y-27466576D01*
X117239883Y-27271631D01*
X116968875Y-27126774D01*
X116674813Y-27037572D01*
X116445636Y-27015000D01*
X115094364Y-27015000D01*
X114865187Y-27037572D01*
X114571125Y-27126774D01*
X114300117Y-27271631D01*
X114062576Y-27466576D01*
X113867631Y-27704117D01*
X113722774Y-27975125D01*
X113633572Y-28269187D01*
X113603452Y-28575000D01*
X107715000Y-28575000D01*
X107715000Y-28473061D01*
X107675226Y-28273102D01*
X107597205Y-28084744D01*
X107483937Y-27915226D01*
X107339774Y-27771063D01*
X107170256Y-27657795D01*
X106981898Y-27579774D01*
X106934000Y-27570247D01*
X106934000Y-25443660D01*
X106938300Y-25400000D01*
X106934000Y-25356340D01*
X106934000Y-25356333D01*
X106921136Y-25225726D01*
X106912774Y-25198158D01*
X106905716Y-25174892D01*
X106870303Y-25058149D01*
X106787753Y-24903709D01*
X106676659Y-24768341D01*
X106642741Y-24740505D01*
X106415130Y-24512895D01*
X106405226Y-24463102D01*
X106327205Y-24274744D01*
X106213937Y-24105226D01*
X106069774Y-23961063D01*
X105900256Y-23847795D01*
X105711898Y-23769774D01*
X105511939Y-23730000D01*
X105308061Y-23730000D01*
X105108102Y-23769774D01*
X104919744Y-23847795D01*
X104750226Y-23961063D01*
X104606063Y-24105226D01*
X104492795Y-24274744D01*
X104414774Y-24463102D01*
X104375000Y-24663061D01*
X104375000Y-24866939D01*
X104414774Y-25066898D01*
X104492795Y-25255256D01*
X104606063Y-25424774D01*
X104750226Y-25568937D01*
X104919744Y-25682205D01*
X105108102Y-25760226D01*
X105156001Y-25769754D01*
X105156000Y-29166340D01*
X105151700Y-29210000D01*
X105156000Y-29253660D01*
X105156000Y-29253666D01*
X105156001Y-29253676D01*
X105156000Y-50756340D01*
X105151700Y-50800000D01*
X105156000Y-50843660D01*
X105156000Y-50843666D01*
X105156001Y-50843676D01*
X105156000Y-63231015D01*
X105140187Y-63232572D01*
X104846125Y-63321774D01*
X104575117Y-63466631D01*
X104337576Y-63661576D01*
X104142631Y-63899117D01*
X103997774Y-64170125D01*
X103908572Y-64464187D01*
X103878452Y-64770000D01*
X74480490Y-64770000D01*
X74577205Y-64625256D01*
X74655226Y-64436898D01*
X74695000Y-64236939D01*
X74695000Y-64174802D01*
X74806002Y-64063800D01*
X74835001Y-64040001D01*
X74929974Y-63924276D01*
X75000546Y-63792247D01*
X75044003Y-63648986D01*
X75055000Y-63537333D01*
X75058677Y-63500000D01*
X75055000Y-63462667D01*
X75055000Y-26043178D01*
X75241632Y-25918475D01*
X75448475Y-25711632D01*
X75565000Y-25537240D01*
X75681525Y-25711632D01*
X75888368Y-25918475D01*
X76075000Y-26043178D01*
X76075001Y-60564587D01*
X75898102Y-60599774D01*
X75709744Y-60677795D01*
X75540226Y-60791063D01*
X75396063Y-60935226D01*
X75282795Y-61104744D01*
X75204774Y-61293102D01*
X75165000Y-61493061D01*
X75165000Y-61696939D01*
X75204774Y-61896898D01*
X75282795Y-62085256D01*
X75396063Y-62254774D01*
X75540226Y-62398937D01*
X75709744Y-62512205D01*
X75898102Y-62590226D01*
X76098061Y-62630000D01*
X76301939Y-62630000D01*
X76501898Y-62590226D01*
X76690256Y-62512205D01*
X76859774Y-62398937D01*
X77003937Y-62254774D01*
X77117205Y-62085256D01*
X77195226Y-61896898D01*
X77235000Y-61696939D01*
X77235000Y-61634802D01*
X77346002Y-61523800D01*
X77375001Y-61500001D01*
X77469974Y-61384276D01*
X77540546Y-61252247D01*
X77584003Y-61108986D01*
X77595000Y-60997333D01*
X77598677Y-60960000D01*
X77595000Y-60922667D01*
X77595000Y-26043178D01*
X77781632Y-25918475D01*
X77988475Y-25711632D01*
X78105000Y-25537240D01*
X78221525Y-25711632D01*
X78428368Y-25918475D01*
X78615000Y-26043178D01*
X78615001Y-58024587D01*
X78438102Y-58059774D01*
X78249744Y-58137795D01*
X78080226Y-58251063D01*
X77936063Y-58395226D01*
X77822795Y-58564744D01*
X77744774Y-58753102D01*
X77705000Y-58953061D01*
X77705000Y-59156939D01*
X77744774Y-59356898D01*
X77822795Y-59545256D01*
X77936063Y-59714774D01*
X78080226Y-59858937D01*
X78249744Y-59972205D01*
X78438102Y-60050226D01*
X78638061Y-60090000D01*
X78841939Y-60090000D01*
X79041898Y-60050226D01*
X79230256Y-59972205D01*
X79399774Y-59858937D01*
X79543937Y-59714774D01*
X79657205Y-59545256D01*
X79735226Y-59356898D01*
X79775000Y-59156939D01*
X79775000Y-59094802D01*
X79886002Y-58983800D01*
X79915001Y-58960001D01*
X80009974Y-58844276D01*
X80080546Y-58712247D01*
X80124003Y-58568986D01*
X80135000Y-58457333D01*
X80138677Y-58420000D01*
X80135000Y-58382667D01*
X80135000Y-26043178D01*
X80321632Y-25918475D01*
X80528475Y-25711632D01*
X80645000Y-25537240D01*
X80761525Y-25711632D01*
X80968368Y-25918475D01*
X81155000Y-26043178D01*
X81155001Y-55484587D01*
X80978102Y-55519774D01*
X80789744Y-55597795D01*
X80620226Y-55711063D01*
X80476063Y-55855226D01*
X80362795Y-56024744D01*
X80284774Y-56213102D01*
X80245000Y-56413061D01*
X80245000Y-56616939D01*
X80284774Y-56816898D01*
X80362795Y-57005256D01*
X80476063Y-57174774D01*
X80620226Y-57318937D01*
X80789744Y-57432205D01*
X80978102Y-57510226D01*
X81178061Y-57550000D01*
X81381939Y-57550000D01*
X81581898Y-57510226D01*
X81770256Y-57432205D01*
X81939774Y-57318937D01*
X82083937Y-57174774D01*
X82197205Y-57005256D01*
X82275226Y-56816898D01*
X82315000Y-56616939D01*
X82315000Y-56554802D01*
X82426002Y-56443800D01*
X82455001Y-56420001D01*
X82549974Y-56304276D01*
X82620546Y-56172247D01*
X82664003Y-56028986D01*
X82675000Y-55917333D01*
X82678677Y-55880000D01*
X82675000Y-55842667D01*
X82675000Y-26043178D01*
X82861632Y-25918475D01*
X83068475Y-25711632D01*
X83185000Y-25537240D01*
X83301525Y-25711632D01*
X83508368Y-25918475D01*
X83695000Y-26043178D01*
X83695001Y-52309587D01*
X83518102Y-52344774D01*
X83329744Y-52422795D01*
X83160226Y-52536063D01*
X83016063Y-52680226D01*
X82902795Y-52849744D01*
X82824774Y-53038102D01*
X82785000Y-53238061D01*
X82785000Y-53441939D01*
X82824774Y-53641898D01*
X82902795Y-53830256D01*
X83016063Y-53999774D01*
X83160226Y-54143937D01*
X83329744Y-54257205D01*
X83518102Y-54335226D01*
X83718061Y-54375000D01*
X83921939Y-54375000D01*
X84121898Y-54335226D01*
X84310256Y-54257205D01*
X84479774Y-54143937D01*
X84623937Y-53999774D01*
X84737205Y-53830256D01*
X84815226Y-53641898D01*
X84855000Y-53441939D01*
X84855000Y-53379802D01*
X84966002Y-53268800D01*
X84995001Y-53245001D01*
X85089974Y-53129276D01*
X85160546Y-52997247D01*
X85204003Y-52853986D01*
X85215000Y-52742333D01*
X85218677Y-52705000D01*
X85215000Y-52667667D01*
X85215000Y-26043178D01*
X85401632Y-25918475D01*
X85608475Y-25711632D01*
X85725000Y-25537240D01*
X85841525Y-25711632D01*
X86048368Y-25918475D01*
X86235000Y-26043178D01*
X86235001Y-50404587D01*
X86058102Y-50439774D01*
X85869744Y-50517795D01*
X85700226Y-50631063D01*
X85556063Y-50775226D01*
X85442795Y-50944744D01*
X85364774Y-51133102D01*
X85325000Y-51333061D01*
X85325000Y-51536939D01*
X85364774Y-51736898D01*
X85442795Y-51925256D01*
X85556063Y-52094774D01*
X85700226Y-52238937D01*
X85869744Y-52352205D01*
X86058102Y-52430226D01*
X86258061Y-52470000D01*
X86461939Y-52470000D01*
X86661898Y-52430226D01*
X86850256Y-52352205D01*
X87019774Y-52238937D01*
X87163937Y-52094774D01*
X87277205Y-51925256D01*
X87355226Y-51736898D01*
X87395000Y-51536939D01*
X87395000Y-51474802D01*
X87506002Y-51363800D01*
X87535001Y-51340001D01*
X87629974Y-51224276D01*
X87700546Y-51092247D01*
X87744003Y-50948986D01*
X87755000Y-50837333D01*
X87758677Y-50800000D01*
X87755000Y-50762667D01*
X87755000Y-26043178D01*
X87941632Y-25918475D01*
X88148475Y-25711632D01*
X88265000Y-25537240D01*
X88381525Y-25711632D01*
X88588368Y-25918475D01*
X88775000Y-26043178D01*
X88775001Y-47864587D01*
X88598102Y-47899774D01*
X88409744Y-47977795D01*
X88240226Y-48091063D01*
X88096063Y-48235226D01*
X87982795Y-48404744D01*
X87904774Y-48593102D01*
X87865000Y-48793061D01*
X87865000Y-48996939D01*
X87904774Y-49196898D01*
X87982795Y-49385256D01*
X88096063Y-49554774D01*
X88240226Y-49698937D01*
X88409744Y-49812205D01*
X88598102Y-49890226D01*
X88798061Y-49930000D01*
X89001939Y-49930000D01*
X89201898Y-49890226D01*
X89390256Y-49812205D01*
X89559774Y-49698937D01*
X89703937Y-49554774D01*
X89817205Y-49385256D01*
X89895226Y-49196898D01*
X89935000Y-48996939D01*
X89935000Y-48934802D01*
X90046002Y-48823800D01*
X90075001Y-48800001D01*
X90169974Y-48684276D01*
X90240546Y-48552247D01*
X90284003Y-48408986D01*
X90295000Y-48297333D01*
X90298677Y-48260000D01*
X90295000Y-48222667D01*
X90295000Y-43644117D01*
X96760000Y-43644117D01*
X96760000Y-43985883D01*
X96826675Y-44321081D01*
X96957463Y-44636831D01*
X97147337Y-44920998D01*
X97389002Y-45162663D01*
X97673169Y-45352537D01*
X97988919Y-45483325D01*
X98324117Y-45550000D01*
X98665883Y-45550000D01*
X99001081Y-45483325D01*
X99316831Y-45352537D01*
X99600998Y-45162663D01*
X99842663Y-44920998D01*
X100032537Y-44636831D01*
X100163325Y-44321081D01*
X100230000Y-43985883D01*
X100230000Y-43644117D01*
X100163325Y-43308919D01*
X100032537Y-42993169D01*
X99842663Y-42709002D01*
X99600998Y-42467337D01*
X99316831Y-42277463D01*
X99001081Y-42146675D01*
X98665883Y-42080000D01*
X98324117Y-42080000D01*
X97988919Y-42146675D01*
X97673169Y-42277463D01*
X97389002Y-42467337D01*
X97147337Y-42709002D01*
X96957463Y-42993169D01*
X96826675Y-43308919D01*
X96760000Y-43644117D01*
X90295000Y-43644117D01*
X90295000Y-26043178D01*
X90481632Y-25918475D01*
X90613487Y-25786620D01*
X90635498Y-25859180D01*
X90694463Y-25969494D01*
X90773815Y-26066185D01*
X90870506Y-26145537D01*
X90980820Y-26204502D01*
X91100518Y-26240812D01*
X91225000Y-26253072D01*
X92925000Y-26253072D01*
X93049482Y-26240812D01*
X93169180Y-26204502D01*
X93279494Y-26145537D01*
X93376185Y-26066185D01*
X93455537Y-25969494D01*
X93514502Y-25859180D01*
X93550812Y-25739482D01*
X93563072Y-25615000D01*
X93563072Y-23915000D01*
X93550812Y-23790518D01*
X93514502Y-23670820D01*
X93455537Y-23560506D01*
X93376185Y-23463815D01*
X93279494Y-23384463D01*
X93169180Y-23325498D01*
X93049482Y-23289188D01*
X92925000Y-23276928D01*
X91225000Y-23276928D01*
X91100518Y-23289188D01*
X90980820Y-23325498D01*
X90870506Y-23384463D01*
X90773815Y-23463815D01*
X90694463Y-23560506D01*
X90635498Y-23670820D01*
X90613487Y-23743380D01*
X90481632Y-23611525D01*
X90238411Y-23449010D01*
X89968158Y-23337068D01*
X89681260Y-23280000D01*
X89388740Y-23280000D01*
X89101842Y-23337068D01*
X88831589Y-23449010D01*
X88588368Y-23611525D01*
X88381525Y-23818368D01*
X88265000Y-23992760D01*
X88148475Y-23818368D01*
X87941632Y-23611525D01*
X87698411Y-23449010D01*
X87428158Y-23337068D01*
X87141260Y-23280000D01*
X86848740Y-23280000D01*
X86561842Y-23337068D01*
X86291589Y-23449010D01*
X86048368Y-23611525D01*
X85841525Y-23818368D01*
X85725000Y-23992760D01*
X85608475Y-23818368D01*
X85401632Y-23611525D01*
X85158411Y-23449010D01*
X84888158Y-23337068D01*
X84601260Y-23280000D01*
X84308740Y-23280000D01*
X84021842Y-23337068D01*
X83751589Y-23449010D01*
X83508368Y-23611525D01*
X83301525Y-23818368D01*
X83185000Y-23992760D01*
X83068475Y-23818368D01*
X82861632Y-23611525D01*
X82618411Y-23449010D01*
X82348158Y-23337068D01*
X82061260Y-23280000D01*
X81768740Y-23280000D01*
X81481842Y-23337068D01*
X81211589Y-23449010D01*
X80968368Y-23611525D01*
X80761525Y-23818368D01*
X80645000Y-23992760D01*
X80528475Y-23818368D01*
X80321632Y-23611525D01*
X80078411Y-23449010D01*
X79808158Y-23337068D01*
X79521260Y-23280000D01*
X79228740Y-23280000D01*
X78941842Y-23337068D01*
X78671589Y-23449010D01*
X78428368Y-23611525D01*
X78221525Y-23818368D01*
X78105000Y-23992760D01*
X77988475Y-23818368D01*
X77781632Y-23611525D01*
X77538411Y-23449010D01*
X77268158Y-23337068D01*
X76981260Y-23280000D01*
X76688740Y-23280000D01*
X76401842Y-23337068D01*
X76131589Y-23449010D01*
X75888368Y-23611525D01*
X75681525Y-23818368D01*
X75565000Y-23992760D01*
X75448475Y-23818368D01*
X75241632Y-23611525D01*
X74998411Y-23449010D01*
X74728158Y-23337068D01*
X74441260Y-23280000D01*
X74148740Y-23280000D01*
X73861842Y-23337068D01*
X73591589Y-23449010D01*
X73348368Y-23611525D01*
X73141525Y-23818368D01*
X73025000Y-23992760D01*
X72908475Y-23818368D01*
X72701632Y-23611525D01*
X72458411Y-23449010D01*
X72188158Y-23337068D01*
X71901260Y-23280000D01*
X71608740Y-23280000D01*
X71321842Y-23337068D01*
X71051589Y-23449010D01*
X70808368Y-23611525D01*
X70601525Y-23818368D01*
X70485000Y-23992760D01*
X70368475Y-23818368D01*
X70161632Y-23611525D01*
X69918411Y-23449010D01*
X69648158Y-23337068D01*
X69361260Y-23280000D01*
X69068740Y-23280000D01*
X68781842Y-23337068D01*
X68511589Y-23449010D01*
X68268368Y-23611525D01*
X68061525Y-23818368D01*
X67945000Y-23992760D01*
X67828475Y-23818368D01*
X67621632Y-23611525D01*
X67378411Y-23449010D01*
X67108158Y-23337068D01*
X66821260Y-23280000D01*
X66528740Y-23280000D01*
X66241842Y-23337068D01*
X65971589Y-23449010D01*
X65728368Y-23611525D01*
X65521525Y-23818368D01*
X65405000Y-23992760D01*
X65288475Y-23818368D01*
X65081632Y-23611525D01*
X64838411Y-23449010D01*
X64568158Y-23337068D01*
X64281260Y-23280000D01*
X63988740Y-23280000D01*
X63701842Y-23337068D01*
X63431589Y-23449010D01*
X63188368Y-23611525D01*
X62981525Y-23818368D01*
X62865000Y-23992760D01*
X62748475Y-23818368D01*
X62541632Y-23611525D01*
X62298411Y-23449010D01*
X62028158Y-23337068D01*
X61741260Y-23280000D01*
X61448740Y-23280000D01*
X61161842Y-23337068D01*
X60891589Y-23449010D01*
X60648368Y-23611525D01*
X60441525Y-23818368D01*
X60325000Y-23992760D01*
X60208475Y-23818368D01*
X60001632Y-23611525D01*
X59758411Y-23449010D01*
X59488158Y-23337068D01*
X59201260Y-23280000D01*
X58908740Y-23280000D01*
X58621842Y-23337068D01*
X58351589Y-23449010D01*
X58108368Y-23611525D01*
X57901525Y-23818368D01*
X57779805Y-24000534D01*
X57710178Y-23883645D01*
X57515269Y-23667412D01*
X57281920Y-23493359D01*
X57019099Y-23368175D01*
X56871890Y-23323524D01*
X56642000Y-23444845D01*
X56388000Y-23444845D01*
X56158110Y-23323524D01*
X56010901Y-23368175D01*
X55748080Y-23493359D01*
X55514731Y-23667412D01*
X55319822Y-23883645D01*
X55170843Y-24133748D01*
X55073519Y-24408109D01*
X14655000Y-24408109D01*
X14655000Y-22910000D01*
X133935000Y-22910000D01*
X133935001Y-78690000D01*
G37*
%TD.AperFunction*%
%TD*%
M02*
