%TF.GenerationSoftware,KiCad,Pcbnew,(5.1.9)-1*%
%TF.CreationDate,2022-04-18T13:04:53-05:00*%
%TF.ProjectId,Main Board,4d61696e-2042-46f6-9172-642e6b696361,rev?*%
%TF.SameCoordinates,Original*%
%TF.FileFunction,Copper,L1,Top*%
%TF.FilePolarity,Positive*%
%FSLAX46Y46*%
G04 Gerber Fmt 4.6, Leading zero omitted, Abs format (unit mm)*
G04 Created by KiCad (PCBNEW (5.1.9)-1) date 2022-04-18 13:04:53*
%MOMM*%
%LPD*%
G01*
G04 APERTURE LIST*
%TA.AperFunction,ComponentPad*%
%ADD10R,1.520000X1.520000*%
%TD*%
%TA.AperFunction,ComponentPad*%
%ADD11C,1.520000*%
%TD*%
%TA.AperFunction,ComponentPad*%
%ADD12C,2.000000*%
%TD*%
%TA.AperFunction,ComponentPad*%
%ADD13O,1.600000X1.600000*%
%TD*%
%TA.AperFunction,ComponentPad*%
%ADD14C,1.600000*%
%TD*%
%TA.AperFunction,ComponentPad*%
%ADD15R,1.700000X1.700000*%
%TD*%
%TA.AperFunction,ComponentPad*%
%ADD16O,1.700000X1.700000*%
%TD*%
%TA.AperFunction,ComponentPad*%
%ADD17R,1.600000X1.600000*%
%TD*%
%TA.AperFunction,ComponentPad*%
%ADD18O,2.641600X1.320800*%
%TD*%
%TA.AperFunction,ComponentPad*%
%ADD19C,1.800000*%
%TD*%
%TA.AperFunction,ComponentPad*%
%ADD20C,4.460000*%
%TD*%
%TA.AperFunction,ViaPad*%
%ADD21C,0.800000*%
%TD*%
%TA.AperFunction,Conductor*%
%ADD22C,0.250000*%
%TD*%
%TA.AperFunction,Conductor*%
%ADD23C,0.635000*%
%TD*%
%TA.AperFunction,Conductor*%
%ADD24C,0.254000*%
%TD*%
%TA.AperFunction,Conductor*%
%ADD25C,0.100000*%
%TD*%
G04 APERTURE END LIST*
D10*
%TO.P,U1,J1_1*%
%TO.N,+3V3*%
X37465000Y-62865000D03*
D11*
%TO.P,U1,J1_2*%
%TO.N,/DAC5*%
X37465000Y-65405000D03*
%TO.P,U1,J1_3*%
%TO.N,/DAC0*%
X37465000Y-67945000D03*
%TO.P,U1,J1_4*%
%TO.N,/DAC1*%
X37465000Y-70485000D03*
%TO.P,U1,J1_5*%
%TO.N,/BL2*%
X37465000Y-73025000D03*
%TO.P,U1,J1_6*%
%TO.N,/BR2*%
X37465000Y-75565000D03*
%TO.P,U1,J1_7*%
%TO.N,/DAC4*%
X37465000Y-78105000D03*
%TO.P,U1,J1_8*%
%TO.N,/MOSI*%
X37465000Y-80645000D03*
%TO.P,U1,J1_9*%
%TO.N,/D_C*%
X37465000Y-83185000D03*
%TO.P,U1,J1_10*%
%TO.N,/RESET*%
X37465000Y-85725000D03*
%TO.P,U1,J2_1*%
%TO.N,GND*%
X83185000Y-62865000D03*
%TO.P,U1,J3_1*%
%TO.N,+5V*%
X40005000Y-62865000D03*
%TO.P,U1,J4_1*%
%TO.N,Net-(U1-PadJ4_1)*%
X80645000Y-62865000D03*
%TO.P,U1,J2_2*%
%TO.N,/DAC2*%
X83185000Y-65405000D03*
%TO.P,U1,J3_2*%
%TO.N,GND*%
X40005000Y-65405000D03*
%TO.P,U1,J4_2*%
%TO.N,Net-(U1-PadJ4_2)*%
X80645000Y-65405000D03*
%TO.P,U1,J2_3*%
%TO.N,/J1_X*%
X83185000Y-67945000D03*
%TO.P,U1,J3_3*%
%TO.N,/CARD_CS*%
X40005000Y-67945000D03*
%TO.P,U1,J4_3*%
%TO.N,/DAC3*%
X80645000Y-67945000D03*
%TO.P,U1,J2_4*%
%TO.N,Net-(U1-PadJ2_4)*%
X83185000Y-70485000D03*
%TO.P,U1,J3_4*%
%TO.N,/A2*%
X40005000Y-70485000D03*
%TO.P,U1,J4_4*%
%TO.N,Net-(J3-Pad3)*%
X80645000Y-70485000D03*
%TO.P,U1,J2_5*%
%TO.N,Net-(U1-PadJ2_5)*%
X83185000Y-73025000D03*
%TO.P,U1,J3_5*%
%TO.N,/B2*%
X40005000Y-73025000D03*
%TO.P,U1,J4_5*%
%TO.N,Net-(J3-Pad2)*%
X80645000Y-73025000D03*
%TO.P,U1,J2_6*%
%TO.N,/DAC7*%
X83185000Y-75565000D03*
%TO.P,U1,J3_6*%
%TO.N,/TEXAS*%
X40005000Y-75565000D03*
%TO.P,U1,J4_6*%
%TO.N,/BR1*%
X80645000Y-75565000D03*
%TO.P,U1,J2_7*%
%TO.N,/DAC6*%
X83185000Y-78105000D03*
%TO.P,U1,J3_7*%
%TO.N,/J1_Y*%
X40005000Y-78105000D03*
%TO.P,U1,J4_7*%
%TO.N,/BL1*%
X80645000Y-78105000D03*
%TO.P,U1,J2_8*%
%TO.N,/MISO*%
X83185000Y-80645000D03*
%TO.P,U1,J3_8*%
%TO.N,/J2_X*%
X40005000Y-80645000D03*
%TO.P,U1,J4_8*%
%TO.N,/B1*%
X80645000Y-80645000D03*
%TO.P,U1,J2_9*%
%TO.N,/TFT_CS*%
X83185000Y-83185000D03*
%TO.P,U1,J3_9*%
%TO.N,/J2_Y*%
X40005000Y-83185000D03*
%TO.P,U1,J4_9*%
%TO.N,/A1*%
X80645000Y-83185000D03*
%TO.P,U1,J2_10*%
%TO.N,/SCK*%
X83185000Y-85725000D03*
%TO.P,U1,J3_10*%
%TO.N,Net-(U1-PadJ3_10)*%
X40005000Y-85725000D03*
%TO.P,U1,J4_10*%
%TO.N,Net-(U1-PadJ4_10)*%
X80645000Y-85725000D03*
%TD*%
D12*
%TO.P,LS1,2*%
%TO.N,Net-(C1-Pad1)*%
X90908000Y-137287000D03*
%TO.P,LS1,1*%
%TO.N,Net-(C1-Pad2)*%
X75908000Y-137287000D03*
%TD*%
D13*
%TO.P,R12,2*%
%TO.N,/DACOUT*%
X41783000Y-154432000D03*
D14*
%TO.P,R12,1*%
%TO.N,GND*%
X34163000Y-154432000D03*
%TD*%
D13*
%TO.P,R11,2*%
%TO.N,/DACOUT*%
X41783000Y-149352000D03*
D14*
%TO.P,R11,1*%
%TO.N,GND*%
X34163000Y-149352000D03*
%TD*%
D13*
%TO.P,R1,2*%
%TO.N,/DAC0*%
X34163000Y-103632000D03*
D14*
%TO.P,R1,1*%
%TO.N,/DACOUT*%
X41783000Y-103632000D03*
%TD*%
D13*
%TO.P,R2,2*%
%TO.N,/DAC1*%
X22098000Y-113792000D03*
D14*
%TO.P,R2,1*%
%TO.N,Net-(R10-Pad2)*%
X29718000Y-113792000D03*
%TD*%
D13*
%TO.P,R3,2*%
%TO.N,/DAC2*%
X34163000Y-118872000D03*
D14*
%TO.P,R3,1*%
%TO.N,/DACOUT*%
X41783000Y-118872000D03*
%TD*%
D13*
%TO.P,R4,2*%
%TO.N,/DAC3*%
X34163000Y-123952000D03*
D14*
%TO.P,R4,1*%
%TO.N,/DACOUT*%
X41783000Y-123952000D03*
%TD*%
D13*
%TO.P,R5,2*%
%TO.N,/DAC4*%
X34163000Y-129032000D03*
D14*
%TO.P,R5,1*%
%TO.N,/DACOUT*%
X41783000Y-129032000D03*
%TD*%
D13*
%TO.P,R6,2*%
%TO.N,/DAC5*%
X34163000Y-134112000D03*
D14*
%TO.P,R6,1*%
%TO.N,/DACOUT*%
X41783000Y-134112000D03*
%TD*%
D13*
%TO.P,R7,2*%
%TO.N,/DAC6*%
X34163000Y-139192000D03*
D14*
%TO.P,R7,1*%
%TO.N,/DACOUT*%
X41783000Y-139192000D03*
%TD*%
D13*
%TO.P,R8,2*%
%TO.N,/DAC7*%
X34163000Y-144272000D03*
D14*
%TO.P,R8,1*%
%TO.N,/DACOUT*%
X41783000Y-144272000D03*
%TD*%
D13*
%TO.P,R9,2*%
%TO.N,/DAC0*%
X34163000Y-108712000D03*
D14*
%TO.P,R9,1*%
%TO.N,/DACOUT*%
X41783000Y-108712000D03*
%TD*%
D13*
%TO.P,R10,2*%
%TO.N,Net-(R10-Pad2)*%
X34163000Y-113792000D03*
D14*
%TO.P,R10,1*%
%TO.N,/DACOUT*%
X41783000Y-113792000D03*
%TD*%
D13*
%TO.P,R23,2*%
%TO.N,Net-(C2-Pad1)*%
X61087000Y-118872000D03*
D14*
%TO.P,R23,1*%
%TO.N,Net-(IC1-Pad4)*%
X68707000Y-118872000D03*
%TD*%
D15*
%TO.P,J4,1*%
%TO.N,/TEXAS*%
X39243000Y-159512000D03*
D16*
%TO.P,J4,2*%
%TO.N,/DACOUT*%
X41783000Y-159512000D03*
%TD*%
D15*
%TO.P,J3,1*%
%TO.N,GND*%
X95250000Y-75565000D03*
D16*
%TO.P,J3,2*%
%TO.N,Net-(J3-Pad2)*%
X95250000Y-73025000D03*
%TO.P,J3,3*%
%TO.N,Net-(J3-Pad3)*%
X95250000Y-70485000D03*
%TD*%
D17*
%TO.P,C1,1*%
%TO.N,Net-(C1-Pad1)*%
X90043000Y-108712000D03*
D14*
%TO.P,C1,2*%
%TO.N,Net-(C1-Pad2)*%
X90043000Y-113712000D03*
%TD*%
%TO.P,C2,2*%
%TO.N,/DACOUT*%
X50880000Y-120142000D03*
D17*
%TO.P,C2,1*%
%TO.N,Net-(C2-Pad1)*%
X55880000Y-120142000D03*
%TD*%
%TO.P,C3,1*%
%TO.N,Net-(C3-Pad1)*%
X61595000Y-108712000D03*
D14*
%TO.P,C3,2*%
%TO.N,GND*%
X66595000Y-108712000D03*
%TD*%
%TO.P,C4,2*%
%TO.N,GND*%
X55927000Y-108712000D03*
D17*
%TO.P,C4,1*%
%TO.N,Net-(C4-Pad1)*%
X50927000Y-108712000D03*
%TD*%
D18*
%TO.P,IC1,1*%
%TO.N,GND*%
X73533000Y-108712000D03*
%TO.P,IC1,2*%
%TO.N,Net-(C4-Pad1)*%
X73533000Y-111252000D03*
%TO.P,IC1,7*%
%TO.N,GND*%
X81153000Y-111252000D03*
%TO.P,IC1,8*%
%TO.N,Net-(C1-Pad1)*%
X81153000Y-108712000D03*
%TO.P,IC1,3*%
%TO.N,Net-(C3-Pad1)*%
X73533000Y-113792000D03*
%TO.P,IC1,4*%
%TO.N,Net-(IC1-Pad4)*%
X73533000Y-116332000D03*
%TO.P,IC1,6*%
%TO.N,+5V*%
X81153000Y-113792000D03*
%TO.P,IC1,5*%
%TO.N,Net-(C1-Pad2)*%
X81153000Y-116332000D03*
%TD*%
D15*
%TO.P,J1,1*%
%TO.N,+3V3*%
X42545000Y-17145000D03*
D16*
%TO.P,J1,2*%
%TO.N,/MISO*%
X45085000Y-17145000D03*
%TO.P,J1,3*%
%TO.N,/SCK*%
X47625000Y-17145000D03*
%TO.P,J1,4*%
%TO.N,/MOSI*%
X50165000Y-17145000D03*
%TO.P,J1,5*%
%TO.N,/TFT_CS*%
X52705000Y-17145000D03*
%TO.P,J1,6*%
%TO.N,/CARD_CS*%
X55245000Y-17145000D03*
%TO.P,J1,7*%
%TO.N,/D_C*%
X57785000Y-17145000D03*
%TO.P,J1,8*%
%TO.N,/RESET*%
X60325000Y-17145000D03*
%TO.P,J1,9*%
%TO.N,/A1*%
X62865000Y-17145000D03*
%TO.P,J1,10*%
%TO.N,/B1*%
X65405000Y-17145000D03*
%TO.P,J1,11*%
%TO.N,/J1_X*%
X67945000Y-17145000D03*
%TO.P,J1,12*%
%TO.N,/J1_Y*%
X70485000Y-17145000D03*
%TO.P,J1,13*%
%TO.N,/BL1*%
X73025000Y-17145000D03*
%TO.P,J1,14*%
%TO.N,/BR1*%
X75565000Y-17145000D03*
%TO.P,J1,15*%
%TO.N,GND*%
X78105000Y-17145000D03*
%TD*%
%TO.P,J2,15*%
%TO.N,GND*%
X78105000Y-26670000D03*
%TO.P,J2,14*%
%TO.N,/BR2*%
X75565000Y-26670000D03*
%TO.P,J2,13*%
%TO.N,/BL2*%
X73025000Y-26670000D03*
%TO.P,J2,12*%
%TO.N,/J2_Y*%
X70485000Y-26670000D03*
%TO.P,J2,11*%
%TO.N,/J2_X*%
X67945000Y-26670000D03*
%TO.P,J2,10*%
%TO.N,/B2*%
X65405000Y-26670000D03*
%TO.P,J2,9*%
%TO.N,/A2*%
X62865000Y-26670000D03*
%TO.P,J2,8*%
%TO.N,/RESET*%
X60325000Y-26670000D03*
%TO.P,J2,7*%
%TO.N,/D_C*%
X57785000Y-26670000D03*
%TO.P,J2,6*%
%TO.N,/CARD_CS*%
X55245000Y-26670000D03*
%TO.P,J2,5*%
%TO.N,/TFT_CS*%
X52705000Y-26670000D03*
%TO.P,J2,4*%
%TO.N,/MOSI*%
X50165000Y-26670000D03*
%TO.P,J2,3*%
%TO.N,/SCK*%
X47625000Y-26670000D03*
%TO.P,J2,2*%
%TO.N,/MISO*%
X45085000Y-26670000D03*
D15*
%TO.P,J2,1*%
%TO.N,+3V3*%
X42545000Y-26670000D03*
%TD*%
D19*
%TO.P,RV1,1*%
%TO.N,Net-(C1-Pad2)*%
X55875000Y-143652000D03*
%TO.P,RV1,2*%
%TO.N,Net-(IC1-Pad4)*%
X58375000Y-143652000D03*
%TO.P,RV1,3*%
%TO.N,GND*%
X60875000Y-143652000D03*
D20*
%TO.P,RV1,4*%
%TO.N,N/C*%
X53975000Y-136652000D03*
%TO.P,RV1,5*%
X62775000Y-136652000D03*
%TD*%
D21*
%TO.N,Net-(C1-Pad2)*%
X56515000Y-147320000D03*
X75819000Y-147320000D03*
X76962000Y-121158000D03*
X81153000Y-120777000D03*
%TO.N,Net-(C3-Pad1)*%
X62230000Y-113665000D03*
%TO.N,Net-(IC1-Pad4)*%
X59690000Y-120650000D03*
%TO.N,+5V*%
X76835000Y-64135000D03*
X77470000Y-113665000D03*
%TO.N,/MISO*%
X45720000Y-81915000D03*
%TO.N,/SCK*%
X48260000Y-86995000D03*
%TO.N,/MOSI*%
X48895000Y-79375000D03*
%TO.N,/TFT_CS*%
X53975000Y-84455000D03*
%TO.N,/CARD_CS*%
X54610000Y-67945000D03*
%TO.N,/D_C*%
X57150000Y-83185000D03*
%TO.N,/RESET*%
X59690000Y-88265000D03*
%TO.N,/A1*%
X64135000Y-83185000D03*
%TO.N,/B1*%
X66675000Y-80645000D03*
%TO.N,/J1_X*%
X69215000Y-69215000D03*
%TO.N,/J1_Y*%
X71755000Y-78105000D03*
%TO.N,/BL1*%
X74930000Y-78105000D03*
%TO.N,/BR2*%
X75565000Y-76835000D03*
%TO.N,/BL2*%
X73025000Y-71755000D03*
%TO.N,/J2_Y*%
X69850000Y-85725000D03*
X45720000Y-85725000D03*
%TO.N,/J2_X*%
X67945000Y-79375000D03*
%TO.N,/B2*%
X65405000Y-73025000D03*
%TO.N,/A2*%
X62230000Y-70485000D03*
%TO.N,/DAC1*%
X23495000Y-70485000D03*
%TO.N,/DAC2*%
X59055000Y-67310000D03*
X56515000Y-99695000D03*
X32385000Y-100965000D03*
%TO.N,/DAC3*%
X86360000Y-100330000D03*
X36195000Y-101600000D03*
%TO.N,/DAC5*%
X38735000Y-96520000D03*
X31750000Y-95885000D03*
%TO.N,/DAC6*%
X41275000Y-92710000D03*
X84455000Y-92710000D03*
%TO.N,/DAC7*%
X43815000Y-141605000D03*
X45720000Y-97790000D03*
X87630000Y-95885000D03*
X88265000Y-75565000D03*
%TO.N,/TEXAS*%
X24765000Y-74930000D03*
X25400000Y-159385000D03*
%TD*%
D22*
%TO.N,Net-(C1-Pad1)*%
X90908000Y-137287000D02*
X93853000Y-137287000D01*
X93853000Y-137287000D02*
X95250000Y-135890000D01*
X95250000Y-135890000D02*
X95250000Y-110490000D01*
X93472000Y-108712000D02*
X90043000Y-108712000D01*
X95250000Y-110490000D02*
X93472000Y-108712000D01*
%TO.N,Net-(C1-Pad2)*%
X55875000Y-143652000D02*
X55875000Y-146680000D01*
X55875000Y-146680000D02*
X56515000Y-147320000D01*
X75908000Y-147231000D02*
X75819000Y-147320000D01*
X75908000Y-137287000D02*
X75908000Y-147231000D01*
X75908000Y-122212000D02*
X76962000Y-121158000D01*
X75908000Y-137287000D02*
X75908000Y-122212000D01*
X81153000Y-120777000D02*
X81153000Y-116332000D01*
%TO.N,Net-(C3-Pad1)*%
X61595000Y-113030000D02*
X62230000Y-113665000D01*
X61595000Y-108712000D02*
X61595000Y-113030000D01*
%TO.N,Net-(IC1-Pad4)*%
X58375000Y-121965000D02*
X59690000Y-120650000D01*
X58375000Y-143652000D02*
X58375000Y-121965000D01*
D23*
%TO.N,+5V*%
X76835000Y-64135000D02*
X76835000Y-109855000D01*
X76835000Y-113030000D02*
X77470000Y-113665000D01*
X76835000Y-109855000D02*
X76835000Y-113030000D01*
%TO.N,+3V3*%
X42545000Y-17145000D02*
X42545000Y-26670000D01*
X42545000Y-26670000D02*
X39370000Y-26670000D01*
X37465000Y-28575000D02*
X37465000Y-62865000D01*
X39370000Y-26670000D02*
X37465000Y-28575000D01*
D22*
%TO.N,/MISO*%
X45085000Y-17145000D02*
X45085000Y-26670000D01*
X45085000Y-81280000D02*
X45720000Y-81915000D01*
X45085000Y-26670000D02*
X45085000Y-81280000D01*
%TO.N,/SCK*%
X47625000Y-17145000D02*
X47625000Y-26670000D01*
X47625000Y-86360000D02*
X48260000Y-86995000D01*
X47625000Y-26670000D02*
X47625000Y-86360000D01*
%TO.N,/MOSI*%
X50165000Y-17145000D02*
X50165000Y-26670000D01*
X50165000Y-78105000D02*
X48895000Y-79375000D01*
X50165000Y-26670000D02*
X50165000Y-78105000D01*
%TO.N,/TFT_CS*%
X52705000Y-17145000D02*
X52705000Y-26670000D01*
X52705000Y-83185000D02*
X53975000Y-84455000D01*
X52705000Y-26670000D02*
X52705000Y-83185000D01*
%TO.N,/CARD_CS*%
X55245000Y-17145000D02*
X55245000Y-26670000D01*
X55245000Y-67310000D02*
X54610000Y-67945000D01*
X55245000Y-26670000D02*
X55245000Y-67310000D01*
%TO.N,/D_C*%
X57785000Y-17145000D02*
X57785000Y-26670000D01*
X57785000Y-82550000D02*
X57150000Y-83185000D01*
X57785000Y-26670000D02*
X57785000Y-82550000D01*
%TO.N,/RESET*%
X60325000Y-17145000D02*
X60325000Y-26670000D01*
X60325000Y-87630000D02*
X59690000Y-88265000D01*
X60325000Y-26670000D02*
X60325000Y-87630000D01*
%TO.N,/A1*%
X62865000Y-17145000D02*
X64135000Y-18415000D01*
X64135000Y-18415000D02*
X64135000Y-83185000D01*
%TO.N,/B1*%
X65405000Y-17145000D02*
X66675000Y-18415000D01*
X66675000Y-18415000D02*
X66675000Y-80010000D01*
X66675000Y-80010000D02*
X66675000Y-80645000D01*
%TO.N,/J1_X*%
X69215000Y-67945000D02*
X69215000Y-69215000D01*
X69215000Y-18415000D02*
X69215000Y-67945000D01*
X67945000Y-17145000D02*
X69215000Y-18415000D01*
%TO.N,/J1_Y*%
X71755000Y-77470000D02*
X71755000Y-78105000D01*
X71755000Y-18415000D02*
X71755000Y-77470000D01*
X70485000Y-17145000D02*
X71755000Y-18415000D01*
%TO.N,/BL1*%
X73025000Y-17145000D02*
X74295000Y-18415000D01*
X74295000Y-77470000D02*
X74930000Y-78105000D01*
X74295000Y-18415000D02*
X74295000Y-77470000D01*
%TO.N,/BR1*%
X78740000Y-73660000D02*
X80645000Y-75565000D01*
X78740000Y-61595000D02*
X78740000Y-73660000D01*
X76835000Y-59690000D02*
X78740000Y-61595000D01*
X76835000Y-18415000D02*
X76835000Y-59690000D01*
X75565000Y-17145000D02*
X76835000Y-18415000D01*
%TO.N,/BR2*%
X75565000Y-26670000D02*
X75565000Y-75565000D01*
X75565000Y-75565000D02*
X75565000Y-76835000D01*
%TO.N,/BL2*%
X73025000Y-26670000D02*
X73025000Y-71755000D01*
%TO.N,/J2_Y*%
X70485000Y-85090000D02*
X69850000Y-85725000D01*
X70485000Y-26670000D02*
X70485000Y-85090000D01*
X45720000Y-85725000D02*
X45720000Y-84455000D01*
X44450000Y-83185000D02*
X40005000Y-83185000D01*
X45720000Y-84455000D02*
X44450000Y-83185000D01*
%TO.N,/J2_X*%
X67945000Y-26670000D02*
X67945000Y-79375000D01*
%TO.N,/B2*%
X65405000Y-26670000D02*
X65405000Y-73025000D01*
%TO.N,/A2*%
X62865000Y-69850000D02*
X62230000Y-70485000D01*
X62865000Y-26670000D02*
X62865000Y-69850000D01*
%TO.N,/DAC0*%
X37465000Y-67945000D02*
X34925000Y-67945000D01*
X34163000Y-68707000D02*
X34163000Y-103632000D01*
X34925000Y-67945000D02*
X34163000Y-68707000D01*
X34163000Y-103632000D02*
X34163000Y-108712000D01*
%TO.N,/DAC1*%
X22098000Y-71882000D02*
X23495000Y-70485000D01*
X22098000Y-113792000D02*
X22098000Y-71882000D01*
%TO.N,/DAC2*%
X58420000Y-97790000D02*
X56515000Y-99695000D01*
X32385000Y-117094000D02*
X34163000Y-118872000D01*
X32385000Y-100965000D02*
X32385000Y-117094000D01*
X59055000Y-67310000D02*
X59055000Y-85090000D01*
X58420000Y-85725000D02*
X58420000Y-97790000D01*
X59055000Y-85090000D02*
X58420000Y-85725000D01*
%TO.N,/DAC3*%
X80645000Y-67945000D02*
X81915000Y-66675000D01*
X81915000Y-66675000D02*
X85090000Y-66675000D01*
X85090000Y-66675000D02*
X85725000Y-66675000D01*
X86360000Y-67310000D02*
X86360000Y-100330000D01*
X85725000Y-66675000D02*
X86360000Y-67310000D01*
X36195000Y-101600000D02*
X35560000Y-102235000D01*
X35560000Y-122555000D02*
X34163000Y-123952000D01*
X35560000Y-102235000D02*
X35560000Y-122555000D01*
%TO.N,/DAC4*%
X37465000Y-78105000D02*
X35560000Y-80010000D01*
X35560000Y-80010000D02*
X35560000Y-89535000D01*
X35560000Y-89535000D02*
X37465000Y-91440000D01*
X37465000Y-91440000D02*
X37465000Y-102235000D01*
X37465000Y-102235000D02*
X36830000Y-102870000D01*
X36830000Y-126365000D02*
X34163000Y-129032000D01*
X36830000Y-102870000D02*
X36830000Y-126365000D01*
%TO.N,/DAC5*%
X34163000Y-134112000D02*
X34163000Y-132207000D01*
X38735000Y-127635000D02*
X38735000Y-96520000D01*
X34163000Y-132207000D02*
X38735000Y-127635000D01*
X31750000Y-95885000D02*
X31750000Y-66675000D01*
X33020000Y-65405000D02*
X37465000Y-65405000D01*
X31750000Y-66675000D02*
X33020000Y-65405000D01*
%TO.N,/DAC6*%
X34163000Y-139192000D02*
X35288001Y-138066999D01*
X35288001Y-138066999D02*
X40005000Y-133350000D01*
X40005000Y-93980000D02*
X41275000Y-92710000D01*
X40005000Y-133350000D02*
X40005000Y-93980000D01*
X84455000Y-78105000D02*
X83185000Y-78105000D01*
X85090000Y-78740000D02*
X84455000Y-78105000D01*
X85090000Y-92075000D02*
X85090000Y-78740000D01*
X84455000Y-92710000D02*
X85090000Y-92075000D01*
%TO.N,/DAC7*%
X43815000Y-141605000D02*
X45085000Y-140335000D01*
X45720000Y-139700000D02*
X45720000Y-97790000D01*
X45085000Y-140335000D02*
X45720000Y-139700000D01*
X87630000Y-95885000D02*
X88900000Y-94615000D01*
X88900000Y-94615000D02*
X88900000Y-77470000D01*
X88900000Y-76200000D02*
X88265000Y-75565000D01*
X88900000Y-77470000D02*
X88900000Y-76200000D01*
%TO.N,/DACOUT*%
X41783000Y-103632000D02*
X41783000Y-108712000D01*
X41783000Y-108712000D02*
X41783000Y-159512000D01*
%TO.N,/TEXAS*%
X24765000Y-74930000D02*
X24765000Y-78105000D01*
X24765000Y-158750000D02*
X25400000Y-159385000D01*
X24765000Y-78105000D02*
X24765000Y-158750000D01*
%TD*%
D24*
%TO.N,GND*%
X100915001Y-164415000D02*
X19735000Y-164415000D01*
X19735000Y-113650665D01*
X20663000Y-113650665D01*
X20663000Y-113933335D01*
X20718147Y-114210574D01*
X20826320Y-114471727D01*
X20983363Y-114706759D01*
X21183241Y-114906637D01*
X21418273Y-115063680D01*
X21679426Y-115171853D01*
X21956665Y-115227000D01*
X22239335Y-115227000D01*
X22516574Y-115171853D01*
X22777727Y-115063680D01*
X23012759Y-114906637D01*
X23212637Y-114706759D01*
X23369680Y-114471727D01*
X23477853Y-114210574D01*
X23533000Y-113933335D01*
X23533000Y-113650665D01*
X23477853Y-113373426D01*
X23369680Y-113112273D01*
X23212637Y-112877241D01*
X23012759Y-112677363D01*
X22858000Y-112573957D01*
X22858000Y-74828061D01*
X23730000Y-74828061D01*
X23730000Y-75031939D01*
X23769774Y-75231898D01*
X23847795Y-75420256D01*
X23961063Y-75589774D01*
X24005000Y-75633711D01*
X24005001Y-78067658D01*
X24005000Y-78067668D01*
X24005001Y-158712667D01*
X24001324Y-158750000D01*
X24015998Y-158898985D01*
X24059454Y-159042246D01*
X24130026Y-159174276D01*
X24180694Y-159236014D01*
X24225000Y-159290001D01*
X24253998Y-159313799D01*
X24365000Y-159424801D01*
X24365000Y-159486939D01*
X24404774Y-159686898D01*
X24482795Y-159875256D01*
X24596063Y-160044774D01*
X24740226Y-160188937D01*
X24909744Y-160302205D01*
X25098102Y-160380226D01*
X25298061Y-160420000D01*
X25501939Y-160420000D01*
X25701898Y-160380226D01*
X25890256Y-160302205D01*
X26059774Y-160188937D01*
X26203937Y-160044774D01*
X26317205Y-159875256D01*
X26395226Y-159686898D01*
X26435000Y-159486939D01*
X26435000Y-159283061D01*
X26395226Y-159083102D01*
X26317205Y-158894744D01*
X26203937Y-158725226D01*
X26059774Y-158581063D01*
X25890256Y-158467795D01*
X25701898Y-158389774D01*
X25525000Y-158354587D01*
X25525000Y-155424702D01*
X33349903Y-155424702D01*
X33421486Y-155668671D01*
X33676996Y-155789571D01*
X33951184Y-155858300D01*
X34233512Y-155872217D01*
X34513130Y-155830787D01*
X34779292Y-155735603D01*
X34904514Y-155668671D01*
X34976097Y-155424702D01*
X34163000Y-154611605D01*
X33349903Y-155424702D01*
X25525000Y-155424702D01*
X25525000Y-154502512D01*
X32722783Y-154502512D01*
X32764213Y-154782130D01*
X32859397Y-155048292D01*
X32926329Y-155173514D01*
X33170298Y-155245097D01*
X33983395Y-154432000D01*
X34342605Y-154432000D01*
X35155702Y-155245097D01*
X35399671Y-155173514D01*
X35520571Y-154918004D01*
X35589300Y-154643816D01*
X35603217Y-154361488D01*
X35561787Y-154081870D01*
X35466603Y-153815708D01*
X35399671Y-153690486D01*
X35155702Y-153618903D01*
X34342605Y-154432000D01*
X33983395Y-154432000D01*
X33170298Y-153618903D01*
X32926329Y-153690486D01*
X32805429Y-153945996D01*
X32736700Y-154220184D01*
X32722783Y-154502512D01*
X25525000Y-154502512D01*
X25525000Y-153439298D01*
X33349903Y-153439298D01*
X34163000Y-154252395D01*
X34976097Y-153439298D01*
X34904514Y-153195329D01*
X34649004Y-153074429D01*
X34374816Y-153005700D01*
X34092488Y-152991783D01*
X33812870Y-153033213D01*
X33546708Y-153128397D01*
X33421486Y-153195329D01*
X33349903Y-153439298D01*
X25525000Y-153439298D01*
X25525000Y-150344702D01*
X33349903Y-150344702D01*
X33421486Y-150588671D01*
X33676996Y-150709571D01*
X33951184Y-150778300D01*
X34233512Y-150792217D01*
X34513130Y-150750787D01*
X34779292Y-150655603D01*
X34904514Y-150588671D01*
X34976097Y-150344702D01*
X34163000Y-149531605D01*
X33349903Y-150344702D01*
X25525000Y-150344702D01*
X25525000Y-149422512D01*
X32722783Y-149422512D01*
X32764213Y-149702130D01*
X32859397Y-149968292D01*
X32926329Y-150093514D01*
X33170298Y-150165097D01*
X33983395Y-149352000D01*
X34342605Y-149352000D01*
X35155702Y-150165097D01*
X35399671Y-150093514D01*
X35520571Y-149838004D01*
X35589300Y-149563816D01*
X35603217Y-149281488D01*
X35561787Y-149001870D01*
X35466603Y-148735708D01*
X35399671Y-148610486D01*
X35155702Y-148538903D01*
X34342605Y-149352000D01*
X33983395Y-149352000D01*
X33170298Y-148538903D01*
X32926329Y-148610486D01*
X32805429Y-148865996D01*
X32736700Y-149140184D01*
X32722783Y-149422512D01*
X25525000Y-149422512D01*
X25525000Y-148359298D01*
X33349903Y-148359298D01*
X34163000Y-149172395D01*
X34976097Y-148359298D01*
X34904514Y-148115329D01*
X34649004Y-147994429D01*
X34374816Y-147925700D01*
X34092488Y-147911783D01*
X33812870Y-147953213D01*
X33546708Y-148048397D01*
X33421486Y-148115329D01*
X33349903Y-148359298D01*
X25525000Y-148359298D01*
X25525000Y-144130665D01*
X32728000Y-144130665D01*
X32728000Y-144413335D01*
X32783147Y-144690574D01*
X32891320Y-144951727D01*
X33048363Y-145186759D01*
X33248241Y-145386637D01*
X33483273Y-145543680D01*
X33744426Y-145651853D01*
X34021665Y-145707000D01*
X34304335Y-145707000D01*
X34581574Y-145651853D01*
X34842727Y-145543680D01*
X35077759Y-145386637D01*
X35277637Y-145186759D01*
X35434680Y-144951727D01*
X35542853Y-144690574D01*
X35598000Y-144413335D01*
X35598000Y-144130665D01*
X35542853Y-143853426D01*
X35434680Y-143592273D01*
X35277637Y-143357241D01*
X35077759Y-143157363D01*
X34842727Y-143000320D01*
X34581574Y-142892147D01*
X34304335Y-142837000D01*
X34021665Y-142837000D01*
X33744426Y-142892147D01*
X33483273Y-143000320D01*
X33248241Y-143157363D01*
X33048363Y-143357241D01*
X32891320Y-143592273D01*
X32783147Y-143853426D01*
X32728000Y-144130665D01*
X25525000Y-144130665D01*
X25525000Y-113650665D01*
X28283000Y-113650665D01*
X28283000Y-113933335D01*
X28338147Y-114210574D01*
X28446320Y-114471727D01*
X28603363Y-114706759D01*
X28803241Y-114906637D01*
X29038273Y-115063680D01*
X29299426Y-115171853D01*
X29576665Y-115227000D01*
X29859335Y-115227000D01*
X30136574Y-115171853D01*
X30397727Y-115063680D01*
X30632759Y-114906637D01*
X30832637Y-114706759D01*
X30989680Y-114471727D01*
X31097853Y-114210574D01*
X31153000Y-113933335D01*
X31153000Y-113650665D01*
X31097853Y-113373426D01*
X30989680Y-113112273D01*
X30832637Y-112877241D01*
X30632759Y-112677363D01*
X30397727Y-112520320D01*
X30136574Y-112412147D01*
X29859335Y-112357000D01*
X29576665Y-112357000D01*
X29299426Y-112412147D01*
X29038273Y-112520320D01*
X28803241Y-112677363D01*
X28603363Y-112877241D01*
X28446320Y-113112273D01*
X28338147Y-113373426D01*
X28283000Y-113650665D01*
X25525000Y-113650665D01*
X25525000Y-95783061D01*
X30715000Y-95783061D01*
X30715000Y-95986939D01*
X30754774Y-96186898D01*
X30832795Y-96375256D01*
X30946063Y-96544774D01*
X31090226Y-96688937D01*
X31259744Y-96802205D01*
X31448102Y-96880226D01*
X31648061Y-96920000D01*
X31851939Y-96920000D01*
X32051898Y-96880226D01*
X32240256Y-96802205D01*
X32409774Y-96688937D01*
X32553937Y-96544774D01*
X32667205Y-96375256D01*
X32745226Y-96186898D01*
X32785000Y-95986939D01*
X32785000Y-95783061D01*
X32745226Y-95583102D01*
X32667205Y-95394744D01*
X32553937Y-95225226D01*
X32510000Y-95181289D01*
X32510000Y-66989801D01*
X33334802Y-66165000D01*
X36295064Y-66165000D01*
X36381433Y-66294261D01*
X36575739Y-66488567D01*
X36804220Y-66641233D01*
X36885740Y-66675000D01*
X36804220Y-66708767D01*
X36575739Y-66861433D01*
X36381433Y-67055739D01*
X36295064Y-67185000D01*
X34962325Y-67185000D01*
X34925000Y-67181324D01*
X34887675Y-67185000D01*
X34887667Y-67185000D01*
X34776014Y-67195997D01*
X34632753Y-67239454D01*
X34500724Y-67310026D01*
X34384999Y-67404999D01*
X34361201Y-67433998D01*
X33652002Y-68143197D01*
X33622999Y-68166999D01*
X33579688Y-68219774D01*
X33528026Y-68282724D01*
X33494739Y-68345000D01*
X33457454Y-68414754D01*
X33413997Y-68558015D01*
X33403000Y-68669668D01*
X33403000Y-68669678D01*
X33399324Y-68707000D01*
X33403000Y-68744322D01*
X33403001Y-100777600D01*
X33380226Y-100663102D01*
X33302205Y-100474744D01*
X33188937Y-100305226D01*
X33044774Y-100161063D01*
X32875256Y-100047795D01*
X32686898Y-99969774D01*
X32486939Y-99930000D01*
X32283061Y-99930000D01*
X32083102Y-99969774D01*
X31894744Y-100047795D01*
X31725226Y-100161063D01*
X31581063Y-100305226D01*
X31467795Y-100474744D01*
X31389774Y-100663102D01*
X31350000Y-100863061D01*
X31350000Y-101066939D01*
X31389774Y-101266898D01*
X31467795Y-101455256D01*
X31581063Y-101624774D01*
X31625000Y-101668711D01*
X31625001Y-117056667D01*
X31621324Y-117094000D01*
X31635998Y-117242985D01*
X31679454Y-117386246D01*
X31750026Y-117518276D01*
X31817359Y-117600320D01*
X31845000Y-117634001D01*
X31873998Y-117657799D01*
X32764312Y-118548114D01*
X32728000Y-118730665D01*
X32728000Y-119013335D01*
X32783147Y-119290574D01*
X32891320Y-119551727D01*
X33048363Y-119786759D01*
X33248241Y-119986637D01*
X33483273Y-120143680D01*
X33744426Y-120251853D01*
X34021665Y-120307000D01*
X34304335Y-120307000D01*
X34581574Y-120251853D01*
X34800001Y-120161378D01*
X34800001Y-122240197D01*
X34486886Y-122553312D01*
X34304335Y-122517000D01*
X34021665Y-122517000D01*
X33744426Y-122572147D01*
X33483273Y-122680320D01*
X33248241Y-122837363D01*
X33048363Y-123037241D01*
X32891320Y-123272273D01*
X32783147Y-123533426D01*
X32728000Y-123810665D01*
X32728000Y-124093335D01*
X32783147Y-124370574D01*
X32891320Y-124631727D01*
X33048363Y-124866759D01*
X33248241Y-125066637D01*
X33483273Y-125223680D01*
X33744426Y-125331853D01*
X34021665Y-125387000D01*
X34304335Y-125387000D01*
X34581574Y-125331853D01*
X34842727Y-125223680D01*
X35077759Y-125066637D01*
X35277637Y-124866759D01*
X35434680Y-124631727D01*
X35542853Y-124370574D01*
X35598000Y-124093335D01*
X35598000Y-123810665D01*
X35561688Y-123628114D01*
X36070001Y-123119801D01*
X36070001Y-126050197D01*
X34486886Y-127633312D01*
X34304335Y-127597000D01*
X34021665Y-127597000D01*
X33744426Y-127652147D01*
X33483273Y-127760320D01*
X33248241Y-127917363D01*
X33048363Y-128117241D01*
X32891320Y-128352273D01*
X32783147Y-128613426D01*
X32728000Y-128890665D01*
X32728000Y-129173335D01*
X32783147Y-129450574D01*
X32891320Y-129711727D01*
X33048363Y-129946759D01*
X33248241Y-130146637D01*
X33483273Y-130303680D01*
X33744426Y-130411853D01*
X34021665Y-130467000D01*
X34304335Y-130467000D01*
X34581574Y-130411853D01*
X34842727Y-130303680D01*
X35077759Y-130146637D01*
X35277637Y-129946759D01*
X35434680Y-129711727D01*
X35542853Y-129450574D01*
X35598000Y-129173335D01*
X35598000Y-128890665D01*
X35561688Y-128708114D01*
X37341003Y-126928799D01*
X37370001Y-126905001D01*
X37464974Y-126789276D01*
X37535546Y-126657247D01*
X37579003Y-126513986D01*
X37590000Y-126402333D01*
X37593677Y-126365000D01*
X37590000Y-126327667D01*
X37590000Y-103184801D01*
X37975001Y-102799801D01*
X37975000Y-127320197D01*
X33651998Y-131643201D01*
X33623000Y-131666999D01*
X33599202Y-131695997D01*
X33599201Y-131695998D01*
X33528026Y-131782724D01*
X33457454Y-131914754D01*
X33413998Y-132058015D01*
X33399324Y-132207000D01*
X33403001Y-132244332D01*
X33403001Y-132893956D01*
X33248241Y-132997363D01*
X33048363Y-133197241D01*
X32891320Y-133432273D01*
X32783147Y-133693426D01*
X32728000Y-133970665D01*
X32728000Y-134253335D01*
X32783147Y-134530574D01*
X32891320Y-134791727D01*
X33048363Y-135026759D01*
X33248241Y-135226637D01*
X33483273Y-135383680D01*
X33744426Y-135491853D01*
X34021665Y-135547000D01*
X34304335Y-135547000D01*
X34581574Y-135491853D01*
X34842727Y-135383680D01*
X35077759Y-135226637D01*
X35277637Y-135026759D01*
X35434680Y-134791727D01*
X35542853Y-134530574D01*
X35598000Y-134253335D01*
X35598000Y-133970665D01*
X35542853Y-133693426D01*
X35434680Y-133432273D01*
X35277637Y-133197241D01*
X35077759Y-132997363D01*
X34923000Y-132893957D01*
X34923000Y-132521801D01*
X39245000Y-128199803D01*
X39245000Y-133035198D01*
X34777004Y-137503195D01*
X34776998Y-137503200D01*
X34486886Y-137793312D01*
X34304335Y-137757000D01*
X34021665Y-137757000D01*
X33744426Y-137812147D01*
X33483273Y-137920320D01*
X33248241Y-138077363D01*
X33048363Y-138277241D01*
X32891320Y-138512273D01*
X32783147Y-138773426D01*
X32728000Y-139050665D01*
X32728000Y-139333335D01*
X32783147Y-139610574D01*
X32891320Y-139871727D01*
X33048363Y-140106759D01*
X33248241Y-140306637D01*
X33483273Y-140463680D01*
X33744426Y-140571853D01*
X34021665Y-140627000D01*
X34304335Y-140627000D01*
X34581574Y-140571853D01*
X34842727Y-140463680D01*
X35077759Y-140306637D01*
X35277637Y-140106759D01*
X35434680Y-139871727D01*
X35542853Y-139610574D01*
X35598000Y-139333335D01*
X35598000Y-139050665D01*
X35561688Y-138868114D01*
X35851800Y-138578002D01*
X35851805Y-138577996D01*
X40348000Y-134081802D01*
X40348000Y-134253335D01*
X40403147Y-134530574D01*
X40511320Y-134791727D01*
X40668363Y-135026759D01*
X40868241Y-135226637D01*
X41023001Y-135330044D01*
X41023001Y-137973956D01*
X40868241Y-138077363D01*
X40668363Y-138277241D01*
X40511320Y-138512273D01*
X40403147Y-138773426D01*
X40348000Y-139050665D01*
X40348000Y-139333335D01*
X40403147Y-139610574D01*
X40511320Y-139871727D01*
X40668363Y-140106759D01*
X40868241Y-140306637D01*
X41023001Y-140410044D01*
X41023001Y-143053956D01*
X40868241Y-143157363D01*
X40668363Y-143357241D01*
X40511320Y-143592273D01*
X40403147Y-143853426D01*
X40348000Y-144130665D01*
X40348000Y-144413335D01*
X40403147Y-144690574D01*
X40511320Y-144951727D01*
X40668363Y-145186759D01*
X40868241Y-145386637D01*
X41023001Y-145490044D01*
X41023001Y-148133956D01*
X40868241Y-148237363D01*
X40668363Y-148437241D01*
X40511320Y-148672273D01*
X40403147Y-148933426D01*
X40348000Y-149210665D01*
X40348000Y-149493335D01*
X40403147Y-149770574D01*
X40511320Y-150031727D01*
X40668363Y-150266759D01*
X40868241Y-150466637D01*
X41023001Y-150570044D01*
X41023001Y-153213956D01*
X40868241Y-153317363D01*
X40668363Y-153517241D01*
X40511320Y-153752273D01*
X40403147Y-154013426D01*
X40348000Y-154290665D01*
X40348000Y-154573335D01*
X40403147Y-154850574D01*
X40511320Y-155111727D01*
X40668363Y-155346759D01*
X40868241Y-155546637D01*
X41023001Y-155650044D01*
X41023001Y-158233821D01*
X40836368Y-158358525D01*
X40704513Y-158490380D01*
X40682502Y-158417820D01*
X40623537Y-158307506D01*
X40544185Y-158210815D01*
X40447494Y-158131463D01*
X40337180Y-158072498D01*
X40217482Y-158036188D01*
X40093000Y-158023928D01*
X38393000Y-158023928D01*
X38268518Y-158036188D01*
X38148820Y-158072498D01*
X38038506Y-158131463D01*
X37941815Y-158210815D01*
X37862463Y-158307506D01*
X37803498Y-158417820D01*
X37767188Y-158537518D01*
X37754928Y-158662000D01*
X37754928Y-160362000D01*
X37767188Y-160486482D01*
X37803498Y-160606180D01*
X37862463Y-160716494D01*
X37941815Y-160813185D01*
X38038506Y-160892537D01*
X38148820Y-160951502D01*
X38268518Y-160987812D01*
X38393000Y-161000072D01*
X40093000Y-161000072D01*
X40217482Y-160987812D01*
X40337180Y-160951502D01*
X40447494Y-160892537D01*
X40544185Y-160813185D01*
X40623537Y-160716494D01*
X40682502Y-160606180D01*
X40704513Y-160533620D01*
X40836368Y-160665475D01*
X41079589Y-160827990D01*
X41349842Y-160939932D01*
X41636740Y-160997000D01*
X41929260Y-160997000D01*
X42216158Y-160939932D01*
X42486411Y-160827990D01*
X42729632Y-160665475D01*
X42936475Y-160458632D01*
X43098990Y-160215411D01*
X43210932Y-159945158D01*
X43268000Y-159658260D01*
X43268000Y-159365740D01*
X43210932Y-159078842D01*
X43098990Y-158808589D01*
X42936475Y-158565368D01*
X42729632Y-158358525D01*
X42543000Y-158233822D01*
X42543000Y-155650043D01*
X42697759Y-155546637D01*
X42897637Y-155346759D01*
X43054680Y-155111727D01*
X43162853Y-154850574D01*
X43218000Y-154573335D01*
X43218000Y-154290665D01*
X43162853Y-154013426D01*
X43054680Y-153752273D01*
X42897637Y-153517241D01*
X42697759Y-153317363D01*
X42543000Y-153213957D01*
X42543000Y-150570043D01*
X42697759Y-150466637D01*
X42897637Y-150266759D01*
X43054680Y-150031727D01*
X43162853Y-149770574D01*
X43218000Y-149493335D01*
X43218000Y-149210665D01*
X43162853Y-148933426D01*
X43054680Y-148672273D01*
X42897637Y-148437241D01*
X42697759Y-148237363D01*
X42543000Y-148133957D01*
X42543000Y-145490043D01*
X42697759Y-145386637D01*
X42897637Y-145186759D01*
X43054680Y-144951727D01*
X43162853Y-144690574D01*
X43218000Y-144413335D01*
X43218000Y-144130665D01*
X43162853Y-143853426D01*
X43054680Y-143592273D01*
X42993571Y-143500816D01*
X54340000Y-143500816D01*
X54340000Y-143803184D01*
X54398989Y-144099743D01*
X54514701Y-144379095D01*
X54682688Y-144630505D01*
X54896495Y-144844312D01*
X55115000Y-144990313D01*
X55115001Y-146642668D01*
X55111324Y-146680000D01*
X55125998Y-146828985D01*
X55169454Y-146972246D01*
X55240026Y-147104276D01*
X55294797Y-147171014D01*
X55335000Y-147220001D01*
X55363998Y-147243799D01*
X55480000Y-147359801D01*
X55480000Y-147421939D01*
X55519774Y-147621898D01*
X55597795Y-147810256D01*
X55711063Y-147979774D01*
X55855226Y-148123937D01*
X56024744Y-148237205D01*
X56213102Y-148315226D01*
X56413061Y-148355000D01*
X56616939Y-148355000D01*
X56816898Y-148315226D01*
X57005256Y-148237205D01*
X57174774Y-148123937D01*
X57318937Y-147979774D01*
X57432205Y-147810256D01*
X57510226Y-147621898D01*
X57550000Y-147421939D01*
X57550000Y-147218061D01*
X57510226Y-147018102D01*
X57432205Y-146829744D01*
X57318937Y-146660226D01*
X57174774Y-146516063D01*
X57005256Y-146402795D01*
X56816898Y-146324774D01*
X56635000Y-146288593D01*
X56635000Y-144990313D01*
X56853505Y-144844312D01*
X57067312Y-144630505D01*
X57125000Y-144544169D01*
X57182688Y-144630505D01*
X57396495Y-144844312D01*
X57647905Y-145012299D01*
X57927257Y-145128011D01*
X58223816Y-145187000D01*
X58526184Y-145187000D01*
X58822743Y-145128011D01*
X59102095Y-145012299D01*
X59353505Y-144844312D01*
X59481737Y-144716080D01*
X59990525Y-144716080D01*
X60074208Y-144970261D01*
X60346775Y-145101158D01*
X60639642Y-145176365D01*
X60941553Y-145192991D01*
X61240907Y-145150397D01*
X61526199Y-145050222D01*
X61675792Y-144970261D01*
X61759475Y-144716080D01*
X60875000Y-143831605D01*
X59990525Y-144716080D01*
X59481737Y-144716080D01*
X59567312Y-144630505D01*
X59662738Y-144487690D01*
X59810920Y-144536475D01*
X60695395Y-143652000D01*
X61054605Y-143652000D01*
X61939080Y-144536475D01*
X62193261Y-144452792D01*
X62324158Y-144180225D01*
X62399365Y-143887358D01*
X62415991Y-143585447D01*
X62373397Y-143286093D01*
X62273222Y-143000801D01*
X62193261Y-142851208D01*
X61939080Y-142767525D01*
X61054605Y-143652000D01*
X60695395Y-143652000D01*
X59810920Y-142767525D01*
X59662738Y-142816310D01*
X59567312Y-142673495D01*
X59481737Y-142587920D01*
X59990525Y-142587920D01*
X60875000Y-143472395D01*
X61759475Y-142587920D01*
X61675792Y-142333739D01*
X61403225Y-142202842D01*
X61110358Y-142127635D01*
X60808447Y-142111009D01*
X60509093Y-142153603D01*
X60223801Y-142253778D01*
X60074208Y-142333739D01*
X59990525Y-142587920D01*
X59481737Y-142587920D01*
X59353505Y-142459688D01*
X59135000Y-142313687D01*
X59135000Y-136369822D01*
X59910000Y-136369822D01*
X59910000Y-136934178D01*
X60020100Y-137487690D01*
X60236070Y-138009087D01*
X60549609Y-138478331D01*
X60948669Y-138877391D01*
X61417913Y-139190930D01*
X61939310Y-139406900D01*
X62492822Y-139517000D01*
X63057178Y-139517000D01*
X63610690Y-139406900D01*
X64132087Y-139190930D01*
X64601331Y-138877391D01*
X65000391Y-138478331D01*
X65313930Y-138009087D01*
X65529900Y-137487690D01*
X65601850Y-137125967D01*
X74273000Y-137125967D01*
X74273000Y-137448033D01*
X74335832Y-137763912D01*
X74459082Y-138061463D01*
X74638013Y-138329252D01*
X74865748Y-138556987D01*
X75133537Y-138735918D01*
X75148000Y-138741909D01*
X75148001Y-146527288D01*
X75015063Y-146660226D01*
X74901795Y-146829744D01*
X74823774Y-147018102D01*
X74784000Y-147218061D01*
X74784000Y-147421939D01*
X74823774Y-147621898D01*
X74901795Y-147810256D01*
X75015063Y-147979774D01*
X75159226Y-148123937D01*
X75328744Y-148237205D01*
X75517102Y-148315226D01*
X75717061Y-148355000D01*
X75920939Y-148355000D01*
X76120898Y-148315226D01*
X76309256Y-148237205D01*
X76478774Y-148123937D01*
X76622937Y-147979774D01*
X76736205Y-147810256D01*
X76814226Y-147621898D01*
X76854000Y-147421939D01*
X76854000Y-147218061D01*
X76814226Y-147018102D01*
X76736205Y-146829744D01*
X76668000Y-146727668D01*
X76668000Y-138741909D01*
X76682463Y-138735918D01*
X76950252Y-138556987D01*
X77177987Y-138329252D01*
X77356918Y-138061463D01*
X77480168Y-137763912D01*
X77543000Y-137448033D01*
X77543000Y-137125967D01*
X77480168Y-136810088D01*
X77356918Y-136512537D01*
X77177987Y-136244748D01*
X76950252Y-136017013D01*
X76682463Y-135838082D01*
X76668000Y-135832091D01*
X76668000Y-122526801D01*
X77001802Y-122193000D01*
X77063939Y-122193000D01*
X77263898Y-122153226D01*
X77452256Y-122075205D01*
X77621774Y-121961937D01*
X77765937Y-121817774D01*
X77879205Y-121648256D01*
X77957226Y-121459898D01*
X77997000Y-121259939D01*
X77997000Y-121056061D01*
X77957226Y-120856102D01*
X77879205Y-120667744D01*
X77765937Y-120498226D01*
X77621774Y-120354063D01*
X77452256Y-120240795D01*
X77263898Y-120162774D01*
X77063939Y-120123000D01*
X76860061Y-120123000D01*
X76660102Y-120162774D01*
X76471744Y-120240795D01*
X76302226Y-120354063D01*
X76158063Y-120498226D01*
X76044795Y-120667744D01*
X75966774Y-120856102D01*
X75927000Y-121056061D01*
X75927000Y-121118198D01*
X75396998Y-121648201D01*
X75368000Y-121671999D01*
X75344202Y-121700997D01*
X75344201Y-121700998D01*
X75273026Y-121787724D01*
X75202454Y-121919754D01*
X75158998Y-122063015D01*
X75144324Y-122212000D01*
X75148001Y-122249333D01*
X75148000Y-135832091D01*
X75133537Y-135838082D01*
X74865748Y-136017013D01*
X74638013Y-136244748D01*
X74459082Y-136512537D01*
X74335832Y-136810088D01*
X74273000Y-137125967D01*
X65601850Y-137125967D01*
X65640000Y-136934178D01*
X65640000Y-136369822D01*
X65529900Y-135816310D01*
X65313930Y-135294913D01*
X65000391Y-134825669D01*
X64601331Y-134426609D01*
X64132087Y-134113070D01*
X63610690Y-133897100D01*
X63057178Y-133787000D01*
X62492822Y-133787000D01*
X61939310Y-133897100D01*
X61417913Y-134113070D01*
X60948669Y-134426609D01*
X60549609Y-134825669D01*
X60236070Y-135294913D01*
X60020100Y-135816310D01*
X59910000Y-136369822D01*
X59135000Y-136369822D01*
X59135000Y-122279801D01*
X59729802Y-121685000D01*
X59791939Y-121685000D01*
X59991898Y-121645226D01*
X60180256Y-121567205D01*
X60349774Y-121453937D01*
X60493937Y-121309774D01*
X60607205Y-121140256D01*
X60685226Y-120951898D01*
X60725000Y-120751939D01*
X60725000Y-120548061D01*
X60685226Y-120348102D01*
X60640581Y-120240319D01*
X60668426Y-120251853D01*
X60945665Y-120307000D01*
X61228335Y-120307000D01*
X61505574Y-120251853D01*
X61766727Y-120143680D01*
X62001759Y-119986637D01*
X62201637Y-119786759D01*
X62358680Y-119551727D01*
X62466853Y-119290574D01*
X62522000Y-119013335D01*
X62522000Y-118730665D01*
X67272000Y-118730665D01*
X67272000Y-119013335D01*
X67327147Y-119290574D01*
X67435320Y-119551727D01*
X67592363Y-119786759D01*
X67792241Y-119986637D01*
X68027273Y-120143680D01*
X68288426Y-120251853D01*
X68565665Y-120307000D01*
X68848335Y-120307000D01*
X69125574Y-120251853D01*
X69386727Y-120143680D01*
X69621759Y-119986637D01*
X69821637Y-119786759D01*
X69978680Y-119551727D01*
X70086853Y-119290574D01*
X70142000Y-119013335D01*
X70142000Y-118730665D01*
X70086853Y-118453426D01*
X69978680Y-118192273D01*
X69821637Y-117957241D01*
X69621759Y-117757363D01*
X69386727Y-117600320D01*
X69125574Y-117492147D01*
X68848335Y-117437000D01*
X68565665Y-117437000D01*
X68288426Y-117492147D01*
X68027273Y-117600320D01*
X67792241Y-117757363D01*
X67592363Y-117957241D01*
X67435320Y-118192273D01*
X67327147Y-118453426D01*
X67272000Y-118730665D01*
X62522000Y-118730665D01*
X62466853Y-118453426D01*
X62358680Y-118192273D01*
X62201637Y-117957241D01*
X62001759Y-117757363D01*
X61766727Y-117600320D01*
X61505574Y-117492147D01*
X61228335Y-117437000D01*
X60945665Y-117437000D01*
X60668426Y-117492147D01*
X60407273Y-117600320D01*
X60172241Y-117757363D01*
X59972363Y-117957241D01*
X59815320Y-118192273D01*
X59707147Y-118453426D01*
X59652000Y-118730665D01*
X59652000Y-119013335D01*
X59707147Y-119290574D01*
X59815320Y-119551727D01*
X59867662Y-119630062D01*
X59791939Y-119615000D01*
X59588061Y-119615000D01*
X59388102Y-119654774D01*
X59199744Y-119732795D01*
X59030226Y-119846063D01*
X58886063Y-119990226D01*
X58772795Y-120159744D01*
X58694774Y-120348102D01*
X58655000Y-120548061D01*
X58655000Y-120610198D01*
X57863998Y-121401201D01*
X57835000Y-121424999D01*
X57811202Y-121453997D01*
X57811201Y-121453998D01*
X57740026Y-121540724D01*
X57669454Y-121672754D01*
X57660887Y-121700998D01*
X57625998Y-121816014D01*
X57615001Y-121927667D01*
X57611324Y-121965000D01*
X57615001Y-122002333D01*
X57615000Y-142313687D01*
X57396495Y-142459688D01*
X57182688Y-142673495D01*
X57125000Y-142759831D01*
X57067312Y-142673495D01*
X56853505Y-142459688D01*
X56602095Y-142291701D01*
X56322743Y-142175989D01*
X56026184Y-142117000D01*
X55723816Y-142117000D01*
X55427257Y-142175989D01*
X55147905Y-142291701D01*
X54896495Y-142459688D01*
X54682688Y-142673495D01*
X54514701Y-142924905D01*
X54398989Y-143204257D01*
X54340000Y-143500816D01*
X42993571Y-143500816D01*
X42897637Y-143357241D01*
X42697759Y-143157363D01*
X42543000Y-143053957D01*
X42543000Y-141503061D01*
X42780000Y-141503061D01*
X42780000Y-141706939D01*
X42819774Y-141906898D01*
X42897795Y-142095256D01*
X43011063Y-142264774D01*
X43155226Y-142408937D01*
X43324744Y-142522205D01*
X43513102Y-142600226D01*
X43713061Y-142640000D01*
X43916939Y-142640000D01*
X44116898Y-142600226D01*
X44305256Y-142522205D01*
X44474774Y-142408937D01*
X44618937Y-142264774D01*
X44732205Y-142095256D01*
X44810226Y-141906898D01*
X44850000Y-141706939D01*
X44850000Y-141644801D01*
X45648799Y-140846003D01*
X45648803Y-140845998D01*
X46231004Y-140263798D01*
X46260001Y-140240001D01*
X46354974Y-140124276D01*
X46425546Y-139992247D01*
X46469003Y-139848986D01*
X46480000Y-139737333D01*
X46480000Y-139737332D01*
X46483677Y-139700000D01*
X46480000Y-139662667D01*
X46480000Y-136369822D01*
X51110000Y-136369822D01*
X51110000Y-136934178D01*
X51220100Y-137487690D01*
X51436070Y-138009087D01*
X51749609Y-138478331D01*
X52148669Y-138877391D01*
X52617913Y-139190930D01*
X53139310Y-139406900D01*
X53692822Y-139517000D01*
X54257178Y-139517000D01*
X54810690Y-139406900D01*
X55332087Y-139190930D01*
X55801331Y-138877391D01*
X56200391Y-138478331D01*
X56513930Y-138009087D01*
X56729900Y-137487690D01*
X56840000Y-136934178D01*
X56840000Y-136369822D01*
X56729900Y-135816310D01*
X56513930Y-135294913D01*
X56200391Y-134825669D01*
X55801331Y-134426609D01*
X55332087Y-134113070D01*
X54810690Y-133897100D01*
X54257178Y-133787000D01*
X53692822Y-133787000D01*
X53139310Y-133897100D01*
X52617913Y-134113070D01*
X52148669Y-134426609D01*
X51749609Y-134825669D01*
X51436070Y-135294913D01*
X51220100Y-135816310D01*
X51110000Y-136369822D01*
X46480000Y-136369822D01*
X46480000Y-120000665D01*
X49445000Y-120000665D01*
X49445000Y-120283335D01*
X49500147Y-120560574D01*
X49608320Y-120821727D01*
X49765363Y-121056759D01*
X49965241Y-121256637D01*
X50200273Y-121413680D01*
X50461426Y-121521853D01*
X50738665Y-121577000D01*
X51021335Y-121577000D01*
X51298574Y-121521853D01*
X51559727Y-121413680D01*
X51794759Y-121256637D01*
X51994637Y-121056759D01*
X52151680Y-120821727D01*
X52259853Y-120560574D01*
X52315000Y-120283335D01*
X52315000Y-120000665D01*
X52259853Y-119723426D01*
X52151680Y-119462273D01*
X52071317Y-119342000D01*
X54441928Y-119342000D01*
X54441928Y-120942000D01*
X54454188Y-121066482D01*
X54490498Y-121186180D01*
X54549463Y-121296494D01*
X54628815Y-121393185D01*
X54725506Y-121472537D01*
X54835820Y-121531502D01*
X54955518Y-121567812D01*
X55080000Y-121580072D01*
X56680000Y-121580072D01*
X56804482Y-121567812D01*
X56924180Y-121531502D01*
X57034494Y-121472537D01*
X57131185Y-121393185D01*
X57210537Y-121296494D01*
X57269502Y-121186180D01*
X57305812Y-121066482D01*
X57318072Y-120942000D01*
X57318072Y-119342000D01*
X57305812Y-119217518D01*
X57269502Y-119097820D01*
X57210537Y-118987506D01*
X57131185Y-118890815D01*
X57034494Y-118811463D01*
X56924180Y-118752498D01*
X56804482Y-118716188D01*
X56680000Y-118703928D01*
X55080000Y-118703928D01*
X54955518Y-118716188D01*
X54835820Y-118752498D01*
X54725506Y-118811463D01*
X54628815Y-118890815D01*
X54549463Y-118987506D01*
X54490498Y-119097820D01*
X54454188Y-119217518D01*
X54441928Y-119342000D01*
X52071317Y-119342000D01*
X51994637Y-119227241D01*
X51794759Y-119027363D01*
X51559727Y-118870320D01*
X51298574Y-118762147D01*
X51021335Y-118707000D01*
X50738665Y-118707000D01*
X50461426Y-118762147D01*
X50200273Y-118870320D01*
X49965241Y-119027363D01*
X49765363Y-119227241D01*
X49608320Y-119462273D01*
X49500147Y-119723426D01*
X49445000Y-120000665D01*
X46480000Y-120000665D01*
X46480000Y-107912000D01*
X49488928Y-107912000D01*
X49488928Y-109512000D01*
X49501188Y-109636482D01*
X49537498Y-109756180D01*
X49596463Y-109866494D01*
X49675815Y-109963185D01*
X49772506Y-110042537D01*
X49882820Y-110101502D01*
X50002518Y-110137812D01*
X50127000Y-110150072D01*
X51727000Y-110150072D01*
X51851482Y-110137812D01*
X51971180Y-110101502D01*
X52081494Y-110042537D01*
X52178185Y-109963185D01*
X52257537Y-109866494D01*
X52316502Y-109756180D01*
X52332117Y-109704702D01*
X55113903Y-109704702D01*
X55185486Y-109948671D01*
X55440996Y-110069571D01*
X55715184Y-110138300D01*
X55997512Y-110152217D01*
X56277130Y-110110787D01*
X56543292Y-110015603D01*
X56668514Y-109948671D01*
X56740097Y-109704702D01*
X55927000Y-108891605D01*
X55113903Y-109704702D01*
X52332117Y-109704702D01*
X52352812Y-109636482D01*
X52365072Y-109512000D01*
X52365072Y-108782512D01*
X54486783Y-108782512D01*
X54528213Y-109062130D01*
X54623397Y-109328292D01*
X54690329Y-109453514D01*
X54934298Y-109525097D01*
X55747395Y-108712000D01*
X56106605Y-108712000D01*
X56919702Y-109525097D01*
X57163671Y-109453514D01*
X57284571Y-109198004D01*
X57353300Y-108923816D01*
X57367217Y-108641488D01*
X57325787Y-108361870D01*
X57230603Y-108095708D01*
X57163671Y-107970486D01*
X56964340Y-107912000D01*
X60156928Y-107912000D01*
X60156928Y-109512000D01*
X60169188Y-109636482D01*
X60205498Y-109756180D01*
X60264463Y-109866494D01*
X60343815Y-109963185D01*
X60440506Y-110042537D01*
X60550820Y-110101502D01*
X60670518Y-110137812D01*
X60795000Y-110150072D01*
X60835000Y-110150072D01*
X60835001Y-112992668D01*
X60831324Y-113030000D01*
X60845998Y-113178985D01*
X60889454Y-113322246D01*
X60960026Y-113454276D01*
X61010694Y-113516014D01*
X61055000Y-113570001D01*
X61083998Y-113593799D01*
X61195000Y-113704801D01*
X61195000Y-113766939D01*
X61234774Y-113966898D01*
X61312795Y-114155256D01*
X61426063Y-114324774D01*
X61570226Y-114468937D01*
X61739744Y-114582205D01*
X61928102Y-114660226D01*
X62128061Y-114700000D01*
X62331939Y-114700000D01*
X62531898Y-114660226D01*
X62720256Y-114582205D01*
X62889774Y-114468937D01*
X63033937Y-114324774D01*
X63147205Y-114155256D01*
X63225226Y-113966898D01*
X63265000Y-113766939D01*
X63265000Y-113563061D01*
X63225226Y-113363102D01*
X63147205Y-113174744D01*
X63033937Y-113005226D01*
X62889774Y-112861063D01*
X62720256Y-112747795D01*
X62531898Y-112669774D01*
X62355000Y-112634587D01*
X62355000Y-111252000D01*
X71570933Y-111252000D01*
X71595944Y-111505943D01*
X71670017Y-111750126D01*
X71790303Y-111975167D01*
X71952182Y-112172418D01*
X72149433Y-112334297D01*
X72374474Y-112454583D01*
X72596715Y-112522000D01*
X72374474Y-112589417D01*
X72149433Y-112709703D01*
X71952182Y-112871582D01*
X71790303Y-113068833D01*
X71670017Y-113293874D01*
X71595944Y-113538057D01*
X71570933Y-113792000D01*
X71595944Y-114045943D01*
X71670017Y-114290126D01*
X71790303Y-114515167D01*
X71952182Y-114712418D01*
X72149433Y-114874297D01*
X72374474Y-114994583D01*
X72596715Y-115062000D01*
X72374474Y-115129417D01*
X72149433Y-115249703D01*
X71952182Y-115411582D01*
X71790303Y-115608833D01*
X71670017Y-115833874D01*
X71595944Y-116078057D01*
X71570933Y-116332000D01*
X71595944Y-116585943D01*
X71670017Y-116830126D01*
X71790303Y-117055167D01*
X71952182Y-117252418D01*
X72149433Y-117414297D01*
X72374474Y-117534583D01*
X72618657Y-117608656D01*
X72808970Y-117627400D01*
X74257030Y-117627400D01*
X74447343Y-117608656D01*
X74691526Y-117534583D01*
X74916567Y-117414297D01*
X75113818Y-117252418D01*
X75275697Y-117055167D01*
X75395983Y-116830126D01*
X75470056Y-116585943D01*
X75495067Y-116332000D01*
X75470056Y-116078057D01*
X75395983Y-115833874D01*
X75275697Y-115608833D01*
X75113818Y-115411582D01*
X74916567Y-115249703D01*
X74691526Y-115129417D01*
X74469285Y-115062000D01*
X74691526Y-114994583D01*
X74916567Y-114874297D01*
X75113818Y-114712418D01*
X75275697Y-114515167D01*
X75395983Y-114290126D01*
X75470056Y-114045943D01*
X75495067Y-113792000D01*
X75470056Y-113538057D01*
X75395983Y-113293874D01*
X75275697Y-113068833D01*
X75113818Y-112871582D01*
X74916567Y-112709703D01*
X74691526Y-112589417D01*
X74469285Y-112522000D01*
X74691526Y-112454583D01*
X74916567Y-112334297D01*
X75113818Y-112172418D01*
X75275697Y-111975167D01*
X75395983Y-111750126D01*
X75470056Y-111505943D01*
X75495067Y-111252000D01*
X75470056Y-110998057D01*
X75395983Y-110753874D01*
X75275697Y-110528833D01*
X75113818Y-110331582D01*
X74916567Y-110169703D01*
X74691526Y-110049417D01*
X74461023Y-109979494D01*
X74570680Y-109957733D01*
X74806461Y-109860193D01*
X75018683Y-109718529D01*
X75199189Y-109538184D01*
X75341044Y-109326089D01*
X75438795Y-109090395D01*
X75446820Y-109039105D01*
X75322933Y-108839000D01*
X73660000Y-108839000D01*
X73660000Y-108859000D01*
X73406000Y-108859000D01*
X73406000Y-108839000D01*
X71743067Y-108839000D01*
X71619180Y-109039105D01*
X71627205Y-109090395D01*
X71724956Y-109326089D01*
X71866811Y-109538184D01*
X72047317Y-109718529D01*
X72259539Y-109860193D01*
X72495320Y-109957733D01*
X72604977Y-109979494D01*
X72374474Y-110049417D01*
X72149433Y-110169703D01*
X71952182Y-110331582D01*
X71790303Y-110528833D01*
X71670017Y-110753874D01*
X71595944Y-110998057D01*
X71570933Y-111252000D01*
X62355000Y-111252000D01*
X62355000Y-110150072D01*
X62395000Y-110150072D01*
X62519482Y-110137812D01*
X62639180Y-110101502D01*
X62749494Y-110042537D01*
X62846185Y-109963185D01*
X62925537Y-109866494D01*
X62984502Y-109756180D01*
X63000117Y-109704702D01*
X65781903Y-109704702D01*
X65853486Y-109948671D01*
X66108996Y-110069571D01*
X66383184Y-110138300D01*
X66665512Y-110152217D01*
X66945130Y-110110787D01*
X67211292Y-110015603D01*
X67336514Y-109948671D01*
X67408097Y-109704702D01*
X66595000Y-108891605D01*
X65781903Y-109704702D01*
X63000117Y-109704702D01*
X63020812Y-109636482D01*
X63033072Y-109512000D01*
X63033072Y-108782512D01*
X65154783Y-108782512D01*
X65196213Y-109062130D01*
X65291397Y-109328292D01*
X65358329Y-109453514D01*
X65602298Y-109525097D01*
X66415395Y-108712000D01*
X66774605Y-108712000D01*
X67587702Y-109525097D01*
X67831671Y-109453514D01*
X67952571Y-109198004D01*
X68021300Y-108923816D01*
X68035217Y-108641488D01*
X67997199Y-108384895D01*
X71619180Y-108384895D01*
X71743067Y-108585000D01*
X73406000Y-108585000D01*
X73406000Y-107416600D01*
X73660000Y-107416600D01*
X73660000Y-108585000D01*
X75322933Y-108585000D01*
X75446820Y-108384895D01*
X75438795Y-108333605D01*
X75341044Y-108097911D01*
X75199189Y-107885816D01*
X75018683Y-107705471D01*
X74806461Y-107563807D01*
X74570680Y-107466267D01*
X74320400Y-107416600D01*
X73660000Y-107416600D01*
X73406000Y-107416600D01*
X72745600Y-107416600D01*
X72495320Y-107466267D01*
X72259539Y-107563807D01*
X72047317Y-107705471D01*
X71866811Y-107885816D01*
X71724956Y-108097911D01*
X71627205Y-108333605D01*
X71619180Y-108384895D01*
X67997199Y-108384895D01*
X67993787Y-108361870D01*
X67898603Y-108095708D01*
X67831671Y-107970486D01*
X67587702Y-107898903D01*
X66774605Y-108712000D01*
X66415395Y-108712000D01*
X65602298Y-107898903D01*
X65358329Y-107970486D01*
X65237429Y-108225996D01*
X65168700Y-108500184D01*
X65154783Y-108782512D01*
X63033072Y-108782512D01*
X63033072Y-107912000D01*
X63020812Y-107787518D01*
X63000118Y-107719298D01*
X65781903Y-107719298D01*
X66595000Y-108532395D01*
X67408097Y-107719298D01*
X67336514Y-107475329D01*
X67081004Y-107354429D01*
X66806816Y-107285700D01*
X66524488Y-107271783D01*
X66244870Y-107313213D01*
X65978708Y-107408397D01*
X65853486Y-107475329D01*
X65781903Y-107719298D01*
X63000118Y-107719298D01*
X62984502Y-107667820D01*
X62925537Y-107557506D01*
X62846185Y-107460815D01*
X62749494Y-107381463D01*
X62639180Y-107322498D01*
X62519482Y-107286188D01*
X62395000Y-107273928D01*
X60795000Y-107273928D01*
X60670518Y-107286188D01*
X60550820Y-107322498D01*
X60440506Y-107381463D01*
X60343815Y-107460815D01*
X60264463Y-107557506D01*
X60205498Y-107667820D01*
X60169188Y-107787518D01*
X60156928Y-107912000D01*
X56964340Y-107912000D01*
X56919702Y-107898903D01*
X56106605Y-108712000D01*
X55747395Y-108712000D01*
X54934298Y-107898903D01*
X54690329Y-107970486D01*
X54569429Y-108225996D01*
X54500700Y-108500184D01*
X54486783Y-108782512D01*
X52365072Y-108782512D01*
X52365072Y-107912000D01*
X52352812Y-107787518D01*
X52332118Y-107719298D01*
X55113903Y-107719298D01*
X55927000Y-108532395D01*
X56740097Y-107719298D01*
X56668514Y-107475329D01*
X56413004Y-107354429D01*
X56138816Y-107285700D01*
X55856488Y-107271783D01*
X55576870Y-107313213D01*
X55310708Y-107408397D01*
X55185486Y-107475329D01*
X55113903Y-107719298D01*
X52332118Y-107719298D01*
X52316502Y-107667820D01*
X52257537Y-107557506D01*
X52178185Y-107460815D01*
X52081494Y-107381463D01*
X51971180Y-107322498D01*
X51851482Y-107286188D01*
X51727000Y-107273928D01*
X50127000Y-107273928D01*
X50002518Y-107286188D01*
X49882820Y-107322498D01*
X49772506Y-107381463D01*
X49675815Y-107460815D01*
X49596463Y-107557506D01*
X49537498Y-107667820D01*
X49501188Y-107787518D01*
X49488928Y-107912000D01*
X46480000Y-107912000D01*
X46480000Y-98493711D01*
X46523937Y-98449774D01*
X46637205Y-98280256D01*
X46715226Y-98091898D01*
X46755000Y-97891939D01*
X46755000Y-97688061D01*
X46715226Y-97488102D01*
X46637205Y-97299744D01*
X46523937Y-97130226D01*
X46379774Y-96986063D01*
X46210256Y-96872795D01*
X46021898Y-96794774D01*
X45821939Y-96755000D01*
X45618061Y-96755000D01*
X45418102Y-96794774D01*
X45229744Y-96872795D01*
X45060226Y-96986063D01*
X44916063Y-97130226D01*
X44802795Y-97299744D01*
X44724774Y-97488102D01*
X44685000Y-97688061D01*
X44685000Y-97891939D01*
X44724774Y-98091898D01*
X44802795Y-98280256D01*
X44916063Y-98449774D01*
X44960001Y-98493712D01*
X44960000Y-139385198D01*
X44574002Y-139771197D01*
X44573997Y-139771201D01*
X43775199Y-140570000D01*
X43713061Y-140570000D01*
X43513102Y-140609774D01*
X43324744Y-140687795D01*
X43155226Y-140801063D01*
X43011063Y-140945226D01*
X42897795Y-141114744D01*
X42819774Y-141303102D01*
X42780000Y-141503061D01*
X42543000Y-141503061D01*
X42543000Y-140410043D01*
X42697759Y-140306637D01*
X42897637Y-140106759D01*
X43054680Y-139871727D01*
X43162853Y-139610574D01*
X43218000Y-139333335D01*
X43218000Y-139050665D01*
X43162853Y-138773426D01*
X43054680Y-138512273D01*
X42897637Y-138277241D01*
X42697759Y-138077363D01*
X42543000Y-137973957D01*
X42543000Y-135330043D01*
X42697759Y-135226637D01*
X42897637Y-135026759D01*
X43054680Y-134791727D01*
X43162853Y-134530574D01*
X43218000Y-134253335D01*
X43218000Y-133970665D01*
X43162853Y-133693426D01*
X43054680Y-133432273D01*
X42897637Y-133197241D01*
X42697759Y-132997363D01*
X42543000Y-132893957D01*
X42543000Y-130250043D01*
X42697759Y-130146637D01*
X42897637Y-129946759D01*
X43054680Y-129711727D01*
X43162853Y-129450574D01*
X43218000Y-129173335D01*
X43218000Y-128890665D01*
X43162853Y-128613426D01*
X43054680Y-128352273D01*
X42897637Y-128117241D01*
X42697759Y-127917363D01*
X42543000Y-127813957D01*
X42543000Y-125170043D01*
X42697759Y-125066637D01*
X42897637Y-124866759D01*
X43054680Y-124631727D01*
X43162853Y-124370574D01*
X43218000Y-124093335D01*
X43218000Y-123810665D01*
X43162853Y-123533426D01*
X43054680Y-123272273D01*
X42897637Y-123037241D01*
X42697759Y-122837363D01*
X42543000Y-122733957D01*
X42543000Y-120090043D01*
X42697759Y-119986637D01*
X42897637Y-119786759D01*
X43054680Y-119551727D01*
X43162853Y-119290574D01*
X43218000Y-119013335D01*
X43218000Y-118730665D01*
X43162853Y-118453426D01*
X43054680Y-118192273D01*
X42897637Y-117957241D01*
X42697759Y-117757363D01*
X42543000Y-117653957D01*
X42543000Y-115010043D01*
X42697759Y-114906637D01*
X42897637Y-114706759D01*
X43054680Y-114471727D01*
X43162853Y-114210574D01*
X43218000Y-113933335D01*
X43218000Y-113650665D01*
X43162853Y-113373426D01*
X43054680Y-113112273D01*
X42897637Y-112877241D01*
X42697759Y-112677363D01*
X42543000Y-112573957D01*
X42543000Y-109930043D01*
X42697759Y-109826637D01*
X42897637Y-109626759D01*
X43054680Y-109391727D01*
X43162853Y-109130574D01*
X43218000Y-108853335D01*
X43218000Y-108570665D01*
X43162853Y-108293426D01*
X43054680Y-108032273D01*
X42897637Y-107797241D01*
X42697759Y-107597363D01*
X42543000Y-107493957D01*
X42543000Y-104850043D01*
X42697759Y-104746637D01*
X42897637Y-104546759D01*
X43054680Y-104311727D01*
X43162853Y-104050574D01*
X43218000Y-103773335D01*
X43218000Y-103490665D01*
X43162853Y-103213426D01*
X43054680Y-102952273D01*
X42897637Y-102717241D01*
X42697759Y-102517363D01*
X42462727Y-102360320D01*
X42201574Y-102252147D01*
X41924335Y-102197000D01*
X41641665Y-102197000D01*
X41364426Y-102252147D01*
X41103273Y-102360320D01*
X40868241Y-102517363D01*
X40765000Y-102620604D01*
X40765000Y-94294801D01*
X41314802Y-93745000D01*
X41376939Y-93745000D01*
X41576898Y-93705226D01*
X41765256Y-93627205D01*
X41934774Y-93513937D01*
X42078937Y-93369774D01*
X42192205Y-93200256D01*
X42270226Y-93011898D01*
X42310000Y-92811939D01*
X42310000Y-92608061D01*
X42270226Y-92408102D01*
X42192205Y-92219744D01*
X42078937Y-92050226D01*
X41934774Y-91906063D01*
X41765256Y-91792795D01*
X41576898Y-91714774D01*
X41376939Y-91675000D01*
X41173061Y-91675000D01*
X40973102Y-91714774D01*
X40784744Y-91792795D01*
X40615226Y-91906063D01*
X40471063Y-92050226D01*
X40357795Y-92219744D01*
X40279774Y-92408102D01*
X40240000Y-92608061D01*
X40240000Y-92670198D01*
X39493998Y-93416201D01*
X39465000Y-93439999D01*
X39441202Y-93468997D01*
X39441201Y-93468998D01*
X39370026Y-93555724D01*
X39299454Y-93687754D01*
X39255998Y-93831015D01*
X39241324Y-93980000D01*
X39245001Y-94017333D01*
X39245001Y-95615988D01*
X39225256Y-95602795D01*
X39036898Y-95524774D01*
X38836939Y-95485000D01*
X38633061Y-95485000D01*
X38433102Y-95524774D01*
X38244744Y-95602795D01*
X38225000Y-95615987D01*
X38225000Y-91477323D01*
X38228676Y-91440000D01*
X38225000Y-91402677D01*
X38225000Y-91402667D01*
X38214003Y-91291014D01*
X38170546Y-91147753D01*
X38099974Y-91015724D01*
X38005001Y-90899999D01*
X37976004Y-90876202D01*
X36320000Y-89220199D01*
X36320000Y-86522320D01*
X36381433Y-86614261D01*
X36575739Y-86808567D01*
X36804220Y-86961233D01*
X37058093Y-87066391D01*
X37327604Y-87120000D01*
X37602396Y-87120000D01*
X37871907Y-87066391D01*
X38125780Y-86961233D01*
X38354261Y-86808567D01*
X38548567Y-86614261D01*
X38701233Y-86385780D01*
X38735000Y-86304260D01*
X38768767Y-86385780D01*
X38921433Y-86614261D01*
X39115739Y-86808567D01*
X39344220Y-86961233D01*
X39598093Y-87066391D01*
X39867604Y-87120000D01*
X40142396Y-87120000D01*
X40411907Y-87066391D01*
X40665780Y-86961233D01*
X40894261Y-86808567D01*
X41088567Y-86614261D01*
X41241233Y-86385780D01*
X41346391Y-86131907D01*
X41400000Y-85862396D01*
X41400000Y-85587604D01*
X41346391Y-85318093D01*
X41241233Y-85064220D01*
X41088567Y-84835739D01*
X40894261Y-84641433D01*
X40665780Y-84488767D01*
X40584260Y-84455000D01*
X40665780Y-84421233D01*
X40894261Y-84268567D01*
X41088567Y-84074261D01*
X41174936Y-83945000D01*
X44135199Y-83945000D01*
X44960001Y-84769803D01*
X44960001Y-85021288D01*
X44916063Y-85065226D01*
X44802795Y-85234744D01*
X44724774Y-85423102D01*
X44685000Y-85623061D01*
X44685000Y-85826939D01*
X44724774Y-86026898D01*
X44802795Y-86215256D01*
X44916063Y-86384774D01*
X45060226Y-86528937D01*
X45229744Y-86642205D01*
X45418102Y-86720226D01*
X45618061Y-86760000D01*
X45821939Y-86760000D01*
X46021898Y-86720226D01*
X46210256Y-86642205D01*
X46379774Y-86528937D01*
X46523937Y-86384774D01*
X46637205Y-86215256D01*
X46715226Y-86026898D01*
X46755000Y-85826939D01*
X46755000Y-85623061D01*
X46715226Y-85423102D01*
X46637205Y-85234744D01*
X46523937Y-85065226D01*
X46480000Y-85021289D01*
X46480000Y-84492322D01*
X46483676Y-84454999D01*
X46480000Y-84417676D01*
X46480000Y-84417667D01*
X46469003Y-84306014D01*
X46425546Y-84162753D01*
X46354974Y-84030724D01*
X46260001Y-83914999D01*
X46231003Y-83891201D01*
X45013804Y-82674003D01*
X45006994Y-82665705D01*
X45060226Y-82718937D01*
X45229744Y-82832205D01*
X45418102Y-82910226D01*
X45618061Y-82950000D01*
X45821939Y-82950000D01*
X46021898Y-82910226D01*
X46210256Y-82832205D01*
X46379774Y-82718937D01*
X46523937Y-82574774D01*
X46637205Y-82405256D01*
X46715226Y-82216898D01*
X46755000Y-82016939D01*
X46755000Y-81813061D01*
X46715226Y-81613102D01*
X46637205Y-81424744D01*
X46523937Y-81255226D01*
X46379774Y-81111063D01*
X46210256Y-80997795D01*
X46021898Y-80919774D01*
X45845000Y-80884587D01*
X45845000Y-27948178D01*
X46031632Y-27823475D01*
X46238475Y-27616632D01*
X46355000Y-27442240D01*
X46471525Y-27616632D01*
X46678368Y-27823475D01*
X46865000Y-27948178D01*
X46865001Y-86322667D01*
X46861324Y-86360000D01*
X46865001Y-86397333D01*
X46872553Y-86474003D01*
X46875998Y-86508985D01*
X46919454Y-86652246D01*
X46990026Y-86784276D01*
X47040694Y-86846014D01*
X47085000Y-86900001D01*
X47113998Y-86923799D01*
X47225000Y-87034801D01*
X47225000Y-87096939D01*
X47264774Y-87296898D01*
X47342795Y-87485256D01*
X47456063Y-87654774D01*
X47600226Y-87798937D01*
X47769744Y-87912205D01*
X47958102Y-87990226D01*
X48158061Y-88030000D01*
X48361939Y-88030000D01*
X48561898Y-87990226D01*
X48750256Y-87912205D01*
X48919774Y-87798937D01*
X49063937Y-87654774D01*
X49177205Y-87485256D01*
X49255226Y-87296898D01*
X49295000Y-87096939D01*
X49295000Y-86893061D01*
X49255226Y-86693102D01*
X49177205Y-86504744D01*
X49063937Y-86335226D01*
X48919774Y-86191063D01*
X48750256Y-86077795D01*
X48561898Y-85999774D01*
X48385000Y-85964587D01*
X48385000Y-80279013D01*
X48404744Y-80292205D01*
X48593102Y-80370226D01*
X48793061Y-80410000D01*
X48996939Y-80410000D01*
X49196898Y-80370226D01*
X49385256Y-80292205D01*
X49554774Y-80178937D01*
X49698937Y-80034774D01*
X49812205Y-79865256D01*
X49890226Y-79676898D01*
X49930000Y-79476939D01*
X49930000Y-79414801D01*
X50676003Y-78668799D01*
X50705001Y-78645001D01*
X50799974Y-78529276D01*
X50870546Y-78397247D01*
X50914003Y-78253986D01*
X50925000Y-78142333D01*
X50925000Y-78142324D01*
X50928676Y-78105001D01*
X50925000Y-78067678D01*
X50925000Y-27948178D01*
X51111632Y-27823475D01*
X51318475Y-27616632D01*
X51435000Y-27442240D01*
X51551525Y-27616632D01*
X51758368Y-27823475D01*
X51945000Y-27948178D01*
X51945001Y-83147667D01*
X51941324Y-83185000D01*
X51945001Y-83222333D01*
X51954857Y-83322396D01*
X51955998Y-83333985D01*
X51999454Y-83477246D01*
X52070026Y-83609276D01*
X52124175Y-83675256D01*
X52165000Y-83725001D01*
X52193998Y-83748799D01*
X52940000Y-84494802D01*
X52940000Y-84556939D01*
X52979774Y-84756898D01*
X53057795Y-84945256D01*
X53171063Y-85114774D01*
X53315226Y-85258937D01*
X53484744Y-85372205D01*
X53673102Y-85450226D01*
X53873061Y-85490000D01*
X54076939Y-85490000D01*
X54276898Y-85450226D01*
X54465256Y-85372205D01*
X54634774Y-85258937D01*
X54778937Y-85114774D01*
X54892205Y-84945256D01*
X54970226Y-84756898D01*
X55010000Y-84556939D01*
X55010000Y-84353061D01*
X54970226Y-84153102D01*
X54892205Y-83964744D01*
X54778937Y-83795226D01*
X54634774Y-83651063D01*
X54465256Y-83537795D01*
X54276898Y-83459774D01*
X54076939Y-83420000D01*
X54014802Y-83420000D01*
X53465000Y-82870199D01*
X53465000Y-27948178D01*
X53651632Y-27823475D01*
X53858475Y-27616632D01*
X53975000Y-27442240D01*
X54091525Y-27616632D01*
X54298368Y-27823475D01*
X54485000Y-27948178D01*
X54485001Y-66914587D01*
X54308102Y-66949774D01*
X54119744Y-67027795D01*
X53950226Y-67141063D01*
X53806063Y-67285226D01*
X53692795Y-67454744D01*
X53614774Y-67643102D01*
X53575000Y-67843061D01*
X53575000Y-68046939D01*
X53614774Y-68246898D01*
X53692795Y-68435256D01*
X53806063Y-68604774D01*
X53950226Y-68748937D01*
X54119744Y-68862205D01*
X54308102Y-68940226D01*
X54508061Y-68980000D01*
X54711939Y-68980000D01*
X54911898Y-68940226D01*
X55100256Y-68862205D01*
X55269774Y-68748937D01*
X55413937Y-68604774D01*
X55527205Y-68435256D01*
X55605226Y-68246898D01*
X55645000Y-68046939D01*
X55645000Y-67984802D01*
X55756003Y-67873799D01*
X55785001Y-67850001D01*
X55879974Y-67734276D01*
X55950546Y-67602247D01*
X55994003Y-67458986D01*
X56005000Y-67347333D01*
X56008677Y-67310000D01*
X56005000Y-67272667D01*
X56005000Y-27948178D01*
X56191632Y-27823475D01*
X56398475Y-27616632D01*
X56515000Y-27442240D01*
X56631525Y-27616632D01*
X56838368Y-27823475D01*
X57025000Y-27948178D01*
X57025001Y-82154587D01*
X56848102Y-82189774D01*
X56659744Y-82267795D01*
X56490226Y-82381063D01*
X56346063Y-82525226D01*
X56232795Y-82694744D01*
X56154774Y-82883102D01*
X56115000Y-83083061D01*
X56115000Y-83286939D01*
X56154774Y-83486898D01*
X56232795Y-83675256D01*
X56346063Y-83844774D01*
X56490226Y-83988937D01*
X56659744Y-84102205D01*
X56848102Y-84180226D01*
X57048061Y-84220000D01*
X57251939Y-84220000D01*
X57451898Y-84180226D01*
X57640256Y-84102205D01*
X57809774Y-83988937D01*
X57953937Y-83844774D01*
X58067205Y-83675256D01*
X58145226Y-83486898D01*
X58185000Y-83286939D01*
X58185000Y-83224802D01*
X58295001Y-83114801D01*
X58295001Y-84775197D01*
X57909002Y-85161197D01*
X57879999Y-85184999D01*
X57824871Y-85252174D01*
X57785026Y-85300724D01*
X57741451Y-85382247D01*
X57714454Y-85432754D01*
X57670997Y-85576015D01*
X57660000Y-85687668D01*
X57660000Y-85687678D01*
X57656324Y-85725000D01*
X57660000Y-85762322D01*
X57660001Y-97475197D01*
X56475199Y-98660000D01*
X56413061Y-98660000D01*
X56213102Y-98699774D01*
X56024744Y-98777795D01*
X55855226Y-98891063D01*
X55711063Y-99035226D01*
X55597795Y-99204744D01*
X55519774Y-99393102D01*
X55480000Y-99593061D01*
X55480000Y-99796939D01*
X55519774Y-99996898D01*
X55597795Y-100185256D01*
X55711063Y-100354774D01*
X55855226Y-100498937D01*
X56024744Y-100612205D01*
X56213102Y-100690226D01*
X56413061Y-100730000D01*
X56616939Y-100730000D01*
X56816898Y-100690226D01*
X57005256Y-100612205D01*
X57174774Y-100498937D01*
X57318937Y-100354774D01*
X57432205Y-100185256D01*
X57510226Y-99996898D01*
X57550000Y-99796939D01*
X57550000Y-99734801D01*
X58931003Y-98353799D01*
X58960001Y-98330001D01*
X59054974Y-98214276D01*
X59125546Y-98082247D01*
X59169003Y-97938986D01*
X59180000Y-97827333D01*
X59180000Y-97827323D01*
X59183676Y-97790000D01*
X59180000Y-97752677D01*
X59180000Y-89169013D01*
X59199744Y-89182205D01*
X59388102Y-89260226D01*
X59588061Y-89300000D01*
X59791939Y-89300000D01*
X59991898Y-89260226D01*
X60180256Y-89182205D01*
X60349774Y-89068937D01*
X60493937Y-88924774D01*
X60607205Y-88755256D01*
X60685226Y-88566898D01*
X60725000Y-88366939D01*
X60725000Y-88304802D01*
X60836002Y-88193800D01*
X60865001Y-88170001D01*
X60959974Y-88054276D01*
X61030546Y-87922247D01*
X61074003Y-87778986D01*
X61085000Y-87667333D01*
X61088677Y-87630000D01*
X61085000Y-87592667D01*
X61085000Y-27948178D01*
X61271632Y-27823475D01*
X61478475Y-27616632D01*
X61595000Y-27442240D01*
X61711525Y-27616632D01*
X61918368Y-27823475D01*
X62105000Y-27948178D01*
X62105001Y-69454587D01*
X61928102Y-69489774D01*
X61739744Y-69567795D01*
X61570226Y-69681063D01*
X61426063Y-69825226D01*
X61312795Y-69994744D01*
X61234774Y-70183102D01*
X61195000Y-70383061D01*
X61195000Y-70586939D01*
X61234774Y-70786898D01*
X61312795Y-70975256D01*
X61426063Y-71144774D01*
X61570226Y-71288937D01*
X61739744Y-71402205D01*
X61928102Y-71480226D01*
X62128061Y-71520000D01*
X62331939Y-71520000D01*
X62531898Y-71480226D01*
X62720256Y-71402205D01*
X62889774Y-71288937D01*
X63033937Y-71144774D01*
X63147205Y-70975256D01*
X63225226Y-70786898D01*
X63265000Y-70586939D01*
X63265000Y-70524802D01*
X63375001Y-70414801D01*
X63375001Y-82481288D01*
X63331063Y-82525226D01*
X63217795Y-82694744D01*
X63139774Y-82883102D01*
X63100000Y-83083061D01*
X63100000Y-83286939D01*
X63139774Y-83486898D01*
X63217795Y-83675256D01*
X63331063Y-83844774D01*
X63475226Y-83988937D01*
X63644744Y-84102205D01*
X63833102Y-84180226D01*
X64033061Y-84220000D01*
X64236939Y-84220000D01*
X64436898Y-84180226D01*
X64625256Y-84102205D01*
X64794774Y-83988937D01*
X64938937Y-83844774D01*
X65052205Y-83675256D01*
X65130226Y-83486898D01*
X65170000Y-83286939D01*
X65170000Y-83083061D01*
X65130226Y-82883102D01*
X65052205Y-82694744D01*
X64938937Y-82525226D01*
X64895000Y-82481289D01*
X64895000Y-73929013D01*
X64914744Y-73942205D01*
X65103102Y-74020226D01*
X65303061Y-74060000D01*
X65506939Y-74060000D01*
X65706898Y-74020226D01*
X65895256Y-73942205D01*
X65915001Y-73929012D01*
X65915001Y-79941288D01*
X65871063Y-79985226D01*
X65757795Y-80154744D01*
X65679774Y-80343102D01*
X65640000Y-80543061D01*
X65640000Y-80746939D01*
X65679774Y-80946898D01*
X65757795Y-81135256D01*
X65871063Y-81304774D01*
X66015226Y-81448937D01*
X66184744Y-81562205D01*
X66373102Y-81640226D01*
X66573061Y-81680000D01*
X66776939Y-81680000D01*
X66976898Y-81640226D01*
X67165256Y-81562205D01*
X67334774Y-81448937D01*
X67478937Y-81304774D01*
X67592205Y-81135256D01*
X67670226Y-80946898D01*
X67710000Y-80746939D01*
X67710000Y-80543061D01*
X67676961Y-80376961D01*
X67843061Y-80410000D01*
X68046939Y-80410000D01*
X68246898Y-80370226D01*
X68435256Y-80292205D01*
X68604774Y-80178937D01*
X68748937Y-80034774D01*
X68862205Y-79865256D01*
X68940226Y-79676898D01*
X68980000Y-79476939D01*
X68980000Y-79273061D01*
X68940226Y-79073102D01*
X68862205Y-78884744D01*
X68748937Y-78715226D01*
X68705000Y-78671289D01*
X68705000Y-70119013D01*
X68724744Y-70132205D01*
X68913102Y-70210226D01*
X69113061Y-70250000D01*
X69316939Y-70250000D01*
X69516898Y-70210226D01*
X69705256Y-70132205D01*
X69725001Y-70119012D01*
X69725001Y-84694587D01*
X69548102Y-84729774D01*
X69359744Y-84807795D01*
X69190226Y-84921063D01*
X69046063Y-85065226D01*
X68932795Y-85234744D01*
X68854774Y-85423102D01*
X68815000Y-85623061D01*
X68815000Y-85826939D01*
X68854774Y-86026898D01*
X68932795Y-86215256D01*
X69046063Y-86384774D01*
X69190226Y-86528937D01*
X69359744Y-86642205D01*
X69548102Y-86720226D01*
X69748061Y-86760000D01*
X69951939Y-86760000D01*
X70151898Y-86720226D01*
X70340256Y-86642205D01*
X70509774Y-86528937D01*
X70653937Y-86384774D01*
X70767205Y-86215256D01*
X70845226Y-86026898D01*
X70885000Y-85826939D01*
X70885000Y-85764802D01*
X70996002Y-85653800D01*
X71025001Y-85630001D01*
X71119974Y-85514276D01*
X71190546Y-85382247D01*
X71234003Y-85238986D01*
X71245000Y-85127333D01*
X71248677Y-85090000D01*
X71245000Y-85052667D01*
X71245000Y-79009013D01*
X71264744Y-79022205D01*
X71453102Y-79100226D01*
X71653061Y-79140000D01*
X71856939Y-79140000D01*
X72056898Y-79100226D01*
X72245256Y-79022205D01*
X72414774Y-78908937D01*
X72558937Y-78764774D01*
X72672205Y-78595256D01*
X72750226Y-78406898D01*
X72790000Y-78206939D01*
X72790000Y-78003061D01*
X72750226Y-77803102D01*
X72672205Y-77614744D01*
X72558937Y-77445226D01*
X72515000Y-77401289D01*
X72515000Y-72659013D01*
X72534744Y-72672205D01*
X72723102Y-72750226D01*
X72923061Y-72790000D01*
X73126939Y-72790000D01*
X73326898Y-72750226D01*
X73515256Y-72672205D01*
X73535001Y-72659012D01*
X73535001Y-77432667D01*
X73531324Y-77470000D01*
X73535001Y-77507332D01*
X73535001Y-77507333D01*
X73542553Y-77584003D01*
X73545998Y-77618985D01*
X73589454Y-77762246D01*
X73660026Y-77894276D01*
X73727361Y-77976323D01*
X73755000Y-78010001D01*
X73783998Y-78033799D01*
X73895000Y-78144801D01*
X73895000Y-78206939D01*
X73934774Y-78406898D01*
X74012795Y-78595256D01*
X74126063Y-78764774D01*
X74270226Y-78908937D01*
X74439744Y-79022205D01*
X74628102Y-79100226D01*
X74828061Y-79140000D01*
X75031939Y-79140000D01*
X75231898Y-79100226D01*
X75420256Y-79022205D01*
X75589774Y-78908937D01*
X75733937Y-78764774D01*
X75847205Y-78595256D01*
X75882500Y-78510046D01*
X75882501Y-109808206D01*
X75882500Y-109808216D01*
X75882501Y-112983206D01*
X75877892Y-113030000D01*
X75896283Y-113216722D01*
X75950749Y-113396269D01*
X76028110Y-113541002D01*
X76039195Y-113561741D01*
X76158223Y-113706778D01*
X76194565Y-113736603D01*
X76510069Y-114052106D01*
X76552795Y-114155256D01*
X76666063Y-114324774D01*
X76810226Y-114468937D01*
X76979744Y-114582205D01*
X77168102Y-114660226D01*
X77368061Y-114700000D01*
X77571939Y-114700000D01*
X77771898Y-114660226D01*
X77960256Y-114582205D01*
X78129774Y-114468937D01*
X78273937Y-114324774D01*
X78387205Y-114155256D01*
X78465226Y-113966898D01*
X78500015Y-113792000D01*
X79190933Y-113792000D01*
X79215944Y-114045943D01*
X79290017Y-114290126D01*
X79410303Y-114515167D01*
X79572182Y-114712418D01*
X79769433Y-114874297D01*
X79994474Y-114994583D01*
X80216715Y-115062000D01*
X79994474Y-115129417D01*
X79769433Y-115249703D01*
X79572182Y-115411582D01*
X79410303Y-115608833D01*
X79290017Y-115833874D01*
X79215944Y-116078057D01*
X79190933Y-116332000D01*
X79215944Y-116585943D01*
X79290017Y-116830126D01*
X79410303Y-117055167D01*
X79572182Y-117252418D01*
X79769433Y-117414297D01*
X79994474Y-117534583D01*
X80238657Y-117608656D01*
X80393001Y-117623857D01*
X80393000Y-120073289D01*
X80349063Y-120117226D01*
X80235795Y-120286744D01*
X80157774Y-120475102D01*
X80118000Y-120675061D01*
X80118000Y-120878939D01*
X80157774Y-121078898D01*
X80235795Y-121267256D01*
X80349063Y-121436774D01*
X80493226Y-121580937D01*
X80662744Y-121694205D01*
X80851102Y-121772226D01*
X81051061Y-121812000D01*
X81254939Y-121812000D01*
X81454898Y-121772226D01*
X81643256Y-121694205D01*
X81812774Y-121580937D01*
X81956937Y-121436774D01*
X82070205Y-121267256D01*
X82148226Y-121078898D01*
X82188000Y-120878939D01*
X82188000Y-120675061D01*
X82148226Y-120475102D01*
X82070205Y-120286744D01*
X81956937Y-120117226D01*
X81913000Y-120073289D01*
X81913000Y-117623857D01*
X82067343Y-117608656D01*
X82311526Y-117534583D01*
X82536567Y-117414297D01*
X82733818Y-117252418D01*
X82895697Y-117055167D01*
X83015983Y-116830126D01*
X83090056Y-116585943D01*
X83115067Y-116332000D01*
X83090056Y-116078057D01*
X83015983Y-115833874D01*
X82895697Y-115608833D01*
X82733818Y-115411582D01*
X82536567Y-115249703D01*
X82311526Y-115129417D01*
X82089285Y-115062000D01*
X82311526Y-114994583D01*
X82536567Y-114874297D01*
X82733818Y-114712418D01*
X82895697Y-114515167D01*
X83015983Y-114290126D01*
X83090056Y-114045943D01*
X83115067Y-113792000D01*
X83093268Y-113570665D01*
X88608000Y-113570665D01*
X88608000Y-113853335D01*
X88663147Y-114130574D01*
X88771320Y-114391727D01*
X88928363Y-114626759D01*
X89128241Y-114826637D01*
X89363273Y-114983680D01*
X89624426Y-115091853D01*
X89901665Y-115147000D01*
X90184335Y-115147000D01*
X90461574Y-115091853D01*
X90722727Y-114983680D01*
X90957759Y-114826637D01*
X91157637Y-114626759D01*
X91314680Y-114391727D01*
X91422853Y-114130574D01*
X91478000Y-113853335D01*
X91478000Y-113570665D01*
X91422853Y-113293426D01*
X91314680Y-113032273D01*
X91157637Y-112797241D01*
X90957759Y-112597363D01*
X90722727Y-112440320D01*
X90461574Y-112332147D01*
X90184335Y-112277000D01*
X89901665Y-112277000D01*
X89624426Y-112332147D01*
X89363273Y-112440320D01*
X89128241Y-112597363D01*
X88928363Y-112797241D01*
X88771320Y-113032273D01*
X88663147Y-113293426D01*
X88608000Y-113570665D01*
X83093268Y-113570665D01*
X83090056Y-113538057D01*
X83015983Y-113293874D01*
X82895697Y-113068833D01*
X82733818Y-112871582D01*
X82536567Y-112709703D01*
X82311526Y-112589417D01*
X82081023Y-112519494D01*
X82190680Y-112497733D01*
X82426461Y-112400193D01*
X82638683Y-112258529D01*
X82819189Y-112078184D01*
X82961044Y-111866089D01*
X83058795Y-111630395D01*
X83066820Y-111579105D01*
X82942933Y-111379000D01*
X81280000Y-111379000D01*
X81280000Y-111399000D01*
X81026000Y-111399000D01*
X81026000Y-111379000D01*
X79363067Y-111379000D01*
X79239180Y-111579105D01*
X79247205Y-111630395D01*
X79344956Y-111866089D01*
X79486811Y-112078184D01*
X79667317Y-112258529D01*
X79879539Y-112400193D01*
X80115320Y-112497733D01*
X80224977Y-112519494D01*
X79994474Y-112589417D01*
X79769433Y-112709703D01*
X79572182Y-112871582D01*
X79410303Y-113068833D01*
X79290017Y-113293874D01*
X79215944Y-113538057D01*
X79190933Y-113792000D01*
X78500015Y-113792000D01*
X78505000Y-113766939D01*
X78505000Y-113563061D01*
X78465226Y-113363102D01*
X78387205Y-113174744D01*
X78273937Y-113005226D01*
X78129774Y-112861063D01*
X77960256Y-112747795D01*
X77857106Y-112705069D01*
X77787500Y-112635462D01*
X77787500Y-108712000D01*
X79190933Y-108712000D01*
X79215944Y-108965943D01*
X79290017Y-109210126D01*
X79410303Y-109435167D01*
X79572182Y-109632418D01*
X79769433Y-109794297D01*
X79994474Y-109914583D01*
X80224977Y-109984506D01*
X80115320Y-110006267D01*
X79879539Y-110103807D01*
X79667317Y-110245471D01*
X79486811Y-110425816D01*
X79344956Y-110637911D01*
X79247205Y-110873605D01*
X79239180Y-110924895D01*
X79363067Y-111125000D01*
X81026000Y-111125000D01*
X81026000Y-111105000D01*
X81280000Y-111105000D01*
X81280000Y-111125000D01*
X82942933Y-111125000D01*
X83066820Y-110924895D01*
X83058795Y-110873605D01*
X82961044Y-110637911D01*
X82819189Y-110425816D01*
X82638683Y-110245471D01*
X82426461Y-110103807D01*
X82190680Y-110006267D01*
X82081023Y-109984506D01*
X82311526Y-109914583D01*
X82536567Y-109794297D01*
X82733818Y-109632418D01*
X82895697Y-109435167D01*
X83015983Y-109210126D01*
X83090056Y-108965943D01*
X83115067Y-108712000D01*
X83090056Y-108458057D01*
X83015983Y-108213874D01*
X82895697Y-107988833D01*
X82832643Y-107912000D01*
X88604928Y-107912000D01*
X88604928Y-109512000D01*
X88617188Y-109636482D01*
X88653498Y-109756180D01*
X88712463Y-109866494D01*
X88791815Y-109963185D01*
X88888506Y-110042537D01*
X88998820Y-110101502D01*
X89118518Y-110137812D01*
X89243000Y-110150072D01*
X90843000Y-110150072D01*
X90967482Y-110137812D01*
X91087180Y-110101502D01*
X91197494Y-110042537D01*
X91294185Y-109963185D01*
X91373537Y-109866494D01*
X91432502Y-109756180D01*
X91468812Y-109636482D01*
X91481072Y-109512000D01*
X91481072Y-109472000D01*
X93157199Y-109472000D01*
X94490001Y-110804803D01*
X94490000Y-135575198D01*
X93538199Y-136527000D01*
X92362909Y-136527000D01*
X92356918Y-136512537D01*
X92177987Y-136244748D01*
X91950252Y-136017013D01*
X91682463Y-135838082D01*
X91384912Y-135714832D01*
X91069033Y-135652000D01*
X90746967Y-135652000D01*
X90431088Y-135714832D01*
X90133537Y-135838082D01*
X89865748Y-136017013D01*
X89638013Y-136244748D01*
X89459082Y-136512537D01*
X89335832Y-136810088D01*
X89273000Y-137125967D01*
X89273000Y-137448033D01*
X89335832Y-137763912D01*
X89459082Y-138061463D01*
X89638013Y-138329252D01*
X89865748Y-138556987D01*
X90133537Y-138735918D01*
X90431088Y-138859168D01*
X90746967Y-138922000D01*
X91069033Y-138922000D01*
X91384912Y-138859168D01*
X91682463Y-138735918D01*
X91950252Y-138556987D01*
X92177987Y-138329252D01*
X92356918Y-138061463D01*
X92362909Y-138047000D01*
X93815678Y-138047000D01*
X93853000Y-138050676D01*
X93890322Y-138047000D01*
X93890333Y-138047000D01*
X94001986Y-138036003D01*
X94145247Y-137992546D01*
X94277276Y-137921974D01*
X94393001Y-137827001D01*
X94416804Y-137797997D01*
X95761004Y-136453798D01*
X95790001Y-136430001D01*
X95884974Y-136314276D01*
X95955546Y-136182247D01*
X95999003Y-136038986D01*
X96010000Y-135927333D01*
X96010000Y-135927324D01*
X96013676Y-135890001D01*
X96010000Y-135852678D01*
X96010000Y-110527325D01*
X96013676Y-110490000D01*
X96010000Y-110452675D01*
X96010000Y-110452667D01*
X95999003Y-110341014D01*
X95955546Y-110197753D01*
X95884974Y-110065724D01*
X95790001Y-109949999D01*
X95761003Y-109926201D01*
X94035804Y-108201003D01*
X94012001Y-108171999D01*
X93896276Y-108077026D01*
X93764247Y-108006454D01*
X93620986Y-107962997D01*
X93509333Y-107952000D01*
X93509322Y-107952000D01*
X93472000Y-107948324D01*
X93434678Y-107952000D01*
X91481072Y-107952000D01*
X91481072Y-107912000D01*
X91468812Y-107787518D01*
X91432502Y-107667820D01*
X91373537Y-107557506D01*
X91294185Y-107460815D01*
X91197494Y-107381463D01*
X91087180Y-107322498D01*
X90967482Y-107286188D01*
X90843000Y-107273928D01*
X89243000Y-107273928D01*
X89118518Y-107286188D01*
X88998820Y-107322498D01*
X88888506Y-107381463D01*
X88791815Y-107460815D01*
X88712463Y-107557506D01*
X88653498Y-107667820D01*
X88617188Y-107787518D01*
X88604928Y-107912000D01*
X82832643Y-107912000D01*
X82733818Y-107791582D01*
X82536567Y-107629703D01*
X82311526Y-107509417D01*
X82067343Y-107435344D01*
X81877030Y-107416600D01*
X80428970Y-107416600D01*
X80238657Y-107435344D01*
X79994474Y-107509417D01*
X79769433Y-107629703D01*
X79572182Y-107791582D01*
X79410303Y-107988833D01*
X79290017Y-108213874D01*
X79215944Y-108458057D01*
X79190933Y-108712000D01*
X77787500Y-108712000D01*
X77787500Y-64540047D01*
X77830226Y-64436898D01*
X77870000Y-64236939D01*
X77870000Y-64033061D01*
X77830226Y-63833102D01*
X77752205Y-63644744D01*
X77638937Y-63475226D01*
X77494774Y-63331063D01*
X77325256Y-63217795D01*
X77136898Y-63139774D01*
X76936939Y-63100000D01*
X76733061Y-63100000D01*
X76533102Y-63139774D01*
X76344744Y-63217795D01*
X76325000Y-63230987D01*
X76325000Y-60254801D01*
X77980000Y-61909802D01*
X77980001Y-73622668D01*
X77976324Y-73660000D01*
X77980001Y-73697333D01*
X77987553Y-73774003D01*
X77990998Y-73808985D01*
X78034454Y-73952246D01*
X78105026Y-74084276D01*
X78172361Y-74166323D01*
X78200000Y-74200001D01*
X78228998Y-74223799D01*
X79280329Y-75275130D01*
X79250000Y-75427604D01*
X79250000Y-75702396D01*
X79303609Y-75971907D01*
X79408767Y-76225780D01*
X79561433Y-76454261D01*
X79755739Y-76648567D01*
X79984220Y-76801233D01*
X80065740Y-76835000D01*
X79984220Y-76868767D01*
X79755739Y-77021433D01*
X79561433Y-77215739D01*
X79408767Y-77444220D01*
X79303609Y-77698093D01*
X79250000Y-77967604D01*
X79250000Y-78242396D01*
X79303609Y-78511907D01*
X79408767Y-78765780D01*
X79561433Y-78994261D01*
X79755739Y-79188567D01*
X79984220Y-79341233D01*
X80065740Y-79375000D01*
X79984220Y-79408767D01*
X79755739Y-79561433D01*
X79561433Y-79755739D01*
X79408767Y-79984220D01*
X79303609Y-80238093D01*
X79250000Y-80507604D01*
X79250000Y-80782396D01*
X79303609Y-81051907D01*
X79408767Y-81305780D01*
X79561433Y-81534261D01*
X79755739Y-81728567D01*
X79984220Y-81881233D01*
X80065740Y-81915000D01*
X79984220Y-81948767D01*
X79755739Y-82101433D01*
X79561433Y-82295739D01*
X79408767Y-82524220D01*
X79303609Y-82778093D01*
X79250000Y-83047604D01*
X79250000Y-83322396D01*
X79303609Y-83591907D01*
X79408767Y-83845780D01*
X79561433Y-84074261D01*
X79755739Y-84268567D01*
X79984220Y-84421233D01*
X80065740Y-84455000D01*
X79984220Y-84488767D01*
X79755739Y-84641433D01*
X79561433Y-84835739D01*
X79408767Y-85064220D01*
X79303609Y-85318093D01*
X79250000Y-85587604D01*
X79250000Y-85862396D01*
X79303609Y-86131907D01*
X79408767Y-86385780D01*
X79561433Y-86614261D01*
X79755739Y-86808567D01*
X79984220Y-86961233D01*
X80238093Y-87066391D01*
X80507604Y-87120000D01*
X80782396Y-87120000D01*
X81051907Y-87066391D01*
X81305780Y-86961233D01*
X81534261Y-86808567D01*
X81728567Y-86614261D01*
X81881233Y-86385780D01*
X81915000Y-86304260D01*
X81948767Y-86385780D01*
X82101433Y-86614261D01*
X82295739Y-86808567D01*
X82524220Y-86961233D01*
X82778093Y-87066391D01*
X83047604Y-87120000D01*
X83322396Y-87120000D01*
X83591907Y-87066391D01*
X83845780Y-86961233D01*
X84074261Y-86808567D01*
X84268567Y-86614261D01*
X84330000Y-86522319D01*
X84330000Y-91679587D01*
X84153102Y-91714774D01*
X83964744Y-91792795D01*
X83795226Y-91906063D01*
X83651063Y-92050226D01*
X83537795Y-92219744D01*
X83459774Y-92408102D01*
X83420000Y-92608061D01*
X83420000Y-92811939D01*
X83459774Y-93011898D01*
X83537795Y-93200256D01*
X83651063Y-93369774D01*
X83795226Y-93513937D01*
X83964744Y-93627205D01*
X84153102Y-93705226D01*
X84353061Y-93745000D01*
X84556939Y-93745000D01*
X84756898Y-93705226D01*
X84945256Y-93627205D01*
X85114774Y-93513937D01*
X85258937Y-93369774D01*
X85372205Y-93200256D01*
X85450226Y-93011898D01*
X85490000Y-92811939D01*
X85490000Y-92749802D01*
X85600001Y-92639801D01*
X85600001Y-99626288D01*
X85556063Y-99670226D01*
X85442795Y-99839744D01*
X85364774Y-100028102D01*
X85325000Y-100228061D01*
X85325000Y-100431939D01*
X85364774Y-100631898D01*
X85442795Y-100820256D01*
X85556063Y-100989774D01*
X85700226Y-101133937D01*
X85869744Y-101247205D01*
X86058102Y-101325226D01*
X86258061Y-101365000D01*
X86461939Y-101365000D01*
X86661898Y-101325226D01*
X86850256Y-101247205D01*
X87019774Y-101133937D01*
X87163937Y-100989774D01*
X87277205Y-100820256D01*
X87355226Y-100631898D01*
X87395000Y-100431939D01*
X87395000Y-100228061D01*
X87355226Y-100028102D01*
X87277205Y-99839744D01*
X87163937Y-99670226D01*
X87120000Y-99626289D01*
X87120000Y-96789013D01*
X87139744Y-96802205D01*
X87328102Y-96880226D01*
X87528061Y-96920000D01*
X87731939Y-96920000D01*
X87931898Y-96880226D01*
X88120256Y-96802205D01*
X88289774Y-96688937D01*
X88433937Y-96544774D01*
X88547205Y-96375256D01*
X88625226Y-96186898D01*
X88665000Y-95986939D01*
X88665000Y-95924801D01*
X89411004Y-95178798D01*
X89440001Y-95155001D01*
X89534974Y-95039276D01*
X89605546Y-94907247D01*
X89649003Y-94763986D01*
X89660000Y-94652333D01*
X89660000Y-94652324D01*
X89663676Y-94615001D01*
X89660000Y-94577678D01*
X89660000Y-76415000D01*
X93761928Y-76415000D01*
X93774188Y-76539482D01*
X93810498Y-76659180D01*
X93869463Y-76769494D01*
X93948815Y-76866185D01*
X94045506Y-76945537D01*
X94155820Y-77004502D01*
X94275518Y-77040812D01*
X94400000Y-77053072D01*
X94964250Y-77050000D01*
X95123000Y-76891250D01*
X95123000Y-75692000D01*
X95377000Y-75692000D01*
X95377000Y-76891250D01*
X95535750Y-77050000D01*
X96100000Y-77053072D01*
X96224482Y-77040812D01*
X96344180Y-77004502D01*
X96454494Y-76945537D01*
X96551185Y-76866185D01*
X96630537Y-76769494D01*
X96689502Y-76659180D01*
X96725812Y-76539482D01*
X96738072Y-76415000D01*
X96735000Y-75850750D01*
X96576250Y-75692000D01*
X95377000Y-75692000D01*
X95123000Y-75692000D01*
X93923750Y-75692000D01*
X93765000Y-75850750D01*
X93761928Y-76415000D01*
X89660000Y-76415000D01*
X89660000Y-76237333D01*
X89663677Y-76200000D01*
X89649003Y-76051014D01*
X89605546Y-75907753D01*
X89534974Y-75775724D01*
X89474795Y-75702396D01*
X89440001Y-75659999D01*
X89411002Y-75636200D01*
X89300000Y-75525198D01*
X89300000Y-75463061D01*
X89260226Y-75263102D01*
X89182205Y-75074744D01*
X89068937Y-74905226D01*
X88924774Y-74761063D01*
X88855836Y-74715000D01*
X93761928Y-74715000D01*
X93765000Y-75279250D01*
X93923750Y-75438000D01*
X95123000Y-75438000D01*
X95123000Y-75418000D01*
X95377000Y-75418000D01*
X95377000Y-75438000D01*
X96576250Y-75438000D01*
X96735000Y-75279250D01*
X96738072Y-74715000D01*
X96725812Y-74590518D01*
X96689502Y-74470820D01*
X96630537Y-74360506D01*
X96551185Y-74263815D01*
X96454494Y-74184463D01*
X96344180Y-74125498D01*
X96271620Y-74103487D01*
X96403475Y-73971632D01*
X96565990Y-73728411D01*
X96677932Y-73458158D01*
X96735000Y-73171260D01*
X96735000Y-72878740D01*
X96677932Y-72591842D01*
X96565990Y-72321589D01*
X96403475Y-72078368D01*
X96196632Y-71871525D01*
X96022240Y-71755000D01*
X96196632Y-71638475D01*
X96403475Y-71431632D01*
X96565990Y-71188411D01*
X96677932Y-70918158D01*
X96735000Y-70631260D01*
X96735000Y-70338740D01*
X96677932Y-70051842D01*
X96565990Y-69781589D01*
X96403475Y-69538368D01*
X96196632Y-69331525D01*
X95953411Y-69169010D01*
X95683158Y-69057068D01*
X95396260Y-69000000D01*
X95103740Y-69000000D01*
X94816842Y-69057068D01*
X94546589Y-69169010D01*
X94303368Y-69331525D01*
X94096525Y-69538368D01*
X93934010Y-69781589D01*
X93822068Y-70051842D01*
X93765000Y-70338740D01*
X93765000Y-70631260D01*
X93822068Y-70918158D01*
X93934010Y-71188411D01*
X94096525Y-71431632D01*
X94303368Y-71638475D01*
X94477760Y-71755000D01*
X94303368Y-71871525D01*
X94096525Y-72078368D01*
X93934010Y-72321589D01*
X93822068Y-72591842D01*
X93765000Y-72878740D01*
X93765000Y-73171260D01*
X93822068Y-73458158D01*
X93934010Y-73728411D01*
X94096525Y-73971632D01*
X94228380Y-74103487D01*
X94155820Y-74125498D01*
X94045506Y-74184463D01*
X93948815Y-74263815D01*
X93869463Y-74360506D01*
X93810498Y-74470820D01*
X93774188Y-74590518D01*
X93761928Y-74715000D01*
X88855836Y-74715000D01*
X88755256Y-74647795D01*
X88566898Y-74569774D01*
X88366939Y-74530000D01*
X88163061Y-74530000D01*
X87963102Y-74569774D01*
X87774744Y-74647795D01*
X87605226Y-74761063D01*
X87461063Y-74905226D01*
X87347795Y-75074744D01*
X87269774Y-75263102D01*
X87230000Y-75463061D01*
X87230000Y-75666939D01*
X87269774Y-75866898D01*
X87347795Y-76055256D01*
X87461063Y-76224774D01*
X87605226Y-76368937D01*
X87774744Y-76482205D01*
X87963102Y-76560226D01*
X88140001Y-76595413D01*
X88140000Y-77507332D01*
X88140001Y-77507342D01*
X88140000Y-94300198D01*
X87590199Y-94850000D01*
X87528061Y-94850000D01*
X87328102Y-94889774D01*
X87139744Y-94967795D01*
X87120000Y-94980987D01*
X87120000Y-67347333D01*
X87123677Y-67310000D01*
X87109003Y-67161014D01*
X87065546Y-67017753D01*
X86994974Y-66885724D01*
X86923799Y-66798997D01*
X86900001Y-66769999D01*
X86871003Y-66746201D01*
X86288803Y-66164002D01*
X86265001Y-66134999D01*
X86149276Y-66040026D01*
X86017247Y-65969454D01*
X85873986Y-65925997D01*
X85762333Y-65915000D01*
X85762322Y-65915000D01*
X85725000Y-65911324D01*
X85687678Y-65915000D01*
X84483688Y-65915000D01*
X84526391Y-65811907D01*
X84580000Y-65542396D01*
X84580000Y-65267604D01*
X84526391Y-64998093D01*
X84421233Y-64744220D01*
X84268567Y-64515739D01*
X84074261Y-64321433D01*
X83845780Y-64168767D01*
X83769499Y-64137170D01*
X83787326Y-64130744D01*
X83902794Y-64069025D01*
X83969531Y-63829137D01*
X83185000Y-63044605D01*
X82400469Y-63829137D01*
X82467206Y-64069025D01*
X82606707Y-64134600D01*
X82524220Y-64168767D01*
X82295739Y-64321433D01*
X82101433Y-64515739D01*
X81948767Y-64744220D01*
X81915000Y-64825740D01*
X81881233Y-64744220D01*
X81728567Y-64515739D01*
X81534261Y-64321433D01*
X81305780Y-64168767D01*
X81224260Y-64135000D01*
X81305780Y-64101233D01*
X81534261Y-63948567D01*
X81728567Y-63754261D01*
X81881233Y-63525780D01*
X81912830Y-63449499D01*
X81919256Y-63467326D01*
X81980975Y-63582794D01*
X82220863Y-63649531D01*
X83005395Y-62865000D01*
X83364605Y-62865000D01*
X84149137Y-63649531D01*
X84389025Y-63582794D01*
X84505924Y-63334108D01*
X84572061Y-63067394D01*
X84584895Y-62792903D01*
X84543931Y-62521183D01*
X84450744Y-62262674D01*
X84389025Y-62147206D01*
X84149137Y-62080469D01*
X83364605Y-62865000D01*
X83005395Y-62865000D01*
X82220863Y-62080469D01*
X81980975Y-62147206D01*
X81915400Y-62286707D01*
X81881233Y-62204220D01*
X81728567Y-61975739D01*
X81653691Y-61900863D01*
X82400469Y-61900863D01*
X83185000Y-62685395D01*
X83969531Y-61900863D01*
X83902794Y-61660975D01*
X83654108Y-61544076D01*
X83387394Y-61477939D01*
X83112903Y-61465105D01*
X82841183Y-61506069D01*
X82582674Y-61599256D01*
X82467206Y-61660975D01*
X82400469Y-61900863D01*
X81653691Y-61900863D01*
X81534261Y-61781433D01*
X81305780Y-61628767D01*
X81051907Y-61523609D01*
X80782396Y-61470000D01*
X80507604Y-61470000D01*
X80238093Y-61523609D01*
X79984220Y-61628767D01*
X79755739Y-61781433D01*
X79561433Y-61975739D01*
X79500000Y-62067680D01*
X79500000Y-61632323D01*
X79503676Y-61595000D01*
X79500000Y-61557677D01*
X79500000Y-61557667D01*
X79489003Y-61446014D01*
X79445546Y-61302753D01*
X79374974Y-61170724D01*
X79280001Y-61054999D01*
X79251004Y-61031202D01*
X77595000Y-59375199D01*
X77595000Y-28064014D01*
X77600901Y-28066825D01*
X77748110Y-28111476D01*
X77978000Y-27990155D01*
X77978000Y-26797000D01*
X78232000Y-26797000D01*
X78232000Y-27990155D01*
X78461890Y-28111476D01*
X78609099Y-28066825D01*
X78871920Y-27941641D01*
X79105269Y-27767588D01*
X79300178Y-27551355D01*
X79449157Y-27301252D01*
X79546481Y-27026891D01*
X79425814Y-26797000D01*
X78232000Y-26797000D01*
X77978000Y-26797000D01*
X77958000Y-26797000D01*
X77958000Y-26543000D01*
X77978000Y-26543000D01*
X77978000Y-25349845D01*
X78232000Y-25349845D01*
X78232000Y-26543000D01*
X79425814Y-26543000D01*
X79546481Y-26313109D01*
X79449157Y-26038748D01*
X79300178Y-25788645D01*
X79105269Y-25572412D01*
X78871920Y-25398359D01*
X78609099Y-25273175D01*
X78461890Y-25228524D01*
X78232000Y-25349845D01*
X77978000Y-25349845D01*
X77748110Y-25228524D01*
X77600901Y-25273175D01*
X77595000Y-25275986D01*
X77595000Y-18539014D01*
X77600901Y-18541825D01*
X77748110Y-18586476D01*
X77978000Y-18465155D01*
X77978000Y-17272000D01*
X78232000Y-17272000D01*
X78232000Y-18465155D01*
X78461890Y-18586476D01*
X78609099Y-18541825D01*
X78871920Y-18416641D01*
X79105269Y-18242588D01*
X79300178Y-18026355D01*
X79449157Y-17776252D01*
X79546481Y-17501891D01*
X79425814Y-17272000D01*
X78232000Y-17272000D01*
X77978000Y-17272000D01*
X77958000Y-17272000D01*
X77958000Y-17018000D01*
X77978000Y-17018000D01*
X77978000Y-15824845D01*
X78232000Y-15824845D01*
X78232000Y-17018000D01*
X79425814Y-17018000D01*
X79546481Y-16788109D01*
X79449157Y-16513748D01*
X79300178Y-16263645D01*
X79105269Y-16047412D01*
X78871920Y-15873359D01*
X78609099Y-15748175D01*
X78461890Y-15703524D01*
X78232000Y-15824845D01*
X77978000Y-15824845D01*
X77748110Y-15703524D01*
X77600901Y-15748175D01*
X77338080Y-15873359D01*
X77104731Y-16047412D01*
X76909822Y-16263645D01*
X76840195Y-16380534D01*
X76718475Y-16198368D01*
X76511632Y-15991525D01*
X76268411Y-15829010D01*
X75998158Y-15717068D01*
X75711260Y-15660000D01*
X75418740Y-15660000D01*
X75131842Y-15717068D01*
X74861589Y-15829010D01*
X74618368Y-15991525D01*
X74411525Y-16198368D01*
X74295000Y-16372760D01*
X74178475Y-16198368D01*
X73971632Y-15991525D01*
X73728411Y-15829010D01*
X73458158Y-15717068D01*
X73171260Y-15660000D01*
X72878740Y-15660000D01*
X72591842Y-15717068D01*
X72321589Y-15829010D01*
X72078368Y-15991525D01*
X71871525Y-16198368D01*
X71755000Y-16372760D01*
X71638475Y-16198368D01*
X71431632Y-15991525D01*
X71188411Y-15829010D01*
X70918158Y-15717068D01*
X70631260Y-15660000D01*
X70338740Y-15660000D01*
X70051842Y-15717068D01*
X69781589Y-15829010D01*
X69538368Y-15991525D01*
X69331525Y-16198368D01*
X69215000Y-16372760D01*
X69098475Y-16198368D01*
X68891632Y-15991525D01*
X68648411Y-15829010D01*
X68378158Y-15717068D01*
X68091260Y-15660000D01*
X67798740Y-15660000D01*
X67511842Y-15717068D01*
X67241589Y-15829010D01*
X66998368Y-15991525D01*
X66791525Y-16198368D01*
X66675000Y-16372760D01*
X66558475Y-16198368D01*
X66351632Y-15991525D01*
X66108411Y-15829010D01*
X65838158Y-15717068D01*
X65551260Y-15660000D01*
X65258740Y-15660000D01*
X64971842Y-15717068D01*
X64701589Y-15829010D01*
X64458368Y-15991525D01*
X64251525Y-16198368D01*
X64135000Y-16372760D01*
X64018475Y-16198368D01*
X63811632Y-15991525D01*
X63568411Y-15829010D01*
X63298158Y-15717068D01*
X63011260Y-15660000D01*
X62718740Y-15660000D01*
X62431842Y-15717068D01*
X62161589Y-15829010D01*
X61918368Y-15991525D01*
X61711525Y-16198368D01*
X61595000Y-16372760D01*
X61478475Y-16198368D01*
X61271632Y-15991525D01*
X61028411Y-15829010D01*
X60758158Y-15717068D01*
X60471260Y-15660000D01*
X60178740Y-15660000D01*
X59891842Y-15717068D01*
X59621589Y-15829010D01*
X59378368Y-15991525D01*
X59171525Y-16198368D01*
X59055000Y-16372760D01*
X58938475Y-16198368D01*
X58731632Y-15991525D01*
X58488411Y-15829010D01*
X58218158Y-15717068D01*
X57931260Y-15660000D01*
X57638740Y-15660000D01*
X57351842Y-15717068D01*
X57081589Y-15829010D01*
X56838368Y-15991525D01*
X56631525Y-16198368D01*
X56515000Y-16372760D01*
X56398475Y-16198368D01*
X56191632Y-15991525D01*
X55948411Y-15829010D01*
X55678158Y-15717068D01*
X55391260Y-15660000D01*
X55098740Y-15660000D01*
X54811842Y-15717068D01*
X54541589Y-15829010D01*
X54298368Y-15991525D01*
X54091525Y-16198368D01*
X53975000Y-16372760D01*
X53858475Y-16198368D01*
X53651632Y-15991525D01*
X53408411Y-15829010D01*
X53138158Y-15717068D01*
X52851260Y-15660000D01*
X52558740Y-15660000D01*
X52271842Y-15717068D01*
X52001589Y-15829010D01*
X51758368Y-15991525D01*
X51551525Y-16198368D01*
X51435000Y-16372760D01*
X51318475Y-16198368D01*
X51111632Y-15991525D01*
X50868411Y-15829010D01*
X50598158Y-15717068D01*
X50311260Y-15660000D01*
X50018740Y-15660000D01*
X49731842Y-15717068D01*
X49461589Y-15829010D01*
X49218368Y-15991525D01*
X49011525Y-16198368D01*
X48895000Y-16372760D01*
X48778475Y-16198368D01*
X48571632Y-15991525D01*
X48328411Y-15829010D01*
X48058158Y-15717068D01*
X47771260Y-15660000D01*
X47478740Y-15660000D01*
X47191842Y-15717068D01*
X46921589Y-15829010D01*
X46678368Y-15991525D01*
X46471525Y-16198368D01*
X46355000Y-16372760D01*
X46238475Y-16198368D01*
X46031632Y-15991525D01*
X45788411Y-15829010D01*
X45518158Y-15717068D01*
X45231260Y-15660000D01*
X44938740Y-15660000D01*
X44651842Y-15717068D01*
X44381589Y-15829010D01*
X44138368Y-15991525D01*
X44006513Y-16123380D01*
X43984502Y-16050820D01*
X43925537Y-15940506D01*
X43846185Y-15843815D01*
X43749494Y-15764463D01*
X43639180Y-15705498D01*
X43519482Y-15669188D01*
X43395000Y-15656928D01*
X41695000Y-15656928D01*
X41570518Y-15669188D01*
X41450820Y-15705498D01*
X41340506Y-15764463D01*
X41243815Y-15843815D01*
X41164463Y-15940506D01*
X41105498Y-16050820D01*
X41069188Y-16170518D01*
X41056928Y-16295000D01*
X41056928Y-17995000D01*
X41069188Y-18119482D01*
X41105498Y-18239180D01*
X41164463Y-18349494D01*
X41243815Y-18446185D01*
X41340506Y-18525537D01*
X41450820Y-18584502D01*
X41570518Y-18620812D01*
X41592500Y-18622977D01*
X41592501Y-25192023D01*
X41570518Y-25194188D01*
X41450820Y-25230498D01*
X41340506Y-25289463D01*
X41243815Y-25368815D01*
X41164463Y-25465506D01*
X41105498Y-25575820D01*
X41069188Y-25695518D01*
X41067023Y-25717500D01*
X39416785Y-25717500D01*
X39370000Y-25712892D01*
X39323215Y-25717500D01*
X39183277Y-25731283D01*
X39003731Y-25785748D01*
X38838259Y-25874194D01*
X38693222Y-25993222D01*
X38663397Y-26029564D01*
X36824569Y-27868393D01*
X36788222Y-27898222D01*
X36669194Y-28043259D01*
X36580748Y-28208732D01*
X36526283Y-28388277D01*
X36526283Y-28388278D01*
X36507892Y-28575000D01*
X36512500Y-28621785D01*
X36512501Y-61499821D01*
X36460820Y-61515498D01*
X36350506Y-61574463D01*
X36253815Y-61653815D01*
X36174463Y-61750506D01*
X36115498Y-61860820D01*
X36079188Y-61980518D01*
X36066928Y-62105000D01*
X36066928Y-63625000D01*
X36079188Y-63749482D01*
X36115498Y-63869180D01*
X36174463Y-63979494D01*
X36253815Y-64076185D01*
X36350506Y-64155537D01*
X36460820Y-64214502D01*
X36580518Y-64250812D01*
X36668467Y-64259474D01*
X36575739Y-64321433D01*
X36381433Y-64515739D01*
X36295064Y-64645000D01*
X33057322Y-64645000D01*
X33019999Y-64641324D01*
X32982676Y-64645000D01*
X32982667Y-64645000D01*
X32871014Y-64655997D01*
X32727753Y-64699454D01*
X32595724Y-64770026D01*
X32479999Y-64864999D01*
X32456201Y-64893997D01*
X31238998Y-66111201D01*
X31210000Y-66134999D01*
X31186202Y-66163997D01*
X31186201Y-66163998D01*
X31115026Y-66250724D01*
X31044454Y-66382754D01*
X31014180Y-66482558D01*
X31000998Y-66526014D01*
X30993272Y-66604454D01*
X30986324Y-66675000D01*
X30990001Y-66712333D01*
X30990000Y-95181289D01*
X30946063Y-95225226D01*
X30832795Y-95394744D01*
X30754774Y-95583102D01*
X30715000Y-95783061D01*
X25525000Y-95783061D01*
X25525000Y-75633711D01*
X25568937Y-75589774D01*
X25682205Y-75420256D01*
X25760226Y-75231898D01*
X25800000Y-75031939D01*
X25800000Y-74828061D01*
X25760226Y-74628102D01*
X25682205Y-74439744D01*
X25568937Y-74270226D01*
X25424774Y-74126063D01*
X25255256Y-74012795D01*
X25066898Y-73934774D01*
X24866939Y-73895000D01*
X24663061Y-73895000D01*
X24463102Y-73934774D01*
X24274744Y-74012795D01*
X24105226Y-74126063D01*
X23961063Y-74270226D01*
X23847795Y-74439744D01*
X23769774Y-74628102D01*
X23730000Y-74828061D01*
X22858000Y-74828061D01*
X22858000Y-72196801D01*
X23534802Y-71520000D01*
X23596939Y-71520000D01*
X23796898Y-71480226D01*
X23985256Y-71402205D01*
X24154774Y-71288937D01*
X24298937Y-71144774D01*
X24412205Y-70975256D01*
X24490226Y-70786898D01*
X24530000Y-70586939D01*
X24530000Y-70383061D01*
X24490226Y-70183102D01*
X24412205Y-69994744D01*
X24298937Y-69825226D01*
X24154774Y-69681063D01*
X23985256Y-69567795D01*
X23796898Y-69489774D01*
X23596939Y-69450000D01*
X23393061Y-69450000D01*
X23193102Y-69489774D01*
X23004744Y-69567795D01*
X22835226Y-69681063D01*
X22691063Y-69825226D01*
X22577795Y-69994744D01*
X22499774Y-70183102D01*
X22460000Y-70383061D01*
X22460000Y-70445198D01*
X21586998Y-71318201D01*
X21558000Y-71341999D01*
X21534202Y-71370997D01*
X21534201Y-71370998D01*
X21463026Y-71457724D01*
X21392454Y-71589754D01*
X21373251Y-71653061D01*
X21356280Y-71709010D01*
X21348998Y-71733015D01*
X21334324Y-71882000D01*
X21338001Y-71919333D01*
X21338000Y-112573957D01*
X21183241Y-112677363D01*
X20983363Y-112877241D01*
X20826320Y-113112273D01*
X20718147Y-113373426D01*
X20663000Y-113650665D01*
X19735000Y-113650665D01*
X19735000Y-13385000D01*
X100915000Y-13385000D01*
X100915001Y-164415000D01*
%TA.AperFunction,Conductor*%
D25*
G36*
X100915001Y-164415000D02*
G01*
X19735000Y-164415000D01*
X19735000Y-113650665D01*
X20663000Y-113650665D01*
X20663000Y-113933335D01*
X20718147Y-114210574D01*
X20826320Y-114471727D01*
X20983363Y-114706759D01*
X21183241Y-114906637D01*
X21418273Y-115063680D01*
X21679426Y-115171853D01*
X21956665Y-115227000D01*
X22239335Y-115227000D01*
X22516574Y-115171853D01*
X22777727Y-115063680D01*
X23012759Y-114906637D01*
X23212637Y-114706759D01*
X23369680Y-114471727D01*
X23477853Y-114210574D01*
X23533000Y-113933335D01*
X23533000Y-113650665D01*
X23477853Y-113373426D01*
X23369680Y-113112273D01*
X23212637Y-112877241D01*
X23012759Y-112677363D01*
X22858000Y-112573957D01*
X22858000Y-74828061D01*
X23730000Y-74828061D01*
X23730000Y-75031939D01*
X23769774Y-75231898D01*
X23847795Y-75420256D01*
X23961063Y-75589774D01*
X24005000Y-75633711D01*
X24005001Y-78067658D01*
X24005000Y-78067668D01*
X24005001Y-158712667D01*
X24001324Y-158750000D01*
X24015998Y-158898985D01*
X24059454Y-159042246D01*
X24130026Y-159174276D01*
X24180694Y-159236014D01*
X24225000Y-159290001D01*
X24253998Y-159313799D01*
X24365000Y-159424801D01*
X24365000Y-159486939D01*
X24404774Y-159686898D01*
X24482795Y-159875256D01*
X24596063Y-160044774D01*
X24740226Y-160188937D01*
X24909744Y-160302205D01*
X25098102Y-160380226D01*
X25298061Y-160420000D01*
X25501939Y-160420000D01*
X25701898Y-160380226D01*
X25890256Y-160302205D01*
X26059774Y-160188937D01*
X26203937Y-160044774D01*
X26317205Y-159875256D01*
X26395226Y-159686898D01*
X26435000Y-159486939D01*
X26435000Y-159283061D01*
X26395226Y-159083102D01*
X26317205Y-158894744D01*
X26203937Y-158725226D01*
X26059774Y-158581063D01*
X25890256Y-158467795D01*
X25701898Y-158389774D01*
X25525000Y-158354587D01*
X25525000Y-155424702D01*
X33349903Y-155424702D01*
X33421486Y-155668671D01*
X33676996Y-155789571D01*
X33951184Y-155858300D01*
X34233512Y-155872217D01*
X34513130Y-155830787D01*
X34779292Y-155735603D01*
X34904514Y-155668671D01*
X34976097Y-155424702D01*
X34163000Y-154611605D01*
X33349903Y-155424702D01*
X25525000Y-155424702D01*
X25525000Y-154502512D01*
X32722783Y-154502512D01*
X32764213Y-154782130D01*
X32859397Y-155048292D01*
X32926329Y-155173514D01*
X33170298Y-155245097D01*
X33983395Y-154432000D01*
X34342605Y-154432000D01*
X35155702Y-155245097D01*
X35399671Y-155173514D01*
X35520571Y-154918004D01*
X35589300Y-154643816D01*
X35603217Y-154361488D01*
X35561787Y-154081870D01*
X35466603Y-153815708D01*
X35399671Y-153690486D01*
X35155702Y-153618903D01*
X34342605Y-154432000D01*
X33983395Y-154432000D01*
X33170298Y-153618903D01*
X32926329Y-153690486D01*
X32805429Y-153945996D01*
X32736700Y-154220184D01*
X32722783Y-154502512D01*
X25525000Y-154502512D01*
X25525000Y-153439298D01*
X33349903Y-153439298D01*
X34163000Y-154252395D01*
X34976097Y-153439298D01*
X34904514Y-153195329D01*
X34649004Y-153074429D01*
X34374816Y-153005700D01*
X34092488Y-152991783D01*
X33812870Y-153033213D01*
X33546708Y-153128397D01*
X33421486Y-153195329D01*
X33349903Y-153439298D01*
X25525000Y-153439298D01*
X25525000Y-150344702D01*
X33349903Y-150344702D01*
X33421486Y-150588671D01*
X33676996Y-150709571D01*
X33951184Y-150778300D01*
X34233512Y-150792217D01*
X34513130Y-150750787D01*
X34779292Y-150655603D01*
X34904514Y-150588671D01*
X34976097Y-150344702D01*
X34163000Y-149531605D01*
X33349903Y-150344702D01*
X25525000Y-150344702D01*
X25525000Y-149422512D01*
X32722783Y-149422512D01*
X32764213Y-149702130D01*
X32859397Y-149968292D01*
X32926329Y-150093514D01*
X33170298Y-150165097D01*
X33983395Y-149352000D01*
X34342605Y-149352000D01*
X35155702Y-150165097D01*
X35399671Y-150093514D01*
X35520571Y-149838004D01*
X35589300Y-149563816D01*
X35603217Y-149281488D01*
X35561787Y-149001870D01*
X35466603Y-148735708D01*
X35399671Y-148610486D01*
X35155702Y-148538903D01*
X34342605Y-149352000D01*
X33983395Y-149352000D01*
X33170298Y-148538903D01*
X32926329Y-148610486D01*
X32805429Y-148865996D01*
X32736700Y-149140184D01*
X32722783Y-149422512D01*
X25525000Y-149422512D01*
X25525000Y-148359298D01*
X33349903Y-148359298D01*
X34163000Y-149172395D01*
X34976097Y-148359298D01*
X34904514Y-148115329D01*
X34649004Y-147994429D01*
X34374816Y-147925700D01*
X34092488Y-147911783D01*
X33812870Y-147953213D01*
X33546708Y-148048397D01*
X33421486Y-148115329D01*
X33349903Y-148359298D01*
X25525000Y-148359298D01*
X25525000Y-144130665D01*
X32728000Y-144130665D01*
X32728000Y-144413335D01*
X32783147Y-144690574D01*
X32891320Y-144951727D01*
X33048363Y-145186759D01*
X33248241Y-145386637D01*
X33483273Y-145543680D01*
X33744426Y-145651853D01*
X34021665Y-145707000D01*
X34304335Y-145707000D01*
X34581574Y-145651853D01*
X34842727Y-145543680D01*
X35077759Y-145386637D01*
X35277637Y-145186759D01*
X35434680Y-144951727D01*
X35542853Y-144690574D01*
X35598000Y-144413335D01*
X35598000Y-144130665D01*
X35542853Y-143853426D01*
X35434680Y-143592273D01*
X35277637Y-143357241D01*
X35077759Y-143157363D01*
X34842727Y-143000320D01*
X34581574Y-142892147D01*
X34304335Y-142837000D01*
X34021665Y-142837000D01*
X33744426Y-142892147D01*
X33483273Y-143000320D01*
X33248241Y-143157363D01*
X33048363Y-143357241D01*
X32891320Y-143592273D01*
X32783147Y-143853426D01*
X32728000Y-144130665D01*
X25525000Y-144130665D01*
X25525000Y-113650665D01*
X28283000Y-113650665D01*
X28283000Y-113933335D01*
X28338147Y-114210574D01*
X28446320Y-114471727D01*
X28603363Y-114706759D01*
X28803241Y-114906637D01*
X29038273Y-115063680D01*
X29299426Y-115171853D01*
X29576665Y-115227000D01*
X29859335Y-115227000D01*
X30136574Y-115171853D01*
X30397727Y-115063680D01*
X30632759Y-114906637D01*
X30832637Y-114706759D01*
X30989680Y-114471727D01*
X31097853Y-114210574D01*
X31153000Y-113933335D01*
X31153000Y-113650665D01*
X31097853Y-113373426D01*
X30989680Y-113112273D01*
X30832637Y-112877241D01*
X30632759Y-112677363D01*
X30397727Y-112520320D01*
X30136574Y-112412147D01*
X29859335Y-112357000D01*
X29576665Y-112357000D01*
X29299426Y-112412147D01*
X29038273Y-112520320D01*
X28803241Y-112677363D01*
X28603363Y-112877241D01*
X28446320Y-113112273D01*
X28338147Y-113373426D01*
X28283000Y-113650665D01*
X25525000Y-113650665D01*
X25525000Y-95783061D01*
X30715000Y-95783061D01*
X30715000Y-95986939D01*
X30754774Y-96186898D01*
X30832795Y-96375256D01*
X30946063Y-96544774D01*
X31090226Y-96688937D01*
X31259744Y-96802205D01*
X31448102Y-96880226D01*
X31648061Y-96920000D01*
X31851939Y-96920000D01*
X32051898Y-96880226D01*
X32240256Y-96802205D01*
X32409774Y-96688937D01*
X32553937Y-96544774D01*
X32667205Y-96375256D01*
X32745226Y-96186898D01*
X32785000Y-95986939D01*
X32785000Y-95783061D01*
X32745226Y-95583102D01*
X32667205Y-95394744D01*
X32553937Y-95225226D01*
X32510000Y-95181289D01*
X32510000Y-66989801D01*
X33334802Y-66165000D01*
X36295064Y-66165000D01*
X36381433Y-66294261D01*
X36575739Y-66488567D01*
X36804220Y-66641233D01*
X36885740Y-66675000D01*
X36804220Y-66708767D01*
X36575739Y-66861433D01*
X36381433Y-67055739D01*
X36295064Y-67185000D01*
X34962325Y-67185000D01*
X34925000Y-67181324D01*
X34887675Y-67185000D01*
X34887667Y-67185000D01*
X34776014Y-67195997D01*
X34632753Y-67239454D01*
X34500724Y-67310026D01*
X34384999Y-67404999D01*
X34361201Y-67433998D01*
X33652002Y-68143197D01*
X33622999Y-68166999D01*
X33579688Y-68219774D01*
X33528026Y-68282724D01*
X33494739Y-68345000D01*
X33457454Y-68414754D01*
X33413997Y-68558015D01*
X33403000Y-68669668D01*
X33403000Y-68669678D01*
X33399324Y-68707000D01*
X33403000Y-68744322D01*
X33403001Y-100777600D01*
X33380226Y-100663102D01*
X33302205Y-100474744D01*
X33188937Y-100305226D01*
X33044774Y-100161063D01*
X32875256Y-100047795D01*
X32686898Y-99969774D01*
X32486939Y-99930000D01*
X32283061Y-99930000D01*
X32083102Y-99969774D01*
X31894744Y-100047795D01*
X31725226Y-100161063D01*
X31581063Y-100305226D01*
X31467795Y-100474744D01*
X31389774Y-100663102D01*
X31350000Y-100863061D01*
X31350000Y-101066939D01*
X31389774Y-101266898D01*
X31467795Y-101455256D01*
X31581063Y-101624774D01*
X31625000Y-101668711D01*
X31625001Y-117056667D01*
X31621324Y-117094000D01*
X31635998Y-117242985D01*
X31679454Y-117386246D01*
X31750026Y-117518276D01*
X31817359Y-117600320D01*
X31845000Y-117634001D01*
X31873998Y-117657799D01*
X32764312Y-118548114D01*
X32728000Y-118730665D01*
X32728000Y-119013335D01*
X32783147Y-119290574D01*
X32891320Y-119551727D01*
X33048363Y-119786759D01*
X33248241Y-119986637D01*
X33483273Y-120143680D01*
X33744426Y-120251853D01*
X34021665Y-120307000D01*
X34304335Y-120307000D01*
X34581574Y-120251853D01*
X34800001Y-120161378D01*
X34800001Y-122240197D01*
X34486886Y-122553312D01*
X34304335Y-122517000D01*
X34021665Y-122517000D01*
X33744426Y-122572147D01*
X33483273Y-122680320D01*
X33248241Y-122837363D01*
X33048363Y-123037241D01*
X32891320Y-123272273D01*
X32783147Y-123533426D01*
X32728000Y-123810665D01*
X32728000Y-124093335D01*
X32783147Y-124370574D01*
X32891320Y-124631727D01*
X33048363Y-124866759D01*
X33248241Y-125066637D01*
X33483273Y-125223680D01*
X33744426Y-125331853D01*
X34021665Y-125387000D01*
X34304335Y-125387000D01*
X34581574Y-125331853D01*
X34842727Y-125223680D01*
X35077759Y-125066637D01*
X35277637Y-124866759D01*
X35434680Y-124631727D01*
X35542853Y-124370574D01*
X35598000Y-124093335D01*
X35598000Y-123810665D01*
X35561688Y-123628114D01*
X36070001Y-123119801D01*
X36070001Y-126050197D01*
X34486886Y-127633312D01*
X34304335Y-127597000D01*
X34021665Y-127597000D01*
X33744426Y-127652147D01*
X33483273Y-127760320D01*
X33248241Y-127917363D01*
X33048363Y-128117241D01*
X32891320Y-128352273D01*
X32783147Y-128613426D01*
X32728000Y-128890665D01*
X32728000Y-129173335D01*
X32783147Y-129450574D01*
X32891320Y-129711727D01*
X33048363Y-129946759D01*
X33248241Y-130146637D01*
X33483273Y-130303680D01*
X33744426Y-130411853D01*
X34021665Y-130467000D01*
X34304335Y-130467000D01*
X34581574Y-130411853D01*
X34842727Y-130303680D01*
X35077759Y-130146637D01*
X35277637Y-129946759D01*
X35434680Y-129711727D01*
X35542853Y-129450574D01*
X35598000Y-129173335D01*
X35598000Y-128890665D01*
X35561688Y-128708114D01*
X37341003Y-126928799D01*
X37370001Y-126905001D01*
X37464974Y-126789276D01*
X37535546Y-126657247D01*
X37579003Y-126513986D01*
X37590000Y-126402333D01*
X37593677Y-126365000D01*
X37590000Y-126327667D01*
X37590000Y-103184801D01*
X37975001Y-102799801D01*
X37975000Y-127320197D01*
X33651998Y-131643201D01*
X33623000Y-131666999D01*
X33599202Y-131695997D01*
X33599201Y-131695998D01*
X33528026Y-131782724D01*
X33457454Y-131914754D01*
X33413998Y-132058015D01*
X33399324Y-132207000D01*
X33403001Y-132244332D01*
X33403001Y-132893956D01*
X33248241Y-132997363D01*
X33048363Y-133197241D01*
X32891320Y-133432273D01*
X32783147Y-133693426D01*
X32728000Y-133970665D01*
X32728000Y-134253335D01*
X32783147Y-134530574D01*
X32891320Y-134791727D01*
X33048363Y-135026759D01*
X33248241Y-135226637D01*
X33483273Y-135383680D01*
X33744426Y-135491853D01*
X34021665Y-135547000D01*
X34304335Y-135547000D01*
X34581574Y-135491853D01*
X34842727Y-135383680D01*
X35077759Y-135226637D01*
X35277637Y-135026759D01*
X35434680Y-134791727D01*
X35542853Y-134530574D01*
X35598000Y-134253335D01*
X35598000Y-133970665D01*
X35542853Y-133693426D01*
X35434680Y-133432273D01*
X35277637Y-133197241D01*
X35077759Y-132997363D01*
X34923000Y-132893957D01*
X34923000Y-132521801D01*
X39245000Y-128199803D01*
X39245000Y-133035198D01*
X34777004Y-137503195D01*
X34776998Y-137503200D01*
X34486886Y-137793312D01*
X34304335Y-137757000D01*
X34021665Y-137757000D01*
X33744426Y-137812147D01*
X33483273Y-137920320D01*
X33248241Y-138077363D01*
X33048363Y-138277241D01*
X32891320Y-138512273D01*
X32783147Y-138773426D01*
X32728000Y-139050665D01*
X32728000Y-139333335D01*
X32783147Y-139610574D01*
X32891320Y-139871727D01*
X33048363Y-140106759D01*
X33248241Y-140306637D01*
X33483273Y-140463680D01*
X33744426Y-140571853D01*
X34021665Y-140627000D01*
X34304335Y-140627000D01*
X34581574Y-140571853D01*
X34842727Y-140463680D01*
X35077759Y-140306637D01*
X35277637Y-140106759D01*
X35434680Y-139871727D01*
X35542853Y-139610574D01*
X35598000Y-139333335D01*
X35598000Y-139050665D01*
X35561688Y-138868114D01*
X35851800Y-138578002D01*
X35851805Y-138577996D01*
X40348000Y-134081802D01*
X40348000Y-134253335D01*
X40403147Y-134530574D01*
X40511320Y-134791727D01*
X40668363Y-135026759D01*
X40868241Y-135226637D01*
X41023001Y-135330044D01*
X41023001Y-137973956D01*
X40868241Y-138077363D01*
X40668363Y-138277241D01*
X40511320Y-138512273D01*
X40403147Y-138773426D01*
X40348000Y-139050665D01*
X40348000Y-139333335D01*
X40403147Y-139610574D01*
X40511320Y-139871727D01*
X40668363Y-140106759D01*
X40868241Y-140306637D01*
X41023001Y-140410044D01*
X41023001Y-143053956D01*
X40868241Y-143157363D01*
X40668363Y-143357241D01*
X40511320Y-143592273D01*
X40403147Y-143853426D01*
X40348000Y-144130665D01*
X40348000Y-144413335D01*
X40403147Y-144690574D01*
X40511320Y-144951727D01*
X40668363Y-145186759D01*
X40868241Y-145386637D01*
X41023001Y-145490044D01*
X41023001Y-148133956D01*
X40868241Y-148237363D01*
X40668363Y-148437241D01*
X40511320Y-148672273D01*
X40403147Y-148933426D01*
X40348000Y-149210665D01*
X40348000Y-149493335D01*
X40403147Y-149770574D01*
X40511320Y-150031727D01*
X40668363Y-150266759D01*
X40868241Y-150466637D01*
X41023001Y-150570044D01*
X41023001Y-153213956D01*
X40868241Y-153317363D01*
X40668363Y-153517241D01*
X40511320Y-153752273D01*
X40403147Y-154013426D01*
X40348000Y-154290665D01*
X40348000Y-154573335D01*
X40403147Y-154850574D01*
X40511320Y-155111727D01*
X40668363Y-155346759D01*
X40868241Y-155546637D01*
X41023001Y-155650044D01*
X41023001Y-158233821D01*
X40836368Y-158358525D01*
X40704513Y-158490380D01*
X40682502Y-158417820D01*
X40623537Y-158307506D01*
X40544185Y-158210815D01*
X40447494Y-158131463D01*
X40337180Y-158072498D01*
X40217482Y-158036188D01*
X40093000Y-158023928D01*
X38393000Y-158023928D01*
X38268518Y-158036188D01*
X38148820Y-158072498D01*
X38038506Y-158131463D01*
X37941815Y-158210815D01*
X37862463Y-158307506D01*
X37803498Y-158417820D01*
X37767188Y-158537518D01*
X37754928Y-158662000D01*
X37754928Y-160362000D01*
X37767188Y-160486482D01*
X37803498Y-160606180D01*
X37862463Y-160716494D01*
X37941815Y-160813185D01*
X38038506Y-160892537D01*
X38148820Y-160951502D01*
X38268518Y-160987812D01*
X38393000Y-161000072D01*
X40093000Y-161000072D01*
X40217482Y-160987812D01*
X40337180Y-160951502D01*
X40447494Y-160892537D01*
X40544185Y-160813185D01*
X40623537Y-160716494D01*
X40682502Y-160606180D01*
X40704513Y-160533620D01*
X40836368Y-160665475D01*
X41079589Y-160827990D01*
X41349842Y-160939932D01*
X41636740Y-160997000D01*
X41929260Y-160997000D01*
X42216158Y-160939932D01*
X42486411Y-160827990D01*
X42729632Y-160665475D01*
X42936475Y-160458632D01*
X43098990Y-160215411D01*
X43210932Y-159945158D01*
X43268000Y-159658260D01*
X43268000Y-159365740D01*
X43210932Y-159078842D01*
X43098990Y-158808589D01*
X42936475Y-158565368D01*
X42729632Y-158358525D01*
X42543000Y-158233822D01*
X42543000Y-155650043D01*
X42697759Y-155546637D01*
X42897637Y-155346759D01*
X43054680Y-155111727D01*
X43162853Y-154850574D01*
X43218000Y-154573335D01*
X43218000Y-154290665D01*
X43162853Y-154013426D01*
X43054680Y-153752273D01*
X42897637Y-153517241D01*
X42697759Y-153317363D01*
X42543000Y-153213957D01*
X42543000Y-150570043D01*
X42697759Y-150466637D01*
X42897637Y-150266759D01*
X43054680Y-150031727D01*
X43162853Y-149770574D01*
X43218000Y-149493335D01*
X43218000Y-149210665D01*
X43162853Y-148933426D01*
X43054680Y-148672273D01*
X42897637Y-148437241D01*
X42697759Y-148237363D01*
X42543000Y-148133957D01*
X42543000Y-145490043D01*
X42697759Y-145386637D01*
X42897637Y-145186759D01*
X43054680Y-144951727D01*
X43162853Y-144690574D01*
X43218000Y-144413335D01*
X43218000Y-144130665D01*
X43162853Y-143853426D01*
X43054680Y-143592273D01*
X42993571Y-143500816D01*
X54340000Y-143500816D01*
X54340000Y-143803184D01*
X54398989Y-144099743D01*
X54514701Y-144379095D01*
X54682688Y-144630505D01*
X54896495Y-144844312D01*
X55115000Y-144990313D01*
X55115001Y-146642668D01*
X55111324Y-146680000D01*
X55125998Y-146828985D01*
X55169454Y-146972246D01*
X55240026Y-147104276D01*
X55294797Y-147171014D01*
X55335000Y-147220001D01*
X55363998Y-147243799D01*
X55480000Y-147359801D01*
X55480000Y-147421939D01*
X55519774Y-147621898D01*
X55597795Y-147810256D01*
X55711063Y-147979774D01*
X55855226Y-148123937D01*
X56024744Y-148237205D01*
X56213102Y-148315226D01*
X56413061Y-148355000D01*
X56616939Y-148355000D01*
X56816898Y-148315226D01*
X57005256Y-148237205D01*
X57174774Y-148123937D01*
X57318937Y-147979774D01*
X57432205Y-147810256D01*
X57510226Y-147621898D01*
X57550000Y-147421939D01*
X57550000Y-147218061D01*
X57510226Y-147018102D01*
X57432205Y-146829744D01*
X57318937Y-146660226D01*
X57174774Y-146516063D01*
X57005256Y-146402795D01*
X56816898Y-146324774D01*
X56635000Y-146288593D01*
X56635000Y-144990313D01*
X56853505Y-144844312D01*
X57067312Y-144630505D01*
X57125000Y-144544169D01*
X57182688Y-144630505D01*
X57396495Y-144844312D01*
X57647905Y-145012299D01*
X57927257Y-145128011D01*
X58223816Y-145187000D01*
X58526184Y-145187000D01*
X58822743Y-145128011D01*
X59102095Y-145012299D01*
X59353505Y-144844312D01*
X59481737Y-144716080D01*
X59990525Y-144716080D01*
X60074208Y-144970261D01*
X60346775Y-145101158D01*
X60639642Y-145176365D01*
X60941553Y-145192991D01*
X61240907Y-145150397D01*
X61526199Y-145050222D01*
X61675792Y-144970261D01*
X61759475Y-144716080D01*
X60875000Y-143831605D01*
X59990525Y-144716080D01*
X59481737Y-144716080D01*
X59567312Y-144630505D01*
X59662738Y-144487690D01*
X59810920Y-144536475D01*
X60695395Y-143652000D01*
X61054605Y-143652000D01*
X61939080Y-144536475D01*
X62193261Y-144452792D01*
X62324158Y-144180225D01*
X62399365Y-143887358D01*
X62415991Y-143585447D01*
X62373397Y-143286093D01*
X62273222Y-143000801D01*
X62193261Y-142851208D01*
X61939080Y-142767525D01*
X61054605Y-143652000D01*
X60695395Y-143652000D01*
X59810920Y-142767525D01*
X59662738Y-142816310D01*
X59567312Y-142673495D01*
X59481737Y-142587920D01*
X59990525Y-142587920D01*
X60875000Y-143472395D01*
X61759475Y-142587920D01*
X61675792Y-142333739D01*
X61403225Y-142202842D01*
X61110358Y-142127635D01*
X60808447Y-142111009D01*
X60509093Y-142153603D01*
X60223801Y-142253778D01*
X60074208Y-142333739D01*
X59990525Y-142587920D01*
X59481737Y-142587920D01*
X59353505Y-142459688D01*
X59135000Y-142313687D01*
X59135000Y-136369822D01*
X59910000Y-136369822D01*
X59910000Y-136934178D01*
X60020100Y-137487690D01*
X60236070Y-138009087D01*
X60549609Y-138478331D01*
X60948669Y-138877391D01*
X61417913Y-139190930D01*
X61939310Y-139406900D01*
X62492822Y-139517000D01*
X63057178Y-139517000D01*
X63610690Y-139406900D01*
X64132087Y-139190930D01*
X64601331Y-138877391D01*
X65000391Y-138478331D01*
X65313930Y-138009087D01*
X65529900Y-137487690D01*
X65601850Y-137125967D01*
X74273000Y-137125967D01*
X74273000Y-137448033D01*
X74335832Y-137763912D01*
X74459082Y-138061463D01*
X74638013Y-138329252D01*
X74865748Y-138556987D01*
X75133537Y-138735918D01*
X75148000Y-138741909D01*
X75148001Y-146527288D01*
X75015063Y-146660226D01*
X74901795Y-146829744D01*
X74823774Y-147018102D01*
X74784000Y-147218061D01*
X74784000Y-147421939D01*
X74823774Y-147621898D01*
X74901795Y-147810256D01*
X75015063Y-147979774D01*
X75159226Y-148123937D01*
X75328744Y-148237205D01*
X75517102Y-148315226D01*
X75717061Y-148355000D01*
X75920939Y-148355000D01*
X76120898Y-148315226D01*
X76309256Y-148237205D01*
X76478774Y-148123937D01*
X76622937Y-147979774D01*
X76736205Y-147810256D01*
X76814226Y-147621898D01*
X76854000Y-147421939D01*
X76854000Y-147218061D01*
X76814226Y-147018102D01*
X76736205Y-146829744D01*
X76668000Y-146727668D01*
X76668000Y-138741909D01*
X76682463Y-138735918D01*
X76950252Y-138556987D01*
X77177987Y-138329252D01*
X77356918Y-138061463D01*
X77480168Y-137763912D01*
X77543000Y-137448033D01*
X77543000Y-137125967D01*
X77480168Y-136810088D01*
X77356918Y-136512537D01*
X77177987Y-136244748D01*
X76950252Y-136017013D01*
X76682463Y-135838082D01*
X76668000Y-135832091D01*
X76668000Y-122526801D01*
X77001802Y-122193000D01*
X77063939Y-122193000D01*
X77263898Y-122153226D01*
X77452256Y-122075205D01*
X77621774Y-121961937D01*
X77765937Y-121817774D01*
X77879205Y-121648256D01*
X77957226Y-121459898D01*
X77997000Y-121259939D01*
X77997000Y-121056061D01*
X77957226Y-120856102D01*
X77879205Y-120667744D01*
X77765937Y-120498226D01*
X77621774Y-120354063D01*
X77452256Y-120240795D01*
X77263898Y-120162774D01*
X77063939Y-120123000D01*
X76860061Y-120123000D01*
X76660102Y-120162774D01*
X76471744Y-120240795D01*
X76302226Y-120354063D01*
X76158063Y-120498226D01*
X76044795Y-120667744D01*
X75966774Y-120856102D01*
X75927000Y-121056061D01*
X75927000Y-121118198D01*
X75396998Y-121648201D01*
X75368000Y-121671999D01*
X75344202Y-121700997D01*
X75344201Y-121700998D01*
X75273026Y-121787724D01*
X75202454Y-121919754D01*
X75158998Y-122063015D01*
X75144324Y-122212000D01*
X75148001Y-122249333D01*
X75148000Y-135832091D01*
X75133537Y-135838082D01*
X74865748Y-136017013D01*
X74638013Y-136244748D01*
X74459082Y-136512537D01*
X74335832Y-136810088D01*
X74273000Y-137125967D01*
X65601850Y-137125967D01*
X65640000Y-136934178D01*
X65640000Y-136369822D01*
X65529900Y-135816310D01*
X65313930Y-135294913D01*
X65000391Y-134825669D01*
X64601331Y-134426609D01*
X64132087Y-134113070D01*
X63610690Y-133897100D01*
X63057178Y-133787000D01*
X62492822Y-133787000D01*
X61939310Y-133897100D01*
X61417913Y-134113070D01*
X60948669Y-134426609D01*
X60549609Y-134825669D01*
X60236070Y-135294913D01*
X60020100Y-135816310D01*
X59910000Y-136369822D01*
X59135000Y-136369822D01*
X59135000Y-122279801D01*
X59729802Y-121685000D01*
X59791939Y-121685000D01*
X59991898Y-121645226D01*
X60180256Y-121567205D01*
X60349774Y-121453937D01*
X60493937Y-121309774D01*
X60607205Y-121140256D01*
X60685226Y-120951898D01*
X60725000Y-120751939D01*
X60725000Y-120548061D01*
X60685226Y-120348102D01*
X60640581Y-120240319D01*
X60668426Y-120251853D01*
X60945665Y-120307000D01*
X61228335Y-120307000D01*
X61505574Y-120251853D01*
X61766727Y-120143680D01*
X62001759Y-119986637D01*
X62201637Y-119786759D01*
X62358680Y-119551727D01*
X62466853Y-119290574D01*
X62522000Y-119013335D01*
X62522000Y-118730665D01*
X67272000Y-118730665D01*
X67272000Y-119013335D01*
X67327147Y-119290574D01*
X67435320Y-119551727D01*
X67592363Y-119786759D01*
X67792241Y-119986637D01*
X68027273Y-120143680D01*
X68288426Y-120251853D01*
X68565665Y-120307000D01*
X68848335Y-120307000D01*
X69125574Y-120251853D01*
X69386727Y-120143680D01*
X69621759Y-119986637D01*
X69821637Y-119786759D01*
X69978680Y-119551727D01*
X70086853Y-119290574D01*
X70142000Y-119013335D01*
X70142000Y-118730665D01*
X70086853Y-118453426D01*
X69978680Y-118192273D01*
X69821637Y-117957241D01*
X69621759Y-117757363D01*
X69386727Y-117600320D01*
X69125574Y-117492147D01*
X68848335Y-117437000D01*
X68565665Y-117437000D01*
X68288426Y-117492147D01*
X68027273Y-117600320D01*
X67792241Y-117757363D01*
X67592363Y-117957241D01*
X67435320Y-118192273D01*
X67327147Y-118453426D01*
X67272000Y-118730665D01*
X62522000Y-118730665D01*
X62466853Y-118453426D01*
X62358680Y-118192273D01*
X62201637Y-117957241D01*
X62001759Y-117757363D01*
X61766727Y-117600320D01*
X61505574Y-117492147D01*
X61228335Y-117437000D01*
X60945665Y-117437000D01*
X60668426Y-117492147D01*
X60407273Y-117600320D01*
X60172241Y-117757363D01*
X59972363Y-117957241D01*
X59815320Y-118192273D01*
X59707147Y-118453426D01*
X59652000Y-118730665D01*
X59652000Y-119013335D01*
X59707147Y-119290574D01*
X59815320Y-119551727D01*
X59867662Y-119630062D01*
X59791939Y-119615000D01*
X59588061Y-119615000D01*
X59388102Y-119654774D01*
X59199744Y-119732795D01*
X59030226Y-119846063D01*
X58886063Y-119990226D01*
X58772795Y-120159744D01*
X58694774Y-120348102D01*
X58655000Y-120548061D01*
X58655000Y-120610198D01*
X57863998Y-121401201D01*
X57835000Y-121424999D01*
X57811202Y-121453997D01*
X57811201Y-121453998D01*
X57740026Y-121540724D01*
X57669454Y-121672754D01*
X57660887Y-121700998D01*
X57625998Y-121816014D01*
X57615001Y-121927667D01*
X57611324Y-121965000D01*
X57615001Y-122002333D01*
X57615000Y-142313687D01*
X57396495Y-142459688D01*
X57182688Y-142673495D01*
X57125000Y-142759831D01*
X57067312Y-142673495D01*
X56853505Y-142459688D01*
X56602095Y-142291701D01*
X56322743Y-142175989D01*
X56026184Y-142117000D01*
X55723816Y-142117000D01*
X55427257Y-142175989D01*
X55147905Y-142291701D01*
X54896495Y-142459688D01*
X54682688Y-142673495D01*
X54514701Y-142924905D01*
X54398989Y-143204257D01*
X54340000Y-143500816D01*
X42993571Y-143500816D01*
X42897637Y-143357241D01*
X42697759Y-143157363D01*
X42543000Y-143053957D01*
X42543000Y-141503061D01*
X42780000Y-141503061D01*
X42780000Y-141706939D01*
X42819774Y-141906898D01*
X42897795Y-142095256D01*
X43011063Y-142264774D01*
X43155226Y-142408937D01*
X43324744Y-142522205D01*
X43513102Y-142600226D01*
X43713061Y-142640000D01*
X43916939Y-142640000D01*
X44116898Y-142600226D01*
X44305256Y-142522205D01*
X44474774Y-142408937D01*
X44618937Y-142264774D01*
X44732205Y-142095256D01*
X44810226Y-141906898D01*
X44850000Y-141706939D01*
X44850000Y-141644801D01*
X45648799Y-140846003D01*
X45648803Y-140845998D01*
X46231004Y-140263798D01*
X46260001Y-140240001D01*
X46354974Y-140124276D01*
X46425546Y-139992247D01*
X46469003Y-139848986D01*
X46480000Y-139737333D01*
X46480000Y-139737332D01*
X46483677Y-139700000D01*
X46480000Y-139662667D01*
X46480000Y-136369822D01*
X51110000Y-136369822D01*
X51110000Y-136934178D01*
X51220100Y-137487690D01*
X51436070Y-138009087D01*
X51749609Y-138478331D01*
X52148669Y-138877391D01*
X52617913Y-139190930D01*
X53139310Y-139406900D01*
X53692822Y-139517000D01*
X54257178Y-139517000D01*
X54810690Y-139406900D01*
X55332087Y-139190930D01*
X55801331Y-138877391D01*
X56200391Y-138478331D01*
X56513930Y-138009087D01*
X56729900Y-137487690D01*
X56840000Y-136934178D01*
X56840000Y-136369822D01*
X56729900Y-135816310D01*
X56513930Y-135294913D01*
X56200391Y-134825669D01*
X55801331Y-134426609D01*
X55332087Y-134113070D01*
X54810690Y-133897100D01*
X54257178Y-133787000D01*
X53692822Y-133787000D01*
X53139310Y-133897100D01*
X52617913Y-134113070D01*
X52148669Y-134426609D01*
X51749609Y-134825669D01*
X51436070Y-135294913D01*
X51220100Y-135816310D01*
X51110000Y-136369822D01*
X46480000Y-136369822D01*
X46480000Y-120000665D01*
X49445000Y-120000665D01*
X49445000Y-120283335D01*
X49500147Y-120560574D01*
X49608320Y-120821727D01*
X49765363Y-121056759D01*
X49965241Y-121256637D01*
X50200273Y-121413680D01*
X50461426Y-121521853D01*
X50738665Y-121577000D01*
X51021335Y-121577000D01*
X51298574Y-121521853D01*
X51559727Y-121413680D01*
X51794759Y-121256637D01*
X51994637Y-121056759D01*
X52151680Y-120821727D01*
X52259853Y-120560574D01*
X52315000Y-120283335D01*
X52315000Y-120000665D01*
X52259853Y-119723426D01*
X52151680Y-119462273D01*
X52071317Y-119342000D01*
X54441928Y-119342000D01*
X54441928Y-120942000D01*
X54454188Y-121066482D01*
X54490498Y-121186180D01*
X54549463Y-121296494D01*
X54628815Y-121393185D01*
X54725506Y-121472537D01*
X54835820Y-121531502D01*
X54955518Y-121567812D01*
X55080000Y-121580072D01*
X56680000Y-121580072D01*
X56804482Y-121567812D01*
X56924180Y-121531502D01*
X57034494Y-121472537D01*
X57131185Y-121393185D01*
X57210537Y-121296494D01*
X57269502Y-121186180D01*
X57305812Y-121066482D01*
X57318072Y-120942000D01*
X57318072Y-119342000D01*
X57305812Y-119217518D01*
X57269502Y-119097820D01*
X57210537Y-118987506D01*
X57131185Y-118890815D01*
X57034494Y-118811463D01*
X56924180Y-118752498D01*
X56804482Y-118716188D01*
X56680000Y-118703928D01*
X55080000Y-118703928D01*
X54955518Y-118716188D01*
X54835820Y-118752498D01*
X54725506Y-118811463D01*
X54628815Y-118890815D01*
X54549463Y-118987506D01*
X54490498Y-119097820D01*
X54454188Y-119217518D01*
X54441928Y-119342000D01*
X52071317Y-119342000D01*
X51994637Y-119227241D01*
X51794759Y-119027363D01*
X51559727Y-118870320D01*
X51298574Y-118762147D01*
X51021335Y-118707000D01*
X50738665Y-118707000D01*
X50461426Y-118762147D01*
X50200273Y-118870320D01*
X49965241Y-119027363D01*
X49765363Y-119227241D01*
X49608320Y-119462273D01*
X49500147Y-119723426D01*
X49445000Y-120000665D01*
X46480000Y-120000665D01*
X46480000Y-107912000D01*
X49488928Y-107912000D01*
X49488928Y-109512000D01*
X49501188Y-109636482D01*
X49537498Y-109756180D01*
X49596463Y-109866494D01*
X49675815Y-109963185D01*
X49772506Y-110042537D01*
X49882820Y-110101502D01*
X50002518Y-110137812D01*
X50127000Y-110150072D01*
X51727000Y-110150072D01*
X51851482Y-110137812D01*
X51971180Y-110101502D01*
X52081494Y-110042537D01*
X52178185Y-109963185D01*
X52257537Y-109866494D01*
X52316502Y-109756180D01*
X52332117Y-109704702D01*
X55113903Y-109704702D01*
X55185486Y-109948671D01*
X55440996Y-110069571D01*
X55715184Y-110138300D01*
X55997512Y-110152217D01*
X56277130Y-110110787D01*
X56543292Y-110015603D01*
X56668514Y-109948671D01*
X56740097Y-109704702D01*
X55927000Y-108891605D01*
X55113903Y-109704702D01*
X52332117Y-109704702D01*
X52352812Y-109636482D01*
X52365072Y-109512000D01*
X52365072Y-108782512D01*
X54486783Y-108782512D01*
X54528213Y-109062130D01*
X54623397Y-109328292D01*
X54690329Y-109453514D01*
X54934298Y-109525097D01*
X55747395Y-108712000D01*
X56106605Y-108712000D01*
X56919702Y-109525097D01*
X57163671Y-109453514D01*
X57284571Y-109198004D01*
X57353300Y-108923816D01*
X57367217Y-108641488D01*
X57325787Y-108361870D01*
X57230603Y-108095708D01*
X57163671Y-107970486D01*
X56964340Y-107912000D01*
X60156928Y-107912000D01*
X60156928Y-109512000D01*
X60169188Y-109636482D01*
X60205498Y-109756180D01*
X60264463Y-109866494D01*
X60343815Y-109963185D01*
X60440506Y-110042537D01*
X60550820Y-110101502D01*
X60670518Y-110137812D01*
X60795000Y-110150072D01*
X60835000Y-110150072D01*
X60835001Y-112992668D01*
X60831324Y-113030000D01*
X60845998Y-113178985D01*
X60889454Y-113322246D01*
X60960026Y-113454276D01*
X61010694Y-113516014D01*
X61055000Y-113570001D01*
X61083998Y-113593799D01*
X61195000Y-113704801D01*
X61195000Y-113766939D01*
X61234774Y-113966898D01*
X61312795Y-114155256D01*
X61426063Y-114324774D01*
X61570226Y-114468937D01*
X61739744Y-114582205D01*
X61928102Y-114660226D01*
X62128061Y-114700000D01*
X62331939Y-114700000D01*
X62531898Y-114660226D01*
X62720256Y-114582205D01*
X62889774Y-114468937D01*
X63033937Y-114324774D01*
X63147205Y-114155256D01*
X63225226Y-113966898D01*
X63265000Y-113766939D01*
X63265000Y-113563061D01*
X63225226Y-113363102D01*
X63147205Y-113174744D01*
X63033937Y-113005226D01*
X62889774Y-112861063D01*
X62720256Y-112747795D01*
X62531898Y-112669774D01*
X62355000Y-112634587D01*
X62355000Y-111252000D01*
X71570933Y-111252000D01*
X71595944Y-111505943D01*
X71670017Y-111750126D01*
X71790303Y-111975167D01*
X71952182Y-112172418D01*
X72149433Y-112334297D01*
X72374474Y-112454583D01*
X72596715Y-112522000D01*
X72374474Y-112589417D01*
X72149433Y-112709703D01*
X71952182Y-112871582D01*
X71790303Y-113068833D01*
X71670017Y-113293874D01*
X71595944Y-113538057D01*
X71570933Y-113792000D01*
X71595944Y-114045943D01*
X71670017Y-114290126D01*
X71790303Y-114515167D01*
X71952182Y-114712418D01*
X72149433Y-114874297D01*
X72374474Y-114994583D01*
X72596715Y-115062000D01*
X72374474Y-115129417D01*
X72149433Y-115249703D01*
X71952182Y-115411582D01*
X71790303Y-115608833D01*
X71670017Y-115833874D01*
X71595944Y-116078057D01*
X71570933Y-116332000D01*
X71595944Y-116585943D01*
X71670017Y-116830126D01*
X71790303Y-117055167D01*
X71952182Y-117252418D01*
X72149433Y-117414297D01*
X72374474Y-117534583D01*
X72618657Y-117608656D01*
X72808970Y-117627400D01*
X74257030Y-117627400D01*
X74447343Y-117608656D01*
X74691526Y-117534583D01*
X74916567Y-117414297D01*
X75113818Y-117252418D01*
X75275697Y-117055167D01*
X75395983Y-116830126D01*
X75470056Y-116585943D01*
X75495067Y-116332000D01*
X75470056Y-116078057D01*
X75395983Y-115833874D01*
X75275697Y-115608833D01*
X75113818Y-115411582D01*
X74916567Y-115249703D01*
X74691526Y-115129417D01*
X74469285Y-115062000D01*
X74691526Y-114994583D01*
X74916567Y-114874297D01*
X75113818Y-114712418D01*
X75275697Y-114515167D01*
X75395983Y-114290126D01*
X75470056Y-114045943D01*
X75495067Y-113792000D01*
X75470056Y-113538057D01*
X75395983Y-113293874D01*
X75275697Y-113068833D01*
X75113818Y-112871582D01*
X74916567Y-112709703D01*
X74691526Y-112589417D01*
X74469285Y-112522000D01*
X74691526Y-112454583D01*
X74916567Y-112334297D01*
X75113818Y-112172418D01*
X75275697Y-111975167D01*
X75395983Y-111750126D01*
X75470056Y-111505943D01*
X75495067Y-111252000D01*
X75470056Y-110998057D01*
X75395983Y-110753874D01*
X75275697Y-110528833D01*
X75113818Y-110331582D01*
X74916567Y-110169703D01*
X74691526Y-110049417D01*
X74461023Y-109979494D01*
X74570680Y-109957733D01*
X74806461Y-109860193D01*
X75018683Y-109718529D01*
X75199189Y-109538184D01*
X75341044Y-109326089D01*
X75438795Y-109090395D01*
X75446820Y-109039105D01*
X75322933Y-108839000D01*
X73660000Y-108839000D01*
X73660000Y-108859000D01*
X73406000Y-108859000D01*
X73406000Y-108839000D01*
X71743067Y-108839000D01*
X71619180Y-109039105D01*
X71627205Y-109090395D01*
X71724956Y-109326089D01*
X71866811Y-109538184D01*
X72047317Y-109718529D01*
X72259539Y-109860193D01*
X72495320Y-109957733D01*
X72604977Y-109979494D01*
X72374474Y-110049417D01*
X72149433Y-110169703D01*
X71952182Y-110331582D01*
X71790303Y-110528833D01*
X71670017Y-110753874D01*
X71595944Y-110998057D01*
X71570933Y-111252000D01*
X62355000Y-111252000D01*
X62355000Y-110150072D01*
X62395000Y-110150072D01*
X62519482Y-110137812D01*
X62639180Y-110101502D01*
X62749494Y-110042537D01*
X62846185Y-109963185D01*
X62925537Y-109866494D01*
X62984502Y-109756180D01*
X63000117Y-109704702D01*
X65781903Y-109704702D01*
X65853486Y-109948671D01*
X66108996Y-110069571D01*
X66383184Y-110138300D01*
X66665512Y-110152217D01*
X66945130Y-110110787D01*
X67211292Y-110015603D01*
X67336514Y-109948671D01*
X67408097Y-109704702D01*
X66595000Y-108891605D01*
X65781903Y-109704702D01*
X63000117Y-109704702D01*
X63020812Y-109636482D01*
X63033072Y-109512000D01*
X63033072Y-108782512D01*
X65154783Y-108782512D01*
X65196213Y-109062130D01*
X65291397Y-109328292D01*
X65358329Y-109453514D01*
X65602298Y-109525097D01*
X66415395Y-108712000D01*
X66774605Y-108712000D01*
X67587702Y-109525097D01*
X67831671Y-109453514D01*
X67952571Y-109198004D01*
X68021300Y-108923816D01*
X68035217Y-108641488D01*
X67997199Y-108384895D01*
X71619180Y-108384895D01*
X71743067Y-108585000D01*
X73406000Y-108585000D01*
X73406000Y-107416600D01*
X73660000Y-107416600D01*
X73660000Y-108585000D01*
X75322933Y-108585000D01*
X75446820Y-108384895D01*
X75438795Y-108333605D01*
X75341044Y-108097911D01*
X75199189Y-107885816D01*
X75018683Y-107705471D01*
X74806461Y-107563807D01*
X74570680Y-107466267D01*
X74320400Y-107416600D01*
X73660000Y-107416600D01*
X73406000Y-107416600D01*
X72745600Y-107416600D01*
X72495320Y-107466267D01*
X72259539Y-107563807D01*
X72047317Y-107705471D01*
X71866811Y-107885816D01*
X71724956Y-108097911D01*
X71627205Y-108333605D01*
X71619180Y-108384895D01*
X67997199Y-108384895D01*
X67993787Y-108361870D01*
X67898603Y-108095708D01*
X67831671Y-107970486D01*
X67587702Y-107898903D01*
X66774605Y-108712000D01*
X66415395Y-108712000D01*
X65602298Y-107898903D01*
X65358329Y-107970486D01*
X65237429Y-108225996D01*
X65168700Y-108500184D01*
X65154783Y-108782512D01*
X63033072Y-108782512D01*
X63033072Y-107912000D01*
X63020812Y-107787518D01*
X63000118Y-107719298D01*
X65781903Y-107719298D01*
X66595000Y-108532395D01*
X67408097Y-107719298D01*
X67336514Y-107475329D01*
X67081004Y-107354429D01*
X66806816Y-107285700D01*
X66524488Y-107271783D01*
X66244870Y-107313213D01*
X65978708Y-107408397D01*
X65853486Y-107475329D01*
X65781903Y-107719298D01*
X63000118Y-107719298D01*
X62984502Y-107667820D01*
X62925537Y-107557506D01*
X62846185Y-107460815D01*
X62749494Y-107381463D01*
X62639180Y-107322498D01*
X62519482Y-107286188D01*
X62395000Y-107273928D01*
X60795000Y-107273928D01*
X60670518Y-107286188D01*
X60550820Y-107322498D01*
X60440506Y-107381463D01*
X60343815Y-107460815D01*
X60264463Y-107557506D01*
X60205498Y-107667820D01*
X60169188Y-107787518D01*
X60156928Y-107912000D01*
X56964340Y-107912000D01*
X56919702Y-107898903D01*
X56106605Y-108712000D01*
X55747395Y-108712000D01*
X54934298Y-107898903D01*
X54690329Y-107970486D01*
X54569429Y-108225996D01*
X54500700Y-108500184D01*
X54486783Y-108782512D01*
X52365072Y-108782512D01*
X52365072Y-107912000D01*
X52352812Y-107787518D01*
X52332118Y-107719298D01*
X55113903Y-107719298D01*
X55927000Y-108532395D01*
X56740097Y-107719298D01*
X56668514Y-107475329D01*
X56413004Y-107354429D01*
X56138816Y-107285700D01*
X55856488Y-107271783D01*
X55576870Y-107313213D01*
X55310708Y-107408397D01*
X55185486Y-107475329D01*
X55113903Y-107719298D01*
X52332118Y-107719298D01*
X52316502Y-107667820D01*
X52257537Y-107557506D01*
X52178185Y-107460815D01*
X52081494Y-107381463D01*
X51971180Y-107322498D01*
X51851482Y-107286188D01*
X51727000Y-107273928D01*
X50127000Y-107273928D01*
X50002518Y-107286188D01*
X49882820Y-107322498D01*
X49772506Y-107381463D01*
X49675815Y-107460815D01*
X49596463Y-107557506D01*
X49537498Y-107667820D01*
X49501188Y-107787518D01*
X49488928Y-107912000D01*
X46480000Y-107912000D01*
X46480000Y-98493711D01*
X46523937Y-98449774D01*
X46637205Y-98280256D01*
X46715226Y-98091898D01*
X46755000Y-97891939D01*
X46755000Y-97688061D01*
X46715226Y-97488102D01*
X46637205Y-97299744D01*
X46523937Y-97130226D01*
X46379774Y-96986063D01*
X46210256Y-96872795D01*
X46021898Y-96794774D01*
X45821939Y-96755000D01*
X45618061Y-96755000D01*
X45418102Y-96794774D01*
X45229744Y-96872795D01*
X45060226Y-96986063D01*
X44916063Y-97130226D01*
X44802795Y-97299744D01*
X44724774Y-97488102D01*
X44685000Y-97688061D01*
X44685000Y-97891939D01*
X44724774Y-98091898D01*
X44802795Y-98280256D01*
X44916063Y-98449774D01*
X44960001Y-98493712D01*
X44960000Y-139385198D01*
X44574002Y-139771197D01*
X44573997Y-139771201D01*
X43775199Y-140570000D01*
X43713061Y-140570000D01*
X43513102Y-140609774D01*
X43324744Y-140687795D01*
X43155226Y-140801063D01*
X43011063Y-140945226D01*
X42897795Y-141114744D01*
X42819774Y-141303102D01*
X42780000Y-141503061D01*
X42543000Y-141503061D01*
X42543000Y-140410043D01*
X42697759Y-140306637D01*
X42897637Y-140106759D01*
X43054680Y-139871727D01*
X43162853Y-139610574D01*
X43218000Y-139333335D01*
X43218000Y-139050665D01*
X43162853Y-138773426D01*
X43054680Y-138512273D01*
X42897637Y-138277241D01*
X42697759Y-138077363D01*
X42543000Y-137973957D01*
X42543000Y-135330043D01*
X42697759Y-135226637D01*
X42897637Y-135026759D01*
X43054680Y-134791727D01*
X43162853Y-134530574D01*
X43218000Y-134253335D01*
X43218000Y-133970665D01*
X43162853Y-133693426D01*
X43054680Y-133432273D01*
X42897637Y-133197241D01*
X42697759Y-132997363D01*
X42543000Y-132893957D01*
X42543000Y-130250043D01*
X42697759Y-130146637D01*
X42897637Y-129946759D01*
X43054680Y-129711727D01*
X43162853Y-129450574D01*
X43218000Y-129173335D01*
X43218000Y-128890665D01*
X43162853Y-128613426D01*
X43054680Y-128352273D01*
X42897637Y-128117241D01*
X42697759Y-127917363D01*
X42543000Y-127813957D01*
X42543000Y-125170043D01*
X42697759Y-125066637D01*
X42897637Y-124866759D01*
X43054680Y-124631727D01*
X43162853Y-124370574D01*
X43218000Y-124093335D01*
X43218000Y-123810665D01*
X43162853Y-123533426D01*
X43054680Y-123272273D01*
X42897637Y-123037241D01*
X42697759Y-122837363D01*
X42543000Y-122733957D01*
X42543000Y-120090043D01*
X42697759Y-119986637D01*
X42897637Y-119786759D01*
X43054680Y-119551727D01*
X43162853Y-119290574D01*
X43218000Y-119013335D01*
X43218000Y-118730665D01*
X43162853Y-118453426D01*
X43054680Y-118192273D01*
X42897637Y-117957241D01*
X42697759Y-117757363D01*
X42543000Y-117653957D01*
X42543000Y-115010043D01*
X42697759Y-114906637D01*
X42897637Y-114706759D01*
X43054680Y-114471727D01*
X43162853Y-114210574D01*
X43218000Y-113933335D01*
X43218000Y-113650665D01*
X43162853Y-113373426D01*
X43054680Y-113112273D01*
X42897637Y-112877241D01*
X42697759Y-112677363D01*
X42543000Y-112573957D01*
X42543000Y-109930043D01*
X42697759Y-109826637D01*
X42897637Y-109626759D01*
X43054680Y-109391727D01*
X43162853Y-109130574D01*
X43218000Y-108853335D01*
X43218000Y-108570665D01*
X43162853Y-108293426D01*
X43054680Y-108032273D01*
X42897637Y-107797241D01*
X42697759Y-107597363D01*
X42543000Y-107493957D01*
X42543000Y-104850043D01*
X42697759Y-104746637D01*
X42897637Y-104546759D01*
X43054680Y-104311727D01*
X43162853Y-104050574D01*
X43218000Y-103773335D01*
X43218000Y-103490665D01*
X43162853Y-103213426D01*
X43054680Y-102952273D01*
X42897637Y-102717241D01*
X42697759Y-102517363D01*
X42462727Y-102360320D01*
X42201574Y-102252147D01*
X41924335Y-102197000D01*
X41641665Y-102197000D01*
X41364426Y-102252147D01*
X41103273Y-102360320D01*
X40868241Y-102517363D01*
X40765000Y-102620604D01*
X40765000Y-94294801D01*
X41314802Y-93745000D01*
X41376939Y-93745000D01*
X41576898Y-93705226D01*
X41765256Y-93627205D01*
X41934774Y-93513937D01*
X42078937Y-93369774D01*
X42192205Y-93200256D01*
X42270226Y-93011898D01*
X42310000Y-92811939D01*
X42310000Y-92608061D01*
X42270226Y-92408102D01*
X42192205Y-92219744D01*
X42078937Y-92050226D01*
X41934774Y-91906063D01*
X41765256Y-91792795D01*
X41576898Y-91714774D01*
X41376939Y-91675000D01*
X41173061Y-91675000D01*
X40973102Y-91714774D01*
X40784744Y-91792795D01*
X40615226Y-91906063D01*
X40471063Y-92050226D01*
X40357795Y-92219744D01*
X40279774Y-92408102D01*
X40240000Y-92608061D01*
X40240000Y-92670198D01*
X39493998Y-93416201D01*
X39465000Y-93439999D01*
X39441202Y-93468997D01*
X39441201Y-93468998D01*
X39370026Y-93555724D01*
X39299454Y-93687754D01*
X39255998Y-93831015D01*
X39241324Y-93980000D01*
X39245001Y-94017333D01*
X39245001Y-95615988D01*
X39225256Y-95602795D01*
X39036898Y-95524774D01*
X38836939Y-95485000D01*
X38633061Y-95485000D01*
X38433102Y-95524774D01*
X38244744Y-95602795D01*
X38225000Y-95615987D01*
X38225000Y-91477323D01*
X38228676Y-91440000D01*
X38225000Y-91402677D01*
X38225000Y-91402667D01*
X38214003Y-91291014D01*
X38170546Y-91147753D01*
X38099974Y-91015724D01*
X38005001Y-90899999D01*
X37976004Y-90876202D01*
X36320000Y-89220199D01*
X36320000Y-86522320D01*
X36381433Y-86614261D01*
X36575739Y-86808567D01*
X36804220Y-86961233D01*
X37058093Y-87066391D01*
X37327604Y-87120000D01*
X37602396Y-87120000D01*
X37871907Y-87066391D01*
X38125780Y-86961233D01*
X38354261Y-86808567D01*
X38548567Y-86614261D01*
X38701233Y-86385780D01*
X38735000Y-86304260D01*
X38768767Y-86385780D01*
X38921433Y-86614261D01*
X39115739Y-86808567D01*
X39344220Y-86961233D01*
X39598093Y-87066391D01*
X39867604Y-87120000D01*
X40142396Y-87120000D01*
X40411907Y-87066391D01*
X40665780Y-86961233D01*
X40894261Y-86808567D01*
X41088567Y-86614261D01*
X41241233Y-86385780D01*
X41346391Y-86131907D01*
X41400000Y-85862396D01*
X41400000Y-85587604D01*
X41346391Y-85318093D01*
X41241233Y-85064220D01*
X41088567Y-84835739D01*
X40894261Y-84641433D01*
X40665780Y-84488767D01*
X40584260Y-84455000D01*
X40665780Y-84421233D01*
X40894261Y-84268567D01*
X41088567Y-84074261D01*
X41174936Y-83945000D01*
X44135199Y-83945000D01*
X44960001Y-84769803D01*
X44960001Y-85021288D01*
X44916063Y-85065226D01*
X44802795Y-85234744D01*
X44724774Y-85423102D01*
X44685000Y-85623061D01*
X44685000Y-85826939D01*
X44724774Y-86026898D01*
X44802795Y-86215256D01*
X44916063Y-86384774D01*
X45060226Y-86528937D01*
X45229744Y-86642205D01*
X45418102Y-86720226D01*
X45618061Y-86760000D01*
X45821939Y-86760000D01*
X46021898Y-86720226D01*
X46210256Y-86642205D01*
X46379774Y-86528937D01*
X46523937Y-86384774D01*
X46637205Y-86215256D01*
X46715226Y-86026898D01*
X46755000Y-85826939D01*
X46755000Y-85623061D01*
X46715226Y-85423102D01*
X46637205Y-85234744D01*
X46523937Y-85065226D01*
X46480000Y-85021289D01*
X46480000Y-84492322D01*
X46483676Y-84454999D01*
X46480000Y-84417676D01*
X46480000Y-84417667D01*
X46469003Y-84306014D01*
X46425546Y-84162753D01*
X46354974Y-84030724D01*
X46260001Y-83914999D01*
X46231003Y-83891201D01*
X45013804Y-82674003D01*
X45006994Y-82665705D01*
X45060226Y-82718937D01*
X45229744Y-82832205D01*
X45418102Y-82910226D01*
X45618061Y-82950000D01*
X45821939Y-82950000D01*
X46021898Y-82910226D01*
X46210256Y-82832205D01*
X46379774Y-82718937D01*
X46523937Y-82574774D01*
X46637205Y-82405256D01*
X46715226Y-82216898D01*
X46755000Y-82016939D01*
X46755000Y-81813061D01*
X46715226Y-81613102D01*
X46637205Y-81424744D01*
X46523937Y-81255226D01*
X46379774Y-81111063D01*
X46210256Y-80997795D01*
X46021898Y-80919774D01*
X45845000Y-80884587D01*
X45845000Y-27948178D01*
X46031632Y-27823475D01*
X46238475Y-27616632D01*
X46355000Y-27442240D01*
X46471525Y-27616632D01*
X46678368Y-27823475D01*
X46865000Y-27948178D01*
X46865001Y-86322667D01*
X46861324Y-86360000D01*
X46865001Y-86397333D01*
X46872553Y-86474003D01*
X46875998Y-86508985D01*
X46919454Y-86652246D01*
X46990026Y-86784276D01*
X47040694Y-86846014D01*
X47085000Y-86900001D01*
X47113998Y-86923799D01*
X47225000Y-87034801D01*
X47225000Y-87096939D01*
X47264774Y-87296898D01*
X47342795Y-87485256D01*
X47456063Y-87654774D01*
X47600226Y-87798937D01*
X47769744Y-87912205D01*
X47958102Y-87990226D01*
X48158061Y-88030000D01*
X48361939Y-88030000D01*
X48561898Y-87990226D01*
X48750256Y-87912205D01*
X48919774Y-87798937D01*
X49063937Y-87654774D01*
X49177205Y-87485256D01*
X49255226Y-87296898D01*
X49295000Y-87096939D01*
X49295000Y-86893061D01*
X49255226Y-86693102D01*
X49177205Y-86504744D01*
X49063937Y-86335226D01*
X48919774Y-86191063D01*
X48750256Y-86077795D01*
X48561898Y-85999774D01*
X48385000Y-85964587D01*
X48385000Y-80279013D01*
X48404744Y-80292205D01*
X48593102Y-80370226D01*
X48793061Y-80410000D01*
X48996939Y-80410000D01*
X49196898Y-80370226D01*
X49385256Y-80292205D01*
X49554774Y-80178937D01*
X49698937Y-80034774D01*
X49812205Y-79865256D01*
X49890226Y-79676898D01*
X49930000Y-79476939D01*
X49930000Y-79414801D01*
X50676003Y-78668799D01*
X50705001Y-78645001D01*
X50799974Y-78529276D01*
X50870546Y-78397247D01*
X50914003Y-78253986D01*
X50925000Y-78142333D01*
X50925000Y-78142324D01*
X50928676Y-78105001D01*
X50925000Y-78067678D01*
X50925000Y-27948178D01*
X51111632Y-27823475D01*
X51318475Y-27616632D01*
X51435000Y-27442240D01*
X51551525Y-27616632D01*
X51758368Y-27823475D01*
X51945000Y-27948178D01*
X51945001Y-83147667D01*
X51941324Y-83185000D01*
X51945001Y-83222333D01*
X51954857Y-83322396D01*
X51955998Y-83333985D01*
X51999454Y-83477246D01*
X52070026Y-83609276D01*
X52124175Y-83675256D01*
X52165000Y-83725001D01*
X52193998Y-83748799D01*
X52940000Y-84494802D01*
X52940000Y-84556939D01*
X52979774Y-84756898D01*
X53057795Y-84945256D01*
X53171063Y-85114774D01*
X53315226Y-85258937D01*
X53484744Y-85372205D01*
X53673102Y-85450226D01*
X53873061Y-85490000D01*
X54076939Y-85490000D01*
X54276898Y-85450226D01*
X54465256Y-85372205D01*
X54634774Y-85258937D01*
X54778937Y-85114774D01*
X54892205Y-84945256D01*
X54970226Y-84756898D01*
X55010000Y-84556939D01*
X55010000Y-84353061D01*
X54970226Y-84153102D01*
X54892205Y-83964744D01*
X54778937Y-83795226D01*
X54634774Y-83651063D01*
X54465256Y-83537795D01*
X54276898Y-83459774D01*
X54076939Y-83420000D01*
X54014802Y-83420000D01*
X53465000Y-82870199D01*
X53465000Y-27948178D01*
X53651632Y-27823475D01*
X53858475Y-27616632D01*
X53975000Y-27442240D01*
X54091525Y-27616632D01*
X54298368Y-27823475D01*
X54485000Y-27948178D01*
X54485001Y-66914587D01*
X54308102Y-66949774D01*
X54119744Y-67027795D01*
X53950226Y-67141063D01*
X53806063Y-67285226D01*
X53692795Y-67454744D01*
X53614774Y-67643102D01*
X53575000Y-67843061D01*
X53575000Y-68046939D01*
X53614774Y-68246898D01*
X53692795Y-68435256D01*
X53806063Y-68604774D01*
X53950226Y-68748937D01*
X54119744Y-68862205D01*
X54308102Y-68940226D01*
X54508061Y-68980000D01*
X54711939Y-68980000D01*
X54911898Y-68940226D01*
X55100256Y-68862205D01*
X55269774Y-68748937D01*
X55413937Y-68604774D01*
X55527205Y-68435256D01*
X55605226Y-68246898D01*
X55645000Y-68046939D01*
X55645000Y-67984802D01*
X55756003Y-67873799D01*
X55785001Y-67850001D01*
X55879974Y-67734276D01*
X55950546Y-67602247D01*
X55994003Y-67458986D01*
X56005000Y-67347333D01*
X56008677Y-67310000D01*
X56005000Y-67272667D01*
X56005000Y-27948178D01*
X56191632Y-27823475D01*
X56398475Y-27616632D01*
X56515000Y-27442240D01*
X56631525Y-27616632D01*
X56838368Y-27823475D01*
X57025000Y-27948178D01*
X57025001Y-82154587D01*
X56848102Y-82189774D01*
X56659744Y-82267795D01*
X56490226Y-82381063D01*
X56346063Y-82525226D01*
X56232795Y-82694744D01*
X56154774Y-82883102D01*
X56115000Y-83083061D01*
X56115000Y-83286939D01*
X56154774Y-83486898D01*
X56232795Y-83675256D01*
X56346063Y-83844774D01*
X56490226Y-83988937D01*
X56659744Y-84102205D01*
X56848102Y-84180226D01*
X57048061Y-84220000D01*
X57251939Y-84220000D01*
X57451898Y-84180226D01*
X57640256Y-84102205D01*
X57809774Y-83988937D01*
X57953937Y-83844774D01*
X58067205Y-83675256D01*
X58145226Y-83486898D01*
X58185000Y-83286939D01*
X58185000Y-83224802D01*
X58295001Y-83114801D01*
X58295001Y-84775197D01*
X57909002Y-85161197D01*
X57879999Y-85184999D01*
X57824871Y-85252174D01*
X57785026Y-85300724D01*
X57741451Y-85382247D01*
X57714454Y-85432754D01*
X57670997Y-85576015D01*
X57660000Y-85687668D01*
X57660000Y-85687678D01*
X57656324Y-85725000D01*
X57660000Y-85762322D01*
X57660001Y-97475197D01*
X56475199Y-98660000D01*
X56413061Y-98660000D01*
X56213102Y-98699774D01*
X56024744Y-98777795D01*
X55855226Y-98891063D01*
X55711063Y-99035226D01*
X55597795Y-99204744D01*
X55519774Y-99393102D01*
X55480000Y-99593061D01*
X55480000Y-99796939D01*
X55519774Y-99996898D01*
X55597795Y-100185256D01*
X55711063Y-100354774D01*
X55855226Y-100498937D01*
X56024744Y-100612205D01*
X56213102Y-100690226D01*
X56413061Y-100730000D01*
X56616939Y-100730000D01*
X56816898Y-100690226D01*
X57005256Y-100612205D01*
X57174774Y-100498937D01*
X57318937Y-100354774D01*
X57432205Y-100185256D01*
X57510226Y-99996898D01*
X57550000Y-99796939D01*
X57550000Y-99734801D01*
X58931003Y-98353799D01*
X58960001Y-98330001D01*
X59054974Y-98214276D01*
X59125546Y-98082247D01*
X59169003Y-97938986D01*
X59180000Y-97827333D01*
X59180000Y-97827323D01*
X59183676Y-97790000D01*
X59180000Y-97752677D01*
X59180000Y-89169013D01*
X59199744Y-89182205D01*
X59388102Y-89260226D01*
X59588061Y-89300000D01*
X59791939Y-89300000D01*
X59991898Y-89260226D01*
X60180256Y-89182205D01*
X60349774Y-89068937D01*
X60493937Y-88924774D01*
X60607205Y-88755256D01*
X60685226Y-88566898D01*
X60725000Y-88366939D01*
X60725000Y-88304802D01*
X60836002Y-88193800D01*
X60865001Y-88170001D01*
X60959974Y-88054276D01*
X61030546Y-87922247D01*
X61074003Y-87778986D01*
X61085000Y-87667333D01*
X61088677Y-87630000D01*
X61085000Y-87592667D01*
X61085000Y-27948178D01*
X61271632Y-27823475D01*
X61478475Y-27616632D01*
X61595000Y-27442240D01*
X61711525Y-27616632D01*
X61918368Y-27823475D01*
X62105000Y-27948178D01*
X62105001Y-69454587D01*
X61928102Y-69489774D01*
X61739744Y-69567795D01*
X61570226Y-69681063D01*
X61426063Y-69825226D01*
X61312795Y-69994744D01*
X61234774Y-70183102D01*
X61195000Y-70383061D01*
X61195000Y-70586939D01*
X61234774Y-70786898D01*
X61312795Y-70975256D01*
X61426063Y-71144774D01*
X61570226Y-71288937D01*
X61739744Y-71402205D01*
X61928102Y-71480226D01*
X62128061Y-71520000D01*
X62331939Y-71520000D01*
X62531898Y-71480226D01*
X62720256Y-71402205D01*
X62889774Y-71288937D01*
X63033937Y-71144774D01*
X63147205Y-70975256D01*
X63225226Y-70786898D01*
X63265000Y-70586939D01*
X63265000Y-70524802D01*
X63375001Y-70414801D01*
X63375001Y-82481288D01*
X63331063Y-82525226D01*
X63217795Y-82694744D01*
X63139774Y-82883102D01*
X63100000Y-83083061D01*
X63100000Y-83286939D01*
X63139774Y-83486898D01*
X63217795Y-83675256D01*
X63331063Y-83844774D01*
X63475226Y-83988937D01*
X63644744Y-84102205D01*
X63833102Y-84180226D01*
X64033061Y-84220000D01*
X64236939Y-84220000D01*
X64436898Y-84180226D01*
X64625256Y-84102205D01*
X64794774Y-83988937D01*
X64938937Y-83844774D01*
X65052205Y-83675256D01*
X65130226Y-83486898D01*
X65170000Y-83286939D01*
X65170000Y-83083061D01*
X65130226Y-82883102D01*
X65052205Y-82694744D01*
X64938937Y-82525226D01*
X64895000Y-82481289D01*
X64895000Y-73929013D01*
X64914744Y-73942205D01*
X65103102Y-74020226D01*
X65303061Y-74060000D01*
X65506939Y-74060000D01*
X65706898Y-74020226D01*
X65895256Y-73942205D01*
X65915001Y-73929012D01*
X65915001Y-79941288D01*
X65871063Y-79985226D01*
X65757795Y-80154744D01*
X65679774Y-80343102D01*
X65640000Y-80543061D01*
X65640000Y-80746939D01*
X65679774Y-80946898D01*
X65757795Y-81135256D01*
X65871063Y-81304774D01*
X66015226Y-81448937D01*
X66184744Y-81562205D01*
X66373102Y-81640226D01*
X66573061Y-81680000D01*
X66776939Y-81680000D01*
X66976898Y-81640226D01*
X67165256Y-81562205D01*
X67334774Y-81448937D01*
X67478937Y-81304774D01*
X67592205Y-81135256D01*
X67670226Y-80946898D01*
X67710000Y-80746939D01*
X67710000Y-80543061D01*
X67676961Y-80376961D01*
X67843061Y-80410000D01*
X68046939Y-80410000D01*
X68246898Y-80370226D01*
X68435256Y-80292205D01*
X68604774Y-80178937D01*
X68748937Y-80034774D01*
X68862205Y-79865256D01*
X68940226Y-79676898D01*
X68980000Y-79476939D01*
X68980000Y-79273061D01*
X68940226Y-79073102D01*
X68862205Y-78884744D01*
X68748937Y-78715226D01*
X68705000Y-78671289D01*
X68705000Y-70119013D01*
X68724744Y-70132205D01*
X68913102Y-70210226D01*
X69113061Y-70250000D01*
X69316939Y-70250000D01*
X69516898Y-70210226D01*
X69705256Y-70132205D01*
X69725001Y-70119012D01*
X69725001Y-84694587D01*
X69548102Y-84729774D01*
X69359744Y-84807795D01*
X69190226Y-84921063D01*
X69046063Y-85065226D01*
X68932795Y-85234744D01*
X68854774Y-85423102D01*
X68815000Y-85623061D01*
X68815000Y-85826939D01*
X68854774Y-86026898D01*
X68932795Y-86215256D01*
X69046063Y-86384774D01*
X69190226Y-86528937D01*
X69359744Y-86642205D01*
X69548102Y-86720226D01*
X69748061Y-86760000D01*
X69951939Y-86760000D01*
X70151898Y-86720226D01*
X70340256Y-86642205D01*
X70509774Y-86528937D01*
X70653937Y-86384774D01*
X70767205Y-86215256D01*
X70845226Y-86026898D01*
X70885000Y-85826939D01*
X70885000Y-85764802D01*
X70996002Y-85653800D01*
X71025001Y-85630001D01*
X71119974Y-85514276D01*
X71190546Y-85382247D01*
X71234003Y-85238986D01*
X71245000Y-85127333D01*
X71248677Y-85090000D01*
X71245000Y-85052667D01*
X71245000Y-79009013D01*
X71264744Y-79022205D01*
X71453102Y-79100226D01*
X71653061Y-79140000D01*
X71856939Y-79140000D01*
X72056898Y-79100226D01*
X72245256Y-79022205D01*
X72414774Y-78908937D01*
X72558937Y-78764774D01*
X72672205Y-78595256D01*
X72750226Y-78406898D01*
X72790000Y-78206939D01*
X72790000Y-78003061D01*
X72750226Y-77803102D01*
X72672205Y-77614744D01*
X72558937Y-77445226D01*
X72515000Y-77401289D01*
X72515000Y-72659013D01*
X72534744Y-72672205D01*
X72723102Y-72750226D01*
X72923061Y-72790000D01*
X73126939Y-72790000D01*
X73326898Y-72750226D01*
X73515256Y-72672205D01*
X73535001Y-72659012D01*
X73535001Y-77432667D01*
X73531324Y-77470000D01*
X73535001Y-77507332D01*
X73535001Y-77507333D01*
X73542553Y-77584003D01*
X73545998Y-77618985D01*
X73589454Y-77762246D01*
X73660026Y-77894276D01*
X73727361Y-77976323D01*
X73755000Y-78010001D01*
X73783998Y-78033799D01*
X73895000Y-78144801D01*
X73895000Y-78206939D01*
X73934774Y-78406898D01*
X74012795Y-78595256D01*
X74126063Y-78764774D01*
X74270226Y-78908937D01*
X74439744Y-79022205D01*
X74628102Y-79100226D01*
X74828061Y-79140000D01*
X75031939Y-79140000D01*
X75231898Y-79100226D01*
X75420256Y-79022205D01*
X75589774Y-78908937D01*
X75733937Y-78764774D01*
X75847205Y-78595256D01*
X75882500Y-78510046D01*
X75882501Y-109808206D01*
X75882500Y-109808216D01*
X75882501Y-112983206D01*
X75877892Y-113030000D01*
X75896283Y-113216722D01*
X75950749Y-113396269D01*
X76028110Y-113541002D01*
X76039195Y-113561741D01*
X76158223Y-113706778D01*
X76194565Y-113736603D01*
X76510069Y-114052106D01*
X76552795Y-114155256D01*
X76666063Y-114324774D01*
X76810226Y-114468937D01*
X76979744Y-114582205D01*
X77168102Y-114660226D01*
X77368061Y-114700000D01*
X77571939Y-114700000D01*
X77771898Y-114660226D01*
X77960256Y-114582205D01*
X78129774Y-114468937D01*
X78273937Y-114324774D01*
X78387205Y-114155256D01*
X78465226Y-113966898D01*
X78500015Y-113792000D01*
X79190933Y-113792000D01*
X79215944Y-114045943D01*
X79290017Y-114290126D01*
X79410303Y-114515167D01*
X79572182Y-114712418D01*
X79769433Y-114874297D01*
X79994474Y-114994583D01*
X80216715Y-115062000D01*
X79994474Y-115129417D01*
X79769433Y-115249703D01*
X79572182Y-115411582D01*
X79410303Y-115608833D01*
X79290017Y-115833874D01*
X79215944Y-116078057D01*
X79190933Y-116332000D01*
X79215944Y-116585943D01*
X79290017Y-116830126D01*
X79410303Y-117055167D01*
X79572182Y-117252418D01*
X79769433Y-117414297D01*
X79994474Y-117534583D01*
X80238657Y-117608656D01*
X80393001Y-117623857D01*
X80393000Y-120073289D01*
X80349063Y-120117226D01*
X80235795Y-120286744D01*
X80157774Y-120475102D01*
X80118000Y-120675061D01*
X80118000Y-120878939D01*
X80157774Y-121078898D01*
X80235795Y-121267256D01*
X80349063Y-121436774D01*
X80493226Y-121580937D01*
X80662744Y-121694205D01*
X80851102Y-121772226D01*
X81051061Y-121812000D01*
X81254939Y-121812000D01*
X81454898Y-121772226D01*
X81643256Y-121694205D01*
X81812774Y-121580937D01*
X81956937Y-121436774D01*
X82070205Y-121267256D01*
X82148226Y-121078898D01*
X82188000Y-120878939D01*
X82188000Y-120675061D01*
X82148226Y-120475102D01*
X82070205Y-120286744D01*
X81956937Y-120117226D01*
X81913000Y-120073289D01*
X81913000Y-117623857D01*
X82067343Y-117608656D01*
X82311526Y-117534583D01*
X82536567Y-117414297D01*
X82733818Y-117252418D01*
X82895697Y-117055167D01*
X83015983Y-116830126D01*
X83090056Y-116585943D01*
X83115067Y-116332000D01*
X83090056Y-116078057D01*
X83015983Y-115833874D01*
X82895697Y-115608833D01*
X82733818Y-115411582D01*
X82536567Y-115249703D01*
X82311526Y-115129417D01*
X82089285Y-115062000D01*
X82311526Y-114994583D01*
X82536567Y-114874297D01*
X82733818Y-114712418D01*
X82895697Y-114515167D01*
X83015983Y-114290126D01*
X83090056Y-114045943D01*
X83115067Y-113792000D01*
X83093268Y-113570665D01*
X88608000Y-113570665D01*
X88608000Y-113853335D01*
X88663147Y-114130574D01*
X88771320Y-114391727D01*
X88928363Y-114626759D01*
X89128241Y-114826637D01*
X89363273Y-114983680D01*
X89624426Y-115091853D01*
X89901665Y-115147000D01*
X90184335Y-115147000D01*
X90461574Y-115091853D01*
X90722727Y-114983680D01*
X90957759Y-114826637D01*
X91157637Y-114626759D01*
X91314680Y-114391727D01*
X91422853Y-114130574D01*
X91478000Y-113853335D01*
X91478000Y-113570665D01*
X91422853Y-113293426D01*
X91314680Y-113032273D01*
X91157637Y-112797241D01*
X90957759Y-112597363D01*
X90722727Y-112440320D01*
X90461574Y-112332147D01*
X90184335Y-112277000D01*
X89901665Y-112277000D01*
X89624426Y-112332147D01*
X89363273Y-112440320D01*
X89128241Y-112597363D01*
X88928363Y-112797241D01*
X88771320Y-113032273D01*
X88663147Y-113293426D01*
X88608000Y-113570665D01*
X83093268Y-113570665D01*
X83090056Y-113538057D01*
X83015983Y-113293874D01*
X82895697Y-113068833D01*
X82733818Y-112871582D01*
X82536567Y-112709703D01*
X82311526Y-112589417D01*
X82081023Y-112519494D01*
X82190680Y-112497733D01*
X82426461Y-112400193D01*
X82638683Y-112258529D01*
X82819189Y-112078184D01*
X82961044Y-111866089D01*
X83058795Y-111630395D01*
X83066820Y-111579105D01*
X82942933Y-111379000D01*
X81280000Y-111379000D01*
X81280000Y-111399000D01*
X81026000Y-111399000D01*
X81026000Y-111379000D01*
X79363067Y-111379000D01*
X79239180Y-111579105D01*
X79247205Y-111630395D01*
X79344956Y-111866089D01*
X79486811Y-112078184D01*
X79667317Y-112258529D01*
X79879539Y-112400193D01*
X80115320Y-112497733D01*
X80224977Y-112519494D01*
X79994474Y-112589417D01*
X79769433Y-112709703D01*
X79572182Y-112871582D01*
X79410303Y-113068833D01*
X79290017Y-113293874D01*
X79215944Y-113538057D01*
X79190933Y-113792000D01*
X78500015Y-113792000D01*
X78505000Y-113766939D01*
X78505000Y-113563061D01*
X78465226Y-113363102D01*
X78387205Y-113174744D01*
X78273937Y-113005226D01*
X78129774Y-112861063D01*
X77960256Y-112747795D01*
X77857106Y-112705069D01*
X77787500Y-112635462D01*
X77787500Y-108712000D01*
X79190933Y-108712000D01*
X79215944Y-108965943D01*
X79290017Y-109210126D01*
X79410303Y-109435167D01*
X79572182Y-109632418D01*
X79769433Y-109794297D01*
X79994474Y-109914583D01*
X80224977Y-109984506D01*
X80115320Y-110006267D01*
X79879539Y-110103807D01*
X79667317Y-110245471D01*
X79486811Y-110425816D01*
X79344956Y-110637911D01*
X79247205Y-110873605D01*
X79239180Y-110924895D01*
X79363067Y-111125000D01*
X81026000Y-111125000D01*
X81026000Y-111105000D01*
X81280000Y-111105000D01*
X81280000Y-111125000D01*
X82942933Y-111125000D01*
X83066820Y-110924895D01*
X83058795Y-110873605D01*
X82961044Y-110637911D01*
X82819189Y-110425816D01*
X82638683Y-110245471D01*
X82426461Y-110103807D01*
X82190680Y-110006267D01*
X82081023Y-109984506D01*
X82311526Y-109914583D01*
X82536567Y-109794297D01*
X82733818Y-109632418D01*
X82895697Y-109435167D01*
X83015983Y-109210126D01*
X83090056Y-108965943D01*
X83115067Y-108712000D01*
X83090056Y-108458057D01*
X83015983Y-108213874D01*
X82895697Y-107988833D01*
X82832643Y-107912000D01*
X88604928Y-107912000D01*
X88604928Y-109512000D01*
X88617188Y-109636482D01*
X88653498Y-109756180D01*
X88712463Y-109866494D01*
X88791815Y-109963185D01*
X88888506Y-110042537D01*
X88998820Y-110101502D01*
X89118518Y-110137812D01*
X89243000Y-110150072D01*
X90843000Y-110150072D01*
X90967482Y-110137812D01*
X91087180Y-110101502D01*
X91197494Y-110042537D01*
X91294185Y-109963185D01*
X91373537Y-109866494D01*
X91432502Y-109756180D01*
X91468812Y-109636482D01*
X91481072Y-109512000D01*
X91481072Y-109472000D01*
X93157199Y-109472000D01*
X94490001Y-110804803D01*
X94490000Y-135575198D01*
X93538199Y-136527000D01*
X92362909Y-136527000D01*
X92356918Y-136512537D01*
X92177987Y-136244748D01*
X91950252Y-136017013D01*
X91682463Y-135838082D01*
X91384912Y-135714832D01*
X91069033Y-135652000D01*
X90746967Y-135652000D01*
X90431088Y-135714832D01*
X90133537Y-135838082D01*
X89865748Y-136017013D01*
X89638013Y-136244748D01*
X89459082Y-136512537D01*
X89335832Y-136810088D01*
X89273000Y-137125967D01*
X89273000Y-137448033D01*
X89335832Y-137763912D01*
X89459082Y-138061463D01*
X89638013Y-138329252D01*
X89865748Y-138556987D01*
X90133537Y-138735918D01*
X90431088Y-138859168D01*
X90746967Y-138922000D01*
X91069033Y-138922000D01*
X91384912Y-138859168D01*
X91682463Y-138735918D01*
X91950252Y-138556987D01*
X92177987Y-138329252D01*
X92356918Y-138061463D01*
X92362909Y-138047000D01*
X93815678Y-138047000D01*
X93853000Y-138050676D01*
X93890322Y-138047000D01*
X93890333Y-138047000D01*
X94001986Y-138036003D01*
X94145247Y-137992546D01*
X94277276Y-137921974D01*
X94393001Y-137827001D01*
X94416804Y-137797997D01*
X95761004Y-136453798D01*
X95790001Y-136430001D01*
X95884974Y-136314276D01*
X95955546Y-136182247D01*
X95999003Y-136038986D01*
X96010000Y-135927333D01*
X96010000Y-135927324D01*
X96013676Y-135890001D01*
X96010000Y-135852678D01*
X96010000Y-110527325D01*
X96013676Y-110490000D01*
X96010000Y-110452675D01*
X96010000Y-110452667D01*
X95999003Y-110341014D01*
X95955546Y-110197753D01*
X95884974Y-110065724D01*
X95790001Y-109949999D01*
X95761003Y-109926201D01*
X94035804Y-108201003D01*
X94012001Y-108171999D01*
X93896276Y-108077026D01*
X93764247Y-108006454D01*
X93620986Y-107962997D01*
X93509333Y-107952000D01*
X93509322Y-107952000D01*
X93472000Y-107948324D01*
X93434678Y-107952000D01*
X91481072Y-107952000D01*
X91481072Y-107912000D01*
X91468812Y-107787518D01*
X91432502Y-107667820D01*
X91373537Y-107557506D01*
X91294185Y-107460815D01*
X91197494Y-107381463D01*
X91087180Y-107322498D01*
X90967482Y-107286188D01*
X90843000Y-107273928D01*
X89243000Y-107273928D01*
X89118518Y-107286188D01*
X88998820Y-107322498D01*
X88888506Y-107381463D01*
X88791815Y-107460815D01*
X88712463Y-107557506D01*
X88653498Y-107667820D01*
X88617188Y-107787518D01*
X88604928Y-107912000D01*
X82832643Y-107912000D01*
X82733818Y-107791582D01*
X82536567Y-107629703D01*
X82311526Y-107509417D01*
X82067343Y-107435344D01*
X81877030Y-107416600D01*
X80428970Y-107416600D01*
X80238657Y-107435344D01*
X79994474Y-107509417D01*
X79769433Y-107629703D01*
X79572182Y-107791582D01*
X79410303Y-107988833D01*
X79290017Y-108213874D01*
X79215944Y-108458057D01*
X79190933Y-108712000D01*
X77787500Y-108712000D01*
X77787500Y-64540047D01*
X77830226Y-64436898D01*
X77870000Y-64236939D01*
X77870000Y-64033061D01*
X77830226Y-63833102D01*
X77752205Y-63644744D01*
X77638937Y-63475226D01*
X77494774Y-63331063D01*
X77325256Y-63217795D01*
X77136898Y-63139774D01*
X76936939Y-63100000D01*
X76733061Y-63100000D01*
X76533102Y-63139774D01*
X76344744Y-63217795D01*
X76325000Y-63230987D01*
X76325000Y-60254801D01*
X77980000Y-61909802D01*
X77980001Y-73622668D01*
X77976324Y-73660000D01*
X77980001Y-73697333D01*
X77987553Y-73774003D01*
X77990998Y-73808985D01*
X78034454Y-73952246D01*
X78105026Y-74084276D01*
X78172361Y-74166323D01*
X78200000Y-74200001D01*
X78228998Y-74223799D01*
X79280329Y-75275130D01*
X79250000Y-75427604D01*
X79250000Y-75702396D01*
X79303609Y-75971907D01*
X79408767Y-76225780D01*
X79561433Y-76454261D01*
X79755739Y-76648567D01*
X79984220Y-76801233D01*
X80065740Y-76835000D01*
X79984220Y-76868767D01*
X79755739Y-77021433D01*
X79561433Y-77215739D01*
X79408767Y-77444220D01*
X79303609Y-77698093D01*
X79250000Y-77967604D01*
X79250000Y-78242396D01*
X79303609Y-78511907D01*
X79408767Y-78765780D01*
X79561433Y-78994261D01*
X79755739Y-79188567D01*
X79984220Y-79341233D01*
X80065740Y-79375000D01*
X79984220Y-79408767D01*
X79755739Y-79561433D01*
X79561433Y-79755739D01*
X79408767Y-79984220D01*
X79303609Y-80238093D01*
X79250000Y-80507604D01*
X79250000Y-80782396D01*
X79303609Y-81051907D01*
X79408767Y-81305780D01*
X79561433Y-81534261D01*
X79755739Y-81728567D01*
X79984220Y-81881233D01*
X80065740Y-81915000D01*
X79984220Y-81948767D01*
X79755739Y-82101433D01*
X79561433Y-82295739D01*
X79408767Y-82524220D01*
X79303609Y-82778093D01*
X79250000Y-83047604D01*
X79250000Y-83322396D01*
X79303609Y-83591907D01*
X79408767Y-83845780D01*
X79561433Y-84074261D01*
X79755739Y-84268567D01*
X79984220Y-84421233D01*
X80065740Y-84455000D01*
X79984220Y-84488767D01*
X79755739Y-84641433D01*
X79561433Y-84835739D01*
X79408767Y-85064220D01*
X79303609Y-85318093D01*
X79250000Y-85587604D01*
X79250000Y-85862396D01*
X79303609Y-86131907D01*
X79408767Y-86385780D01*
X79561433Y-86614261D01*
X79755739Y-86808567D01*
X79984220Y-86961233D01*
X80238093Y-87066391D01*
X80507604Y-87120000D01*
X80782396Y-87120000D01*
X81051907Y-87066391D01*
X81305780Y-86961233D01*
X81534261Y-86808567D01*
X81728567Y-86614261D01*
X81881233Y-86385780D01*
X81915000Y-86304260D01*
X81948767Y-86385780D01*
X82101433Y-86614261D01*
X82295739Y-86808567D01*
X82524220Y-86961233D01*
X82778093Y-87066391D01*
X83047604Y-87120000D01*
X83322396Y-87120000D01*
X83591907Y-87066391D01*
X83845780Y-86961233D01*
X84074261Y-86808567D01*
X84268567Y-86614261D01*
X84330000Y-86522319D01*
X84330000Y-91679587D01*
X84153102Y-91714774D01*
X83964744Y-91792795D01*
X83795226Y-91906063D01*
X83651063Y-92050226D01*
X83537795Y-92219744D01*
X83459774Y-92408102D01*
X83420000Y-92608061D01*
X83420000Y-92811939D01*
X83459774Y-93011898D01*
X83537795Y-93200256D01*
X83651063Y-93369774D01*
X83795226Y-93513937D01*
X83964744Y-93627205D01*
X84153102Y-93705226D01*
X84353061Y-93745000D01*
X84556939Y-93745000D01*
X84756898Y-93705226D01*
X84945256Y-93627205D01*
X85114774Y-93513937D01*
X85258937Y-93369774D01*
X85372205Y-93200256D01*
X85450226Y-93011898D01*
X85490000Y-92811939D01*
X85490000Y-92749802D01*
X85600001Y-92639801D01*
X85600001Y-99626288D01*
X85556063Y-99670226D01*
X85442795Y-99839744D01*
X85364774Y-100028102D01*
X85325000Y-100228061D01*
X85325000Y-100431939D01*
X85364774Y-100631898D01*
X85442795Y-100820256D01*
X85556063Y-100989774D01*
X85700226Y-101133937D01*
X85869744Y-101247205D01*
X86058102Y-101325226D01*
X86258061Y-101365000D01*
X86461939Y-101365000D01*
X86661898Y-101325226D01*
X86850256Y-101247205D01*
X87019774Y-101133937D01*
X87163937Y-100989774D01*
X87277205Y-100820256D01*
X87355226Y-100631898D01*
X87395000Y-100431939D01*
X87395000Y-100228061D01*
X87355226Y-100028102D01*
X87277205Y-99839744D01*
X87163937Y-99670226D01*
X87120000Y-99626289D01*
X87120000Y-96789013D01*
X87139744Y-96802205D01*
X87328102Y-96880226D01*
X87528061Y-96920000D01*
X87731939Y-96920000D01*
X87931898Y-96880226D01*
X88120256Y-96802205D01*
X88289774Y-96688937D01*
X88433937Y-96544774D01*
X88547205Y-96375256D01*
X88625226Y-96186898D01*
X88665000Y-95986939D01*
X88665000Y-95924801D01*
X89411004Y-95178798D01*
X89440001Y-95155001D01*
X89534974Y-95039276D01*
X89605546Y-94907247D01*
X89649003Y-94763986D01*
X89660000Y-94652333D01*
X89660000Y-94652324D01*
X89663676Y-94615001D01*
X89660000Y-94577678D01*
X89660000Y-76415000D01*
X93761928Y-76415000D01*
X93774188Y-76539482D01*
X93810498Y-76659180D01*
X93869463Y-76769494D01*
X93948815Y-76866185D01*
X94045506Y-76945537D01*
X94155820Y-77004502D01*
X94275518Y-77040812D01*
X94400000Y-77053072D01*
X94964250Y-77050000D01*
X95123000Y-76891250D01*
X95123000Y-75692000D01*
X95377000Y-75692000D01*
X95377000Y-76891250D01*
X95535750Y-77050000D01*
X96100000Y-77053072D01*
X96224482Y-77040812D01*
X96344180Y-77004502D01*
X96454494Y-76945537D01*
X96551185Y-76866185D01*
X96630537Y-76769494D01*
X96689502Y-76659180D01*
X96725812Y-76539482D01*
X96738072Y-76415000D01*
X96735000Y-75850750D01*
X96576250Y-75692000D01*
X95377000Y-75692000D01*
X95123000Y-75692000D01*
X93923750Y-75692000D01*
X93765000Y-75850750D01*
X93761928Y-76415000D01*
X89660000Y-76415000D01*
X89660000Y-76237333D01*
X89663677Y-76200000D01*
X89649003Y-76051014D01*
X89605546Y-75907753D01*
X89534974Y-75775724D01*
X89474795Y-75702396D01*
X89440001Y-75659999D01*
X89411002Y-75636200D01*
X89300000Y-75525198D01*
X89300000Y-75463061D01*
X89260226Y-75263102D01*
X89182205Y-75074744D01*
X89068937Y-74905226D01*
X88924774Y-74761063D01*
X88855836Y-74715000D01*
X93761928Y-74715000D01*
X93765000Y-75279250D01*
X93923750Y-75438000D01*
X95123000Y-75438000D01*
X95123000Y-75418000D01*
X95377000Y-75418000D01*
X95377000Y-75438000D01*
X96576250Y-75438000D01*
X96735000Y-75279250D01*
X96738072Y-74715000D01*
X96725812Y-74590518D01*
X96689502Y-74470820D01*
X96630537Y-74360506D01*
X96551185Y-74263815D01*
X96454494Y-74184463D01*
X96344180Y-74125498D01*
X96271620Y-74103487D01*
X96403475Y-73971632D01*
X96565990Y-73728411D01*
X96677932Y-73458158D01*
X96735000Y-73171260D01*
X96735000Y-72878740D01*
X96677932Y-72591842D01*
X96565990Y-72321589D01*
X96403475Y-72078368D01*
X96196632Y-71871525D01*
X96022240Y-71755000D01*
X96196632Y-71638475D01*
X96403475Y-71431632D01*
X96565990Y-71188411D01*
X96677932Y-70918158D01*
X96735000Y-70631260D01*
X96735000Y-70338740D01*
X96677932Y-70051842D01*
X96565990Y-69781589D01*
X96403475Y-69538368D01*
X96196632Y-69331525D01*
X95953411Y-69169010D01*
X95683158Y-69057068D01*
X95396260Y-69000000D01*
X95103740Y-69000000D01*
X94816842Y-69057068D01*
X94546589Y-69169010D01*
X94303368Y-69331525D01*
X94096525Y-69538368D01*
X93934010Y-69781589D01*
X93822068Y-70051842D01*
X93765000Y-70338740D01*
X93765000Y-70631260D01*
X93822068Y-70918158D01*
X93934010Y-71188411D01*
X94096525Y-71431632D01*
X94303368Y-71638475D01*
X94477760Y-71755000D01*
X94303368Y-71871525D01*
X94096525Y-72078368D01*
X93934010Y-72321589D01*
X93822068Y-72591842D01*
X93765000Y-72878740D01*
X93765000Y-73171260D01*
X93822068Y-73458158D01*
X93934010Y-73728411D01*
X94096525Y-73971632D01*
X94228380Y-74103487D01*
X94155820Y-74125498D01*
X94045506Y-74184463D01*
X93948815Y-74263815D01*
X93869463Y-74360506D01*
X93810498Y-74470820D01*
X93774188Y-74590518D01*
X93761928Y-74715000D01*
X88855836Y-74715000D01*
X88755256Y-74647795D01*
X88566898Y-74569774D01*
X88366939Y-74530000D01*
X88163061Y-74530000D01*
X87963102Y-74569774D01*
X87774744Y-74647795D01*
X87605226Y-74761063D01*
X87461063Y-74905226D01*
X87347795Y-75074744D01*
X87269774Y-75263102D01*
X87230000Y-75463061D01*
X87230000Y-75666939D01*
X87269774Y-75866898D01*
X87347795Y-76055256D01*
X87461063Y-76224774D01*
X87605226Y-76368937D01*
X87774744Y-76482205D01*
X87963102Y-76560226D01*
X88140001Y-76595413D01*
X88140000Y-77507332D01*
X88140001Y-77507342D01*
X88140000Y-94300198D01*
X87590199Y-94850000D01*
X87528061Y-94850000D01*
X87328102Y-94889774D01*
X87139744Y-94967795D01*
X87120000Y-94980987D01*
X87120000Y-67347333D01*
X87123677Y-67310000D01*
X87109003Y-67161014D01*
X87065546Y-67017753D01*
X86994974Y-66885724D01*
X86923799Y-66798997D01*
X86900001Y-66769999D01*
X86871003Y-66746201D01*
X86288803Y-66164002D01*
X86265001Y-66134999D01*
X86149276Y-66040026D01*
X86017247Y-65969454D01*
X85873986Y-65925997D01*
X85762333Y-65915000D01*
X85762322Y-65915000D01*
X85725000Y-65911324D01*
X85687678Y-65915000D01*
X84483688Y-65915000D01*
X84526391Y-65811907D01*
X84580000Y-65542396D01*
X84580000Y-65267604D01*
X84526391Y-64998093D01*
X84421233Y-64744220D01*
X84268567Y-64515739D01*
X84074261Y-64321433D01*
X83845780Y-64168767D01*
X83769499Y-64137170D01*
X83787326Y-64130744D01*
X83902794Y-64069025D01*
X83969531Y-63829137D01*
X83185000Y-63044605D01*
X82400469Y-63829137D01*
X82467206Y-64069025D01*
X82606707Y-64134600D01*
X82524220Y-64168767D01*
X82295739Y-64321433D01*
X82101433Y-64515739D01*
X81948767Y-64744220D01*
X81915000Y-64825740D01*
X81881233Y-64744220D01*
X81728567Y-64515739D01*
X81534261Y-64321433D01*
X81305780Y-64168767D01*
X81224260Y-64135000D01*
X81305780Y-64101233D01*
X81534261Y-63948567D01*
X81728567Y-63754261D01*
X81881233Y-63525780D01*
X81912830Y-63449499D01*
X81919256Y-63467326D01*
X81980975Y-63582794D01*
X82220863Y-63649531D01*
X83005395Y-62865000D01*
X83364605Y-62865000D01*
X84149137Y-63649531D01*
X84389025Y-63582794D01*
X84505924Y-63334108D01*
X84572061Y-63067394D01*
X84584895Y-62792903D01*
X84543931Y-62521183D01*
X84450744Y-62262674D01*
X84389025Y-62147206D01*
X84149137Y-62080469D01*
X83364605Y-62865000D01*
X83005395Y-62865000D01*
X82220863Y-62080469D01*
X81980975Y-62147206D01*
X81915400Y-62286707D01*
X81881233Y-62204220D01*
X81728567Y-61975739D01*
X81653691Y-61900863D01*
X82400469Y-61900863D01*
X83185000Y-62685395D01*
X83969531Y-61900863D01*
X83902794Y-61660975D01*
X83654108Y-61544076D01*
X83387394Y-61477939D01*
X83112903Y-61465105D01*
X82841183Y-61506069D01*
X82582674Y-61599256D01*
X82467206Y-61660975D01*
X82400469Y-61900863D01*
X81653691Y-61900863D01*
X81534261Y-61781433D01*
X81305780Y-61628767D01*
X81051907Y-61523609D01*
X80782396Y-61470000D01*
X80507604Y-61470000D01*
X80238093Y-61523609D01*
X79984220Y-61628767D01*
X79755739Y-61781433D01*
X79561433Y-61975739D01*
X79500000Y-62067680D01*
X79500000Y-61632323D01*
X79503676Y-61595000D01*
X79500000Y-61557677D01*
X79500000Y-61557667D01*
X79489003Y-61446014D01*
X79445546Y-61302753D01*
X79374974Y-61170724D01*
X79280001Y-61054999D01*
X79251004Y-61031202D01*
X77595000Y-59375199D01*
X77595000Y-28064014D01*
X77600901Y-28066825D01*
X77748110Y-28111476D01*
X77978000Y-27990155D01*
X77978000Y-26797000D01*
X78232000Y-26797000D01*
X78232000Y-27990155D01*
X78461890Y-28111476D01*
X78609099Y-28066825D01*
X78871920Y-27941641D01*
X79105269Y-27767588D01*
X79300178Y-27551355D01*
X79449157Y-27301252D01*
X79546481Y-27026891D01*
X79425814Y-26797000D01*
X78232000Y-26797000D01*
X77978000Y-26797000D01*
X77958000Y-26797000D01*
X77958000Y-26543000D01*
X77978000Y-26543000D01*
X77978000Y-25349845D01*
X78232000Y-25349845D01*
X78232000Y-26543000D01*
X79425814Y-26543000D01*
X79546481Y-26313109D01*
X79449157Y-26038748D01*
X79300178Y-25788645D01*
X79105269Y-25572412D01*
X78871920Y-25398359D01*
X78609099Y-25273175D01*
X78461890Y-25228524D01*
X78232000Y-25349845D01*
X77978000Y-25349845D01*
X77748110Y-25228524D01*
X77600901Y-25273175D01*
X77595000Y-25275986D01*
X77595000Y-18539014D01*
X77600901Y-18541825D01*
X77748110Y-18586476D01*
X77978000Y-18465155D01*
X77978000Y-17272000D01*
X78232000Y-17272000D01*
X78232000Y-18465155D01*
X78461890Y-18586476D01*
X78609099Y-18541825D01*
X78871920Y-18416641D01*
X79105269Y-18242588D01*
X79300178Y-18026355D01*
X79449157Y-17776252D01*
X79546481Y-17501891D01*
X79425814Y-17272000D01*
X78232000Y-17272000D01*
X77978000Y-17272000D01*
X77958000Y-17272000D01*
X77958000Y-17018000D01*
X77978000Y-17018000D01*
X77978000Y-15824845D01*
X78232000Y-15824845D01*
X78232000Y-17018000D01*
X79425814Y-17018000D01*
X79546481Y-16788109D01*
X79449157Y-16513748D01*
X79300178Y-16263645D01*
X79105269Y-16047412D01*
X78871920Y-15873359D01*
X78609099Y-15748175D01*
X78461890Y-15703524D01*
X78232000Y-15824845D01*
X77978000Y-15824845D01*
X77748110Y-15703524D01*
X77600901Y-15748175D01*
X77338080Y-15873359D01*
X77104731Y-16047412D01*
X76909822Y-16263645D01*
X76840195Y-16380534D01*
X76718475Y-16198368D01*
X76511632Y-15991525D01*
X76268411Y-15829010D01*
X75998158Y-15717068D01*
X75711260Y-15660000D01*
X75418740Y-15660000D01*
X75131842Y-15717068D01*
X74861589Y-15829010D01*
X74618368Y-15991525D01*
X74411525Y-16198368D01*
X74295000Y-16372760D01*
X74178475Y-16198368D01*
X73971632Y-15991525D01*
X73728411Y-15829010D01*
X73458158Y-15717068D01*
X73171260Y-15660000D01*
X72878740Y-15660000D01*
X72591842Y-15717068D01*
X72321589Y-15829010D01*
X72078368Y-15991525D01*
X71871525Y-16198368D01*
X71755000Y-16372760D01*
X71638475Y-16198368D01*
X71431632Y-15991525D01*
X71188411Y-15829010D01*
X70918158Y-15717068D01*
X70631260Y-15660000D01*
X70338740Y-15660000D01*
X70051842Y-15717068D01*
X69781589Y-15829010D01*
X69538368Y-15991525D01*
X69331525Y-16198368D01*
X69215000Y-16372760D01*
X69098475Y-16198368D01*
X68891632Y-15991525D01*
X68648411Y-15829010D01*
X68378158Y-15717068D01*
X68091260Y-15660000D01*
X67798740Y-15660000D01*
X67511842Y-15717068D01*
X67241589Y-15829010D01*
X66998368Y-15991525D01*
X66791525Y-16198368D01*
X66675000Y-16372760D01*
X66558475Y-16198368D01*
X66351632Y-15991525D01*
X66108411Y-15829010D01*
X65838158Y-15717068D01*
X65551260Y-15660000D01*
X65258740Y-15660000D01*
X64971842Y-15717068D01*
X64701589Y-15829010D01*
X64458368Y-15991525D01*
X64251525Y-16198368D01*
X64135000Y-16372760D01*
X64018475Y-16198368D01*
X63811632Y-15991525D01*
X63568411Y-15829010D01*
X63298158Y-15717068D01*
X63011260Y-15660000D01*
X62718740Y-15660000D01*
X62431842Y-15717068D01*
X62161589Y-15829010D01*
X61918368Y-15991525D01*
X61711525Y-16198368D01*
X61595000Y-16372760D01*
X61478475Y-16198368D01*
X61271632Y-15991525D01*
X61028411Y-15829010D01*
X60758158Y-15717068D01*
X60471260Y-15660000D01*
X60178740Y-15660000D01*
X59891842Y-15717068D01*
X59621589Y-15829010D01*
X59378368Y-15991525D01*
X59171525Y-16198368D01*
X59055000Y-16372760D01*
X58938475Y-16198368D01*
X58731632Y-15991525D01*
X58488411Y-15829010D01*
X58218158Y-15717068D01*
X57931260Y-15660000D01*
X57638740Y-15660000D01*
X57351842Y-15717068D01*
X57081589Y-15829010D01*
X56838368Y-15991525D01*
X56631525Y-16198368D01*
X56515000Y-16372760D01*
X56398475Y-16198368D01*
X56191632Y-15991525D01*
X55948411Y-15829010D01*
X55678158Y-15717068D01*
X55391260Y-15660000D01*
X55098740Y-15660000D01*
X54811842Y-15717068D01*
X54541589Y-15829010D01*
X54298368Y-15991525D01*
X54091525Y-16198368D01*
X53975000Y-16372760D01*
X53858475Y-16198368D01*
X53651632Y-15991525D01*
X53408411Y-15829010D01*
X53138158Y-15717068D01*
X52851260Y-15660000D01*
X52558740Y-15660000D01*
X52271842Y-15717068D01*
X52001589Y-15829010D01*
X51758368Y-15991525D01*
X51551525Y-16198368D01*
X51435000Y-16372760D01*
X51318475Y-16198368D01*
X51111632Y-15991525D01*
X50868411Y-15829010D01*
X50598158Y-15717068D01*
X50311260Y-15660000D01*
X50018740Y-15660000D01*
X49731842Y-15717068D01*
X49461589Y-15829010D01*
X49218368Y-15991525D01*
X49011525Y-16198368D01*
X48895000Y-16372760D01*
X48778475Y-16198368D01*
X48571632Y-15991525D01*
X48328411Y-15829010D01*
X48058158Y-15717068D01*
X47771260Y-15660000D01*
X47478740Y-15660000D01*
X47191842Y-15717068D01*
X46921589Y-15829010D01*
X46678368Y-15991525D01*
X46471525Y-16198368D01*
X46355000Y-16372760D01*
X46238475Y-16198368D01*
X46031632Y-15991525D01*
X45788411Y-15829010D01*
X45518158Y-15717068D01*
X45231260Y-15660000D01*
X44938740Y-15660000D01*
X44651842Y-15717068D01*
X44381589Y-15829010D01*
X44138368Y-15991525D01*
X44006513Y-16123380D01*
X43984502Y-16050820D01*
X43925537Y-15940506D01*
X43846185Y-15843815D01*
X43749494Y-15764463D01*
X43639180Y-15705498D01*
X43519482Y-15669188D01*
X43395000Y-15656928D01*
X41695000Y-15656928D01*
X41570518Y-15669188D01*
X41450820Y-15705498D01*
X41340506Y-15764463D01*
X41243815Y-15843815D01*
X41164463Y-15940506D01*
X41105498Y-16050820D01*
X41069188Y-16170518D01*
X41056928Y-16295000D01*
X41056928Y-17995000D01*
X41069188Y-18119482D01*
X41105498Y-18239180D01*
X41164463Y-18349494D01*
X41243815Y-18446185D01*
X41340506Y-18525537D01*
X41450820Y-18584502D01*
X41570518Y-18620812D01*
X41592500Y-18622977D01*
X41592501Y-25192023D01*
X41570518Y-25194188D01*
X41450820Y-25230498D01*
X41340506Y-25289463D01*
X41243815Y-25368815D01*
X41164463Y-25465506D01*
X41105498Y-25575820D01*
X41069188Y-25695518D01*
X41067023Y-25717500D01*
X39416785Y-25717500D01*
X39370000Y-25712892D01*
X39323215Y-25717500D01*
X39183277Y-25731283D01*
X39003731Y-25785748D01*
X38838259Y-25874194D01*
X38693222Y-25993222D01*
X38663397Y-26029564D01*
X36824569Y-27868393D01*
X36788222Y-27898222D01*
X36669194Y-28043259D01*
X36580748Y-28208732D01*
X36526283Y-28388277D01*
X36526283Y-28388278D01*
X36507892Y-28575000D01*
X36512500Y-28621785D01*
X36512501Y-61499821D01*
X36460820Y-61515498D01*
X36350506Y-61574463D01*
X36253815Y-61653815D01*
X36174463Y-61750506D01*
X36115498Y-61860820D01*
X36079188Y-61980518D01*
X36066928Y-62105000D01*
X36066928Y-63625000D01*
X36079188Y-63749482D01*
X36115498Y-63869180D01*
X36174463Y-63979494D01*
X36253815Y-64076185D01*
X36350506Y-64155537D01*
X36460820Y-64214502D01*
X36580518Y-64250812D01*
X36668467Y-64259474D01*
X36575739Y-64321433D01*
X36381433Y-64515739D01*
X36295064Y-64645000D01*
X33057322Y-64645000D01*
X33019999Y-64641324D01*
X32982676Y-64645000D01*
X32982667Y-64645000D01*
X32871014Y-64655997D01*
X32727753Y-64699454D01*
X32595724Y-64770026D01*
X32479999Y-64864999D01*
X32456201Y-64893997D01*
X31238998Y-66111201D01*
X31210000Y-66134999D01*
X31186202Y-66163997D01*
X31186201Y-66163998D01*
X31115026Y-66250724D01*
X31044454Y-66382754D01*
X31014180Y-66482558D01*
X31000998Y-66526014D01*
X30993272Y-66604454D01*
X30986324Y-66675000D01*
X30990001Y-66712333D01*
X30990000Y-95181289D01*
X30946063Y-95225226D01*
X30832795Y-95394744D01*
X30754774Y-95583102D01*
X30715000Y-95783061D01*
X25525000Y-95783061D01*
X25525000Y-75633711D01*
X25568937Y-75589774D01*
X25682205Y-75420256D01*
X25760226Y-75231898D01*
X25800000Y-75031939D01*
X25800000Y-74828061D01*
X25760226Y-74628102D01*
X25682205Y-74439744D01*
X25568937Y-74270226D01*
X25424774Y-74126063D01*
X25255256Y-74012795D01*
X25066898Y-73934774D01*
X24866939Y-73895000D01*
X24663061Y-73895000D01*
X24463102Y-73934774D01*
X24274744Y-74012795D01*
X24105226Y-74126063D01*
X23961063Y-74270226D01*
X23847795Y-74439744D01*
X23769774Y-74628102D01*
X23730000Y-74828061D01*
X22858000Y-74828061D01*
X22858000Y-72196801D01*
X23534802Y-71520000D01*
X23596939Y-71520000D01*
X23796898Y-71480226D01*
X23985256Y-71402205D01*
X24154774Y-71288937D01*
X24298937Y-71144774D01*
X24412205Y-70975256D01*
X24490226Y-70786898D01*
X24530000Y-70586939D01*
X24530000Y-70383061D01*
X24490226Y-70183102D01*
X24412205Y-69994744D01*
X24298937Y-69825226D01*
X24154774Y-69681063D01*
X23985256Y-69567795D01*
X23796898Y-69489774D01*
X23596939Y-69450000D01*
X23393061Y-69450000D01*
X23193102Y-69489774D01*
X23004744Y-69567795D01*
X22835226Y-69681063D01*
X22691063Y-69825226D01*
X22577795Y-69994744D01*
X22499774Y-70183102D01*
X22460000Y-70383061D01*
X22460000Y-70445198D01*
X21586998Y-71318201D01*
X21558000Y-71341999D01*
X21534202Y-71370997D01*
X21534201Y-71370998D01*
X21463026Y-71457724D01*
X21392454Y-71589754D01*
X21373251Y-71653061D01*
X21356280Y-71709010D01*
X21348998Y-71733015D01*
X21334324Y-71882000D01*
X21338001Y-71919333D01*
X21338000Y-112573957D01*
X21183241Y-112677363D01*
X20983363Y-112877241D01*
X20826320Y-113112273D01*
X20718147Y-113373426D01*
X20663000Y-113650665D01*
X19735000Y-113650665D01*
X19735000Y-13385000D01*
X100915000Y-13385000D01*
X100915001Y-164415000D01*
G37*
%TD.AperFunction*%
D24*
X41069188Y-27644482D02*
X41105498Y-27764180D01*
X41164463Y-27874494D01*
X41243815Y-27971185D01*
X41340506Y-28050537D01*
X41450820Y-28109502D01*
X41570518Y-28145812D01*
X41695000Y-28158072D01*
X43395000Y-28158072D01*
X43519482Y-28145812D01*
X43639180Y-28109502D01*
X43749494Y-28050537D01*
X43846185Y-27971185D01*
X43925537Y-27874494D01*
X43984502Y-27764180D01*
X44006513Y-27691620D01*
X44138368Y-27823475D01*
X44325000Y-27948178D01*
X44325001Y-81242667D01*
X44321324Y-81280000D01*
X44325001Y-81317333D01*
X44332553Y-81394003D01*
X44335998Y-81428985D01*
X44379454Y-81572246D01*
X44450026Y-81704276D01*
X44500694Y-81766014D01*
X44545000Y-81820001D01*
X44573998Y-81843799D01*
X44685000Y-81954801D01*
X44685000Y-82016939D01*
X44724774Y-82216898D01*
X44802795Y-82405256D01*
X44916063Y-82574774D01*
X44969295Y-82628006D01*
X44874276Y-82550026D01*
X44742247Y-82479454D01*
X44598986Y-82435997D01*
X44487333Y-82425000D01*
X44487322Y-82425000D01*
X44450000Y-82421324D01*
X44412678Y-82425000D01*
X41174936Y-82425000D01*
X41088567Y-82295739D01*
X40894261Y-82101433D01*
X40665780Y-81948767D01*
X40584260Y-81915000D01*
X40665780Y-81881233D01*
X40894261Y-81728567D01*
X41088567Y-81534261D01*
X41241233Y-81305780D01*
X41346391Y-81051907D01*
X41400000Y-80782396D01*
X41400000Y-80507604D01*
X41346391Y-80238093D01*
X41241233Y-79984220D01*
X41088567Y-79755739D01*
X40894261Y-79561433D01*
X40665780Y-79408767D01*
X40584260Y-79375000D01*
X40665780Y-79341233D01*
X40894261Y-79188567D01*
X41088567Y-78994261D01*
X41241233Y-78765780D01*
X41346391Y-78511907D01*
X41400000Y-78242396D01*
X41400000Y-77967604D01*
X41346391Y-77698093D01*
X41241233Y-77444220D01*
X41088567Y-77215739D01*
X40894261Y-77021433D01*
X40665780Y-76868767D01*
X40584260Y-76835000D01*
X40665780Y-76801233D01*
X40894261Y-76648567D01*
X41088567Y-76454261D01*
X41241233Y-76225780D01*
X41346391Y-75971907D01*
X41400000Y-75702396D01*
X41400000Y-75427604D01*
X41346391Y-75158093D01*
X41241233Y-74904220D01*
X41088567Y-74675739D01*
X40894261Y-74481433D01*
X40665780Y-74328767D01*
X40584260Y-74295000D01*
X40665780Y-74261233D01*
X40894261Y-74108567D01*
X41088567Y-73914261D01*
X41241233Y-73685780D01*
X41346391Y-73431907D01*
X41400000Y-73162396D01*
X41400000Y-72887604D01*
X41346391Y-72618093D01*
X41241233Y-72364220D01*
X41088567Y-72135739D01*
X40894261Y-71941433D01*
X40665780Y-71788767D01*
X40584260Y-71755000D01*
X40665780Y-71721233D01*
X40894261Y-71568567D01*
X41088567Y-71374261D01*
X41241233Y-71145780D01*
X41346391Y-70891907D01*
X41400000Y-70622396D01*
X41400000Y-70347604D01*
X41346391Y-70078093D01*
X41241233Y-69824220D01*
X41088567Y-69595739D01*
X40894261Y-69401433D01*
X40665780Y-69248767D01*
X40584260Y-69215000D01*
X40665780Y-69181233D01*
X40894261Y-69028567D01*
X41088567Y-68834261D01*
X41241233Y-68605780D01*
X41346391Y-68351907D01*
X41400000Y-68082396D01*
X41400000Y-67807604D01*
X41346391Y-67538093D01*
X41241233Y-67284220D01*
X41088567Y-67055739D01*
X40894261Y-66861433D01*
X40665780Y-66708767D01*
X40589499Y-66677170D01*
X40607326Y-66670744D01*
X40722794Y-66609025D01*
X40789531Y-66369137D01*
X40005000Y-65584605D01*
X39220469Y-66369137D01*
X39287206Y-66609025D01*
X39426707Y-66674600D01*
X39344220Y-66708767D01*
X39115739Y-66861433D01*
X38921433Y-67055739D01*
X38768767Y-67284220D01*
X38735000Y-67365740D01*
X38701233Y-67284220D01*
X38548567Y-67055739D01*
X38354261Y-66861433D01*
X38125780Y-66708767D01*
X38044260Y-66675000D01*
X38125780Y-66641233D01*
X38354261Y-66488567D01*
X38548567Y-66294261D01*
X38701233Y-66065780D01*
X38732830Y-65989499D01*
X38739256Y-66007326D01*
X38800975Y-66122794D01*
X39040863Y-66189531D01*
X39825395Y-65405000D01*
X40184605Y-65405000D01*
X40969137Y-66189531D01*
X41209025Y-66122794D01*
X41325924Y-65874108D01*
X41392061Y-65607394D01*
X41404895Y-65332903D01*
X41363931Y-65061183D01*
X41270744Y-64802674D01*
X41209025Y-64687206D01*
X40969137Y-64620469D01*
X40184605Y-65405000D01*
X39825395Y-65405000D01*
X39040863Y-64620469D01*
X38800975Y-64687206D01*
X38735400Y-64826707D01*
X38701233Y-64744220D01*
X38548567Y-64515739D01*
X38354261Y-64321433D01*
X38261533Y-64259474D01*
X38349482Y-64250812D01*
X38469180Y-64214502D01*
X38579494Y-64155537D01*
X38676185Y-64076185D01*
X38755537Y-63979494D01*
X38814502Y-63869180D01*
X38850812Y-63749482D01*
X38859474Y-63661533D01*
X38921433Y-63754261D01*
X39115739Y-63948567D01*
X39344220Y-64101233D01*
X39420501Y-64132830D01*
X39402674Y-64139256D01*
X39287206Y-64200975D01*
X39220469Y-64440863D01*
X40005000Y-65225395D01*
X40789531Y-64440863D01*
X40722794Y-64200975D01*
X40583293Y-64135400D01*
X40665780Y-64101233D01*
X40894261Y-63948567D01*
X41088567Y-63754261D01*
X41241233Y-63525780D01*
X41346391Y-63271907D01*
X41400000Y-63002396D01*
X41400000Y-62727604D01*
X41346391Y-62458093D01*
X41241233Y-62204220D01*
X41088567Y-61975739D01*
X40894261Y-61781433D01*
X40665780Y-61628767D01*
X40411907Y-61523609D01*
X40142396Y-61470000D01*
X39867604Y-61470000D01*
X39598093Y-61523609D01*
X39344220Y-61628767D01*
X39115739Y-61781433D01*
X38921433Y-61975739D01*
X38859474Y-62068467D01*
X38850812Y-61980518D01*
X38814502Y-61860820D01*
X38755537Y-61750506D01*
X38676185Y-61653815D01*
X38579494Y-61574463D01*
X38469180Y-61515498D01*
X38417500Y-61499821D01*
X38417500Y-28969538D01*
X39764539Y-27622500D01*
X41067023Y-27622500D01*
X41069188Y-27644482D01*
%TA.AperFunction,Conductor*%
D25*
G36*
X41069188Y-27644482D02*
G01*
X41105498Y-27764180D01*
X41164463Y-27874494D01*
X41243815Y-27971185D01*
X41340506Y-28050537D01*
X41450820Y-28109502D01*
X41570518Y-28145812D01*
X41695000Y-28158072D01*
X43395000Y-28158072D01*
X43519482Y-28145812D01*
X43639180Y-28109502D01*
X43749494Y-28050537D01*
X43846185Y-27971185D01*
X43925537Y-27874494D01*
X43984502Y-27764180D01*
X44006513Y-27691620D01*
X44138368Y-27823475D01*
X44325000Y-27948178D01*
X44325001Y-81242667D01*
X44321324Y-81280000D01*
X44325001Y-81317333D01*
X44332553Y-81394003D01*
X44335998Y-81428985D01*
X44379454Y-81572246D01*
X44450026Y-81704276D01*
X44500694Y-81766014D01*
X44545000Y-81820001D01*
X44573998Y-81843799D01*
X44685000Y-81954801D01*
X44685000Y-82016939D01*
X44724774Y-82216898D01*
X44802795Y-82405256D01*
X44916063Y-82574774D01*
X44969295Y-82628006D01*
X44874276Y-82550026D01*
X44742247Y-82479454D01*
X44598986Y-82435997D01*
X44487333Y-82425000D01*
X44487322Y-82425000D01*
X44450000Y-82421324D01*
X44412678Y-82425000D01*
X41174936Y-82425000D01*
X41088567Y-82295739D01*
X40894261Y-82101433D01*
X40665780Y-81948767D01*
X40584260Y-81915000D01*
X40665780Y-81881233D01*
X40894261Y-81728567D01*
X41088567Y-81534261D01*
X41241233Y-81305780D01*
X41346391Y-81051907D01*
X41400000Y-80782396D01*
X41400000Y-80507604D01*
X41346391Y-80238093D01*
X41241233Y-79984220D01*
X41088567Y-79755739D01*
X40894261Y-79561433D01*
X40665780Y-79408767D01*
X40584260Y-79375000D01*
X40665780Y-79341233D01*
X40894261Y-79188567D01*
X41088567Y-78994261D01*
X41241233Y-78765780D01*
X41346391Y-78511907D01*
X41400000Y-78242396D01*
X41400000Y-77967604D01*
X41346391Y-77698093D01*
X41241233Y-77444220D01*
X41088567Y-77215739D01*
X40894261Y-77021433D01*
X40665780Y-76868767D01*
X40584260Y-76835000D01*
X40665780Y-76801233D01*
X40894261Y-76648567D01*
X41088567Y-76454261D01*
X41241233Y-76225780D01*
X41346391Y-75971907D01*
X41400000Y-75702396D01*
X41400000Y-75427604D01*
X41346391Y-75158093D01*
X41241233Y-74904220D01*
X41088567Y-74675739D01*
X40894261Y-74481433D01*
X40665780Y-74328767D01*
X40584260Y-74295000D01*
X40665780Y-74261233D01*
X40894261Y-74108567D01*
X41088567Y-73914261D01*
X41241233Y-73685780D01*
X41346391Y-73431907D01*
X41400000Y-73162396D01*
X41400000Y-72887604D01*
X41346391Y-72618093D01*
X41241233Y-72364220D01*
X41088567Y-72135739D01*
X40894261Y-71941433D01*
X40665780Y-71788767D01*
X40584260Y-71755000D01*
X40665780Y-71721233D01*
X40894261Y-71568567D01*
X41088567Y-71374261D01*
X41241233Y-71145780D01*
X41346391Y-70891907D01*
X41400000Y-70622396D01*
X41400000Y-70347604D01*
X41346391Y-70078093D01*
X41241233Y-69824220D01*
X41088567Y-69595739D01*
X40894261Y-69401433D01*
X40665780Y-69248767D01*
X40584260Y-69215000D01*
X40665780Y-69181233D01*
X40894261Y-69028567D01*
X41088567Y-68834261D01*
X41241233Y-68605780D01*
X41346391Y-68351907D01*
X41400000Y-68082396D01*
X41400000Y-67807604D01*
X41346391Y-67538093D01*
X41241233Y-67284220D01*
X41088567Y-67055739D01*
X40894261Y-66861433D01*
X40665780Y-66708767D01*
X40589499Y-66677170D01*
X40607326Y-66670744D01*
X40722794Y-66609025D01*
X40789531Y-66369137D01*
X40005000Y-65584605D01*
X39220469Y-66369137D01*
X39287206Y-66609025D01*
X39426707Y-66674600D01*
X39344220Y-66708767D01*
X39115739Y-66861433D01*
X38921433Y-67055739D01*
X38768767Y-67284220D01*
X38735000Y-67365740D01*
X38701233Y-67284220D01*
X38548567Y-67055739D01*
X38354261Y-66861433D01*
X38125780Y-66708767D01*
X38044260Y-66675000D01*
X38125780Y-66641233D01*
X38354261Y-66488567D01*
X38548567Y-66294261D01*
X38701233Y-66065780D01*
X38732830Y-65989499D01*
X38739256Y-66007326D01*
X38800975Y-66122794D01*
X39040863Y-66189531D01*
X39825395Y-65405000D01*
X40184605Y-65405000D01*
X40969137Y-66189531D01*
X41209025Y-66122794D01*
X41325924Y-65874108D01*
X41392061Y-65607394D01*
X41404895Y-65332903D01*
X41363931Y-65061183D01*
X41270744Y-64802674D01*
X41209025Y-64687206D01*
X40969137Y-64620469D01*
X40184605Y-65405000D01*
X39825395Y-65405000D01*
X39040863Y-64620469D01*
X38800975Y-64687206D01*
X38735400Y-64826707D01*
X38701233Y-64744220D01*
X38548567Y-64515739D01*
X38354261Y-64321433D01*
X38261533Y-64259474D01*
X38349482Y-64250812D01*
X38469180Y-64214502D01*
X38579494Y-64155537D01*
X38676185Y-64076185D01*
X38755537Y-63979494D01*
X38814502Y-63869180D01*
X38850812Y-63749482D01*
X38859474Y-63661533D01*
X38921433Y-63754261D01*
X39115739Y-63948567D01*
X39344220Y-64101233D01*
X39420501Y-64132830D01*
X39402674Y-64139256D01*
X39287206Y-64200975D01*
X39220469Y-64440863D01*
X40005000Y-65225395D01*
X40789531Y-64440863D01*
X40722794Y-64200975D01*
X40583293Y-64135400D01*
X40665780Y-64101233D01*
X40894261Y-63948567D01*
X41088567Y-63754261D01*
X41241233Y-63525780D01*
X41346391Y-63271907D01*
X41400000Y-63002396D01*
X41400000Y-62727604D01*
X41346391Y-62458093D01*
X41241233Y-62204220D01*
X41088567Y-61975739D01*
X40894261Y-61781433D01*
X40665780Y-61628767D01*
X40411907Y-61523609D01*
X40142396Y-61470000D01*
X39867604Y-61470000D01*
X39598093Y-61523609D01*
X39344220Y-61628767D01*
X39115739Y-61781433D01*
X38921433Y-61975739D01*
X38859474Y-62068467D01*
X38850812Y-61980518D01*
X38814502Y-61860820D01*
X38755537Y-61750506D01*
X38676185Y-61653815D01*
X38579494Y-61574463D01*
X38469180Y-61515498D01*
X38417500Y-61499821D01*
X38417500Y-28969538D01*
X39764539Y-27622500D01*
X41067023Y-27622500D01*
X41069188Y-27644482D01*
G37*
%TD.AperFunction*%
%TD*%
M02*
