M48
; DRILL file {KiCad (5.1.9)-1} date 04/18/22 13:04:56
; FORMAT={-:-/ absolute / metric / decimal}
; #@! TF.CreationDate,2022-04-18T13:04:56-05:00
; #@! TF.GenerationSoftware,Kicad,Pcbnew,(5.1.9)-1
; #@! TF.FileFunction,Plated,1,2,PTH
FMAT,2
METRIC
T1C0.400
T2C0.800
T3C0.813
T4C0.890
T5C1.000
T6C1.200
T7C2.973
%
G90
G05
T1
X23.495Y-70.485
X24.765Y-74.93
X25.4Y-159.385
X31.75Y-95.885
X32.385Y-100.965
X36.195Y-101.6
X38.735Y-96.52
X41.275Y-92.71
X43.815Y-141.605
X45.72Y-81.915
X45.72Y-85.725
X45.72Y-97.79
X48.26Y-86.995
X48.895Y-79.375
X53.975Y-84.455
X54.61Y-67.945
X56.515Y-99.695
X56.515Y-147.32
X57.15Y-83.185
X59.055Y-67.31
X59.69Y-88.265
X59.69Y-120.65
X62.23Y-70.485
X62.23Y-113.665
X64.135Y-83.185
X65.405Y-73.025
X66.675Y-80.645
X67.945Y-79.375
X69.215Y-69.215
X69.85Y-85.725
X71.755Y-78.105
X73.025Y-71.755
X74.93Y-78.105
X75.565Y-76.835
X75.819Y-147.32
X76.835Y-64.135
X76.962Y-121.158
X77.47Y-113.665
X81.153Y-120.777
X84.455Y-92.71
X86.36Y-100.33
X87.63Y-95.885
X88.265Y-75.565
T2
X22.098Y-113.792
X29.718Y-113.792
X34.163Y-103.632
X34.163Y-108.712
X34.163Y-113.792
X34.163Y-118.872
X34.163Y-123.952
X34.163Y-129.032
X34.163Y-134.112
X34.163Y-139.192
X34.163Y-144.272
X34.163Y-149.352
X34.163Y-154.432
X41.783Y-103.632
X41.783Y-108.712
X41.783Y-113.792
X41.783Y-118.872
X41.783Y-123.952
X41.783Y-129.032
X41.783Y-134.112
X41.783Y-139.192
X41.783Y-144.272
X41.783Y-149.352
X41.783Y-154.432
X50.88Y-120.142
X50.927Y-108.712
X55.88Y-120.142
X55.927Y-108.712
X61.087Y-118.872
X61.595Y-108.712
X66.595Y-108.712
X68.707Y-118.872
X90.043Y-108.712
X90.043Y-113.712
T3
X73.533Y-108.712
X73.533Y-111.252
X73.533Y-113.792
X73.533Y-116.332
X81.153Y-108.712
X81.153Y-111.252
X81.153Y-113.792
X81.153Y-116.332
T4
X37.465Y-62.865
X37.465Y-65.405
X37.465Y-67.945
X37.465Y-70.485
X37.465Y-73.025
X37.465Y-75.565
X37.465Y-78.105
X37.465Y-80.645
X37.465Y-83.185
X37.465Y-85.725
X40.005Y-62.865
X40.005Y-65.405
X40.005Y-67.945
X40.005Y-70.485
X40.005Y-73.025
X40.005Y-75.565
X40.005Y-78.105
X40.005Y-80.645
X40.005Y-83.185
X40.005Y-85.725
X80.645Y-62.865
X80.645Y-65.405
X80.645Y-67.945
X80.645Y-70.485
X80.645Y-73.025
X80.645Y-75.565
X80.645Y-78.105
X80.645Y-80.645
X80.645Y-83.185
X80.645Y-85.725
X83.185Y-62.865
X83.185Y-65.405
X83.185Y-67.945
X83.185Y-70.485
X83.185Y-73.025
X83.185Y-75.565
X83.185Y-78.105
X83.185Y-80.645
X83.185Y-83.185
X83.185Y-85.725
T5
X39.243Y-159.512
X41.783Y-159.512
X42.545Y-17.145
X42.545Y-26.67
X45.085Y-17.145
X45.085Y-26.67
X47.625Y-17.145
X47.625Y-26.67
X50.165Y-17.145
X50.165Y-26.67
X52.705Y-17.145
X52.705Y-26.67
X55.245Y-17.145
X55.245Y-26.67
X57.785Y-17.145
X57.785Y-26.67
X60.325Y-17.145
X60.325Y-26.67
X62.865Y-17.145
X62.865Y-26.67
X65.405Y-17.145
X65.405Y-26.67
X67.945Y-17.145
X67.945Y-26.67
X70.485Y-17.145
X70.485Y-26.67
X73.025Y-17.145
X73.025Y-26.67
X75.565Y-17.145
X75.565Y-26.67
X75.908Y-137.287
X78.105Y-17.145
X78.105Y-26.67
X90.908Y-137.287
X95.25Y-70.485
X95.25Y-73.025
X95.25Y-75.565
T6
X55.875Y-143.652
X58.375Y-143.652
X60.875Y-143.652
T7
X53.975Y-136.652
X62.775Y-136.652
T0
M30
