%FSLAX45Y45*%
G04 Gerber Fmt 4.5, Leading zero omitted, Abs format (unit mm)*
G04 Created by KiCad (PCBNEW (5.1.9)-1) date 2022-04-18 13:04:57*
%MOMM*%
%LPD*%
G01*
G04 APERTURE LIST*
%TA.AperFunction,Profile*%
%ADD10C,0.100000*%
%TD*%
%ADD11C,0.200000*%
%ADD12C,0.300000*%
G04 APERTURE END LIST*
D10*
X10096500Y-1270000D02*
G75*
G02*
X10160000Y-1333500I0J-63500D01*
G01*
X1905000Y-1333500D02*
G75*
G02*
X1968500Y-1270000I63500J0D01*
G01*
X1968500Y-16510000D02*
G75*
G02*
X1905000Y-16446500I0J63500D01*
G01*
X10160000Y-16446500D02*
G75*
G02*
X10096500Y-16510000I-63500J0D01*
G01*
X10160000Y-1333500D02*
X10160000Y-16446500D01*
X1968500Y-1270000D02*
X10096500Y-1270000D01*
X1905000Y-16446500D02*
X1905000Y-1333500D01*
X10096500Y-16510000D02*
X1968500Y-16510000D01*
D11*
X2329500Y-7028500D02*
X2369500Y-7068500D01*
X2369500Y-7028500D02*
X2329500Y-7068500D01*
X2456500Y-7473000D02*
X2496500Y-7513000D01*
X2496500Y-7473000D02*
X2456500Y-7513000D01*
X2520000Y-15918500D02*
X2560000Y-15958500D01*
X2560000Y-15918500D02*
X2520000Y-15958500D01*
X3155000Y-9568500D02*
X3195000Y-9608500D01*
X3195000Y-9568500D02*
X3155000Y-9608500D01*
X3218500Y-10076500D02*
X3258500Y-10116500D01*
X3258500Y-10076500D02*
X3218500Y-10116500D01*
X3599500Y-10140000D02*
X3639500Y-10180000D01*
X3639500Y-10140000D02*
X3599500Y-10180000D01*
X3853500Y-9632000D02*
X3893500Y-9672000D01*
X3893500Y-9632000D02*
X3853500Y-9672000D01*
X4107500Y-9251000D02*
X4147500Y-9291000D01*
X4147500Y-9251000D02*
X4107500Y-9291000D01*
X4361500Y-14140500D02*
X4401500Y-14180500D01*
X4401500Y-14140500D02*
X4361500Y-14180500D01*
X4552000Y-8171500D02*
X4592000Y-8211500D01*
X4592000Y-8171500D02*
X4552000Y-8211500D01*
X4552000Y-8552500D02*
X4592000Y-8592500D01*
X4592000Y-8552500D02*
X4552000Y-8592500D01*
X4552000Y-9759000D02*
X4592000Y-9799000D01*
X4592000Y-9759000D02*
X4552000Y-9799000D01*
X4806000Y-8679500D02*
X4846000Y-8719500D01*
X4846000Y-8679500D02*
X4806000Y-8719500D01*
X4869500Y-7917500D02*
X4909500Y-7957500D01*
X4909500Y-7917500D02*
X4869500Y-7957500D01*
X5377500Y-8425500D02*
X5417500Y-8465500D01*
X5417500Y-8425500D02*
X5377500Y-8465500D01*
X5441000Y-6774500D02*
X5481000Y-6814500D01*
X5481000Y-6774500D02*
X5441000Y-6814500D01*
X5631500Y-9949500D02*
X5671500Y-9989500D01*
X5671500Y-9949500D02*
X5631500Y-9989500D01*
X5631500Y-14712000D02*
X5671500Y-14752000D01*
X5671500Y-14712000D02*
X5631500Y-14752000D01*
X5695000Y-8298500D02*
X5735000Y-8338500D01*
X5735000Y-8298500D02*
X5695000Y-8338500D01*
X5885500Y-6711000D02*
X5925500Y-6751000D01*
X5925500Y-6711000D02*
X5885500Y-6751000D01*
X5949000Y-8806500D02*
X5989000Y-8846500D01*
X5989000Y-8806500D02*
X5949000Y-8846500D01*
X5949000Y-12045000D02*
X5989000Y-12085000D01*
X5989000Y-12045000D02*
X5949000Y-12085000D01*
X6203000Y-7028500D02*
X6243000Y-7068500D01*
X6243000Y-7028500D02*
X6203000Y-7068500D01*
X6203000Y-11346500D02*
X6243000Y-11386500D01*
X6243000Y-11346500D02*
X6203000Y-11386500D01*
X6393500Y-8298500D02*
X6433500Y-8338500D01*
X6433500Y-8298500D02*
X6393500Y-8338500D01*
X6520500Y-7282500D02*
X6560500Y-7322500D01*
X6560500Y-7282500D02*
X6520500Y-7322500D01*
X6647500Y-8044500D02*
X6687500Y-8084500D01*
X6687500Y-8044500D02*
X6647500Y-8084500D01*
X6774500Y-7917500D02*
X6814500Y-7957500D01*
X6814500Y-7917500D02*
X6774500Y-7957500D01*
X6901500Y-6901500D02*
X6941500Y-6941500D01*
X6941500Y-6901500D02*
X6901500Y-6941500D01*
X6965000Y-8552500D02*
X7005000Y-8592500D01*
X7005000Y-8552500D02*
X6965000Y-8592500D01*
X7155500Y-7790500D02*
X7195500Y-7830500D01*
X7195500Y-7790500D02*
X7155500Y-7830500D01*
X7282500Y-7155500D02*
X7322500Y-7195500D01*
X7322500Y-7155500D02*
X7282500Y-7195500D01*
X7473000Y-7790500D02*
X7513000Y-7830500D01*
X7513000Y-7790500D02*
X7473000Y-7830500D01*
X7536500Y-7663500D02*
X7576500Y-7703500D01*
X7576500Y-7663500D02*
X7536500Y-7703500D01*
X7561900Y-14712000D02*
X7601900Y-14752000D01*
X7601900Y-14712000D02*
X7561900Y-14752000D01*
X7663500Y-6393500D02*
X7703500Y-6433500D01*
X7703500Y-6393500D02*
X7663500Y-6433500D01*
X7676200Y-12095800D02*
X7716200Y-12135800D01*
X7716200Y-12095800D02*
X7676200Y-12135800D01*
X7727000Y-11346500D02*
X7767000Y-11386500D01*
X7767000Y-11346500D02*
X7727000Y-11386500D01*
X8095300Y-12057700D02*
X8135300Y-12097700D01*
X8135300Y-12057700D02*
X8095300Y-12097700D01*
X8425500Y-9251000D02*
X8465500Y-9291000D01*
X8465500Y-9251000D02*
X8425500Y-9291000D01*
X8616000Y-10013000D02*
X8656000Y-10053000D01*
X8656000Y-10013000D02*
X8616000Y-10053000D01*
X8743000Y-9568500D02*
X8783000Y-9608500D01*
X8783000Y-9568500D02*
X8743000Y-9608500D01*
X8806500Y-7536500D02*
X8846500Y-7576500D01*
X8846500Y-7536500D02*
X8806500Y-7576500D01*
X2249800Y-11379200D02*
G75*
G03*
X2249800Y-11379200I-40000J0D01*
G01*
X3011800Y-11379200D02*
G75*
G03*
X3011800Y-11379200I-40000J0D01*
G01*
X3456300Y-10363200D02*
G75*
G03*
X3456300Y-10363200I-40000J0D01*
G01*
X3456300Y-10871200D02*
G75*
G03*
X3456300Y-10871200I-40000J0D01*
G01*
X3456300Y-11379200D02*
G75*
G03*
X3456300Y-11379200I-40000J0D01*
G01*
X3456300Y-11887200D02*
G75*
G03*
X3456300Y-11887200I-40000J0D01*
G01*
X3456300Y-12395200D02*
G75*
G03*
X3456300Y-12395200I-40000J0D01*
G01*
X3456300Y-12903200D02*
G75*
G03*
X3456300Y-12903200I-40000J0D01*
G01*
X3456300Y-13411200D02*
G75*
G03*
X3456300Y-13411200I-40000J0D01*
G01*
X3456300Y-13919200D02*
G75*
G03*
X3456300Y-13919200I-40000J0D01*
G01*
X3456300Y-14427200D02*
G75*
G03*
X3456300Y-14427200I-40000J0D01*
G01*
X3456300Y-14935200D02*
G75*
G03*
X3456300Y-14935200I-40000J0D01*
G01*
X3456300Y-15443200D02*
G75*
G03*
X3456300Y-15443200I-40000J0D01*
G01*
X4218300Y-10363200D02*
G75*
G03*
X4218300Y-10363200I-40000J0D01*
G01*
X4218300Y-10871200D02*
G75*
G03*
X4218300Y-10871200I-40000J0D01*
G01*
X4218300Y-11379200D02*
G75*
G03*
X4218300Y-11379200I-40000J0D01*
G01*
X4218300Y-11887200D02*
G75*
G03*
X4218300Y-11887200I-40000J0D01*
G01*
X4218300Y-12395200D02*
G75*
G03*
X4218300Y-12395200I-40000J0D01*
G01*
X4218300Y-12903200D02*
G75*
G03*
X4218300Y-12903200I-40000J0D01*
G01*
X4218300Y-13411200D02*
G75*
G03*
X4218300Y-13411200I-40000J0D01*
G01*
X4218300Y-13919200D02*
G75*
G03*
X4218300Y-13919200I-40000J0D01*
G01*
X4218300Y-14427200D02*
G75*
G03*
X4218300Y-14427200I-40000J0D01*
G01*
X4218300Y-14935200D02*
G75*
G03*
X4218300Y-14935200I-40000J0D01*
G01*
X4218300Y-15443200D02*
G75*
G03*
X4218300Y-15443200I-40000J0D01*
G01*
X5128000Y-12014200D02*
G75*
G03*
X5128000Y-12014200I-40000J0D01*
G01*
X5132700Y-10871200D02*
G75*
G03*
X5132700Y-10871200I-40000J0D01*
G01*
X5628000Y-12014200D02*
G75*
G03*
X5628000Y-12014200I-40000J0D01*
G01*
X5632700Y-10871200D02*
G75*
G03*
X5632700Y-10871200I-40000J0D01*
G01*
X6148700Y-11887200D02*
G75*
G03*
X6148700Y-11887200I-40000J0D01*
G01*
X6199500Y-10871200D02*
G75*
G03*
X6199500Y-10871200I-40000J0D01*
G01*
X6699500Y-10871200D02*
G75*
G03*
X6699500Y-10871200I-40000J0D01*
G01*
X6910700Y-11887200D02*
G75*
G03*
X6910700Y-11887200I-40000J0D01*
G01*
X9044300Y-10871200D02*
G75*
G03*
X9044300Y-10871200I-40000J0D01*
G01*
X9044300Y-11371200D02*
G75*
G03*
X9044300Y-11371200I-40000J0D01*
G01*
X7353300Y-10830560D02*
X7353300Y-10911840D01*
X7312660Y-10871200D02*
X7393940Y-10871200D01*
X7353300Y-11084560D02*
X7353300Y-11165840D01*
X7312660Y-11125200D02*
X7393940Y-11125200D01*
X7353300Y-11338560D02*
X7353300Y-11419840D01*
X7312660Y-11379200D02*
X7393940Y-11379200D01*
X7353300Y-11592560D02*
X7353300Y-11673840D01*
X7312660Y-11633200D02*
X7393940Y-11633200D01*
X8115300Y-10830560D02*
X8115300Y-10911840D01*
X8074660Y-10871200D02*
X8155940Y-10871200D01*
X8115300Y-11084560D02*
X8115300Y-11165840D01*
X8074660Y-11125200D02*
X8155940Y-11125200D01*
X8115300Y-11338560D02*
X8115300Y-11419840D01*
X8074660Y-11379200D02*
X8155940Y-11379200D01*
X8115300Y-11592560D02*
X8115300Y-11673840D01*
X8074660Y-11633200D02*
X8155940Y-11633200D01*
X3777967Y-6317967D02*
X3777967Y-6255033D01*
X3715033Y-6255033D01*
X3715033Y-6317967D01*
X3777967Y-6317967D01*
X3777967Y-6571967D02*
X3777967Y-6509033D01*
X3715033Y-6509033D01*
X3715033Y-6571967D01*
X3777967Y-6571967D01*
X3777967Y-6825967D02*
X3777967Y-6763033D01*
X3715033Y-6763033D01*
X3715033Y-6825967D01*
X3777967Y-6825967D01*
X3777967Y-7079967D02*
X3777967Y-7017033D01*
X3715033Y-7017033D01*
X3715033Y-7079967D01*
X3777967Y-7079967D01*
X3777967Y-7333967D02*
X3777967Y-7271033D01*
X3715033Y-7271033D01*
X3715033Y-7333967D01*
X3777967Y-7333967D01*
X3777967Y-7587967D02*
X3777967Y-7525033D01*
X3715033Y-7525033D01*
X3715033Y-7587967D01*
X3777967Y-7587967D01*
X3777967Y-7841967D02*
X3777967Y-7779033D01*
X3715033Y-7779033D01*
X3715033Y-7841967D01*
X3777967Y-7841967D01*
X3777967Y-8095967D02*
X3777967Y-8033033D01*
X3715033Y-8033033D01*
X3715033Y-8095967D01*
X3777967Y-8095967D01*
X3777967Y-8349967D02*
X3777967Y-8287033D01*
X3715033Y-8287033D01*
X3715033Y-8349967D01*
X3777967Y-8349967D01*
X3777967Y-8603967D02*
X3777967Y-8541033D01*
X3715033Y-8541033D01*
X3715033Y-8603967D01*
X3777967Y-8603967D01*
X4031967Y-6317967D02*
X4031967Y-6255033D01*
X3969033Y-6255033D01*
X3969033Y-6317967D01*
X4031967Y-6317967D01*
X4031967Y-6571967D02*
X4031967Y-6509033D01*
X3969033Y-6509033D01*
X3969033Y-6571967D01*
X4031967Y-6571967D01*
X4031967Y-6825967D02*
X4031967Y-6763033D01*
X3969033Y-6763033D01*
X3969033Y-6825967D01*
X4031967Y-6825967D01*
X4031967Y-7079967D02*
X4031967Y-7017033D01*
X3969033Y-7017033D01*
X3969033Y-7079967D01*
X4031967Y-7079967D01*
X4031967Y-7333967D02*
X4031967Y-7271033D01*
X3969033Y-7271033D01*
X3969033Y-7333967D01*
X4031967Y-7333967D01*
X4031967Y-7587967D02*
X4031967Y-7525033D01*
X3969033Y-7525033D01*
X3969033Y-7587967D01*
X4031967Y-7587967D01*
X4031967Y-7841967D02*
X4031967Y-7779033D01*
X3969033Y-7779033D01*
X3969033Y-7841967D01*
X4031967Y-7841967D01*
X4031967Y-8095967D02*
X4031967Y-8033033D01*
X3969033Y-8033033D01*
X3969033Y-8095967D01*
X4031967Y-8095967D01*
X4031967Y-8349967D02*
X4031967Y-8287033D01*
X3969033Y-8287033D01*
X3969033Y-8349967D01*
X4031967Y-8349967D01*
X4031967Y-8603967D02*
X4031967Y-8541033D01*
X3969033Y-8541033D01*
X3969033Y-8603967D01*
X4031967Y-8603967D01*
X8095967Y-6317967D02*
X8095967Y-6255033D01*
X8033033Y-6255033D01*
X8033033Y-6317967D01*
X8095967Y-6317967D01*
X8095967Y-6571967D02*
X8095967Y-6509033D01*
X8033033Y-6509033D01*
X8033033Y-6571967D01*
X8095967Y-6571967D01*
X8095967Y-6825967D02*
X8095967Y-6763033D01*
X8033033Y-6763033D01*
X8033033Y-6825967D01*
X8095967Y-6825967D01*
X8095967Y-7079967D02*
X8095967Y-7017033D01*
X8033033Y-7017033D01*
X8033033Y-7079967D01*
X8095967Y-7079967D01*
X8095967Y-7333967D02*
X8095967Y-7271033D01*
X8033033Y-7271033D01*
X8033033Y-7333967D01*
X8095967Y-7333967D01*
X8095967Y-7587967D02*
X8095967Y-7525033D01*
X8033033Y-7525033D01*
X8033033Y-7587967D01*
X8095967Y-7587967D01*
X8095967Y-7841967D02*
X8095967Y-7779033D01*
X8033033Y-7779033D01*
X8033033Y-7841967D01*
X8095967Y-7841967D01*
X8095967Y-8095967D02*
X8095967Y-8033033D01*
X8033033Y-8033033D01*
X8033033Y-8095967D01*
X8095967Y-8095967D01*
X8095967Y-8349967D02*
X8095967Y-8287033D01*
X8033033Y-8287033D01*
X8033033Y-8349967D01*
X8095967Y-8349967D01*
X8095967Y-8603967D02*
X8095967Y-8541033D01*
X8033033Y-8541033D01*
X8033033Y-8603967D01*
X8095967Y-8603967D01*
X8349967Y-6317967D02*
X8349967Y-6255033D01*
X8287033Y-6255033D01*
X8287033Y-6317967D01*
X8349967Y-6317967D01*
X8349967Y-6571967D02*
X8349967Y-6509033D01*
X8287033Y-6509033D01*
X8287033Y-6571967D01*
X8349967Y-6571967D01*
X8349967Y-6825967D02*
X8349967Y-6763033D01*
X8287033Y-6763033D01*
X8287033Y-6825967D01*
X8349967Y-6825967D01*
X8349967Y-7079967D02*
X8349967Y-7017033D01*
X8287033Y-7017033D01*
X8287033Y-7079967D01*
X8349967Y-7079967D01*
X8349967Y-7333967D02*
X8349967Y-7271033D01*
X8287033Y-7271033D01*
X8287033Y-7333967D01*
X8349967Y-7333967D01*
X8349967Y-7587967D02*
X8349967Y-7525033D01*
X8287033Y-7525033D01*
X8287033Y-7587967D01*
X8349967Y-7587967D01*
X8349967Y-7841967D02*
X8349967Y-7779033D01*
X8287033Y-7779033D01*
X8287033Y-7841967D01*
X8349967Y-7841967D01*
X8349967Y-8095967D02*
X8349967Y-8033033D01*
X8287033Y-8033033D01*
X8287033Y-8095967D01*
X8349967Y-8095967D01*
X8349967Y-8349967D02*
X8349967Y-8287033D01*
X8287033Y-8287033D01*
X8287033Y-8349967D01*
X8349967Y-8349967D01*
X8349967Y-8603967D02*
X8349967Y-8541033D01*
X8287033Y-8541033D01*
X8287033Y-8603967D01*
X8349967Y-8603967D01*
X3924300Y-16001200D02*
X3974300Y-15951200D01*
X3924300Y-15901200D01*
X3874300Y-15951200D01*
X3924300Y-16001200D01*
X4178300Y-16001200D02*
X4228300Y-15951200D01*
X4178300Y-15901200D01*
X4128300Y-15951200D01*
X4178300Y-16001200D01*
X4254500Y-1764500D02*
X4304500Y-1714500D01*
X4254500Y-1664500D01*
X4204500Y-1714500D01*
X4254500Y-1764500D01*
X4254500Y-2717000D02*
X4304500Y-2667000D01*
X4254500Y-2617000D01*
X4204500Y-2667000D01*
X4254500Y-2717000D01*
X4508500Y-1764500D02*
X4558500Y-1714500D01*
X4508500Y-1664500D01*
X4458500Y-1714500D01*
X4508500Y-1764500D01*
X4508500Y-2717000D02*
X4558500Y-2667000D01*
X4508500Y-2617000D01*
X4458500Y-2667000D01*
X4508500Y-2717000D01*
X4762500Y-1764500D02*
X4812500Y-1714500D01*
X4762500Y-1664500D01*
X4712500Y-1714500D01*
X4762500Y-1764500D01*
X4762500Y-2717000D02*
X4812500Y-2667000D01*
X4762500Y-2617000D01*
X4712500Y-2667000D01*
X4762500Y-2717000D01*
X5016500Y-1764500D02*
X5066500Y-1714500D01*
X5016500Y-1664500D01*
X4966500Y-1714500D01*
X5016500Y-1764500D01*
X5016500Y-2717000D02*
X5066500Y-2667000D01*
X5016500Y-2617000D01*
X4966500Y-2667000D01*
X5016500Y-2717000D01*
X5270500Y-1764500D02*
X5320500Y-1714500D01*
X5270500Y-1664500D01*
X5220500Y-1714500D01*
X5270500Y-1764500D01*
X5270500Y-2717000D02*
X5320500Y-2667000D01*
X5270500Y-2617000D01*
X5220500Y-2667000D01*
X5270500Y-2717000D01*
X5524500Y-1764500D02*
X5574500Y-1714500D01*
X5524500Y-1664500D01*
X5474500Y-1714500D01*
X5524500Y-1764500D01*
X5524500Y-2717000D02*
X5574500Y-2667000D01*
X5524500Y-2617000D01*
X5474500Y-2667000D01*
X5524500Y-2717000D01*
X5778500Y-1764500D02*
X5828500Y-1714500D01*
X5778500Y-1664500D01*
X5728500Y-1714500D01*
X5778500Y-1764500D01*
X5778500Y-2717000D02*
X5828500Y-2667000D01*
X5778500Y-2617000D01*
X5728500Y-2667000D01*
X5778500Y-2717000D01*
X6032500Y-1764500D02*
X6082500Y-1714500D01*
X6032500Y-1664500D01*
X5982500Y-1714500D01*
X6032500Y-1764500D01*
X6032500Y-2717000D02*
X6082500Y-2667000D01*
X6032500Y-2617000D01*
X5982500Y-2667000D01*
X6032500Y-2717000D01*
X6286500Y-1764500D02*
X6336500Y-1714500D01*
X6286500Y-1664500D01*
X6236500Y-1714500D01*
X6286500Y-1764500D01*
X6286500Y-2717000D02*
X6336500Y-2667000D01*
X6286500Y-2617000D01*
X6236500Y-2667000D01*
X6286500Y-2717000D01*
X6540500Y-1764500D02*
X6590500Y-1714500D01*
X6540500Y-1664500D01*
X6490500Y-1714500D01*
X6540500Y-1764500D01*
X6540500Y-2717000D02*
X6590500Y-2667000D01*
X6540500Y-2617000D01*
X6490500Y-2667000D01*
X6540500Y-2717000D01*
X6794500Y-1764500D02*
X6844500Y-1714500D01*
X6794500Y-1664500D01*
X6744500Y-1714500D01*
X6794500Y-1764500D01*
X6794500Y-2717000D02*
X6844500Y-2667000D01*
X6794500Y-2617000D01*
X6744500Y-2667000D01*
X6794500Y-2717000D01*
X7048500Y-1764500D02*
X7098500Y-1714500D01*
X7048500Y-1664500D01*
X6998500Y-1714500D01*
X7048500Y-1764500D01*
X7048500Y-2717000D02*
X7098500Y-2667000D01*
X7048500Y-2617000D01*
X6998500Y-2667000D01*
X7048500Y-2717000D01*
X7302500Y-1764500D02*
X7352500Y-1714500D01*
X7302500Y-1664500D01*
X7252500Y-1714500D01*
X7302500Y-1764500D01*
X7302500Y-2717000D02*
X7352500Y-2667000D01*
X7302500Y-2617000D01*
X7252500Y-2667000D01*
X7302500Y-2717000D01*
X7556500Y-1764500D02*
X7606500Y-1714500D01*
X7556500Y-1664500D01*
X7506500Y-1714500D01*
X7556500Y-1764500D01*
X7556500Y-2717000D02*
X7606500Y-2667000D01*
X7556500Y-2617000D01*
X7506500Y-2667000D01*
X7556500Y-2717000D01*
X7590800Y-13778700D02*
X7640800Y-13728700D01*
X7590800Y-13678700D01*
X7540800Y-13728700D01*
X7590800Y-13778700D01*
X7810500Y-1764500D02*
X7860500Y-1714500D01*
X7810500Y-1664500D01*
X7760500Y-1714500D01*
X7810500Y-1764500D01*
X7810500Y-2717000D02*
X7860500Y-2667000D01*
X7810500Y-2617000D01*
X7760500Y-2667000D01*
X7810500Y-2717000D01*
X9090800Y-13778700D02*
X9140800Y-13728700D01*
X9090800Y-13678700D01*
X9040800Y-13728700D01*
X9090800Y-13778700D01*
X9525000Y-7098500D02*
X9575000Y-7048500D01*
X9525000Y-6998500D01*
X9475000Y-7048500D01*
X9525000Y-7098500D01*
X9525000Y-7352500D02*
X9575000Y-7302500D01*
X9525000Y-7252500D01*
X9475000Y-7302500D01*
X9525000Y-7352500D01*
X9525000Y-7606500D02*
X9575000Y-7556500D01*
X9525000Y-7506500D01*
X9475000Y-7556500D01*
X9525000Y-7606500D01*
X5527500Y-14305200D02*
X5647500Y-14425200D01*
X5647500Y-14305200D02*
X5527500Y-14425200D01*
X5647500Y-14365200D02*
G75*
G03*
X5647500Y-14365200I-60000J0D01*
G01*
X5777500Y-14305200D02*
X5897500Y-14425200D01*
X5897500Y-14305200D02*
X5777500Y-14425200D01*
X5897500Y-14365200D02*
G75*
G03*
X5897500Y-14365200I-60000J0D01*
G01*
X6027500Y-14305200D02*
X6147500Y-14425200D01*
X6147500Y-14305200D02*
X6027500Y-14425200D01*
X6147500Y-14365200D02*
G75*
G03*
X6147500Y-14365200I-60000J0D01*
G01*
X5248840Y-13516540D02*
X5546160Y-13813860D01*
X5546160Y-13516540D02*
X5248840Y-13813860D01*
X5397500Y-13516540D02*
X5397500Y-13813860D01*
X5248840Y-13665200D02*
X5546160Y-13665200D01*
X6128840Y-13516540D02*
X6426160Y-13813860D01*
X6426160Y-13516540D02*
X6128840Y-13813860D01*
X6277500Y-13516540D02*
X6277500Y-13813860D01*
X6128840Y-13665200D02*
X6426160Y-13665200D01*
D12*
X2186428Y-16980714D02*
X2186428Y-16680714D01*
X2257857Y-16680714D01*
X2300714Y-16695000D01*
X2329286Y-16723571D01*
X2343571Y-16752143D01*
X2357857Y-16809286D01*
X2357857Y-16852143D01*
X2343571Y-16909286D01*
X2329286Y-16937857D01*
X2300714Y-16966429D01*
X2257857Y-16980714D01*
X2186428Y-16980714D01*
X2486428Y-16980714D02*
X2486428Y-16780714D01*
X2486428Y-16837857D02*
X2500714Y-16809286D01*
X2515000Y-16795000D01*
X2543571Y-16780714D01*
X2572143Y-16780714D01*
X2672143Y-16980714D02*
X2672143Y-16780714D01*
X2672143Y-16680714D02*
X2657857Y-16695000D01*
X2672143Y-16709286D01*
X2686428Y-16695000D01*
X2672143Y-16680714D01*
X2672143Y-16709286D01*
X2857857Y-16980714D02*
X2829286Y-16966429D01*
X2815000Y-16937857D01*
X2815000Y-16680714D01*
X3015000Y-16980714D02*
X2986428Y-16966429D01*
X2972143Y-16937857D01*
X2972143Y-16680714D01*
X3357857Y-16980714D02*
X3357857Y-16680714D01*
X3457857Y-16895000D01*
X3557857Y-16680714D01*
X3557857Y-16980714D01*
X3829286Y-16980714D02*
X3829286Y-16823572D01*
X3815000Y-16795000D01*
X3786428Y-16780714D01*
X3729286Y-16780714D01*
X3700714Y-16795000D01*
X3829286Y-16966429D02*
X3800714Y-16980714D01*
X3729286Y-16980714D01*
X3700714Y-16966429D01*
X3686428Y-16937857D01*
X3686428Y-16909286D01*
X3700714Y-16880714D01*
X3729286Y-16866429D01*
X3800714Y-16866429D01*
X3829286Y-16852143D01*
X3972143Y-16780714D02*
X3972143Y-17080714D01*
X3972143Y-16795000D02*
X4000714Y-16780714D01*
X4057857Y-16780714D01*
X4086428Y-16795000D01*
X4100714Y-16809286D01*
X4115000Y-16837857D01*
X4115000Y-16923572D01*
X4100714Y-16952143D01*
X4086428Y-16966429D01*
X4057857Y-16980714D01*
X4000714Y-16980714D01*
X3972143Y-16966429D01*
X4243571Y-16952143D02*
X4257857Y-16966429D01*
X4243571Y-16980714D01*
X4229286Y-16966429D01*
X4243571Y-16952143D01*
X4243571Y-16980714D01*
X4243571Y-16795000D02*
X4257857Y-16809286D01*
X4243571Y-16823572D01*
X4229286Y-16809286D01*
X4243571Y-16795000D01*
X4243571Y-16823572D01*
X1860000Y-17455000D02*
X1900000Y-17495000D01*
X1900000Y-17455000D02*
X1860000Y-17495000D01*
X2243571Y-17310714D02*
X2272143Y-17310714D01*
X2300714Y-17325000D01*
X2315000Y-17339286D01*
X2329286Y-17367857D01*
X2343571Y-17425000D01*
X2343571Y-17496429D01*
X2329286Y-17553572D01*
X2315000Y-17582143D01*
X2300714Y-17596429D01*
X2272143Y-17610714D01*
X2243571Y-17610714D01*
X2215000Y-17596429D01*
X2200714Y-17582143D01*
X2186428Y-17553572D01*
X2172143Y-17496429D01*
X2172143Y-17425000D01*
X2186428Y-17367857D01*
X2200714Y-17339286D01*
X2215000Y-17325000D01*
X2243571Y-17310714D01*
X2472143Y-17582143D02*
X2486428Y-17596429D01*
X2472143Y-17610714D01*
X2457857Y-17596429D01*
X2472143Y-17582143D01*
X2472143Y-17610714D01*
X2743571Y-17410714D02*
X2743571Y-17610714D01*
X2672143Y-17296429D02*
X2600714Y-17510714D01*
X2786428Y-17510714D01*
X2957857Y-17310714D02*
X2986428Y-17310714D01*
X3015000Y-17325000D01*
X3029286Y-17339286D01*
X3043571Y-17367857D01*
X3057857Y-17425000D01*
X3057857Y-17496429D01*
X3043571Y-17553572D01*
X3029286Y-17582143D01*
X3015000Y-17596429D01*
X2986428Y-17610714D01*
X2957857Y-17610714D01*
X2929286Y-17596429D01*
X2915000Y-17582143D01*
X2900714Y-17553572D01*
X2886428Y-17496429D01*
X2886428Y-17425000D01*
X2900714Y-17367857D01*
X2915000Y-17339286D01*
X2929286Y-17325000D01*
X2957857Y-17310714D01*
X3186428Y-17610714D02*
X3186428Y-17410714D01*
X3186428Y-17439286D02*
X3200714Y-17425000D01*
X3229286Y-17410714D01*
X3272143Y-17410714D01*
X3300714Y-17425000D01*
X3315000Y-17453572D01*
X3315000Y-17610714D01*
X3315000Y-17453572D02*
X3329286Y-17425000D01*
X3357857Y-17410714D01*
X3400714Y-17410714D01*
X3429286Y-17425000D01*
X3443571Y-17453572D01*
X3443571Y-17610714D01*
X3586428Y-17610714D02*
X3586428Y-17410714D01*
X3586428Y-17439286D02*
X3600714Y-17425000D01*
X3629286Y-17410714D01*
X3672143Y-17410714D01*
X3700714Y-17425000D01*
X3715000Y-17453572D01*
X3715000Y-17610714D01*
X3715000Y-17453572D02*
X3729286Y-17425000D01*
X3757857Y-17410714D01*
X3800714Y-17410714D01*
X3829286Y-17425000D01*
X3843571Y-17453572D01*
X3843571Y-17610714D01*
X4429286Y-17296429D02*
X4172143Y-17682143D01*
X4815000Y-17310714D02*
X4843571Y-17310714D01*
X4872143Y-17325000D01*
X4886428Y-17339286D01*
X4900714Y-17367857D01*
X4915000Y-17425000D01*
X4915000Y-17496429D01*
X4900714Y-17553572D01*
X4886428Y-17582143D01*
X4872143Y-17596429D01*
X4843571Y-17610714D01*
X4815000Y-17610714D01*
X4786428Y-17596429D01*
X4772143Y-17582143D01*
X4757857Y-17553572D01*
X4743571Y-17496429D01*
X4743571Y-17425000D01*
X4757857Y-17367857D01*
X4772143Y-17339286D01*
X4786428Y-17325000D01*
X4815000Y-17310714D01*
X5043571Y-17582143D02*
X5057857Y-17596429D01*
X5043571Y-17610714D01*
X5029286Y-17596429D01*
X5043571Y-17582143D01*
X5043571Y-17610714D01*
X5243571Y-17310714D02*
X5272143Y-17310714D01*
X5300714Y-17325000D01*
X5315000Y-17339286D01*
X5329286Y-17367857D01*
X5343571Y-17425000D01*
X5343571Y-17496429D01*
X5329286Y-17553572D01*
X5315000Y-17582143D01*
X5300714Y-17596429D01*
X5272143Y-17610714D01*
X5243571Y-17610714D01*
X5215000Y-17596429D01*
X5200714Y-17582143D01*
X5186428Y-17553572D01*
X5172143Y-17496429D01*
X5172143Y-17425000D01*
X5186428Y-17367857D01*
X5200714Y-17339286D01*
X5215000Y-17325000D01*
X5243571Y-17310714D01*
X5629286Y-17610714D02*
X5457857Y-17610714D01*
X5543571Y-17610714D02*
X5543571Y-17310714D01*
X5515000Y-17353572D01*
X5486428Y-17382143D01*
X5457857Y-17396429D01*
X5886428Y-17310714D02*
X5829286Y-17310714D01*
X5800714Y-17325000D01*
X5786428Y-17339286D01*
X5757857Y-17382143D01*
X5743571Y-17439286D01*
X5743571Y-17553572D01*
X5757857Y-17582143D01*
X5772143Y-17596429D01*
X5800714Y-17610714D01*
X5857857Y-17610714D01*
X5886428Y-17596429D01*
X5900714Y-17582143D01*
X5915000Y-17553572D01*
X5915000Y-17482143D01*
X5900714Y-17453572D01*
X5886428Y-17439286D01*
X5857857Y-17425000D01*
X5800714Y-17425000D01*
X5772143Y-17439286D01*
X5757857Y-17453572D01*
X5743571Y-17482143D01*
X6029286Y-17310714D02*
X6029286Y-17367857D01*
X6143571Y-17310714D02*
X6143571Y-17367857D01*
X6586428Y-17725000D02*
X6572143Y-17710714D01*
X6543571Y-17667857D01*
X6529286Y-17639286D01*
X6515000Y-17596429D01*
X6500714Y-17525000D01*
X6500714Y-17467857D01*
X6515000Y-17396429D01*
X6529286Y-17353572D01*
X6543571Y-17325000D01*
X6572143Y-17282143D01*
X6586428Y-17267857D01*
X6829286Y-17410714D02*
X6829286Y-17610714D01*
X6757857Y-17296429D02*
X6686428Y-17510714D01*
X6872143Y-17510714D01*
X6957857Y-17310714D02*
X7143571Y-17310714D01*
X7043571Y-17425000D01*
X7086428Y-17425000D01*
X7115000Y-17439286D01*
X7129286Y-17453572D01*
X7143571Y-17482143D01*
X7143571Y-17553572D01*
X7129286Y-17582143D01*
X7115000Y-17596429D01*
X7086428Y-17610714D01*
X7000714Y-17610714D01*
X6972143Y-17596429D01*
X6957857Y-17582143D01*
X7500714Y-17610714D02*
X7500714Y-17310714D01*
X7629286Y-17610714D02*
X7629286Y-17453572D01*
X7615000Y-17425000D01*
X7586428Y-17410714D01*
X7543571Y-17410714D01*
X7515000Y-17425000D01*
X7500714Y-17439286D01*
X7815000Y-17610714D02*
X7786428Y-17596429D01*
X7772143Y-17582143D01*
X7757857Y-17553572D01*
X7757857Y-17467857D01*
X7772143Y-17439286D01*
X7786428Y-17425000D01*
X7815000Y-17410714D01*
X7857857Y-17410714D01*
X7886428Y-17425000D01*
X7900714Y-17439286D01*
X7915000Y-17467857D01*
X7915000Y-17553572D01*
X7900714Y-17582143D01*
X7886428Y-17596429D01*
X7857857Y-17610714D01*
X7815000Y-17610714D01*
X8086428Y-17610714D02*
X8057857Y-17596429D01*
X8043571Y-17567857D01*
X8043571Y-17310714D01*
X8315000Y-17596429D02*
X8286428Y-17610714D01*
X8229286Y-17610714D01*
X8200714Y-17596429D01*
X8186428Y-17567857D01*
X8186428Y-17453572D01*
X8200714Y-17425000D01*
X8229286Y-17410714D01*
X8286428Y-17410714D01*
X8315000Y-17425000D01*
X8329286Y-17453572D01*
X8329286Y-17482143D01*
X8186428Y-17510714D01*
X8443571Y-17596429D02*
X8472143Y-17610714D01*
X8529286Y-17610714D01*
X8557857Y-17596429D01*
X8572143Y-17567857D01*
X8572143Y-17553572D01*
X8557857Y-17525000D01*
X8529286Y-17510714D01*
X8486428Y-17510714D01*
X8457857Y-17496429D01*
X8443571Y-17467857D01*
X8443571Y-17453572D01*
X8457857Y-17425000D01*
X8486428Y-17410714D01*
X8529286Y-17410714D01*
X8557857Y-17425000D01*
X8672143Y-17725000D02*
X8686428Y-17710714D01*
X8715000Y-17667857D01*
X8729286Y-17639286D01*
X8743571Y-17596429D01*
X8757857Y-17525000D01*
X8757857Y-17467857D01*
X8743571Y-17396429D01*
X8729286Y-17353572D01*
X8715000Y-17325000D01*
X8686428Y-17282143D01*
X8672143Y-17267857D01*
X1900000Y-17871000D02*
G75*
G03*
X1900000Y-17871000I-40000J0D01*
G01*
X2243571Y-17706714D02*
X2272143Y-17706714D01*
X2300714Y-17721000D01*
X2315000Y-17735286D01*
X2329286Y-17763857D01*
X2343571Y-17821000D01*
X2343571Y-17892429D01*
X2329286Y-17949572D01*
X2315000Y-17978143D01*
X2300714Y-17992429D01*
X2272143Y-18006714D01*
X2243571Y-18006714D01*
X2215000Y-17992429D01*
X2200714Y-17978143D01*
X2186428Y-17949572D01*
X2172143Y-17892429D01*
X2172143Y-17821000D01*
X2186428Y-17763857D01*
X2200714Y-17735286D01*
X2215000Y-17721000D01*
X2243571Y-17706714D01*
X2472143Y-17978143D02*
X2486428Y-17992429D01*
X2472143Y-18006714D01*
X2457857Y-17992429D01*
X2472143Y-17978143D01*
X2472143Y-18006714D01*
X2657857Y-17835286D02*
X2629286Y-17821000D01*
X2615000Y-17806714D01*
X2600714Y-17778143D01*
X2600714Y-17763857D01*
X2615000Y-17735286D01*
X2629286Y-17721000D01*
X2657857Y-17706714D01*
X2715000Y-17706714D01*
X2743571Y-17721000D01*
X2757857Y-17735286D01*
X2772143Y-17763857D01*
X2772143Y-17778143D01*
X2757857Y-17806714D01*
X2743571Y-17821000D01*
X2715000Y-17835286D01*
X2657857Y-17835286D01*
X2629286Y-17849572D01*
X2615000Y-17863857D01*
X2600714Y-17892429D01*
X2600714Y-17949572D01*
X2615000Y-17978143D01*
X2629286Y-17992429D01*
X2657857Y-18006714D01*
X2715000Y-18006714D01*
X2743571Y-17992429D01*
X2757857Y-17978143D01*
X2772143Y-17949572D01*
X2772143Y-17892429D01*
X2757857Y-17863857D01*
X2743571Y-17849572D01*
X2715000Y-17835286D01*
X2957857Y-17706714D02*
X2986428Y-17706714D01*
X3015000Y-17721000D01*
X3029286Y-17735286D01*
X3043571Y-17763857D01*
X3057857Y-17821000D01*
X3057857Y-17892429D01*
X3043571Y-17949572D01*
X3029286Y-17978143D01*
X3015000Y-17992429D01*
X2986428Y-18006714D01*
X2957857Y-18006714D01*
X2929286Y-17992429D01*
X2915000Y-17978143D01*
X2900714Y-17949572D01*
X2886428Y-17892429D01*
X2886428Y-17821000D01*
X2900714Y-17763857D01*
X2915000Y-17735286D01*
X2929286Y-17721000D01*
X2957857Y-17706714D01*
X3186428Y-18006714D02*
X3186428Y-17806714D01*
X3186428Y-17835286D02*
X3200714Y-17821000D01*
X3229286Y-17806714D01*
X3272143Y-17806714D01*
X3300714Y-17821000D01*
X3315000Y-17849572D01*
X3315000Y-18006714D01*
X3315000Y-17849572D02*
X3329286Y-17821000D01*
X3357857Y-17806714D01*
X3400714Y-17806714D01*
X3429286Y-17821000D01*
X3443571Y-17849572D01*
X3443571Y-18006714D01*
X3586428Y-18006714D02*
X3586428Y-17806714D01*
X3586428Y-17835286D02*
X3600714Y-17821000D01*
X3629286Y-17806714D01*
X3672143Y-17806714D01*
X3700714Y-17821000D01*
X3715000Y-17849572D01*
X3715000Y-18006714D01*
X3715000Y-17849572D02*
X3729286Y-17821000D01*
X3757857Y-17806714D01*
X3800714Y-17806714D01*
X3829286Y-17821000D01*
X3843571Y-17849572D01*
X3843571Y-18006714D01*
X4429286Y-17692429D02*
X4172143Y-18078143D01*
X4815000Y-17706714D02*
X4843571Y-17706714D01*
X4872143Y-17721000D01*
X4886428Y-17735286D01*
X4900714Y-17763857D01*
X4915000Y-17821000D01*
X4915000Y-17892429D01*
X4900714Y-17949572D01*
X4886428Y-17978143D01*
X4872143Y-17992429D01*
X4843571Y-18006714D01*
X4815000Y-18006714D01*
X4786428Y-17992429D01*
X4772143Y-17978143D01*
X4757857Y-17949572D01*
X4743571Y-17892429D01*
X4743571Y-17821000D01*
X4757857Y-17763857D01*
X4772143Y-17735286D01*
X4786428Y-17721000D01*
X4815000Y-17706714D01*
X5043571Y-17978143D02*
X5057857Y-17992429D01*
X5043571Y-18006714D01*
X5029286Y-17992429D01*
X5043571Y-17978143D01*
X5043571Y-18006714D01*
X5243571Y-17706714D02*
X5272143Y-17706714D01*
X5300714Y-17721000D01*
X5315000Y-17735286D01*
X5329286Y-17763857D01*
X5343571Y-17821000D01*
X5343571Y-17892429D01*
X5329286Y-17949572D01*
X5315000Y-17978143D01*
X5300714Y-17992429D01*
X5272143Y-18006714D01*
X5243571Y-18006714D01*
X5215000Y-17992429D01*
X5200714Y-17978143D01*
X5186428Y-17949572D01*
X5172143Y-17892429D01*
X5172143Y-17821000D01*
X5186428Y-17763857D01*
X5200714Y-17735286D01*
X5215000Y-17721000D01*
X5243571Y-17706714D01*
X5443571Y-17706714D02*
X5629286Y-17706714D01*
X5529286Y-17821000D01*
X5572143Y-17821000D01*
X5600714Y-17835286D01*
X5615000Y-17849572D01*
X5629286Y-17878143D01*
X5629286Y-17949572D01*
X5615000Y-17978143D01*
X5600714Y-17992429D01*
X5572143Y-18006714D01*
X5486428Y-18006714D01*
X5457857Y-17992429D01*
X5443571Y-17978143D01*
X5915000Y-18006714D02*
X5743571Y-18006714D01*
X5829286Y-18006714D02*
X5829286Y-17706714D01*
X5800714Y-17749572D01*
X5772143Y-17778143D01*
X5743571Y-17792429D01*
X6029286Y-17706714D02*
X6029286Y-17763857D01*
X6143571Y-17706714D02*
X6143571Y-17763857D01*
X6586428Y-18121000D02*
X6572143Y-18106714D01*
X6543571Y-18063857D01*
X6529286Y-18035286D01*
X6515000Y-17992429D01*
X6500714Y-17921000D01*
X6500714Y-17863857D01*
X6515000Y-17792429D01*
X6529286Y-17749572D01*
X6543571Y-17721000D01*
X6572143Y-17678143D01*
X6586428Y-17663857D01*
X6672143Y-17706714D02*
X6857857Y-17706714D01*
X6757857Y-17821000D01*
X6800714Y-17821000D01*
X6829286Y-17835286D01*
X6843571Y-17849572D01*
X6857857Y-17878143D01*
X6857857Y-17949572D01*
X6843571Y-17978143D01*
X6829286Y-17992429D01*
X6800714Y-18006714D01*
X6715000Y-18006714D01*
X6686428Y-17992429D01*
X6672143Y-17978143D01*
X7115000Y-17806714D02*
X7115000Y-18006714D01*
X7043571Y-17692429D02*
X6972143Y-17906714D01*
X7157857Y-17906714D01*
X7500714Y-18006714D02*
X7500714Y-17706714D01*
X7629286Y-18006714D02*
X7629286Y-17849572D01*
X7615000Y-17821000D01*
X7586428Y-17806714D01*
X7543571Y-17806714D01*
X7515000Y-17821000D01*
X7500714Y-17835286D01*
X7815000Y-18006714D02*
X7786428Y-17992429D01*
X7772143Y-17978143D01*
X7757857Y-17949572D01*
X7757857Y-17863857D01*
X7772143Y-17835286D01*
X7786428Y-17821000D01*
X7815000Y-17806714D01*
X7857857Y-17806714D01*
X7886428Y-17821000D01*
X7900714Y-17835286D01*
X7915000Y-17863857D01*
X7915000Y-17949572D01*
X7900714Y-17978143D01*
X7886428Y-17992429D01*
X7857857Y-18006714D01*
X7815000Y-18006714D01*
X8086428Y-18006714D02*
X8057857Y-17992429D01*
X8043571Y-17963857D01*
X8043571Y-17706714D01*
X8315000Y-17992429D02*
X8286428Y-18006714D01*
X8229286Y-18006714D01*
X8200714Y-17992429D01*
X8186428Y-17963857D01*
X8186428Y-17849572D01*
X8200714Y-17821000D01*
X8229286Y-17806714D01*
X8286428Y-17806714D01*
X8315000Y-17821000D01*
X8329286Y-17849572D01*
X8329286Y-17878143D01*
X8186428Y-17906714D01*
X8443571Y-17992429D02*
X8472143Y-18006714D01*
X8529286Y-18006714D01*
X8557857Y-17992429D01*
X8572143Y-17963857D01*
X8572143Y-17949572D01*
X8557857Y-17921000D01*
X8529286Y-17906714D01*
X8486428Y-17906714D01*
X8457857Y-17892429D01*
X8443571Y-17863857D01*
X8443571Y-17849572D01*
X8457857Y-17821000D01*
X8486428Y-17806714D01*
X8529286Y-17806714D01*
X8557857Y-17821000D01*
X8672143Y-18121000D02*
X8686428Y-18106714D01*
X8715000Y-18063857D01*
X8729286Y-18035286D01*
X8743571Y-17992429D01*
X8757857Y-17921000D01*
X8757857Y-17863857D01*
X8743571Y-17792429D01*
X8729286Y-17749572D01*
X8715000Y-17721000D01*
X8686428Y-17678143D01*
X8672143Y-17663857D01*
X1859360Y-18226360D02*
X1859360Y-18307640D01*
X1818720Y-18267000D02*
X1900000Y-18267000D01*
X2243571Y-18102714D02*
X2272143Y-18102714D01*
X2300714Y-18117000D01*
X2315000Y-18131286D01*
X2329286Y-18159857D01*
X2343571Y-18217000D01*
X2343571Y-18288429D01*
X2329286Y-18345572D01*
X2315000Y-18374143D01*
X2300714Y-18388429D01*
X2272143Y-18402714D01*
X2243571Y-18402714D01*
X2215000Y-18388429D01*
X2200714Y-18374143D01*
X2186428Y-18345572D01*
X2172143Y-18288429D01*
X2172143Y-18217000D01*
X2186428Y-18159857D01*
X2200714Y-18131286D01*
X2215000Y-18117000D01*
X2243571Y-18102714D01*
X2472143Y-18374143D02*
X2486428Y-18388429D01*
X2472143Y-18402714D01*
X2457857Y-18388429D01*
X2472143Y-18374143D01*
X2472143Y-18402714D01*
X2657857Y-18231286D02*
X2629286Y-18217000D01*
X2615000Y-18202714D01*
X2600714Y-18174143D01*
X2600714Y-18159857D01*
X2615000Y-18131286D01*
X2629286Y-18117000D01*
X2657857Y-18102714D01*
X2715000Y-18102714D01*
X2743571Y-18117000D01*
X2757857Y-18131286D01*
X2772143Y-18159857D01*
X2772143Y-18174143D01*
X2757857Y-18202714D01*
X2743571Y-18217000D01*
X2715000Y-18231286D01*
X2657857Y-18231286D01*
X2629286Y-18245572D01*
X2615000Y-18259857D01*
X2600714Y-18288429D01*
X2600714Y-18345572D01*
X2615000Y-18374143D01*
X2629286Y-18388429D01*
X2657857Y-18402714D01*
X2715000Y-18402714D01*
X2743571Y-18388429D01*
X2757857Y-18374143D01*
X2772143Y-18345572D01*
X2772143Y-18288429D01*
X2757857Y-18259857D01*
X2743571Y-18245572D01*
X2715000Y-18231286D01*
X3057857Y-18402714D02*
X2886428Y-18402714D01*
X2972143Y-18402714D02*
X2972143Y-18102714D01*
X2943571Y-18145572D01*
X2915000Y-18174143D01*
X2886428Y-18188429D01*
X3186428Y-18402714D02*
X3186428Y-18202714D01*
X3186428Y-18231286D02*
X3200714Y-18217000D01*
X3229286Y-18202714D01*
X3272143Y-18202714D01*
X3300714Y-18217000D01*
X3315000Y-18245572D01*
X3315000Y-18402714D01*
X3315000Y-18245572D02*
X3329286Y-18217000D01*
X3357857Y-18202714D01*
X3400714Y-18202714D01*
X3429286Y-18217000D01*
X3443571Y-18245572D01*
X3443571Y-18402714D01*
X3586428Y-18402714D02*
X3586428Y-18202714D01*
X3586428Y-18231286D02*
X3600714Y-18217000D01*
X3629286Y-18202714D01*
X3672143Y-18202714D01*
X3700714Y-18217000D01*
X3715000Y-18245572D01*
X3715000Y-18402714D01*
X3715000Y-18245572D02*
X3729286Y-18217000D01*
X3757857Y-18202714D01*
X3800714Y-18202714D01*
X3829286Y-18217000D01*
X3843571Y-18245572D01*
X3843571Y-18402714D01*
X4429286Y-18088429D02*
X4172143Y-18474143D01*
X4815000Y-18102714D02*
X4843571Y-18102714D01*
X4872143Y-18117000D01*
X4886428Y-18131286D01*
X4900714Y-18159857D01*
X4915000Y-18217000D01*
X4915000Y-18288429D01*
X4900714Y-18345572D01*
X4886428Y-18374143D01*
X4872143Y-18388429D01*
X4843571Y-18402714D01*
X4815000Y-18402714D01*
X4786428Y-18388429D01*
X4772143Y-18374143D01*
X4757857Y-18345572D01*
X4743571Y-18288429D01*
X4743571Y-18217000D01*
X4757857Y-18159857D01*
X4772143Y-18131286D01*
X4786428Y-18117000D01*
X4815000Y-18102714D01*
X5043571Y-18374143D02*
X5057857Y-18388429D01*
X5043571Y-18402714D01*
X5029286Y-18388429D01*
X5043571Y-18374143D01*
X5043571Y-18402714D01*
X5243571Y-18102714D02*
X5272143Y-18102714D01*
X5300714Y-18117000D01*
X5315000Y-18131286D01*
X5329286Y-18159857D01*
X5343571Y-18217000D01*
X5343571Y-18288429D01*
X5329286Y-18345572D01*
X5315000Y-18374143D01*
X5300714Y-18388429D01*
X5272143Y-18402714D01*
X5243571Y-18402714D01*
X5215000Y-18388429D01*
X5200714Y-18374143D01*
X5186428Y-18345572D01*
X5172143Y-18288429D01*
X5172143Y-18217000D01*
X5186428Y-18159857D01*
X5200714Y-18131286D01*
X5215000Y-18117000D01*
X5243571Y-18102714D01*
X5443571Y-18102714D02*
X5629286Y-18102714D01*
X5529286Y-18217000D01*
X5572143Y-18217000D01*
X5600714Y-18231286D01*
X5615000Y-18245572D01*
X5629286Y-18274143D01*
X5629286Y-18345572D01*
X5615000Y-18374143D01*
X5600714Y-18388429D01*
X5572143Y-18402714D01*
X5486428Y-18402714D01*
X5457857Y-18388429D01*
X5443571Y-18374143D01*
X5743571Y-18131286D02*
X5757857Y-18117000D01*
X5786428Y-18102714D01*
X5857857Y-18102714D01*
X5886428Y-18117000D01*
X5900714Y-18131286D01*
X5915000Y-18159857D01*
X5915000Y-18188429D01*
X5900714Y-18231286D01*
X5729286Y-18402714D01*
X5915000Y-18402714D01*
X6029286Y-18102714D02*
X6029286Y-18159857D01*
X6143571Y-18102714D02*
X6143571Y-18159857D01*
X6586428Y-18517000D02*
X6572143Y-18502714D01*
X6543571Y-18459857D01*
X6529286Y-18431286D01*
X6515000Y-18388429D01*
X6500714Y-18317000D01*
X6500714Y-18259857D01*
X6515000Y-18188429D01*
X6529286Y-18145572D01*
X6543571Y-18117000D01*
X6572143Y-18074143D01*
X6586428Y-18059857D01*
X6743571Y-18231286D02*
X6715000Y-18217000D01*
X6700714Y-18202714D01*
X6686428Y-18174143D01*
X6686428Y-18159857D01*
X6700714Y-18131286D01*
X6715000Y-18117000D01*
X6743571Y-18102714D01*
X6800714Y-18102714D01*
X6829286Y-18117000D01*
X6843571Y-18131286D01*
X6857857Y-18159857D01*
X6857857Y-18174143D01*
X6843571Y-18202714D01*
X6829286Y-18217000D01*
X6800714Y-18231286D01*
X6743571Y-18231286D01*
X6715000Y-18245572D01*
X6700714Y-18259857D01*
X6686428Y-18288429D01*
X6686428Y-18345572D01*
X6700714Y-18374143D01*
X6715000Y-18388429D01*
X6743571Y-18402714D01*
X6800714Y-18402714D01*
X6829286Y-18388429D01*
X6843571Y-18374143D01*
X6857857Y-18345572D01*
X6857857Y-18288429D01*
X6843571Y-18259857D01*
X6829286Y-18245572D01*
X6800714Y-18231286D01*
X7215000Y-18402714D02*
X7215000Y-18102714D01*
X7343571Y-18402714D02*
X7343571Y-18245572D01*
X7329286Y-18217000D01*
X7300714Y-18202714D01*
X7257857Y-18202714D01*
X7229286Y-18217000D01*
X7215000Y-18231286D01*
X7529286Y-18402714D02*
X7500714Y-18388429D01*
X7486428Y-18374143D01*
X7472143Y-18345572D01*
X7472143Y-18259857D01*
X7486428Y-18231286D01*
X7500714Y-18217000D01*
X7529286Y-18202714D01*
X7572143Y-18202714D01*
X7600714Y-18217000D01*
X7615000Y-18231286D01*
X7629286Y-18259857D01*
X7629286Y-18345572D01*
X7615000Y-18374143D01*
X7600714Y-18388429D01*
X7572143Y-18402714D01*
X7529286Y-18402714D01*
X7800714Y-18402714D02*
X7772143Y-18388429D01*
X7757857Y-18359857D01*
X7757857Y-18102714D01*
X8029286Y-18388429D02*
X8000714Y-18402714D01*
X7943571Y-18402714D01*
X7915000Y-18388429D01*
X7900714Y-18359857D01*
X7900714Y-18245572D01*
X7915000Y-18217000D01*
X7943571Y-18202714D01*
X8000714Y-18202714D01*
X8029286Y-18217000D01*
X8043571Y-18245572D01*
X8043571Y-18274143D01*
X7900714Y-18302714D01*
X8157857Y-18388429D02*
X8186428Y-18402714D01*
X8243571Y-18402714D01*
X8272143Y-18388429D01*
X8286428Y-18359857D01*
X8286428Y-18345572D01*
X8272143Y-18317000D01*
X8243571Y-18302714D01*
X8200714Y-18302714D01*
X8172143Y-18288429D01*
X8157857Y-18259857D01*
X8157857Y-18245572D01*
X8172143Y-18217000D01*
X8200714Y-18202714D01*
X8243571Y-18202714D01*
X8272143Y-18217000D01*
X8386428Y-18517000D02*
X8400714Y-18502714D01*
X8429286Y-18459857D01*
X8443571Y-18431286D01*
X8457857Y-18388429D01*
X8472143Y-18317000D01*
X8472143Y-18259857D01*
X8457857Y-18188429D01*
X8443571Y-18145572D01*
X8429286Y-18117000D01*
X8400714Y-18074143D01*
X8386428Y-18059857D01*
X1886966Y-18694467D02*
X1886966Y-18631534D01*
X1824033Y-18631534D01*
X1824033Y-18694467D01*
X1886966Y-18694467D01*
X2243571Y-18498714D02*
X2272143Y-18498714D01*
X2300714Y-18513000D01*
X2315000Y-18527286D01*
X2329286Y-18555857D01*
X2343571Y-18613000D01*
X2343571Y-18684429D01*
X2329286Y-18741572D01*
X2315000Y-18770143D01*
X2300714Y-18784429D01*
X2272143Y-18798714D01*
X2243571Y-18798714D01*
X2215000Y-18784429D01*
X2200714Y-18770143D01*
X2186428Y-18741572D01*
X2172143Y-18684429D01*
X2172143Y-18613000D01*
X2186428Y-18555857D01*
X2200714Y-18527286D01*
X2215000Y-18513000D01*
X2243571Y-18498714D01*
X2472143Y-18770143D02*
X2486428Y-18784429D01*
X2472143Y-18798714D01*
X2457857Y-18784429D01*
X2472143Y-18770143D01*
X2472143Y-18798714D01*
X2657857Y-18627286D02*
X2629286Y-18613000D01*
X2615000Y-18598714D01*
X2600714Y-18570143D01*
X2600714Y-18555857D01*
X2615000Y-18527286D01*
X2629286Y-18513000D01*
X2657857Y-18498714D01*
X2715000Y-18498714D01*
X2743571Y-18513000D01*
X2757857Y-18527286D01*
X2772143Y-18555857D01*
X2772143Y-18570143D01*
X2757857Y-18598714D01*
X2743571Y-18613000D01*
X2715000Y-18627286D01*
X2657857Y-18627286D01*
X2629286Y-18641572D01*
X2615000Y-18655857D01*
X2600714Y-18684429D01*
X2600714Y-18741572D01*
X2615000Y-18770143D01*
X2629286Y-18784429D01*
X2657857Y-18798714D01*
X2715000Y-18798714D01*
X2743571Y-18784429D01*
X2757857Y-18770143D01*
X2772143Y-18741572D01*
X2772143Y-18684429D01*
X2757857Y-18655857D01*
X2743571Y-18641572D01*
X2715000Y-18627286D01*
X2915000Y-18798714D02*
X2972143Y-18798714D01*
X3000714Y-18784429D01*
X3015000Y-18770143D01*
X3043571Y-18727286D01*
X3057857Y-18670143D01*
X3057857Y-18555857D01*
X3043571Y-18527286D01*
X3029286Y-18513000D01*
X3000714Y-18498714D01*
X2943571Y-18498714D01*
X2915000Y-18513000D01*
X2900714Y-18527286D01*
X2886428Y-18555857D01*
X2886428Y-18627286D01*
X2900714Y-18655857D01*
X2915000Y-18670143D01*
X2943571Y-18684429D01*
X3000714Y-18684429D01*
X3029286Y-18670143D01*
X3043571Y-18655857D01*
X3057857Y-18627286D01*
X3186428Y-18798714D02*
X3186428Y-18598714D01*
X3186428Y-18627286D02*
X3200714Y-18613000D01*
X3229286Y-18598714D01*
X3272143Y-18598714D01*
X3300714Y-18613000D01*
X3315000Y-18641572D01*
X3315000Y-18798714D01*
X3315000Y-18641572D02*
X3329286Y-18613000D01*
X3357857Y-18598714D01*
X3400714Y-18598714D01*
X3429286Y-18613000D01*
X3443571Y-18641572D01*
X3443571Y-18798714D01*
X3586428Y-18798714D02*
X3586428Y-18598714D01*
X3586428Y-18627286D02*
X3600714Y-18613000D01*
X3629286Y-18598714D01*
X3672143Y-18598714D01*
X3700714Y-18613000D01*
X3715000Y-18641572D01*
X3715000Y-18798714D01*
X3715000Y-18641572D02*
X3729286Y-18613000D01*
X3757857Y-18598714D01*
X3800714Y-18598714D01*
X3829286Y-18613000D01*
X3843571Y-18641572D01*
X3843571Y-18798714D01*
X4429286Y-18484429D02*
X4172143Y-18870143D01*
X4815000Y-18498714D02*
X4843571Y-18498714D01*
X4872143Y-18513000D01*
X4886428Y-18527286D01*
X4900714Y-18555857D01*
X4915000Y-18613000D01*
X4915000Y-18684429D01*
X4900714Y-18741572D01*
X4886428Y-18770143D01*
X4872143Y-18784429D01*
X4843571Y-18798714D01*
X4815000Y-18798714D01*
X4786428Y-18784429D01*
X4772143Y-18770143D01*
X4757857Y-18741572D01*
X4743571Y-18684429D01*
X4743571Y-18613000D01*
X4757857Y-18555857D01*
X4772143Y-18527286D01*
X4786428Y-18513000D01*
X4815000Y-18498714D01*
X5043571Y-18770143D02*
X5057857Y-18784429D01*
X5043571Y-18798714D01*
X5029286Y-18784429D01*
X5043571Y-18770143D01*
X5043571Y-18798714D01*
X5243571Y-18498714D02*
X5272143Y-18498714D01*
X5300714Y-18513000D01*
X5315000Y-18527286D01*
X5329286Y-18555857D01*
X5343571Y-18613000D01*
X5343571Y-18684429D01*
X5329286Y-18741572D01*
X5315000Y-18770143D01*
X5300714Y-18784429D01*
X5272143Y-18798714D01*
X5243571Y-18798714D01*
X5215000Y-18784429D01*
X5200714Y-18770143D01*
X5186428Y-18741572D01*
X5172143Y-18684429D01*
X5172143Y-18613000D01*
X5186428Y-18555857D01*
X5200714Y-18527286D01*
X5215000Y-18513000D01*
X5243571Y-18498714D01*
X5443571Y-18498714D02*
X5629286Y-18498714D01*
X5529286Y-18613000D01*
X5572143Y-18613000D01*
X5600714Y-18627286D01*
X5615000Y-18641572D01*
X5629286Y-18670143D01*
X5629286Y-18741572D01*
X5615000Y-18770143D01*
X5600714Y-18784429D01*
X5572143Y-18798714D01*
X5486428Y-18798714D01*
X5457857Y-18784429D01*
X5443571Y-18770143D01*
X5900714Y-18498714D02*
X5757857Y-18498714D01*
X5743571Y-18641572D01*
X5757857Y-18627286D01*
X5786428Y-18613000D01*
X5857857Y-18613000D01*
X5886428Y-18627286D01*
X5900714Y-18641572D01*
X5915000Y-18670143D01*
X5915000Y-18741572D01*
X5900714Y-18770143D01*
X5886428Y-18784429D01*
X5857857Y-18798714D01*
X5786428Y-18798714D01*
X5757857Y-18784429D01*
X5743571Y-18770143D01*
X6029286Y-18498714D02*
X6029286Y-18555857D01*
X6143571Y-18498714D02*
X6143571Y-18555857D01*
X6586428Y-18913000D02*
X6572143Y-18898714D01*
X6543571Y-18855857D01*
X6529286Y-18827286D01*
X6515000Y-18784429D01*
X6500714Y-18713000D01*
X6500714Y-18655857D01*
X6515000Y-18584429D01*
X6529286Y-18541572D01*
X6543571Y-18513000D01*
X6572143Y-18470143D01*
X6586428Y-18455857D01*
X6829286Y-18598714D02*
X6829286Y-18798714D01*
X6757857Y-18484429D02*
X6686428Y-18698714D01*
X6872143Y-18698714D01*
X7043571Y-18498714D02*
X7072143Y-18498714D01*
X7100714Y-18513000D01*
X7115000Y-18527286D01*
X7129286Y-18555857D01*
X7143571Y-18613000D01*
X7143571Y-18684429D01*
X7129286Y-18741572D01*
X7115000Y-18770143D01*
X7100714Y-18784429D01*
X7072143Y-18798714D01*
X7043571Y-18798714D01*
X7015000Y-18784429D01*
X7000714Y-18770143D01*
X6986428Y-18741572D01*
X6972143Y-18684429D01*
X6972143Y-18613000D01*
X6986428Y-18555857D01*
X7000714Y-18527286D01*
X7015000Y-18513000D01*
X7043571Y-18498714D01*
X7500714Y-18798714D02*
X7500714Y-18498714D01*
X7629286Y-18798714D02*
X7629286Y-18641572D01*
X7615000Y-18613000D01*
X7586428Y-18598714D01*
X7543571Y-18598714D01*
X7515000Y-18613000D01*
X7500714Y-18627286D01*
X7815000Y-18798714D02*
X7786428Y-18784429D01*
X7772143Y-18770143D01*
X7757857Y-18741572D01*
X7757857Y-18655857D01*
X7772143Y-18627286D01*
X7786428Y-18613000D01*
X7815000Y-18598714D01*
X7857857Y-18598714D01*
X7886428Y-18613000D01*
X7900714Y-18627286D01*
X7915000Y-18655857D01*
X7915000Y-18741572D01*
X7900714Y-18770143D01*
X7886428Y-18784429D01*
X7857857Y-18798714D01*
X7815000Y-18798714D01*
X8086428Y-18798714D02*
X8057857Y-18784429D01*
X8043571Y-18755857D01*
X8043571Y-18498714D01*
X8315000Y-18784429D02*
X8286428Y-18798714D01*
X8229286Y-18798714D01*
X8200714Y-18784429D01*
X8186428Y-18755857D01*
X8186428Y-18641572D01*
X8200714Y-18613000D01*
X8229286Y-18598714D01*
X8286428Y-18598714D01*
X8315000Y-18613000D01*
X8329286Y-18641572D01*
X8329286Y-18670143D01*
X8186428Y-18698714D01*
X8443571Y-18784429D02*
X8472143Y-18798714D01*
X8529286Y-18798714D01*
X8557857Y-18784429D01*
X8572143Y-18755857D01*
X8572143Y-18741572D01*
X8557857Y-18713000D01*
X8529286Y-18698714D01*
X8486428Y-18698714D01*
X8457857Y-18684429D01*
X8443571Y-18655857D01*
X8443571Y-18641572D01*
X8457857Y-18613000D01*
X8486428Y-18598714D01*
X8529286Y-18598714D01*
X8557857Y-18613000D01*
X8672143Y-18913000D02*
X8686428Y-18898714D01*
X8715000Y-18855857D01*
X8729286Y-18827286D01*
X8743571Y-18784429D01*
X8757857Y-18713000D01*
X8757857Y-18655857D01*
X8743571Y-18584429D01*
X8729286Y-18541572D01*
X8715000Y-18513000D01*
X8686428Y-18470143D01*
X8672143Y-18455857D01*
X1850000Y-19109000D02*
X1900000Y-19059000D01*
X1850000Y-19009000D01*
X1800000Y-19059000D01*
X1850000Y-19109000D01*
X2343571Y-19194714D02*
X2172143Y-19194714D01*
X2257857Y-19194714D02*
X2257857Y-18894714D01*
X2229286Y-18937572D01*
X2200714Y-18966143D01*
X2172143Y-18980429D01*
X2472143Y-19166143D02*
X2486428Y-19180429D01*
X2472143Y-19194714D01*
X2457857Y-19180429D01*
X2472143Y-19166143D01*
X2472143Y-19194714D01*
X2672143Y-18894714D02*
X2700714Y-18894714D01*
X2729286Y-18909000D01*
X2743571Y-18923286D01*
X2757857Y-18951857D01*
X2772143Y-19009000D01*
X2772143Y-19080429D01*
X2757857Y-19137572D01*
X2743571Y-19166143D01*
X2729286Y-19180429D01*
X2700714Y-19194714D01*
X2672143Y-19194714D01*
X2643571Y-19180429D01*
X2629286Y-19166143D01*
X2615000Y-19137572D01*
X2600714Y-19080429D01*
X2600714Y-19009000D01*
X2615000Y-18951857D01*
X2629286Y-18923286D01*
X2643571Y-18909000D01*
X2672143Y-18894714D01*
X2957857Y-18894714D02*
X2986428Y-18894714D01*
X3015000Y-18909000D01*
X3029286Y-18923286D01*
X3043571Y-18951857D01*
X3057857Y-19009000D01*
X3057857Y-19080429D01*
X3043571Y-19137572D01*
X3029286Y-19166143D01*
X3015000Y-19180429D01*
X2986428Y-19194714D01*
X2957857Y-19194714D01*
X2929286Y-19180429D01*
X2915000Y-19166143D01*
X2900714Y-19137572D01*
X2886428Y-19080429D01*
X2886428Y-19009000D01*
X2900714Y-18951857D01*
X2915000Y-18923286D01*
X2929286Y-18909000D01*
X2957857Y-18894714D01*
X3186428Y-19194714D02*
X3186428Y-18994714D01*
X3186428Y-19023286D02*
X3200714Y-19009000D01*
X3229286Y-18994714D01*
X3272143Y-18994714D01*
X3300714Y-19009000D01*
X3315000Y-19037572D01*
X3315000Y-19194714D01*
X3315000Y-19037572D02*
X3329286Y-19009000D01*
X3357857Y-18994714D01*
X3400714Y-18994714D01*
X3429286Y-19009000D01*
X3443571Y-19037572D01*
X3443571Y-19194714D01*
X3586428Y-19194714D02*
X3586428Y-18994714D01*
X3586428Y-19023286D02*
X3600714Y-19009000D01*
X3629286Y-18994714D01*
X3672143Y-18994714D01*
X3700714Y-19009000D01*
X3715000Y-19037572D01*
X3715000Y-19194714D01*
X3715000Y-19037572D02*
X3729286Y-19009000D01*
X3757857Y-18994714D01*
X3800714Y-18994714D01*
X3829286Y-19009000D01*
X3843571Y-19037572D01*
X3843571Y-19194714D01*
X4429286Y-18880429D02*
X4172143Y-19266143D01*
X4815000Y-18894714D02*
X4843571Y-18894714D01*
X4872143Y-18909000D01*
X4886428Y-18923286D01*
X4900714Y-18951857D01*
X4915000Y-19009000D01*
X4915000Y-19080429D01*
X4900714Y-19137572D01*
X4886428Y-19166143D01*
X4872143Y-19180429D01*
X4843571Y-19194714D01*
X4815000Y-19194714D01*
X4786428Y-19180429D01*
X4772143Y-19166143D01*
X4757857Y-19137572D01*
X4743571Y-19080429D01*
X4743571Y-19009000D01*
X4757857Y-18951857D01*
X4772143Y-18923286D01*
X4786428Y-18909000D01*
X4815000Y-18894714D01*
X5043571Y-19166143D02*
X5057857Y-19180429D01*
X5043571Y-19194714D01*
X5029286Y-19180429D01*
X5043571Y-19166143D01*
X5043571Y-19194714D01*
X5243571Y-18894714D02*
X5272143Y-18894714D01*
X5300714Y-18909000D01*
X5315000Y-18923286D01*
X5329286Y-18951857D01*
X5343571Y-19009000D01*
X5343571Y-19080429D01*
X5329286Y-19137572D01*
X5315000Y-19166143D01*
X5300714Y-19180429D01*
X5272143Y-19194714D01*
X5243571Y-19194714D01*
X5215000Y-19180429D01*
X5200714Y-19166143D01*
X5186428Y-19137572D01*
X5172143Y-19080429D01*
X5172143Y-19009000D01*
X5186428Y-18951857D01*
X5200714Y-18923286D01*
X5215000Y-18909000D01*
X5243571Y-18894714D01*
X5443571Y-18894714D02*
X5629286Y-18894714D01*
X5529286Y-19009000D01*
X5572143Y-19009000D01*
X5600714Y-19023286D01*
X5615000Y-19037572D01*
X5629286Y-19066143D01*
X5629286Y-19137572D01*
X5615000Y-19166143D01*
X5600714Y-19180429D01*
X5572143Y-19194714D01*
X5486428Y-19194714D01*
X5457857Y-19180429D01*
X5443571Y-19166143D01*
X5772143Y-19194714D02*
X5829286Y-19194714D01*
X5857857Y-19180429D01*
X5872143Y-19166143D01*
X5900714Y-19123286D01*
X5915000Y-19066143D01*
X5915000Y-18951857D01*
X5900714Y-18923286D01*
X5886428Y-18909000D01*
X5857857Y-18894714D01*
X5800714Y-18894714D01*
X5772143Y-18909000D01*
X5757857Y-18923286D01*
X5743571Y-18951857D01*
X5743571Y-19023286D01*
X5757857Y-19051857D01*
X5772143Y-19066143D01*
X5800714Y-19080429D01*
X5857857Y-19080429D01*
X5886428Y-19066143D01*
X5900714Y-19051857D01*
X5915000Y-19023286D01*
X6029286Y-18894714D02*
X6029286Y-18951857D01*
X6143571Y-18894714D02*
X6143571Y-18951857D01*
X6586428Y-19309000D02*
X6572143Y-19294714D01*
X6543571Y-19251857D01*
X6529286Y-19223286D01*
X6515000Y-19180429D01*
X6500714Y-19109000D01*
X6500714Y-19051857D01*
X6515000Y-18980429D01*
X6529286Y-18937572D01*
X6543571Y-18909000D01*
X6572143Y-18866143D01*
X6586428Y-18851857D01*
X6672143Y-18894714D02*
X6857857Y-18894714D01*
X6757857Y-19009000D01*
X6800714Y-19009000D01*
X6829286Y-19023286D01*
X6843571Y-19037572D01*
X6857857Y-19066143D01*
X6857857Y-19137572D01*
X6843571Y-19166143D01*
X6829286Y-19180429D01*
X6800714Y-19194714D01*
X6715000Y-19194714D01*
X6686428Y-19180429D01*
X6672143Y-19166143D01*
X6957857Y-18894714D02*
X7157857Y-18894714D01*
X7029286Y-19194714D01*
X7500714Y-19194714D02*
X7500714Y-18894714D01*
X7629286Y-19194714D02*
X7629286Y-19037572D01*
X7615000Y-19009000D01*
X7586428Y-18994714D01*
X7543571Y-18994714D01*
X7515000Y-19009000D01*
X7500714Y-19023286D01*
X7815000Y-19194714D02*
X7786428Y-19180429D01*
X7772143Y-19166143D01*
X7757857Y-19137572D01*
X7757857Y-19051857D01*
X7772143Y-19023286D01*
X7786428Y-19009000D01*
X7815000Y-18994714D01*
X7857857Y-18994714D01*
X7886428Y-19009000D01*
X7900714Y-19023286D01*
X7915000Y-19051857D01*
X7915000Y-19137572D01*
X7900714Y-19166143D01*
X7886428Y-19180429D01*
X7857857Y-19194714D01*
X7815000Y-19194714D01*
X8086428Y-19194714D02*
X8057857Y-19180429D01*
X8043571Y-19151857D01*
X8043571Y-18894714D01*
X8315000Y-19180429D02*
X8286428Y-19194714D01*
X8229286Y-19194714D01*
X8200714Y-19180429D01*
X8186428Y-19151857D01*
X8186428Y-19037572D01*
X8200714Y-19009000D01*
X8229286Y-18994714D01*
X8286428Y-18994714D01*
X8315000Y-19009000D01*
X8329286Y-19037572D01*
X8329286Y-19066143D01*
X8186428Y-19094714D01*
X8443571Y-19180429D02*
X8472143Y-19194714D01*
X8529286Y-19194714D01*
X8557857Y-19180429D01*
X8572143Y-19151857D01*
X8572143Y-19137572D01*
X8557857Y-19109000D01*
X8529286Y-19094714D01*
X8486428Y-19094714D01*
X8457857Y-19080429D01*
X8443571Y-19051857D01*
X8443571Y-19037572D01*
X8457857Y-19009000D01*
X8486428Y-18994714D01*
X8529286Y-18994714D01*
X8557857Y-19009000D01*
X8672143Y-19309000D02*
X8686428Y-19294714D01*
X8715000Y-19251857D01*
X8729286Y-19223286D01*
X8743571Y-19180429D01*
X8757857Y-19109000D01*
X8757857Y-19051857D01*
X8743571Y-18980429D01*
X8729286Y-18937572D01*
X8715000Y-18909000D01*
X8686428Y-18866143D01*
X8672143Y-18851857D01*
X1780000Y-19395000D02*
X1900000Y-19515000D01*
X1900000Y-19395000D02*
X1780000Y-19515000D01*
X1900000Y-19455000D02*
G75*
G03*
X1900000Y-19455000I-60000J0D01*
G01*
X2343571Y-19590714D02*
X2172143Y-19590714D01*
X2257857Y-19590714D02*
X2257857Y-19290714D01*
X2229286Y-19333572D01*
X2200714Y-19362143D01*
X2172143Y-19376429D01*
X2472143Y-19562143D02*
X2486428Y-19576429D01*
X2472143Y-19590714D01*
X2457857Y-19576429D01*
X2472143Y-19562143D01*
X2472143Y-19590714D01*
X2600714Y-19319286D02*
X2615000Y-19305000D01*
X2643571Y-19290714D01*
X2715000Y-19290714D01*
X2743571Y-19305000D01*
X2757857Y-19319286D01*
X2772143Y-19347857D01*
X2772143Y-19376429D01*
X2757857Y-19419286D01*
X2586428Y-19590714D01*
X2772143Y-19590714D01*
X2957857Y-19290714D02*
X2986428Y-19290714D01*
X3015000Y-19305000D01*
X3029286Y-19319286D01*
X3043571Y-19347857D01*
X3057857Y-19405000D01*
X3057857Y-19476429D01*
X3043571Y-19533572D01*
X3029286Y-19562143D01*
X3015000Y-19576429D01*
X2986428Y-19590714D01*
X2957857Y-19590714D01*
X2929286Y-19576429D01*
X2915000Y-19562143D01*
X2900714Y-19533572D01*
X2886428Y-19476429D01*
X2886428Y-19405000D01*
X2900714Y-19347857D01*
X2915000Y-19319286D01*
X2929286Y-19305000D01*
X2957857Y-19290714D01*
X3186428Y-19590714D02*
X3186428Y-19390714D01*
X3186428Y-19419286D02*
X3200714Y-19405000D01*
X3229286Y-19390714D01*
X3272143Y-19390714D01*
X3300714Y-19405000D01*
X3315000Y-19433572D01*
X3315000Y-19590714D01*
X3315000Y-19433572D02*
X3329286Y-19405000D01*
X3357857Y-19390714D01*
X3400714Y-19390714D01*
X3429286Y-19405000D01*
X3443571Y-19433572D01*
X3443571Y-19590714D01*
X3586428Y-19590714D02*
X3586428Y-19390714D01*
X3586428Y-19419286D02*
X3600714Y-19405000D01*
X3629286Y-19390714D01*
X3672143Y-19390714D01*
X3700714Y-19405000D01*
X3715000Y-19433572D01*
X3715000Y-19590714D01*
X3715000Y-19433572D02*
X3729286Y-19405000D01*
X3757857Y-19390714D01*
X3800714Y-19390714D01*
X3829286Y-19405000D01*
X3843571Y-19433572D01*
X3843571Y-19590714D01*
X4429286Y-19276429D02*
X4172143Y-19662143D01*
X4815000Y-19290714D02*
X4843571Y-19290714D01*
X4872143Y-19305000D01*
X4886428Y-19319286D01*
X4900714Y-19347857D01*
X4915000Y-19405000D01*
X4915000Y-19476429D01*
X4900714Y-19533572D01*
X4886428Y-19562143D01*
X4872143Y-19576429D01*
X4843571Y-19590714D01*
X4815000Y-19590714D01*
X4786428Y-19576429D01*
X4772143Y-19562143D01*
X4757857Y-19533572D01*
X4743571Y-19476429D01*
X4743571Y-19405000D01*
X4757857Y-19347857D01*
X4772143Y-19319286D01*
X4786428Y-19305000D01*
X4815000Y-19290714D01*
X5043571Y-19562143D02*
X5057857Y-19576429D01*
X5043571Y-19590714D01*
X5029286Y-19576429D01*
X5043571Y-19562143D01*
X5043571Y-19590714D01*
X5243571Y-19290714D02*
X5272143Y-19290714D01*
X5300714Y-19305000D01*
X5315000Y-19319286D01*
X5329286Y-19347857D01*
X5343571Y-19405000D01*
X5343571Y-19476429D01*
X5329286Y-19533572D01*
X5315000Y-19562143D01*
X5300714Y-19576429D01*
X5272143Y-19590714D01*
X5243571Y-19590714D01*
X5215000Y-19576429D01*
X5200714Y-19562143D01*
X5186428Y-19533572D01*
X5172143Y-19476429D01*
X5172143Y-19405000D01*
X5186428Y-19347857D01*
X5200714Y-19319286D01*
X5215000Y-19305000D01*
X5243571Y-19290714D01*
X5600714Y-19390714D02*
X5600714Y-19590714D01*
X5529286Y-19276429D02*
X5457857Y-19490714D01*
X5643571Y-19490714D01*
X5729286Y-19290714D02*
X5929286Y-19290714D01*
X5800714Y-19590714D01*
X6029286Y-19290714D02*
X6029286Y-19347857D01*
X6143571Y-19290714D02*
X6143571Y-19347857D01*
X6586428Y-19705000D02*
X6572143Y-19690714D01*
X6543571Y-19647857D01*
X6529286Y-19619286D01*
X6515000Y-19576429D01*
X6500714Y-19505000D01*
X6500714Y-19447857D01*
X6515000Y-19376429D01*
X6529286Y-19333572D01*
X6543571Y-19305000D01*
X6572143Y-19262143D01*
X6586428Y-19247857D01*
X6672143Y-19290714D02*
X6857857Y-19290714D01*
X6757857Y-19405000D01*
X6800714Y-19405000D01*
X6829286Y-19419286D01*
X6843571Y-19433572D01*
X6857857Y-19462143D01*
X6857857Y-19533572D01*
X6843571Y-19562143D01*
X6829286Y-19576429D01*
X6800714Y-19590714D01*
X6715000Y-19590714D01*
X6686428Y-19576429D01*
X6672143Y-19562143D01*
X7215000Y-19590714D02*
X7215000Y-19290714D01*
X7343571Y-19590714D02*
X7343571Y-19433572D01*
X7329286Y-19405000D01*
X7300714Y-19390714D01*
X7257857Y-19390714D01*
X7229286Y-19405000D01*
X7215000Y-19419286D01*
X7529286Y-19590714D02*
X7500714Y-19576429D01*
X7486428Y-19562143D01*
X7472143Y-19533572D01*
X7472143Y-19447857D01*
X7486428Y-19419286D01*
X7500714Y-19405000D01*
X7529286Y-19390714D01*
X7572143Y-19390714D01*
X7600714Y-19405000D01*
X7615000Y-19419286D01*
X7629286Y-19447857D01*
X7629286Y-19533572D01*
X7615000Y-19562143D01*
X7600714Y-19576429D01*
X7572143Y-19590714D01*
X7529286Y-19590714D01*
X7800714Y-19590714D02*
X7772143Y-19576429D01*
X7757857Y-19547857D01*
X7757857Y-19290714D01*
X8029286Y-19576429D02*
X8000714Y-19590714D01*
X7943571Y-19590714D01*
X7915000Y-19576429D01*
X7900714Y-19547857D01*
X7900714Y-19433572D01*
X7915000Y-19405000D01*
X7943571Y-19390714D01*
X8000714Y-19390714D01*
X8029286Y-19405000D01*
X8043571Y-19433572D01*
X8043571Y-19462143D01*
X7900714Y-19490714D01*
X8157857Y-19576429D02*
X8186428Y-19590714D01*
X8243571Y-19590714D01*
X8272143Y-19576429D01*
X8286428Y-19547857D01*
X8286428Y-19533572D01*
X8272143Y-19505000D01*
X8243571Y-19490714D01*
X8200714Y-19490714D01*
X8172143Y-19476429D01*
X8157857Y-19447857D01*
X8157857Y-19433572D01*
X8172143Y-19405000D01*
X8200714Y-19390714D01*
X8243571Y-19390714D01*
X8272143Y-19405000D01*
X8386428Y-19705000D02*
X8400714Y-19690714D01*
X8429286Y-19647857D01*
X8443571Y-19619286D01*
X8457857Y-19576429D01*
X8472143Y-19505000D01*
X8472143Y-19447857D01*
X8457857Y-19376429D01*
X8443571Y-19333572D01*
X8429286Y-19305000D01*
X8400714Y-19262143D01*
X8386428Y-19247857D01*
X1602680Y-19702340D02*
X1900000Y-19999660D01*
X1900000Y-19702340D02*
X1602680Y-19999660D01*
X1751340Y-19702340D02*
X1751340Y-19999660D01*
X1602680Y-19851000D02*
X1900000Y-19851000D01*
X2172143Y-19715286D02*
X2186428Y-19701000D01*
X2215000Y-19686714D01*
X2286428Y-19686714D01*
X2315000Y-19701000D01*
X2329286Y-19715286D01*
X2343571Y-19743857D01*
X2343571Y-19772429D01*
X2329286Y-19815286D01*
X2157857Y-19986714D01*
X2343571Y-19986714D01*
X2472143Y-19958143D02*
X2486428Y-19972429D01*
X2472143Y-19986714D01*
X2457857Y-19972429D01*
X2472143Y-19958143D01*
X2472143Y-19986714D01*
X2629286Y-19986714D02*
X2686428Y-19986714D01*
X2715000Y-19972429D01*
X2729286Y-19958143D01*
X2757857Y-19915286D01*
X2772143Y-19858143D01*
X2772143Y-19743857D01*
X2757857Y-19715286D01*
X2743571Y-19701000D01*
X2715000Y-19686714D01*
X2657857Y-19686714D01*
X2629286Y-19701000D01*
X2615000Y-19715286D01*
X2600714Y-19743857D01*
X2600714Y-19815286D01*
X2615000Y-19843857D01*
X2629286Y-19858143D01*
X2657857Y-19872429D01*
X2715000Y-19872429D01*
X2743571Y-19858143D01*
X2757857Y-19843857D01*
X2772143Y-19815286D01*
X2872143Y-19686714D02*
X3072143Y-19686714D01*
X2943571Y-19986714D01*
X3186428Y-19986714D02*
X3186428Y-19786714D01*
X3186428Y-19815286D02*
X3200714Y-19801000D01*
X3229286Y-19786714D01*
X3272143Y-19786714D01*
X3300714Y-19801000D01*
X3315000Y-19829572D01*
X3315000Y-19986714D01*
X3315000Y-19829572D02*
X3329286Y-19801000D01*
X3357857Y-19786714D01*
X3400714Y-19786714D01*
X3429286Y-19801000D01*
X3443571Y-19829572D01*
X3443571Y-19986714D01*
X3586428Y-19986714D02*
X3586428Y-19786714D01*
X3586428Y-19815286D02*
X3600714Y-19801000D01*
X3629286Y-19786714D01*
X3672143Y-19786714D01*
X3700714Y-19801000D01*
X3715000Y-19829572D01*
X3715000Y-19986714D01*
X3715000Y-19829572D02*
X3729286Y-19801000D01*
X3757857Y-19786714D01*
X3800714Y-19786714D01*
X3829286Y-19801000D01*
X3843571Y-19829572D01*
X3843571Y-19986714D01*
X4429286Y-19672429D02*
X4172143Y-20058143D01*
X4815000Y-19686714D02*
X4843571Y-19686714D01*
X4872143Y-19701000D01*
X4886428Y-19715286D01*
X4900714Y-19743857D01*
X4915000Y-19801000D01*
X4915000Y-19872429D01*
X4900714Y-19929572D01*
X4886428Y-19958143D01*
X4872143Y-19972429D01*
X4843571Y-19986714D01*
X4815000Y-19986714D01*
X4786428Y-19972429D01*
X4772143Y-19958143D01*
X4757857Y-19929572D01*
X4743571Y-19872429D01*
X4743571Y-19801000D01*
X4757857Y-19743857D01*
X4772143Y-19715286D01*
X4786428Y-19701000D01*
X4815000Y-19686714D01*
X5043571Y-19958143D02*
X5057857Y-19972429D01*
X5043571Y-19986714D01*
X5029286Y-19972429D01*
X5043571Y-19958143D01*
X5043571Y-19986714D01*
X5343571Y-19986714D02*
X5172143Y-19986714D01*
X5257857Y-19986714D02*
X5257857Y-19686714D01*
X5229286Y-19729572D01*
X5200714Y-19758143D01*
X5172143Y-19772429D01*
X5629286Y-19986714D02*
X5457857Y-19986714D01*
X5543571Y-19986714D02*
X5543571Y-19686714D01*
X5515000Y-19729572D01*
X5486428Y-19758143D01*
X5457857Y-19772429D01*
X5729286Y-19686714D02*
X5929286Y-19686714D01*
X5800714Y-19986714D01*
X6029286Y-19686714D02*
X6029286Y-19743857D01*
X6143571Y-19686714D02*
X6143571Y-19743857D01*
X6586428Y-20101000D02*
X6572143Y-20086714D01*
X6543571Y-20043857D01*
X6529286Y-20015286D01*
X6515000Y-19972429D01*
X6500714Y-19901000D01*
X6500714Y-19843857D01*
X6515000Y-19772429D01*
X6529286Y-19729572D01*
X6543571Y-19701000D01*
X6572143Y-19658143D01*
X6586428Y-19643857D01*
X6686428Y-19715286D02*
X6700714Y-19701000D01*
X6729286Y-19686714D01*
X6800714Y-19686714D01*
X6829286Y-19701000D01*
X6843571Y-19715286D01*
X6857857Y-19743857D01*
X6857857Y-19772429D01*
X6843571Y-19815286D01*
X6672143Y-19986714D01*
X6857857Y-19986714D01*
X7215000Y-19986714D02*
X7215000Y-19686714D01*
X7343571Y-19986714D02*
X7343571Y-19829572D01*
X7329286Y-19801000D01*
X7300714Y-19786714D01*
X7257857Y-19786714D01*
X7229286Y-19801000D01*
X7215000Y-19815286D01*
X7529286Y-19986714D02*
X7500714Y-19972429D01*
X7486428Y-19958143D01*
X7472143Y-19929572D01*
X7472143Y-19843857D01*
X7486428Y-19815286D01*
X7500714Y-19801000D01*
X7529286Y-19786714D01*
X7572143Y-19786714D01*
X7600714Y-19801000D01*
X7615000Y-19815286D01*
X7629286Y-19843857D01*
X7629286Y-19929572D01*
X7615000Y-19958143D01*
X7600714Y-19972429D01*
X7572143Y-19986714D01*
X7529286Y-19986714D01*
X7800714Y-19986714D02*
X7772143Y-19972429D01*
X7757857Y-19943857D01*
X7757857Y-19686714D01*
X8029286Y-19972429D02*
X8000714Y-19986714D01*
X7943571Y-19986714D01*
X7915000Y-19972429D01*
X7900714Y-19943857D01*
X7900714Y-19829572D01*
X7915000Y-19801000D01*
X7943571Y-19786714D01*
X8000714Y-19786714D01*
X8029286Y-19801000D01*
X8043571Y-19829572D01*
X8043571Y-19858143D01*
X7900714Y-19886714D01*
X8157857Y-19972429D02*
X8186428Y-19986714D01*
X8243571Y-19986714D01*
X8272143Y-19972429D01*
X8286428Y-19943857D01*
X8286428Y-19929572D01*
X8272143Y-19901000D01*
X8243571Y-19886714D01*
X8200714Y-19886714D01*
X8172143Y-19872429D01*
X8157857Y-19843857D01*
X8157857Y-19829572D01*
X8172143Y-19801000D01*
X8200714Y-19786714D01*
X8243571Y-19786714D01*
X8272143Y-19801000D01*
X8386428Y-20101000D02*
X8400714Y-20086714D01*
X8429286Y-20043857D01*
X8443571Y-20015286D01*
X8457857Y-19972429D01*
X8472143Y-19901000D01*
X8472143Y-19843857D01*
X8457857Y-19772429D01*
X8443571Y-19729572D01*
X8429286Y-19701000D01*
X8400714Y-19658143D01*
X8386428Y-19643857D01*
M02*
