%FSLAX45Y45*%
G04 Gerber Fmt 4.5, Leading zero omitted, Abs format (unit mm)*
G04 Created by KiCad (PCBNEW (5.1.9)-1) date 2022-04-18 13:04:57*
%MOMM*%
%LPD*%
G01*
G04 APERTURE LIST*
%TA.AperFunction,Profile*%
%ADD10C,0.100000*%
%TD*%
%ADD11C,0.200000*%
%ADD12C,0.300000*%
G04 APERTURE END LIST*
D10*
X10096500Y-1270000D02*
G75*
G02*
X10160000Y-1333500I0J-63500D01*
G01*
X1905000Y-1333500D02*
G75*
G02*
X1968500Y-1270000I63500J0D01*
G01*
X1968500Y-16510000D02*
G75*
G02*
X1905000Y-16446500I0J63500D01*
G01*
X10160000Y-16446500D02*
G75*
G02*
X10096500Y-16510000I-63500J0D01*
G01*
X10160000Y-1333500D02*
X10160000Y-16446500D01*
X1968500Y-1270000D02*
X10096500Y-1270000D01*
X1905000Y-16446500D02*
X1905000Y-1333500D01*
X10096500Y-16510000D02*
X1968500Y-16510000D01*
D11*
D12*
X2186428Y-16980714D02*
X2186428Y-16680714D01*
X2257857Y-16680714D01*
X2300714Y-16695000D01*
X2329286Y-16723571D01*
X2343571Y-16752143D01*
X2357857Y-16809286D01*
X2357857Y-16852143D01*
X2343571Y-16909286D01*
X2329286Y-16937857D01*
X2300714Y-16966429D01*
X2257857Y-16980714D01*
X2186428Y-16980714D01*
X2486428Y-16980714D02*
X2486428Y-16780714D01*
X2486428Y-16837857D02*
X2500714Y-16809286D01*
X2515000Y-16795000D01*
X2543571Y-16780714D01*
X2572143Y-16780714D01*
X2672143Y-16980714D02*
X2672143Y-16780714D01*
X2672143Y-16680714D02*
X2657857Y-16695000D01*
X2672143Y-16709286D01*
X2686428Y-16695000D01*
X2672143Y-16680714D01*
X2672143Y-16709286D01*
X2857857Y-16980714D02*
X2829286Y-16966429D01*
X2815000Y-16937857D01*
X2815000Y-16680714D01*
X3015000Y-16980714D02*
X2986428Y-16966429D01*
X2972143Y-16937857D01*
X2972143Y-16680714D01*
X3357857Y-16980714D02*
X3357857Y-16680714D01*
X3457857Y-16895000D01*
X3557857Y-16680714D01*
X3557857Y-16980714D01*
X3829286Y-16980714D02*
X3829286Y-16823572D01*
X3815000Y-16795000D01*
X3786428Y-16780714D01*
X3729286Y-16780714D01*
X3700714Y-16795000D01*
X3829286Y-16966429D02*
X3800714Y-16980714D01*
X3729286Y-16980714D01*
X3700714Y-16966429D01*
X3686428Y-16937857D01*
X3686428Y-16909286D01*
X3700714Y-16880714D01*
X3729286Y-16866429D01*
X3800714Y-16866429D01*
X3829286Y-16852143D01*
X3972143Y-16780714D02*
X3972143Y-17080714D01*
X3972143Y-16795000D02*
X4000714Y-16780714D01*
X4057857Y-16780714D01*
X4086428Y-16795000D01*
X4100714Y-16809286D01*
X4115000Y-16837857D01*
X4115000Y-16923572D01*
X4100714Y-16952143D01*
X4086428Y-16966429D01*
X4057857Y-16980714D01*
X4000714Y-16980714D01*
X3972143Y-16966429D01*
X4243571Y-16952143D02*
X4257857Y-16966429D01*
X4243571Y-16980714D01*
X4229286Y-16966429D01*
X4243571Y-16952143D01*
X4243571Y-16980714D01*
X4243571Y-16795000D02*
X4257857Y-16809286D01*
X4243571Y-16823572D01*
X4229286Y-16809286D01*
X4243571Y-16795000D01*
X4243571Y-16823572D01*
M02*
